<svg width="80" height="80" viewBox="0 0 1381 539" fill="none" xmlns="http://www.w3.org/2000/svg">
<path d="M261.131 0.0361328C241.744 0.0361328 230.45 18.2623 230.45 44.3722V61.243V226.786V244.135C230.45 269.664 241.744 288.162 261.131 288.162C280.15 288.162 291.946 269.664 291.946 244.135V226.786V61.243V44.3722C291.946 18.2623 280.148 0.0361328 261.131 0.0361328Z" fill="#1756C2"/>
<path d="M405.311 79.1446H390.856V68.1874C390.856 55.8931 396.73 50.7142 412.27 52.8657C428.807 54.7405 432.524 41.9084 432.524 31.6566C432.524 23.7268 430.621 19.7004 425.605 12.6005C414.891 -0.354572 387.777 0.0296202 387.777 0.0296202C387.777 0.0296202 363.201 -1.35348 346.535 14.7827C329.936 30.4886 331.386 59.0865 331.386 59.0865V79.14H328.726C317.697 79.14 305.985 87.5155 305.985 104.697C305.985 122.002 319.272 129.934 329.935 129.934H331.384V249.156C331.384 269.659 341.695 288.158 362.026 288.158C382.774 288.158 390.854 270.24 390.854 250.311V129.934H405.309C413.3 129.934 429.17 125.185 429.17 105.7C429.17 85.4715 416.654 79.14 405.309 79.14" fill="#1756C2"/>
<path d="M578.738 72.541C568.793 72.541 560.84 77.9966 555.633 86.2645C546.066 78.1656 533.463 72.541 518.767 72.541C456.145 72.541 428.403 129.938 428.403 185.356C428.403 244.688 462.108 290.59 518.767 290.59C532.191 290.59 545.122 285.135 555.557 276.759C560.662 285.242 568.666 290.59 578.738 290.59C598.213 290.59 609.317 272.289 609.317 246.455V116.829C609.317 91.4403 598.212 72.541 578.738 72.541ZM489.223 182.493C489.223 135.283 508.014 126.912 520.63 126.912C521.134 126.912 521.764 126.912 522.205 126.912C536.711 128.295 548.134 140.083 548.134 184.537C548.134 228.277 535.757 237.038 522.921 237.911C522.165 237.911 521.787 237.911 520.98 237.911C506.573 237.911 489.218 229.535 489.218 182.493" fill="#1756C2"/>
<path d="M206.718 231.41C203.529 219.731 151.785 39.8659 149.215 31.3813C146.366 22.8522 143.745 16.6743 137.493 11.3448C127.157 1.78599 105.025 2.3546 105.025 2.3546C105.025 2.3546 83.1912 1.73989 72.6664 11.3448C66.5154 16.6774 63.8936 22.8552 61.1837 31.3813C58.5619 39.8643 6.82036 219.732 3.25328 231.41C0.354226 242.828 -2.15407 256.815 3.25328 268.216C9.19 278.897 18.9812 288.162 31.6361 288.162C44.4688 288.162 55.852 281.369 60.8194 262.318C65.6596 242.828 68.1931 233.302 68.1931 233.302H105.025H142.056C142.056 233.302 144.463 242.83 149.341 262.318C154.219 281.374 165.878 288.162 178.36 288.162C191.491 288.162 201.526 278.895 206.721 268.216C212.342 256.813 210.162 242.828 206.721 231.41H206.718ZM82.1059 171.351L105.025 80.131L128.013 171.351H82.1059Z" fill="#1756C2"/>
<path d="M1300.51 504.774H0V539H1300.51C1340.42 539 1373.84 503.234 1379.94 456.903C1362.06 486.055 1332.96 504.774 1300.51 504.774Z" fill="#EFCF00"/>
<path d="M1380.94 383.14V355.708H80.6702C36.2796 355.708 0 399.978 0 454.15V481.583H1300.51C1344.98 481.583 1380.94 437.245 1380.94 383.14Z" fill="#D60F27"/>
<path d="M875.059 70.3236C842.159 70.3236 810.17 124.034 798.827 144.814C799.331 140.081 800.176 132.858 801.991 124.603C804.386 110.925 806.465 91.5496 798.827 80.1313C794.352 73.5232 787.76 70.3267 778.911 70.3267C748.447 70.3267 718.347 117.71 705.479 140.897C707.004 134.12 708.819 125.637 710.042 120.736C712.033 109.333 715.966 91.5527 709.664 81.1917C705.908 74.7987 699.719 71.9249 690.947 71.9249C676.616 71.9249 660.671 80.1313 660.003 80.1313L656.751 81.914L659.726 84.0501C659.726 84.0501 664.112 89.3981 660.734 117.706C654.949 167.463 641.627 226.785 636.434 250.314C633.447 262.317 633.901 272.118 637.833 278.619C641.98 285.242 649.53 289.038 658.95 289.038C672.081 289.038 684.02 283.69 684.687 282.922L686.628 282.307L685.09 279.894C685.09 279.741 678.233 267.323 687.271 243.198C717.722 160.608 742.342 127.721 749.221 122.11C750.847 121.188 751.792 120.081 752.964 120.081C753.721 120.081 754.099 120.696 754.099 121.157C754.855 121.618 754.981 123.647 754.855 125.506C752.372 154.212 742.427 202.149 736.028 234.204C734.654 241.535 733.179 247.497 732.397 252.507C730.053 264.786 730.834 274.313 734.654 280.644C738.46 285.885 744.611 288.912 753.32 288.912C766.972 288.912 779.044 282.796 779.537 282.688L782.02 281.459L780.167 279.415C780.167 278.646 773.575 268.166 782.827 242.626C805.335 179.097 835.737 129.459 843.642 122.238C846.315 119.948 847.676 119.656 848.483 119.656C848.735 119.656 848.861 119.656 849.365 120.578C849.995 121.346 850.247 124.066 849.995 127.355C849.869 128.584 848.987 132.534 848.281 138.42C843.768 160.408 835.765 205.868 831.378 237.496C828.756 256.383 830.03 270.534 835.765 278.59C840.416 285.09 847.701 288.886 856.552 288.886C872.004 288.886 886.286 277.145 886.914 276.715L889.17 274.84L887.103 273.134C887.103 273.134 876.162 260.563 881.532 223.496C885.338 198.645 890.254 170.062 893.96 149.282C895.724 138.862 896.859 130.21 897.804 125.477L898.056 123.618C900.035 112.215 903.022 91.3929 894.93 79.5904C890.645 72.7671 884.179 70.1699 875.193 70.1699" fill="#D60F27"/>
<path d="M1067.32 72.5411C1057.98 72.5411 1050.38 75.5839 1045.18 81.731C1041.37 78.8726 1028.4 70.3281 1011.38 70.3281C1001.66 70.3281 987.376 72.5411 971.345 84.9275C953.546 98.3744 938.534 119.857 926.297 149.274C898.603 215.111 911.877 263.194 918.835 274.997C924.898 285.247 933.291 289.873 945.403 289.873C962.531 289.873 985.307 281.666 1020.05 215.111C1019.04 224.486 1017.89 237.654 1017.89 248.887C1017.89 285.139 1038.84 289.043 1047.48 289.043C1069.85 289.043 1077.65 276.318 1077.71 275.888L1078.59 274.505L1077.71 273.122C1077.46 272.661 1067.29 259.998 1073.98 192.565C1080.43 128.326 1098.72 84.0393 1098.72 83.4968L1099.61 81.7141L1098.05 80.4847C1097.42 80.1774 1082.34 72.5549 1067.34 72.5549L1067.32 72.5411ZM970.666 240.508C966.103 240.508 963.67 230.98 963.67 221.006C963.67 210.203 968.094 148.008 989.687 116.107C994.477 109.899 1000.17 105.98 1005.86 105.98C1019.69 105.98 1032.62 124.032 1035.82 128.678C1019.06 170.217 995.512 213.247 978.758 234.332C975.682 238.527 972.708 240.508 970.666 240.508Z" fill="#D60F27"/>
<path d="M1238.98 70.3232C1214.79 70.3232 1185.75 119.133 1173.46 141.773C1175.49 131.983 1178.47 117.55 1180.77 104.257C1182.36 94.2985 1181.27 86.5224 1178.11 81.2974C1173.95 75.5806 1167.09 72.5377 1157.5 72.5377C1143.78 72.5377 1127.2 79.8528 1126.61 80.1294L1124.2 81.3589L1126.33 83.5718C1126.33 83.8792 1130.8 91.6092 1128.04 118.767C1124.2 148.352 1108.76 222.116 1102.24 251.977C1099.26 263.979 1099.99 272.736 1103.61 278.96C1109.11 288.057 1119.83 289.102 1127.2 289.102C1139.74 289.102 1152.22 283.754 1152.76 282.986L1155.16 282.371L1153.72 279.959C1153.63 279.805 1147.75 268.371 1154.6 246.286C1173.08 189.427 1193.61 156.215 1205.94 144.814C1208.79 142.386 1211.69 140.895 1214.54 140.895C1221.3 140.895 1225.6 150.162 1225.6 150.162L1226.61 152.483L1228.11 150.608C1234.56 142.786 1246.08 126.184 1250.28 111.205C1253.18 102.23 1256.94 86.2612 1251.29 76.9959C1248.95 72.3702 1244.75 70.3263 1238.96 70.3263" fill="#D60F27"/>
<path d="M1378.64 97.0516C1371.86 99.9101 1355.19 101.785 1332.82 101.785C1330.3 101.785 1328.22 101.785 1326.82 101.785C1327.83 94.7311 1331.87 74.7975 1336.26 55.8982C1339.02 44.4953 1338.71 35.1348 1334.76 29.0783C1330.88 23.2847 1324.51 20.6875 1314.84 20.6875C1301.28 20.6875 1281.76 28.0794 1281 28.5097L1278.1 29.5855L1280.6 32.3517C1288.08 41.6953 1279.97 86.7229 1276.48 103.46C1276.1 104.382 1257.05 193.7 1257.05 236.387C1257.05 272.195 1273.14 289.945 1303.95 289.945C1318.32 289.945 1339.28 285.212 1353.37 270.321C1359.53 263.835 1362.24 254.57 1360.61 244.764C1359.73 237.725 1356.87 232.208 1356.87 231.932L1355.86 229.335L1354.06 231.379C1353.8 231.379 1347.46 238.986 1334.79 244.211C1330.02 245.916 1326.26 247.084 1322.38 247.084C1318.31 247.084 1314.88 245.041 1311.66 241.736C1304.53 232.808 1309.13 200.92 1310.66 190.668C1313.05 174.473 1318.91 144.335 1320.18 136.79C1322.4 136.79 1327.05 136.681 1333.02 136.681C1338.13 136.681 1342.51 136.79 1346.79 136.79C1373.31 137.404 1380.74 112.278 1381 99.0018V95.6824L1378.64 97.0516Z" fill="#D60F27"/>
</svg>
