<svg width="80" height="80" viewBox="0 0 1798 699" fill="none" xmlns="http://www.w3.org/2000/svg">
<g clip-path="url(#clip0_47_42)">
<path fill-rule="evenodd" clip-rule="evenodd" d="M192.426 0.54796C247.453 0.54796 302.539 0.54796 357.4 0.54796C371.896 0.54796 381.88 14.7758 384.46 39.021C384.628 41.6859 384.628 45.4938 384.628 48.3516C384.628 248.946 384.628 450.087 384.628 650.288C384.628 678.824 373.807 699 358.237 699C247.45 699 137.023 699 25.9872 699C10.5351 699 0.0155134 679.107 0.0155134 650.288C0.0155134 450.804 0.0692736 251.643 0.0155134 52.1585C-0.487819 21.2488 11.3068 -0.279983 28.0995 0.00275215C82.8783 0.841418 137.561 0.546602 192.423 0.546602L192.426 0.54796ZM328.22 229.054C319.076 262.084 305.054 284.673 287.736 302.223C284.783 305.111 283.474 305.909 282.518 298.931C278.961 279.038 274.918 259.428 270.958 240.363C262.972 200.032 255.741 159.186 247.082 119.057C242.267 98.9318 233.962 85.5117 222.485 79.867C207.15 72.0512 191.517 72.0512 175.697 74.717C154.638 78.7561 141.102 95.9831 134.005 133.941C120.599 206.474 106.033 278.836 91.9047 350.854C80.4791 408.645 69.3069 465.89 58.5877 523.65C55.5845 538.736 54.3262 554.65 56.2892 570.252C59.9131 600.626 76.8803 625.013 94.5589 626.154C114.529 627.991 128.669 610.785 134.322 578.037C137.912 558.346 141.888 538.221 144.422 518.328C146.1 503.242 150.613 493.568 157.341 486.298C158.012 484.157 159.22 483.441 160.713 482.006C180.866 458.074 203.482 451.611 227.241 450.087C230.06 450.087 230.06 453.752 230.429 457.276C236.804 497.607 242.827 537.191 249.98 577.209C254.61 605.433 264.945 621.034 281.366 625.356C306.03 632.313 333.28 594.668 328.645 543.896C327.638 536.05 326.531 526.629 325.272 518.843C318.125 483.955 311.263 448.117 304.515 413.451C303.844 408.412 303.844 404.121 305.69 400.627C313.139 386.863 317.887 371.292 321.964 353.54C330.386 313.492 328.893 271.535 328.289 229.053" fill="#E82E2D"/>
<path fill-rule="evenodd" clip-rule="evenodd" d="M1157.56 252.753C1170.01 244.342 1181.9 237.96 1194.97 238.192C1208.19 238.192 1215.84 251.925 1215.23 276.372C1215.23 295.235 1211.74 313.492 1209.28 330.961C1209.28 332.79 1208.44 334.94 1209.28 337.717C1215.84 320.681 1222.31 305.111 1229.97 291.145C1239.58 272.08 1249.75 255.136 1262.31 244.139C1268.94 238.192 1275.97 234.375 1282.9 234.698C1299.84 235.728 1308.26 252.753 1308.57 283.329C1308.9 300.587 1306.12 317.531 1304.31 334.445C1303.8 337.424 1303.8 340.403 1303.3 346.532C1307.39 337.111 1310.34 329.093 1313.83 320.682C1325.31 293.801 1338.31 267.557 1354.79 250.006C1364.03 240.05 1373.9 233.668 1384.85 235.526C1398.81 238.191 1406.08 252.753 1406.51 278.836C1407.18 298.436 1404.4 316.986 1402.65 336.283C1397.05 383.369 1391.34 430.365 1386.96 477.169C1385.79 494.083 1385.79 510.028 1388.14 525.598C1389.31 534.414 1391.33 541.432 1395.24 548.187C1382.49 562.436 1368.83 572.604 1353.4 566.959C1342.12 562.436 1336.05 547.672 1334.92 525.083C1334.09 502.212 1336.84 479.633 1339.05 457.276C1344.47 411.906 1349.71 367.798 1354.77 323.145C1355.28 319.965 1355.28 317.531 1355.28 314.845C1354.77 311.866 1353.6 310.866 1351.74 312.867C1349.02 314.553 1346.74 317.815 1344.94 322.339C1328.21 357.005 1315.03 396.306 1302.78 436.324C1296.71 456.56 1291.29 477.998 1286.42 498.719C1282.4 517.299 1278.28 536.596 1284.24 555.489C1285.42 558.346 1283.74 558.346 1282.9 559.751C1271.77 566.96 1260.27 571.575 1247.77 567.273C1236.88 562.952 1231.6 546.522 1233.63 524.256C1236.21 496.063 1240.79 469.152 1243.98 441.676C1249.28 404.122 1253.84 367.254 1256.8 329.094C1257.47 323.46 1260.04 316.189 1256.13 312.867C1253.12 310.01 1250.29 316.704 1248.17 320.683C1233.93 347.594 1223.41 378.756 1213.36 410.786C1204.59 438.818 1197.07 466.719 1189.74 496.063C1184.79 515.35 1181.37 534.415 1187.07 555.489C1188.25 558.346 1186.95 558.346 1186.07 559.751C1174.57 566.96 1162.61 572.09 1151.19 566.96C1137.06 561.326 1131.45 541.716 1135.67 513.805C1142.04 469.354 1148.65 426.387 1154.25 382.563C1158.14 349.704 1161.33 316.704 1162.61 282.523C1162.94 272.879 1164.12 260.569 1157.56 252.753Z" fill="#E82E2D"/>
<path fill-rule="evenodd" clip-rule="evenodd" d="M701.191 505.989C701.191 543.351 684.274 569.626 666.176 566.96C651.076 564.79 642.464 552.51 638.137 525.084C636.46 513.804 633.993 502.212 632.014 490.418C631.51 486.298 630.671 483.44 627.551 483.44C604.77 483.955 582.201 483.955 559.603 483.44C556.298 483.44 555.627 486.096 554.721 490.104C552.691 501.929 550.208 512.976 548.832 524.256C543.044 564.789 524.003 572.089 509.437 565.102C491.218 555.973 481.707 526.629 487.057 492.568C492.845 457.276 500.294 423.216 506.974 388.52C519.976 320.682 533.615 253.783 546.062 185.744C552.186 153.026 562.538 135.254 581.901 132.275C592.504 130.961 603.681 130.961 614.335 136.314C626.18 140.091 633.997 153.743 638.139 174.474C646.998 219.925 655.824 265.376 664.478 310.008C675.619 367.253 686.324 422.358 697.446 479.32C699.493 489.59 701.053 500.586 701.188 505.989L701.191 505.989ZM570.173 388.52C584.266 388.52 598.393 388.52 612.404 388.52C615.894 389.55 616.431 387.409 615.239 380.734C610.122 350.339 604.77 319.339 599.468 288.793C597.958 277.2 595.811 266.698 593.881 254.621H593.043C585.459 298.931 577.658 343.584 570.178 388.52" fill="#1560AA"/>
<path fill-rule="evenodd" clip-rule="evenodd" d="M1109.37 404.838C1109.04 442.503 1110.38 479.855 1109.04 516.985C1106.45 560.517 1083.65 584.51 1063.55 565.102C1060.08 562.153 1057.73 558.346 1055.63 554.65C1054.29 550.328 1053.1 550.843 1050.93 553.308C999.324 604.918 932.987 544.976 925.351 438.474C921.442 383.37 927.331 332.789 947.368 291.145C963.911 255.621 985.722 241.676 1010.33 238.192C1024.83 236.869 1038.6 242.797 1051.36 255.621C1053.1 257.762 1054.36 258.943 1056 255.137C1065.67 237.961 1076.97 234.184 1089.25 243C1101.45 250.3 1107.46 269.072 1109.04 292.257C1110.38 325.005 1109.37 357.863 1109.37 390.671C1109.37 396.306 1109.37 400.628 1109.37 404.839L1109.37 404.838ZM1018.13 490.104C1031.81 490.104 1038.82 480.431 1042.68 456.559C1046.71 436.04 1046.71 414.592 1046 392.811C1045.5 375.897 1044.49 360.811 1039.84 345.21C1036.67 333.102 1031.81 325.286 1024.11 323.146C1008.81 317.814 995.705 330.961 990.401 358.862C984.579 389.832 984.579 422.358 990.401 454.388C994.68 478.512 1004.48 490.104 1018.13 490.104Z" fill="#1161AB"/>
<path fill-rule="evenodd" clip-rule="evenodd" d="M1619.11 460.538C1610.45 480.663 1602.68 501.929 1593 519.651C1582.23 541.432 1570.5 560.81 1554.38 566.758C1547.17 569.423 1540.54 569.626 1533.94 567.273C1518.22 561.608 1510.42 541.715 1508.14 515.35C1503.33 471.02 1507.3 428.538 1515.73 387.692C1524.67 343.584 1539.05 305.111 1558.84 275.03C1583.02 238.192 1609.83 231.518 1639.54 253.784C1640.88 254.622 1642.96 258.944 1643.33 252.753C1645.15 232.234 1647.91 211.826 1646.76 190.58C1645.92 176.645 1645.92 176.645 1653.68 169.981C1662.53 162.68 1671.42 159.186 1681.47 159.984C1696.38 161.853 1704.02 178.453 1701.32 204.637C1698.01 235.011 1693.69 265.376 1690.03 294.922C1683.17 349.016 1676.59 401.97 1672.51 456.559C1670.4 486.298 1670.4 516.985 1677.92 544.694C1678.92 547.673 1678.08 548.672 1676.74 550.328C1663.92 568.626 1649.32 575.058 1633.8 564.304C1623.21 556.286 1618.39 539.564 1617.49 519.449C1616.48 500.384 1618.33 480.431 1619 460.538L1619.11 460.538ZM1561.36 457.276C1561.19 464.86 1561.36 472.847 1562.03 480.431C1563.37 495.426 1567.75 498.203 1574.11 488.792C1580.6 480.431 1584.93 468.869 1589.46 457.276C1604.12 423.408 1614.89 385.541 1627.09 350.339C1635.35 327.155 1634.72 325.004 1621.99 310.008C1621.82 309.201 1621.32 308.574 1621.15 307.887C1606.96 291.428 1595.04 295.235 1584.93 319.338C1583.02 323.145 1581.76 327.154 1580.6 331.759C1570.15 371.293 1562.99 412.623 1561.36 457.276Z" fill="#E82E2D"/>
<path fill-rule="evenodd" clip-rule="evenodd" d="M885.691 425.326C885.691 451.611 885.691 480.431 885.691 507.342C885.691 512.976 885.691 518.328 885.355 523.65C882.184 553.307 870.373 569.424 853.897 566.96C835.981 564.79 825.292 544.179 824.971 512.179C824.3 486.298 824.971 459.417 824.468 432.86C824.468 400.627 824.468 367.799 824.971 335.799C824.971 329.609 824.468 326.64 820.408 325.63C812.405 324.488 805.845 318.531 801.102 305.909C793.535 282.522 801.102 255.621 816.269 250.3C824.439 247.603 824.976 247.603 824.439 232.234C824.439 219.612 824.439 206.99 825.949 195.478C829.321 166.659 839.052 147.362 853.916 137.112C872.618 124.974 890.907 125.52 909.966 136.314C922.365 142.443 929.214 159.185 928.427 179.906C927.923 198.971 921.632 209.968 910.924 209.473C906.059 209.473 901.562 208.331 897.032 209.473C889.751 210.483 886.328 217.258 885.842 230.921C885.506 248.663 885.506 248.946 895.17 248.663C899.264 248.663 903.777 248.945 907.854 250.3C917.719 253.784 924.464 266.699 924.954 285.794C925.625 304.051 920.558 316.704 910.642 323.146C903.78 327.155 897.036 326.64 890.003 326.64C886.513 325.63 885.842 327.782 885.842 334.133C885.842 364.618 885.842 394.68 885.842 425.327" fill="#1260AA"/>
<path fill-rule="evenodd" clip-rule="evenodd" d="M721.677 348.704C721.677 294.922 721.509 241.676 721.677 187.895C721.677 159.186 731.609 136.315 744.841 130.448C764.208 121.198 780.396 142.444 783.752 178.453C784.087 184.946 784.591 191.217 784.591 198.174C784.591 298.093 784.591 397.85 784.591 497.607C784.591 505.989 784.087 514.521 782.728 522.913C778.45 551.358 767.276 568.081 751.76 567.273C736.946 566.446 725.636 548.471 722.515 519.651C721.509 511.664 721.509 502.212 721.509 494.426C721.509 445.765 721.509 396.507 721.509 348.704L721.677 348.704Z" fill="#1560AA"/>
<path fill-rule="evenodd" clip-rule="evenodd" d="M1769.28 546.835C1755.69 564.304 1741.43 572.09 1725.68 567.273C1713.77 564.304 1706.67 548.188 1706.07 524.801C1704.56 500.586 1708.3 476.967 1711.18 453.752C1716.42 408.928 1723.03 365.103 1727.36 319.965C1729.15 303.566 1730.12 286.016 1728.03 269.072C1728.03 266.699 1727.86 264.063 1727.19 262.084C1724.66 250.815 1724.66 250.815 1731.57 247.604C1743.43 241.676 1755.46 236.041 1767.89 238.192C1782.81 242.999 1788.64 258.944 1784.8 284.673C1779.8 317.814 1774.47 350.855 1770.36 384.43C1765.81 418.379 1761.77 451.612 1759.65 486.611C1759.53 496.063 1759.53 505.191 1759.99 513.805C1761.33 526.629 1763.24 537.908 1769.25 546.835" fill="#E82E2D"/>
<path fill-rule="evenodd" clip-rule="evenodd" d="M1443.78 292.256C1443.78 276.372 1442.94 265.891 1439.69 255.419C1439.02 252.754 1439.35 251.642 1441.03 250.299C1455.48 242.191 1470.14 235.011 1485.47 240.363C1497.08 244.14 1502.3 259.428 1499.13 281.694C1495.64 310.867 1491.14 338.424 1486.98 367.253C1481.87 404.838 1477.12 444.139 1474.35 482.612C1473.51 498.203 1473.85 513.804 1476.58 529.092C1477.42 532.071 1477.92 534.727 1478.86 537.908C1480.37 541.2 1482.89 544.976 1482.4 546.522C1481.4 552.197 1478.38 553.822 1476.33 555.489C1466.23 565.102 1456.18 570.252 1444.87 568.626C1428.46 565.617 1420.23 549.531 1419.92 518.843C1419.87 496.062 1423.18 473.191 1425.81 450.087C1430.88 405.666 1438.03 361.841 1442.36 316.703C1443.03 307.545 1443.36 297.093 1443.87 292.256" fill="#E82E2D"/>
<path fill-rule="evenodd" clip-rule="evenodd" d="M1490.2 130.447C1491.04 130.447 1492.13 130.447 1493.41 130.447C1509.09 132.273 1515.24 149.25 1511.14 176.645C1509.09 190.065 1504.95 198.174 1497.62 202.183C1488.76 206.475 1480.29 210.483 1470.91 208.615C1458.27 204.637 1454.67 196.538 1457.67 173.636C1459.35 164.306 1460.62 154.864 1457.67 144.928C1456.33 141.434 1459.35 141.949 1460.2 141.434C1470.12 133.941 1479.86 130.649 1490.2 130.448" fill="#E92D2E"/>
<path fill-rule="evenodd" clip-rule="evenodd" d="M1742.64 142.444C1756.23 133.942 1769.93 126.671 1784.02 131.993C1795.27 135.255 1799.95 150.25 1797.25 170.688C1795.58 186.895 1791.3 198.689 1781.13 202.668C1772.36 206.788 1763.7 210.484 1754.62 208.333C1743.97 203.809 1740.41 195.478 1743.43 176.444C1743.6 172.324 1744.1 168.002 1744.77 164.023C1745.78 157.005 1745.28 150.058 1742.61 142.444" fill="#E92D2E"/>
<path fill-rule="evenodd" clip-rule="evenodd" d="M328.22 229.053C328.891 271.535 330.317 313.492 321.895 353.54C317.818 371.292 313.07 386.863 305.621 400.627C303.859 404.121 303.859 408.412 304.446 413.451C311.191 448.117 318.053 483.955 325.203 518.843C326.378 526.629 327.502 536.05 328.576 543.896C333.206 594.668 305.961 632.313 281.298 625.356C264.873 621.034 254.538 605.433 249.911 577.209C242.763 537.191 236.74 497.607 230.361 457.276C230.026 453.752 230.026 450.086 227.174 450.086C203.415 451.612 180.799 458.074 160.646 482.006C159.136 483.44 157.894 484.156 157.273 486.297C150.545 493.568 145.965 503.242 144.355 518.328C141.821 538.221 137.845 558.346 134.254 578.037C128.6 610.785 114.462 627.991 94.4915 626.154C76.813 625.011 59.8492 600.626 56.2219 570.252C54.2589 554.65 55.5508 538.736 58.5204 523.65C69.2413 465.89 80.4135 408.645 91.8373 350.854C105.964 278.836 120.532 206.474 133.937 133.941C141.034 95.9831 154.57 78.7561 175.63 74.717C191.451 72.0521 207.088 72.0521 222.417 79.867C233.893 85.5117 242.203 98.932 247.015 119.057C255.672 159.186 262.903 200.032 270.891 240.363C274.851 259.428 278.894 279.038 282.451 298.931C283.457 305.909 284.716 305.111 287.669 302.223C304.986 284.673 319.014 262.084 328.153 229.053L328.22 229.053ZM164.021 390.347C178.232 367.799 193.498 353.54 209.792 343.897C213.349 342.554 211.302 338.424 210.799 335.798C205.145 302.415 199.86 269.384 193.954 236.324C193.786 233.375 193.786 230.205 191.689 227.71C182.663 281.492 173.683 334.445 164.006 390.347" fill="white"/>
<path fill-rule="evenodd" clip-rule="evenodd" d="M164.021 390.348C173.702 334.446 182.678 281.492 191.704 227.711C193.751 230.204 193.751 233.376 193.969 236.324C199.875 269.385 205.16 302.415 210.814 335.799C211.317 338.424 213.348 342.554 209.808 343.897C193.516 353.541 178.249 367.799 164.038 390.348" fill="#E92D2E"/>
</g>
<defs>
<clipPath id="clip0_47_42">
<rect width="1798" height="699" fill="white"/>
</clipPath>
</defs>
</svg>
