<svg width="80" height="80" viewBox="0 0 1000 379" fill="none" xmlns="http://www.w3.org/2000/svg">
<path d="M610.868 171.379C612.981 169.266 615.477 166.544 618.357 163.213C621.23 159.882 623.951 155.95 626.523 151.408C629.095 146.867 631.29 141.806 633.102 136.205C634.922 130.61 635.832 124.633 635.832 118.279C635.832 105.88 633.711 94.3079 629.478 83.5631C625.237 72.8258 618.733 63.4419 609.958 55.419C601.183 47.4111 590.221 41.1251 577.055 36.5835C563.896 32.0495 548.535 29.7787 530.992 29.7787H530.511H480.073H466.944H415.258V87.631V287.911V347.47H542.339C560.791 347.47 576.897 344.973 590.672 339.981C604.432 334.988 615.861 328.108 624.936 319.333C634.012 310.558 640.742 300.347 645.133 288.7C649.516 277.053 651.712 264.571 651.712 251.255C651.712 233.404 647.629 217.524 639.463 203.599C631.29 189.688 621.756 178.943 610.868 171.379ZM554.678 87.9919C558.956 89.6235 562.528 91.7439 565.317 94.4132C572.543 101.346 576.16 109.632 576.16 119.271C576.16 128.016 574.648 135.242 571.641 140.964C568.626 146.694 565.61 151.062 562.603 154.07H474.26V84.2398H529.173C539.466 84.2398 547.94 85.5105 554.678 87.9919ZM545.512 209.05C561.505 209.05 573.355 213.193 581.07 221.464C588.326 229.607 591.98 239.217 591.98 250.338C591.98 261.797 587.837 271.579 579.551 279.715C571.257 287.85 557.633 291.926 538.647 291.926H531.556H474.26V209.05H545.512Z" fill="#00529C"/>
<path d="M867.166 210.636C876.693 204.132 884.641 196.568 890.994 187.944C897.348 179.319 902.032 169.793 905.062 159.356C908.085 148.912 909.604 138.25 909.604 127.355C909.604 113.136 907.251 100.053 902.566 88.0971C897.867 76.1492 890.836 65.8631 881.46 57.2386C872.076 48.6142 860.354 41.8845 846.285 37.0422C832.217 32.2074 815.953 29.7787 797.501 29.7787H795.84H673.601H672.458V347.47H732.604V229.472H766.139L849.083 347.47H919.582L833.811 225.389C846.511 222.066 857.632 217.148 867.166 210.636ZM797.952 84.2398C801.735 84.2398 805.306 84.4879 808.705 84.9165C819.427 86.5331 828.187 90.3604 834.939 96.4434C844.127 104.737 848.722 114.903 848.722 126.949C848.722 132.986 847.737 138.859 845.782 144.581C843.819 150.31 840.736 155.356 836.518 159.717C832.292 164.093 826.871 167.627 820.247 170.341C813.615 173.056 805.629 174.409 796.291 174.409H732.604V84.2398H797.952Z" fill="#00529C"/>
<path d="M940.822 29.7787V29.869C940.213 29.8539 939.619 29.7787 939.01 29.7787H938.499V29.8013V146.25V229.69V347.47H999.825V29.7787H940.822Z" fill="#00529C"/>
<path d="M58.6206 378.229C51.2149 377.366 45.4597 375.615 38.5896 372.133C20.7271 363.082 7.33045 347.472 2.2773 329.82C-0.190049 321.205 -0.0537876 329.496 0.0404738 193.547L0.524564 64.4545C1.14116 55.8999 2.44116 50.3253 5.8837 41.4874C12.0864 25.5715 22.2362 14.4046 37.2149 7.01399C45.6395 2.85734 53.6903 0.766091 63.5322 0.176485C66.9347 -0.0257196 122.45 -0.0589729 194.922 0.101657C333.629 0.409689 322.169 0.176486 330.845 2.87246C334.837 4.11222 342.217 7.60711 346.728 10.3931C362.565 20.1751 374.035 36.0909 377.455 53.0337C378.127 56.3621 378.161 62.9555 378.161 187.012L377.459 321.951C375.217 336.209 368.579 348.629 356.984 360.265C347.903 369.378 339.521 374.396 328.393 377.384L324.348 378.469L192.958 378.523C120.694 378.553 60.2409 378.417 58.6206 378.229ZM113.451 339.366C119.116 337.439 126.121 332.706 131.843 326.937C136.338 322.407 139.865 317.492 142.318 312.342C145.173 306.348 145.871 303.457 146.108 296.652C146.452 286.74 145.016 278.478 141.768 271.644C137.863 263.431 132.734 257.383 109.294 233.343C84.0232 207.425 76.75 199.678 71.2814 192.855C69.6398 190.808 69.1957 189.974 69.3727 189.291C70.2154 186.061 78.8526 177.188 100.877 156.922C124.058 135.591 131.357 127.961 139.337 116.721C144.311 109.716 147.872 101.535 149.141 94.1986C149.921 89.6937 149.924 81.229 149.156 76.6823C147.49 66.9225 142.327 57.1797 135.521 50.9674C125.853 42.1429 116.366 38.0736 102.807 36.9362C96.9918 36.449 73.1634 36.7464 67.2685 37.3806C54.0916 38.7985 41.8463 48.0506 38.7347 58.9405C38.1145 61.1101 38.0549 67.7829 37.9269 148.996L38.1408 277.89C38.5226 323.775 38.3325 320.836 41.3075 325.485C43.3416 328.654 47.6286 333.196 50.6245 335.351C53.6204 337.507 56.4901 338.848 60.2537 339.855C63.0033 340.591 64.3975 340.627 86.7231 340.539L110.291 340.447L113.451 339.366ZM314.774 339.963C313.285 337.18 302.464 325.85 276.284 299.668C246.432 269.813 168.815 189.878 168.683 188.851C168.331 186.152 182.109 171.602 199.635 156.159C209.62 147.361 224.022 133.422 232.785 124.073C250.207 105.486 254.638 98.9645 256.211 89.5993C256.978 85.0383 256.901 74.5518 256.082 71.2439C255.172 67.5771 253.65 63.8311 251.718 60.4938C249.6 56.8404 241.777 48.8851 237.544 46.084C231.577 42.1358 224.284 39.0105 217.511 37.4973C214.221 36.7625 190.922 36.294 183.311 36.8097L178.571 37.1314L178.901 38.4059C179.094 39.1068 181.065 42.4281 183.308 45.7876C185.55 49.1471 188.088 53.3857 188.946 55.207C193.496 64.8608 195.614 76.8917 195.199 90.7225C194.862 101.944 193.248 108.542 188.44 118.35C181.755 131.987 172.765 142.546 152.897 160.102C141.308 170.342 131.997 179.663 127.667 185.357L124.631 189.351L147.504 213.584L181.155 249.745C190.575 261.101 195.271 271.237 197.091 284.14C197.952 290.238 197.86 301.875 196.899 307.453C195.441 316.012 192.281 323.488 186.416 332.256C184.563 335.024 182.61 338.047 182.072 338.973L181.093 340.656H248.115L314.767 339.963L314.774 339.963ZM341.287 202.456L339.688 69.9979C336.442 48.5111 327.725 39.4986 308.13 37.3717C303.51 36.8703 279.373 36.7696 279.373 37.2508C279.373 37.9749 282.061 41.7512 285.65 46.07C290.057 51.3711 292.095 54.2951 293.908 57.9191C297.948 65.9902 299.154 74.8049 298.275 89.7963C297.471 103.477 295.868 109.456 290.792 117.706C283.603 129.392 274.164 139.442 248.724 162.499C233.705 176.111 223.704 186.662 224.07 188.509C224.115 188.829 250.521 215.876 282.711 248.612L341.238 308.132L341.366 306.277C341.451 305.256 341.385 258.537 341.28 202.455L341.287 202.456Z" fill="#00529C"/>
</svg>
