<svg width="80" height="80" viewBox="0 0 1000 584" fill="none" xmlns="http://www.w3.org/2000/svg">
<path d="M289.032 0H449.332C422.649 60.0367 395.906 120.051 369.178 180.073C344.116 236.398 319.032 292.715 293.962 349.032C240.499 349.054 187.036 349.046 133.58 349.039C185.4 232.693 237.175 116.324 289.032 0Z" fill="#FFCA08"/>
<path d="M449.332 0H449.376C466.17 37.821 483.067 75.5979 499.853 113.426L499.971 113.69C488.518 138.672 477.579 163.888 466.339 188.966C453.404 217.894 440.572 246.875 427.652 275.811C424.923 281.621 422.729 287.682 419.604 293.294C402.781 255.561 385.994 217.806 369.178 180.073C395.906 120.051 422.649 60.0367 449.332 0Z" fill="#FA9D1C"/>
<path d="M550.396 0H550.44C577.153 60.0514 603.896 120.088 630.638 180.125C613.683 217.88 596.977 255.752 580.066 293.529C553.272 233.624 526.669 173.639 499.971 113.69L499.853 113.426C516.794 75.6567 533.588 37.821 550.396 0Z" fill="#9E9FA3"/>
<path d="M550.44 0H710.741C762.627 116.317 814.38 232.693 866.214 349.032C812.766 349.083 759.31 349.039 705.862 349.054C680.763 292.751 655.701 236.434 630.638 180.125C603.896 120.088 577.153 60.0514 550.44 0Z" fill="#636466"/>
<path d="M786.933 447.234C797.263 441.577 809.472 440.506 821.012 441.724C831.709 442.854 842.311 446.904 850.264 454.285C859.479 462.685 864.71 474.71 866.464 486.911C855.128 486.918 843.793 486.926 832.458 486.904C830.998 481.372 828.136 475.539 822.553 473.213C815.598 470.425 806.603 470.491 800.88 475.862C796.985 479.486 795.972 484.989 795.363 490.029C794.226 500.785 794.387 511.621 794.549 522.414C794.872 529.626 794.901 537.036 797.197 543.962C798.936 549.362 804.131 553.052 809.67 553.69C816.207 554.468 823.712 553.206 828.232 547.997C832.26 543.279 833.023 536.757 833.052 530.778C826.28 530.572 819.501 530.756 812.729 530.69C812.722 521.255 812.715 511.819 812.737 502.384C830.704 502.384 848.672 502.377 866.647 502.392C866.368 518.635 867.931 535.326 863.118 551.093C859.655 562.854 850.8 572.509 840.117 578.239C833.235 581.929 825.437 583.456 817.718 584.006H808.782C801.306 583.478 793.83 581.753 787.197 578.18C777.124 572.759 768.452 564.035 764.71 553.059C759.596 538.525 760.756 522.861 760.572 507.726C760.587 495.811 760.653 483.558 764.725 472.201C768.467 461.343 777.036 452.729 786.933 447.234Z" fill="#636466"/>
<path d="M0 444.006C12.9567 444.409 25.9428 444.065 38.9142 444.182C47.4468 444.343 56.1335 443.514 64.5048 445.613C73.3969 447.682 81.8269 452.759 86.7865 460.558C91.8048 468.349 93.2722 478.107 91.7975 487.161C90.0073 497.792 82.4138 507.271 72.2597 511.02C79.3397 513.749 85.7374 518.555 89.6258 525.15C95.2605 534.49 95.5759 546.214 92.766 556.53C90.2274 565.884 83.3015 573.83 74.4167 577.682C67.8943 580.638 60.6603 581.761 53.5363 581.746C35.6933 581.731 17.843 581.746 0 581.739V444.006ZM14.7542 457.381C14.7102 473.257 14.7469 489.127 14.7395 505.004C26.9479 505.026 39.1636 505.011 51.3793 505.011C58.9068 504.916 66.9479 502.766 72.135 496.992C77.146 491.453 78.3419 483.441 77.2267 476.266C76.449 471.13 73.8518 466.2 69.6992 463.008C64.5341 458.958 57.821 457.483 51.3793 457.388C39.1709 457.373 26.9626 457.395 14.7542 457.381ZM14.7469 518.217C14.7249 534.989 14.7322 551.761 14.7395 568.533C25.9648 568.54 37.1827 568.533 48.4079 568.54C53.0961 568.613 57.865 568.584 62.3918 567.175C69.1269 565.29 75.1357 560.462 77.7476 553.881C81.4453 544.497 80.2201 532.502 72.6706 525.326C66.8305 519.736 58.4079 517.982 50.5649 518.21C38.6207 518.225 26.6838 518.217 14.7469 518.217Z" fill="#636466"/>
<path d="M154.285 444.182C158.43 444.189 162.575 444.145 166.728 444.204C183.514 490.029 200.272 535.869 217.131 581.665C211.871 581.805 206.603 581.761 201.343 581.695C197.718 571.328 194.101 560.961 190.33 550.653C170.352 550.726 150.374 550.66 130.396 550.682C126.713 561.027 123.059 571.379 119.406 581.731C114.16 581.761 108.914 581.724 103.676 581.746C120.514 535.884 137.41 490.037 154.285 444.182ZM160.477 466.001C151.93 489.941 143.39 513.881 134.879 537.836C151.959 537.843 169.032 537.858 186.104 537.828C177.718 513.896 169.318 489.971 160.902 466.045C160.8 466.038 160.587 466.016 160.477 466.001Z" fill="#636466"/>
<path d="M231.533 444.19C236.185 444.16 240.836 444.182 245.495 444.182C269.802 480.749 294.079 517.337 318.393 553.903C318.452 517.322 318.379 480.749 318.437 444.168C323.331 444.168 328.232 444.212 333.133 444.146C333.316 490.008 333.162 535.877 333.206 581.739C328.54 581.739 323.881 581.739 319.215 581.739C294.879 545.055 270.631 508.313 246.288 471.629C246.244 508.335 246.273 545.033 246.273 581.732C241.365 581.754 236.449 581.732 231.541 581.739C231.526 535.892 231.541 490.044 231.533 444.19Z" fill="#636466"/>
<path d="M365.15 444.256C370.066 444.079 374.989 444.226 379.919 444.182C379.934 470.462 379.89 496.743 379.941 523.03C401.357 496.779 422.605 470.389 444.043 444.16C450.044 444.204 456.038 444.16 462.04 444.182C447.63 461.922 433.155 479.597 418.767 497.352C435.238 525.488 451.739 553.603 468.195 581.739C462.355 581.724 456.522 581.768 450.69 581.717C436.779 557.337 422.788 533.001 408.863 508.628C399.582 519.641 390.433 530.771 381.167 541.798C380.624 542.553 379.707 543.265 379.919 544.329C379.919 556.801 379.912 569.267 379.919 581.739C375.011 581.746 370.103 581.739 365.187 581.739C365.158 535.914 365.238 490.081 365.15 444.256Z" fill="#636466"/>
<path d="M491.071 581.731C491.145 535.884 490.939 490.022 491.174 444.182C502.245 444.343 513.324 444.16 524.402 444.277C534.607 464.46 544.93 484.593 555.165 504.769C565.532 484.629 575.723 464.402 586.038 444.24C597.139 444.248 608.239 444.233 619.347 444.248C619.34 490.08 619.347 535.906 619.34 581.739C608.056 581.746 596.764 581.739 585.481 581.739C585.437 558.885 585.525 536.031 585.437 513.169C579.061 524.314 572.7 535.466 566.295 546.595C564.079 550.403 559.817 552.949 555.385 552.905C550.902 553.066 546.478 550.616 544.204 546.764C537.726 535.634 531.46 524.38 524.952 513.272C524.938 536.097 524.952 558.921 524.938 581.739C513.646 581.731 502.362 581.753 491.071 581.731Z" fill="#636466"/>
<path d="M647.593 444.248C678.775 444.233 709.956 444.24 741.13 444.248C741.166 454.255 741.071 464.27 741.181 474.277C721.284 474.527 701.372 474.292 681.467 474.394C681.46 482.032 681.453 489.662 681.467 497.3C698.467 497.322 715.458 497.3 732.458 497.315C732.45 507.381 732.45 517.439 732.458 527.505C715.458 527.535 698.459 527.483 681.467 527.527C681.46 535.546 681.453 543.573 681.467 551.592C701.357 551.614 721.24 551.592 741.13 551.599C741.137 561.651 741.137 571.695 741.13 581.739C709.949 581.739 678.775 581.746 647.601 581.739C647.586 535.906 647.586 490.08 647.593 444.248Z" fill="#636466"/>
<path d="M923.639 444.248C932.37 444.27 941.108 444.167 949.846 444.299C961.541 476.75 973.412 509.134 985.173 541.555C990.176 554.93 994.71 568.496 1000 581.761C988.313 581.709 976.625 581.768 964.945 581.731C962.693 574.908 960.47 568.085 958.188 561.269C943.845 561.284 929.494 561.196 915.151 561.313C912.986 568.144 910.69 574.93 908.452 581.739C896.845 581.746 885.239 581.739 873.639 581.739C890.279 535.899 906.963 490.073 923.639 444.248ZM936.647 494.197C932.502 507.366 928.291 520.514 924.138 533.676C932.509 533.698 940.888 533.683 949.274 533.683C945.055 520.521 941.027 507.3 936.647 494.197Z" fill="#636466"/>
<path d="M499.971 113.69C526.669 173.639 553.272 233.624 580.066 293.529C572.891 309.296 560.844 322.766 546.075 331.812C524.197 345.4 496.251 348.481 471.871 340.272C448.951 332.729 429.523 315.297 419.604 293.294C422.729 287.682 424.923 281.621 427.652 275.811C440.572 246.875 453.404 217.894 466.339 188.966C477.579 163.889 488.518 138.672 499.971 113.69Z" fill="#F37022"/>
</svg>
