<svg width="80" height="80" viewBox="0 0 1175 489" fill="none" xmlns="http://www.w3.org/2000/svg">
<g filter="url(#filter0_d_43_53)">
<path d="M175.953 365.096C175.953 345.925 176.112 294.683 175.752 288.369C176.066 212.119 133.911 158.332 107.279 162.525C88.8508 164.628 73.4066 174.51 65.1141 202.939C57.4283 229.434 64.2997 264.675 89.8532 272.945C117.177 281.826 133.133 289.215 144.679 299.639C158.828 312.401 170.378 336.784 170.685 365.126" fill="#0060AF"/>
<path d="M186.861 481C138.682 481 89.1673 465.394 39.7188 434.528L38.5055 433.743L37.9252 432.117C15.7348 370.515 4 303.138 4 237.218C4 171.397 15.2534 106.903 37.4602 45.3838L38.0702 43.749L39.3067 42.9337C85.0491 14.4356 134.257 0 185.608 0C233.444 0 284.531 16.0703 333.324 46.5546L334.576 47.2874L335.153 48.9525C357.769 111.69 369.695 179.05 369.695 243.878C369.695 308.454 358.244 373.005 335.602 435.703L335.005 437.351L333.746 438.114C288.702 466.157 237.905 481 186.861 481ZM44.2954 426.081C92.3327 455.797 140.241 470.806 186.861 470.806C236.293 470.806 285.454 456.595 329.215 429.658C350.954 368.902 361.973 306.373 361.973 243.878C361.973 181.132 350.472 115.862 328.717 54.9713C281.366 25.6969 231.914 10.173 185.608 10.173C135.892 10.173 88.2408 24.0405 43.8799 51.3982C22.5865 111.027 11.7485 173.508 11.7485 237.218C11.7485 301.048 23.0118 366.344 44.2954 426.081Z" fill="#0060AF"/>
<path d="M164.535 365.125C164.624 340.551 154.195 318.822 140.564 307.144C128.474 296.824 112.241 290.042 86.0548 281.308C77.9601 278.585 69.4928 272.536 66.8715 264.826C59.9374 274.015 58.6779 294.673 59.8979 306.745C61.3157 320.717 73.7297 343.742 92.4217 344.645C103.837 345.247 118.269 341.414 125.19 339.48C137.129 336.089 156.019 345.924 159.026 365.095" fill="#0060AF"/>
<path d="M185.608 43.6885C153.915 43.6885 126.538 71.1763 126.637 118.741C126.736 158.739 151.195 180.152 159.922 195.446C173.111 218.493 180.25 245.773 180.992 287.515C181.569 320.735 181.539 353.539 181.668 365.165H188.664C188.542 353.001 188.226 318.177 188.588 286.487C189.063 244.732 196.459 218.493 209.654 195.446C218.458 180.152 242.897 158.739 242.95 118.741C243.068 71.1763 215.708 43.6885 184.042 43.6885" fill="#0060AF"/>
<path d="M193.653 365.096C193.653 345.925 193.488 294.683 193.841 288.369C193.531 212.119 235.66 158.332 262.315 162.525C280.743 164.628 296.171 174.51 304.486 202.939C312.165 229.434 305.254 264.675 279.731 272.945C252.393 281.826 236.458 289.215 224.881 299.639C210.749 312.401 200.007 336.784 199.677 365.126" fill="#0060AF"/>
<path d="M205.065 365.125C204.966 340.551 215.392 318.822 228.983 307.144C241.123 296.824 257.375 290.042 283.539 281.308C291.65 278.585 300.107 272.536 302.683 264.826C309.65 274.015 310.906 294.673 309.686 306.745C308.238 320.717 295.857 343.742 277.198 344.645C265.787 345.247 251.279 341.414 244.388 339.48C232.495 336.089 213.552 345.924 210.532 365.095" fill="#0060AF"/>
<path d="M972.052 81.2494L926.933 188.95C909.903 170.764 889.107 157.377 862.574 157.377C799.785 157.377 774.281 218.931 774.281 262.29C774.281 294.474 790.306 341.961 846.174 341.961C869.624 341.961 902.962 320.505 912.557 310.744L867.932 435.695C846.662 441.275 839.675 444.736 821.669 445.469C721.674 449.393 681.266 368.608 681.296 286.057C681.362 176.93 755.137 44.213 877.438 44.213C884.933 44.213 894.099 47.6214 901.937 51.3983L909.856 38.0771" fill="#0060AF"/>
<path d="M1158.22 41.4551L1171 432.902H1075.91L1075.86 365.767H1011.02L989.682 432.902H886.561L994.371 153.375L970.06 153.167L1016.25 41.4551H1158.22ZM1075.24 161.207L1038.58 275.065H1076.35" fill="#0060AF"/>
<path d="M621.267 41.455C668.355 41.8019 694.963 75.4169 694.963 123.975C694.963 168.739 666.901 208.364 636.095 228.853C667.811 244.186 670.554 281.825 670.554 308.454C670.554 372.788 621.468 432.902 557.664 432.902H418.514L472.793 157.269L450.497 157.1L496.075 41.455C496.075 41.455 582.976 41.108 621.267 41.455ZM575.07 200.164C584.81 200.164 602.008 196.92 606.308 172.129C611.019 145.219 594.879 144.494 587.138 144.494L559.474 144.335L549.826 200.165L575.07 200.164ZM535.958 269.337L523.221 333.67H555.794C568.61 333.67 586.076 325.305 590.356 304.369C594.583 283.373 582.373 269.337 569.603 269.337" fill="#0060AF"/>
</g>
<defs>
<filter id="filter0_d_43_53" x="0" y="0" width="1175" height="489" filterUnits="userSpaceOnUse" color-interpolation-filters="sRGB">
<feFlood flood-opacity="0" result="BackgroundImageFix"/>
<feColorMatrix in="SourceAlpha" type="matrix" values="0 0 0 0 0 0 0 0 0 0 0 0 0 0 0 0 0 0 127 0" result="hardAlpha"/>
<feOffset dy="4"/>
<feGaussianBlur stdDeviation="2"/>
<feComposite in2="hardAlpha" operator="out"/>
<feColorMatrix type="matrix" values="0 0 0 0 0 0 0 0 0 0 0 0 0 0 0 0 0 0 0.25 0"/>
<feBlend mode="normal" in2="BackgroundImageFix" result="effect1_dropShadow_43_53"/>
<feBlend mode="normal" in="SourceGraphic" in2="effect1_dropShadow_43_53" result="shape"/>
</filter>
</defs>
</svg>
