<svg width="100" height="40" viewBox="0 0 490 512" fill="none" xmlns="http://www.w3.org/2000/svg">
<path d="M245 512C380.31 512 490 397.385 490 256C490 114.615 380.31 0 245 0C109.69 0 0 114.615 0 256C0 397.385 109.69 512 245 512Z" fill="#E88102"/>
<path d="M245 485C378.929 485 487.5 376.429 487.5 242.5C487.5 108.571 378.929 0 245 0C111.071 0 2.5 108.571 2.5 242.5C2.5 376.429 111.071 485 245 485Z" fill="#FDD835"/>
<path d="M341.8 20.0996L22.5999 339.2C11.8999 314.7 5.19995 288.1 3.19995 260.2L262.7 0.599609C290.6 2.69961 317.2 9.39961 341.8 20.0996ZM456.3 123.5L126 453.8C105.4 442.2 86.8 427.7 70.5 410.8L413.4 67.9996C430.2 84.1996 444.7 102.9 456.3 123.5ZM403.5 58.8996L61.5 400.9C56.2 394.7 51.1 388.2 46.4 381.5L384.1 43.7996C390.8 48.4996 397.3 53.5996 403.5 58.8996ZM479.9 182L184.5 477.4C175.6 475.1 166.9 472.3 158.4 469.1L471.6 155.9C474.8 164.4 477.6 173.1 479.9 182Z" fill="white" fill-opacity="0.313726"/>
<path d="M487.5 242.5C487.5 244.2 487.5 245.8 487.4 247.5C484.8 115.9 377.3 10 245 10C112.7 10 5.2 115.9 2.6 247.5C2.6 245.8 2.5 244.2 2.5 242.5C2.5 108.6 111.1 0 245 0C378.9 0 487.5 108.6 487.5 242.5Z" fill="white" fill-opacity="0.313726"/>
<path d="M442 253C442 357.9 356.9 443 252 443C193.1 443 140.4 416.1 105.5 374C140.2 411.5 189.8 435 245 435C349.9 435 435 349.9 435 245C435 199 418.7 156.9 391.5 124C422.8 157.9 442 203.2 442 253Z" fill="white" fill-opacity="0.313726"/>
<path d="M245 435C349.934 435 435 349.934 435 245C435 140.066 349.934 55 245 55C140.066 55 55 140.066 55 245C55 349.934 140.066 435 245 435Z" fill="#F39E09"/>
<path d="M389 121C355.7 92.3 312.4 75 265 75C160.1 75 75 160.1 75 265C75 312.4 92.3 355.7 121 389C80.6 354.1 55 302.6 55 245C55 140.1 140.1 55 245 55C302.5 55 354.1 80.6 389 121Z" fill="#E88102"/>
<path d="M233.1 196.6C229.7 200.5 227.9 205.9 227.9 212.8C227.9 219.7 229.9 225.4 233.9 229.5C237.9 233.6 244.3 237.5 253.1 241.3C261.9 245 270.2 248.9 278 252.9C285.8 256.9 292.5 261.5 298.2 266.6C303.9 271.7 308.3 277.7 311.5 284.5C312.7 287.1 316.3 292 316.3 292V309.1C316.3 325.3 311.2 338.5 300.9 348.7C290.6 358.9 276.7 364.9 259 366.6V395H236.4V366.3C215.8 364.1 200 357.1 188.9 345.1C177.9 333.1 172.4 317.4 172.4 297.8V282.8L220.2 297.8C220.2 308.6 222.6 316.8 227.4 322.4C232.2 328 239 330.8 247.8 330.8C254.2 330.8 259.3 328.9 263 325C266.7 321.1 268.5 315.9 268.5 309.2C268.5 301.7 266.7 295.9 263 291.6C259.3 287.3 252.8 283.3 243.6 279.5C234.3 275.7 225.8 271.9 217.9 268C210 264.1 203.3 259.6 197.6 254.5C191.9 249.4 187.6 243.5 184.5 236.8C181.5 230.1 180 222 180 212.4V196.5C180 196.5 188.9 179.8 196.2 172.9C207 162.5 221.4 156.5 239.3 154.8V125H261.9V155.5C279.2 158.1 292.8 165.2 302.7 176.9C309.5 184.9 317.5 206.4 317.5 206.4V221.4H269.5C269.5 211.6 267.6 204 263.8 198.7C260 193.4 254.6 190.8 247.6 190.8C241.4 190.7 236.6 192.7 233.1 196.6Z" fill="#DB6704"/>
<path d="M268.5 294.3C268.5 286.8 266.7 281 263 276.7C259.3 272.4 252.8 268.4 243.6 264.6C234.3 260.8 225.8 257 217.9 253.1C210 249.2 203.3 244.7 197.6 239.6C191.9 234.5 187.6 228.6 184.5 221.9C181.5 215.2 180 207 180 197.5C180 181.5 185.4 168.3 196.2 158C207 147.7 221.4 141.6 239.3 139.9V110H261.9V140.5C279.2 143.1 292.8 150.2 302.7 161.9C312.6 173.6 317.5 188.4 317.5 206.4H269.5C269.5 196.6 267.6 189 263.8 183.7C260 178.4 254.6 175.8 247.6 175.8C241.4 175.8 236.5 177.8 233.1 181.7C229.7 185.6 227.9 191 227.9 197.9C227.9 204.8 229.9 210.5 233.9 214.6C237.9 218.7 244.3 222.6 253 226.4C261.8 230.1 270.1 234 277.9 238C285.7 242 292.4 246.6 298.1 251.7C303.8 256.8 308.2 262.8 311.4 269.6C314.6 276.4 316.2 284.6 316.2 294.1C316.2 310.3 311.1 323.5 300.8 333.7C290.5 343.9 276.6 349.9 258.9 351.6V380H236.3V351.3C215.7 349.1 199.9 342.1 188.8 330.1C177.8 318.1 172.3 302.4 172.3 282.8H220.1C220.1 293.6 222.5 301.8 227.3 307.4C232.1 313 238.9 315.8 247.7 315.8C254.1 315.8 259.2 313.9 262.9 310C266.6 306.1 268.5 301 268.5 294.3Z" fill="#FDD835"/>
<path d="M196.2 158C202 152.4 208.9 148.1 216.8 145L182.9 179C185.5 171 189.9 164.1 196.2 158ZM251.8 110L239.3 122.5V110H251.8ZM311.1 268.7L229.4 350.4C212.2 347.5 198.7 340.7 189 330.2C182.7 323.3 178.2 315.2 175.5 305.9L198.5 282.9H220.3C220.3 293.7 222.7 301.9 227.5 307.5C232.3 313.1 239.1 315.9 247.9 315.9C254.3 315.9 259.4 314 263.1 310.1C266.8 306.2 268.6 301 268.6 294.3C268.6 286.8 266.8 281 263.1 276.7C259.4 272.4 252.9 268.4 243.7 264.6C237.1 261.9 230.9 259.2 225 256.4L254.6 226.8C262.9 230.4 270.7 234 278.1 237.8C285.9 241.8 292.6 246.4 298.3 251.5C303.7 256.5 308 262.2 311.1 268.7ZM317.5 206.3H275L309.5 171.8C314.8 181.6 317.5 193.1 317.5 206.3ZM172.5 282.8H179.6L172.8 289.6C172.6 287.4 172.5 285.1 172.5 282.8ZM233.9 214.5C235.9 216.6 238.5 218.6 241.8 220.6L212.2 250.2C206.7 247.1 201.8 243.6 197.6 239.7C195.9 238.2 194.4 236.6 193 235L228.1 199.9C228.4 205.9 230.4 210.8 233.9 214.5ZM301.7 160.7L268.3 194.1C267.4 190 265.9 186.5 263.9 183.7C260.9 179.5 256.9 177 251.9 176.1L281.8 146.2C289.5 149.7 296.1 154.5 301.7 160.7ZM247.4 380L259 368.4V380H247.4ZM313.2 314.2C310.7 321.6 306.6 328 301 333.6C295.4 339.2 288.7 343.5 280.9 346.5L313.2 314.2Z" fill="white" fill-opacity="0.313726"/>
<path d="M403.5 140.1C280.5 183.3 181.7 278.2 133.3 398.7C129.1 395.6 125 392.4 121 388.9C92.3 355.6 75 312.3 75 265C75 160.1 160.1 75 265 75C312.4 75 355.7 92.3 388.9 121C394.2 127.1 399 133.5 403.5 140.1Z" fill="white" fill-opacity="0.145098"/>
</svg>
