<svg width="80" height="80" viewBox="0 0 1033 373" fill="none" xmlns="http://www.w3.org/2000/svg">
<path fill-rule="evenodd" clip-rule="evenodd" d="M408.336 282.908C427.969 284.684 450.847 265.423 458.905 254.426C486.921 216.143 487.597 160.783 459.392 120.69C448.9 105.766 424.237 89.2708 408.634 91.593H352.143V282.669L408.472 282.908H408.336ZM383.998 241.517V132.745C392.841 132.013 401.712 132.013 410.554 132.745C417.511 133.764 424.148 137.008 429.835 142.171C462.285 170.175 448.764 236.941 410.013 241.415C401.353 242.183 392.662 242.218 383.998 241.517Z" fill="#008CEB"/>
<path fill-rule="evenodd" clip-rule="evenodd" d="M904.262 283.25H936.469V242.064H1000.37L1000.56 283.046H1032.77V215.153C1032.77 194.662 1034.12 169.117 1030.06 150.573C1026.38 133.596 1018.4 118.607 1007.34 107.893C996.28 97.1784 982.749 91.3265 968.811 91.2297C954.873 91.133 941.292 96.7968 930.141 107.357C918.989 117.917 910.879 132.795 907.047 149.719C902.721 168.024 904.181 194.286 904.181 214.606C904.181 237.556 903.991 260.642 904.181 283.592L904.262 283.25ZM936.496 200.639C936.307 183.563 934.874 165.292 941.228 152.144C944.018 146.09 948.027 141.078 952.848 137.617C957.67 134.156 963.131 132.369 968.676 132.439C974.193 132.49 979.605 134.348 984.383 137.832C989.161 141.316 993.141 146.306 995.935 152.315C1002.21 165.975 1000.72 183.051 1000.56 200.673L936.496 200.639Z" fill="#008CEB"/>
<path fill-rule="evenodd" clip-rule="evenodd" d="M535.948 283.217H568.047C568.047 274.611 567.182 248.28 568.345 242.031H632.002L632.218 283.183H664.371C664.209 260.37 664.371 237.591 664.371 214.88C664.371 195.414 665.804 167.547 661.667 150.266C657.959 133.312 649.967 118.351 638.907 107.661C627.846 96.9719 614.323 91.1388 600.395 91.0499C586.468 90.9609 572.898 96.6211 561.753 107.169C550.607 117.717 542.495 132.574 538.652 149.481C534.353 167.239 535.813 194.39 535.813 214.163C535.813 236.976 535.407 260.37 535.813 283.115L535.948 283.217ZM568.074 200.639C567.858 183.564 566.479 165.054 572.834 152.179C575.622 146.141 579.615 141.132 584.415 137.65C589.214 134.169 594.652 132.337 600.187 132.337C605.721 132.337 611.159 134.169 615.959 137.65C620.758 141.132 624.751 146.141 627.54 152.179C633.841 165.839 632.326 183.188 632.218 200.571L568.074 200.639Z" fill="#008CEB"/>
<path fill-rule="evenodd" clip-rule="evenodd" d="M720.862 166.214L720.403 194.662C720.403 218.568 719.483 263.203 720.403 282.635H751.88C752.61 268.975 750.744 171.951 752.718 168.843C752.718 149.992 768.321 132.438 784.06 132.37C792.241 132.308 800.118 136.277 806.018 143.435C810.02 148.045 816.159 158.564 816.051 169.185C817.511 170.244 816.348 271.639 816.808 282.874H848.312L848.068 166.931C848.853 157.847 844.526 143.811 841.741 136.707C836.575 123.172 828.512 111.734 818.465 103.689C808.417 95.6427 796.787 91.3106 784.89 91.1826C772.993 91.0546 761.306 95.136 751.151 102.965C740.997 110.793 732.781 122.056 727.434 135.478C724.729 142.479 720.186 156.89 720.862 166.214Z" fill="#008CEB"/>
<path d="M147.677 373C229.237 373 295.354 289.501 295.354 186.5C295.354 83.4989 229.237 0 147.677 0C66.1173 0 0 83.4989 0 186.5C0 289.501 66.1173 373 147.677 373Z" fill="#008CEB"/>
<path d="M233.725 187.285V239.775C233.725 243.191 232.562 243.908 230.291 242.234C227.252 239.932 224.089 237.9 220.826 236.155C210.97 231.197 200.295 229.402 189.755 230.93C178.251 232.815 166.961 236.391 156.114 241.585C145.297 246.196 134.697 251.182 123.664 255.041C114.525 258.468 105.015 260.047 95.4857 259.72C84.925 259.202 74.6613 255.161 65.7394 248.006C64.6184 247.153 63.6986 245.937 63.0757 244.484C62.4527 243.03 62.1493 241.393 62.1969 239.741C62.1969 205.362 62.1969 170.983 62.1969 136.605C62.1969 134.931 62.1969 132.95 63.3867 132.097C64.5766 131.243 65.7935 132.643 66.8211 133.497C76.5094 141.77 87.984 146.064 99.6773 145.791C108.038 145.358 116.307 143.414 124.232 140.02C135.481 135.614 146.352 129.774 157.412 124.822C166.022 120.644 174.85 117.221 183.832 114.577C191.542 112.297 199.541 112.058 207.328 113.874C215.114 115.69 222.518 119.522 229.074 125.13C230.577 126.293 231.808 127.94 232.639 129.903C233.471 131.866 233.874 134.073 233.806 136.297C233.806 153.373 233.806 170.448 233.806 187.524L233.725 187.285Z" fill="#FEFEFE"/>
</svg>
