<svg width="70" height="70" viewBox="0 0 512 512" fill="none" xmlns="http://www.w3.org/2000/svg">
<path d="M256 508C395.176 508 508 395.176 508 256C508 116.824 395.176 4 256 4C116.824 4 4 116.824 4 256C4 395.176 116.824 508 256 508Z" fill="#029BC5"/>
<path d="M256 512C205.368 512 155.873 496.986 113.774 468.856C71.6751 440.727 38.863 400.745 19.487 353.967C0.11092 307.189 -4.95873 255.716 4.91908 206.057C14.7969 156.398 39.1785 110.783 74.9808 74.9808C110.783 39.1785 156.398 14.7969 206.057 4.91908C255.716 -4.95873 307.189 0.11092 353.967 19.487C400.745 38.863 440.727 71.6751 468.856 113.774C496.986 155.873 512 205.368 512 256C511.924 323.872 484.928 388.942 436.935 436.935C388.942 484.928 323.872 511.924 256 512ZM256 8.00012C206.95 8.00012 159.002 22.5451 118.219 49.7957C77.4353 77.0462 45.6485 115.779 26.878 161.095C8.10746 206.411 3.19623 256.275 12.7654 304.383C22.3345 352.49 45.9542 396.679 80.6376 431.363C115.321 466.046 159.51 489.666 207.618 499.235C255.725 508.804 305.59 503.893 350.906 485.122C396.222 466.352 434.954 434.565 462.205 393.782C489.455 352.998 504 305.05 504 256C503.926 190.249 477.774 127.212 431.281 80.7195C384.788 34.2265 321.751 8.07422 256 8.00012Z" fill="#2F3A5A"/>
<path d="M256 474.791C376.835 474.791 474.792 376.835 474.792 255.999C474.792 135.164 376.835 37.207 256 37.207C135.165 37.207 37.208 135.164 37.208 255.999C37.208 376.835 135.165 474.791 256 474.791Z" fill="#E1E6E9"/>
<path d="M256 478.799C211.934 478.799 168.858 465.732 132.219 441.251C95.5797 416.769 67.0228 381.973 50.1596 341.261C33.2964 300.55 28.8842 255.752 37.481 212.533C46.0778 169.314 67.2975 129.615 98.4566 98.4559C129.616 67.2968 169.315 46.0771 212.534 37.4804C255.753 28.8836 300.551 33.2958 341.262 50.159C381.973 67.0222 416.77 95.579 441.251 132.218C465.733 168.858 478.8 211.934 478.8 255.999C478.734 315.069 455.24 371.701 413.471 413.47C371.702 455.239 315.07 478.734 256 478.799ZM256 41.1993C213.517 41.1993 171.987 53.7971 136.664 77.3996C101.34 101.002 73.8084 134.549 57.5507 173.799C41.293 213.048 37.0392 256.238 45.3273 297.905C53.6154 339.572 74.0731 377.846 104.113 407.886C134.154 437.926 172.427 458.384 214.095 466.672C255.762 474.96 298.951 470.706 338.2 454.449C377.45 438.191 410.997 410.659 434.6 375.336C458.202 340.012 470.8 298.483 470.8 255.999C470.738 199.05 448.087 144.451 407.818 104.182C367.548 63.9125 312.949 41.2618 256 41.1993Z" fill="#2F3A5A"/>
<path d="M253.536 46.6992H258.46V72.0712H253.536V46.6992ZM253.536 439.927H258.46V465.299H253.536V439.927ZM220.736 49.7072L225.6 48.9392L229.56 74.0072L224.696 74.7752L220.736 49.7072ZM282.1 438.239L286.964 437.475L290.924 462.539L286.056 463.307L282.1 438.239ZM188.684 57.5872L193.364 56.0672L201.204 80.1952L196.524 81.7152L188.684 57.5872ZM310.188 431.555L314.868 430.035L322.708 454.163L318.028 455.683L310.188 431.555ZM158.348 70.4872L162.736 68.2552L174.256 90.8592L169.868 93.0952L158.348 70.4872ZM336.876 420.855L341.264 418.619L352.784 441.227L348.396 443.463L336.876 420.855ZM130.416 87.9512L134.4 85.0552L149.32 105.583L145.336 108.479L130.416 87.9512ZM361.612 406.027L365.596 403.131L380.516 423.659L376.532 426.551L361.612 406.027ZM105.5 109.631L108.98 106.151L126.92 124.087L123.44 127.567L105.5 109.631ZM383.496 387.687L386.976 384.207L404.916 402.143L401.436 405.623L383.496 387.687ZM84.36 134.935L87.252 130.951L107.78 145.871L104.884 149.855L84.36 134.935ZM402.552 366.127L405.444 362.143L425.972 377.063L423.076 381.047L402.552 366.127ZM67.372 163.183L69.608 158.795L92.216 170.315L89.976 174.703L67.372 163.183ZM417.744 341.707L419.984 337.319L442.588 348.839L440.352 353.227L417.744 341.707ZM55.028 193.759L56.548 189.079L80.676 196.919L79.156 201.599L55.028 193.759ZM429 315.299L430.52 310.619L454.648 318.455L453.128 323.135L429 315.299ZM47.68 225.787L48.448 220.923L73.516 224.883L72.748 229.747L47.68 225.787ZM435.92 287.159L436.688 282.291L461.756 286.251L460.988 291.115L435.92 287.159ZM45.36 253.867H70.732V258.791H45.36V253.867ZM438.588 253.867H463.96V258.791H438.588V253.867ZM47.376 286.887L72.444 282.927L73.212 287.795L48.144 291.755L47.376 286.887ZM435.908 225.519L460.976 221.559L461.744 226.427L436.676 230.387L435.908 225.519ZM54.72 318.935L78.848 311.095L80.368 315.775L56.24 323.615L54.72 318.935ZM428.684 197.431L452.816 189.591L454.336 194.271L430.208 202.111L428.684 197.431ZM66.92 349.587L89.52 338.067L91.76 342.455L69.152 353.975L66.92 349.587ZM417.288 171.063L439.892 159.543L442.132 163.931L419.52 175.451L417.288 171.063ZM83.828 377.923L104.352 363.003L107.248 366.987L86.724 381.907L83.828 377.923ZM401.904 146.727L422.428 131.807L425.324 135.791L404.8 150.711L401.904 146.727ZM104.76 403.295L122.696 385.355L126.176 388.835L108.24 406.775L104.76 403.295ZM382.812 125.299L400.752 107.363L404.232 110.843L386.296 128.779L382.812 125.299ZM129.6 425.187L144.52 404.663L148.504 407.559L133.584 428.083L129.6 425.187ZM360.788 106.991L375.708 86.4632L379.692 89.3592L364.772 109.887L360.788 106.991ZM157.456 442.723L168.976 420.119L173.36 422.355L161.84 444.959L157.456 442.723ZM335.976 92.3552L347.496 69.7472L351.884 71.9872L340.364 94.5872L335.976 92.3552ZM187.712 455.775L195.552 431.647L200.232 433.167L192.392 457.295L187.712 455.775ZM309.248 81.7992L317.088 57.6712L321.768 59.1912L313.928 83.3232L309.248 81.7992ZM219.744 463.659L223.704 438.591L228.564 439.359L224.608 464.427L219.744 463.659ZM281.112 75.4232L285.072 50.3552L289.936 51.1232L285.976 76.1912L281.112 75.4232ZM250.036 109.863H261.968V280.295H250.036V109.863Z" fill="#3E6B82"/>
<path d="M231.056 248.863H370.168V263.135H231.056V248.863Z" fill="#3E6B82"/>
<path d="M255.984 253.092L257.728 254.832L132.04 380.516L130.296 378.776L255.984 253.092Z" fill="#EF5361"/>
<path d="M255.224 269.013C261.999 269.013 267.492 263.52 267.492 256.745C267.492 249.969 261.999 244.477 255.224 244.477C248.449 244.477 242.956 249.969 242.956 256.745C242.956 263.52 248.449 269.013 255.224 269.013Z" fill="#3A556A"/>
</svg>
