<svg width="80" height="80" viewBox="0 0 1244 513" fill="none" xmlns="http://www.w3.org/2000/svg">
<path fill-rule="evenodd" clip-rule="evenodd" d="M0 0H1244V512.048H0V0Z" fill="white" fill-opacity="0.01"/>
<path d="M134.49 475.467C208.767 475.467 268.98 377.218 268.98 256.023C268.98 134.827 208.767 36.5781 134.49 36.5781C60.2133 36.5781 0 134.827 0 256.023C0 377.218 60.2133 475.467 134.49 475.467Z" fill="#00AED6"/>
<path fill-rule="evenodd" clip-rule="evenodd" d="M212.862 249.206C212.417 235.857 208.743 223.33 202.636 214.344C196.53 205.357 188.483 200.635 180.242 201.202H95.2944C94.5554 201.198 93.8241 200.958 93.1423 200.495C92.4605 200.033 91.8416 199.358 91.3208 198.508C90.8001 197.658 90.3877 196.65 90.1073 195.542C89.8269 194.434 89.6839 193.247 89.6865 192.049C89.6865 186.992 92.1943 182.896 95.2944 182.896H181.367C181.153 173.677 179.139 164.805 175.615 157.559C172.092 150.313 167.24 145.065 161.76 142.572C136.681 135.347 111.013 135.347 85.9348 142.572C78.9489 145.408 72.6498 151.58 67.8543 160.288C63.0589 168.996 59.9883 179.838 59.0407 191.409C55.062 234.48 55.062 278.27 59.0407 321.341C60.4991 333.552 64.2095 344.757 69.6814 353.477C75.1532 362.197 82.129 368.02 89.6865 370.178C120.817 376.487 152.311 376.487 183.441 370.178C190.211 367.889 196.365 362.208 201.032 353.937C205.699 345.666 208.643 335.226 209.446 324.093C212.211 299.387 213.376 274.297 212.862 249.206ZM184.961 279.929V288.058C184.964 289.256 184.821 290.443 184.54 291.551C184.26 292.659 183.848 293.667 183.327 294.517C182.806 295.367 182.187 296.042 181.505 296.504C180.824 296.966 180.092 297.207 179.353 297.211C178.614 297.207 177.883 296.966 177.201 296.504C176.519 296.042 175.9 295.367 175.38 294.517C174.859 293.667 174.447 292.659 174.166 291.551C173.886 290.443 173.743 289.256 173.745 288.058V279.929C172.468 278.087 171.567 275.659 171.16 272.968C170.754 270.276 170.862 267.448 171.47 264.858C172.079 262.269 173.158 260.04 174.566 258.468C175.974 256.895 177.644 256.054 179.353 256.055C181.063 256.054 182.732 256.895 184.14 258.468C185.548 260.04 186.628 262.269 187.236 264.858C187.844 267.448 187.953 270.276 187.546 272.968C187.14 275.659 186.238 278.087 184.961 279.929Z" fill="white"/>
<path d="M373.99 365.153C379.577 378.2 387.122 388.725 395.915 395.736C404.707 402.746 414.457 406.01 424.243 405.221C447.682 405.221 464.901 380.802 464.901 347.615V330.11H464.328C451.493 350.591 433.978 361.28 416.069 359.616C402.14 360.238 388.363 354.809 376.165 343.892C363.968 332.975 353.795 316.968 346.701 297.531C339.559 278.037 335.73 255.826 335.601 233.156C335.473 210.486 339.05 188.165 345.97 168.463C352.852 148.827 362.848 132.532 374.924 121.266C386.999 110.001 400.714 104.175 414.647 104.393C423.689 103.454 432.754 105.5 441.294 110.407C449.834 115.314 457.67 122.979 464.328 132.939H464.901V109.001H504.985V346.719C504.985 415.814 471.417 463.722 424.243 463.722C408.997 465.056 393.773 460.486 379.832 450.391C365.891 440.296 353.634 424.966 344.075 405.669L373.99 365.153ZM463.222 217.235C463.222 189.617 444.009 164.27 422.565 164.27C395.454 164.27 377.386 190.993 377.386 231.06C376.596 250.07 380.94 268.664 389.332 281.881C393.462 288.415 398.427 293.398 403.876 296.478C409.326 299.558 415.126 300.661 420.867 299.707C444.305 299.707 463.222 275.769 463.222 245.814V217.235ZM610.528 102.088C659.379 102.088 694.962 158.734 694.962 231.06C694.962 303.387 659.379 360.064 610.528 360.064C596.039 361.583 581.573 356.607 568.714 345.684C555.855 334.761 545.099 318.312 537.625 298.139C530.105 277.893 526.132 254.708 526.132 231.076C526.132 207.445 530.105 184.26 537.625 164.014C545.099 143.841 555.855 127.391 568.714 116.468C581.573 105.545 596.039 100.57 610.528 102.088ZM610.528 161.934C599.271 162.12 588.52 169.537 580.635 182.557C572.749 195.577 568.374 213.137 568.468 231.38C568.479 249.624 572.955 267.115 580.915 280.015C588.874 292.915 599.666 300.17 610.922 300.187C622.179 300.085 632.95 292.749 640.873 279.789C648.795 266.829 653.221 249.304 653.179 231.06C653.441 221.84 652.513 212.633 650.456 204.025C648.399 195.418 645.258 187.601 641.233 181.072C637.228 174.574 632.425 169.514 627.135 166.223C621.845 162.931 616.186 161.449 610.528 161.934ZM716.643 109.001H756.727V130.635H757.32C763.788 120.915 771.388 113.383 779.675 108.482C787.961 103.58 796.768 101.406 805.579 102.088C848.625 103.369 883.141 160.59 883.22 230.836C883.299 301.115 848.902 358.528 805.855 360.064C788.874 360.704 772.287 351.584 758.998 334.27H758.425V456.809H716.643V109.001ZM799.102 162.446C777.066 162.446 758.425 187.76 758.425 215.411V246.262C758.425 275.769 776.513 300.155 799.359 300.155C810.589 300.036 821.33 292.695 829.221 279.744C837.112 266.793 841.506 249.293 841.438 231.092C841.44 222.078 840.347 213.15 838.221 204.82C836.095 196.49 832.977 188.92 829.046 182.543C825.115 176.165 820.447 171.105 815.309 167.652C810.171 164.198 804.664 162.418 799.102 162.414V162.446ZM963.725 207.57C991.113 201.586 999.307 195.153 999.307 182.704C999.307 166.574 988.842 156.909 972.768 156.909C964.355 155.784 955.971 159.577 949.133 167.601C942.294 175.625 937.454 187.351 935.488 200.658L895.956 187.312C901.604 137.548 932.96 102.088 971.623 102.088C1015.38 102.088 1042.51 138.476 1042.51 197.873V353.152H1004.93V326.429H1004.34C998.085 337.961 990.27 346.996 981.506 352.83C972.741 358.664 963.264 361.14 953.812 360.064C920.777 360.064 897.931 330.59 897.931 287.258C897.931 241.653 916.571 218.163 963.725 207.57ZM1002.68 233.365H1002.13C998.438 242.133 990.54 247.19 970.221 253.206C945.657 260.567 936.91 268.376 936.91 282.649C936.91 297.403 944.255 303.867 960.052 303.867C984.063 303.867 1002.7 285.881 1002.7 262.391L1002.68 233.365ZM1122.03 339.806L1052.86 109.001H1098.89L1144.34 268.376H1144.89L1189.8 109.001H1236.1L1132.49 456.873H1086.47L1122.03 339.806Z" fill="black"/>
</svg>
