<svg width="70" height="70" viewBox="0 0 513 460" fill="none" xmlns="http://www.w3.org/2000/svg">
<path d="M320.659 304.679H432.811C443.116 304.674 453.31 302.552 462.761 298.443C472.212 294.335 480.718 288.329 487.751 280.798C494.785 273.267 500.196 264.371 503.65 254.661C507.103 244.952 508.525 234.637 507.827 224.355C505.175 184.467 470.203 154.355 430.159 154.355H320.659" fill="#81DAFC"/>
<path d="M432.811 308.676H320.659C319.598 308.676 318.58 308.255 317.83 307.504C317.08 306.754 316.659 305.737 316.659 304.676C316.659 303.615 317.08 302.598 317.83 301.848C318.58 301.097 319.598 300.676 320.659 300.676H432.811C442.569 300.655 452.219 298.637 461.168 294.745C470.116 290.854 478.173 285.171 484.843 278.048C491.535 270.943 496.679 262.526 499.949 253.33C503.219 244.134 504.544 234.359 503.839 224.624C501.363 187.452 469.003 158.336 430.163 158.336H320.659C319.598 158.336 318.58 157.915 317.83 157.164C317.08 156.414 316.659 155.397 316.659 154.336C316.659 153.275 317.08 152.258 317.83 151.508C318.58 150.757 319.598 150.336 320.659 150.336H430.167C473.207 150.336 509.075 182.736 511.827 224.088C512.61 234.916 511.136 245.788 507.499 256.016C503.861 266.245 498.139 275.606 490.695 283.508C483.275 291.432 474.312 297.753 464.357 302.082C454.402 306.41 443.666 308.654 432.811 308.676Z" fill="#2F3A5A"/>
<path d="M323.211 257.843H27.4266C24.3497 257.825 21.3003 258.423 18.4582 259.602C15.6161 260.78 13.0389 262.517 10.8786 264.707C7.60041 267.98 5.36694 272.151 4.46091 276.693C3.55489 281.236 4.01707 285.945 5.78893 290.224C7.56079 294.504 10.5627 298.162 14.4144 300.734C18.2662 303.306 22.7947 304.678 27.4266 304.675H323.975C334.279 304.67 344.472 302.547 353.922 298.439C363.372 294.331 371.878 288.325 378.911 280.794C385.944 273.263 391.355 264.368 394.809 254.659C398.262 244.951 399.684 234.636 398.987 224.355C396.335 184.467 361.363 154.355 321.319 154.355H58.6506C34.1386 154.355 11.0506 171.839 9.16256 196.271C6.27456 233.975 28.2866 257.871 57.0106 257.871" fill="#81DAFC"/>
<path d="M323.975 308.676H27.4266C22.0021 308.681 16.6981 307.076 12.1865 304.064C7.675 301.052 4.15899 296.769 2.08395 291.757C0.00892115 286.745 -0.53175 281.23 0.530442 275.91C1.59263 270.591 4.20989 265.706 8.05061 261.876C10.5783 259.308 13.5956 257.273 16.9237 255.892C20.2519 254.511 23.8234 253.812 27.4266 253.836H29.3906C26.0156 251.641 22.9254 249.038 20.1906 246.084C8.96261 233.96 3.61061 216.156 5.17461 195.952C7.13461 170.372 30.6266 150.352 58.6506 150.352H321.319C364.359 150.352 400.227 182.752 402.979 224.104C403.76 234.928 402.286 245.798 398.649 256.023C395.012 266.249 389.292 275.608 381.851 283.508C374.433 291.431 365.471 297.752 355.517 302.08C345.563 306.409 334.829 308.653 323.975 308.676ZM27.4266 261.844C24.8815 261.823 22.3582 262.314 20.0062 263.287C17.6543 264.26 15.5216 265.695 13.7346 267.508C11.0089 270.218 9.14947 273.676 8.39219 277.445C7.63492 281.213 8.01392 285.122 9.4811 288.674C10.9483 292.227 13.4376 295.264 16.6332 297.4C19.8288 299.536 23.5869 300.674 27.4306 300.672H323.975C333.733 300.652 343.384 298.635 352.333 294.745C361.282 290.855 369.34 285.174 376.011 278.052C382.702 270.947 387.846 262.53 391.115 253.333C394.384 244.137 395.708 234.362 395.003 224.628C392.527 187.456 360.167 158.34 321.327 158.34H58.6506C35.1786 158.34 14.7666 175.488 13.1506 196.564C11.7746 214.52 16.3506 230.164 26.0666 240.652C30.0211 244.885 34.8161 248.246 40.1447 250.519C45.4733 252.792 51.2179 253.927 57.0106 253.852H323.211C324.271 253.852 325.289 254.273 326.039 255.023C326.789 255.773 327.211 256.791 327.211 257.852C327.211 258.912 326.789 259.93 326.039 260.68C325.289 261.43 324.271 261.852 323.211 261.852L27.4266 261.844Z" fill="#2F3A5A"/>
<path d="M323.211 261.844C322.15 261.844 321.132 261.422 320.382 260.672C319.632 259.922 319.211 258.905 319.211 257.844C319.211 256.783 319.632 255.766 320.382 255.015C321.132 254.265 322.15 253.844 323.211 253.844C327.876 253.994 332.485 252.799 336.49 250.402C340.494 248.004 343.725 244.506 345.797 240.323C347.868 236.141 348.693 231.451 348.173 226.813C347.652 222.174 345.809 217.784 342.863 214.164C340.587 211.354 337.711 209.088 334.447 207.532C331.182 205.976 327.611 205.17 323.995 205.172H57.0107C55.9499 205.172 54.9325 204.75 54.1823 204C53.4322 203.25 53.0107 202.233 53.0107 201.172C53.0107 200.111 53.4322 199.094 54.1823 198.343C54.9325 197.593 55.9499 197.172 57.0107 197.172H323.971C328.789 197.175 333.545 198.254 337.893 200.329C342.241 202.405 346.071 205.425 349.103 209.17C352.135 212.914 354.292 217.288 355.418 221.973C356.544 226.658 356.61 231.535 355.611 236.248C353.981 243.591 349.868 250.148 343.965 254.811C338.063 259.474 330.732 261.958 323.211 261.844Z" fill="#2F3A5A"/>
<path d="M320.659 154.336H432.811C443.116 154.33 453.31 152.208 462.761 148.1C472.212 143.992 480.718 137.986 487.751 130.454C494.785 122.923 500.196 114.027 503.65 104.318C507.103 94.6083 508.525 84.2931 507.827 74.0117C505.175 34.1237 470.203 4.01172 430.159 4.01172H320.659" fill="#EF5361"/>
<path d="M432.811 158.34H320.659C319.598 158.34 318.58 157.919 317.83 157.168C317.08 156.418 316.659 155.401 316.659 154.34C316.659 153.279 317.08 152.262 317.83 151.512C318.58 150.761 319.598 150.34 320.659 150.34H432.811C442.569 150.319 452.219 148.301 461.168 144.409C470.116 140.518 478.173 134.835 484.843 127.712C491.535 120.607 496.679 112.191 499.949 102.994C503.219 93.798 504.544 84.0228 503.839 74.288C501.363 37.116 469.003 8 430.163 8H320.659C319.598 8 318.58 7.57857 317.83 6.82843C317.08 6.07828 316.659 5.06087 316.659 4C316.659 2.93913 317.08 1.92172 317.83 1.17157C318.58 0.421426 319.598 0 320.659 0H430.167C473.207 0 509.075 32.4 511.827 73.752C512.611 84.5801 511.138 95.4531 507.502 105.682C503.865 115.911 498.143 125.274 490.699 133.176C483.279 141.1 474.314 147.421 464.359 151.748C454.403 156.076 443.666 158.319 432.811 158.34Z" fill="#2F3A5A"/>
<path d="M323.211 107.508H27.4266C24.3494 107.49 21.2999 108.088 18.4578 109.268C15.6156 110.447 13.0386 112.184 10.8786 114.376C7.60041 117.648 5.36694 121.819 4.46091 126.362C3.55489 130.904 4.01707 135.613 5.78893 139.893C7.56079 144.172 10.5627 147.83 14.4144 150.402C18.2662 152.975 22.7947 154.346 27.4266 154.344H323.975C334.28 154.338 344.474 152.215 353.924 148.106C363.375 143.998 371.881 137.991 378.914 130.459C385.947 122.928 391.358 114.031 394.811 104.322C398.264 94.6123 399.685 84.297 398.987 74.0156C396.335 34.1276 361.363 4.01562 321.319 4.01562H58.6506C34.1386 4.01562 11.0506 21.4996 9.16256 45.9316C6.27456 83.6156 28.2866 107.508 57.0106 107.508" fill="#EF5361"/>
<path d="M323.975 158.34H27.4268C22.0031 158.343 16.7004 156.737 12.1901 153.725C7.67986 150.713 4.16482 146.43 2.09012 141.419C0.015413 136.407 -0.525653 130.893 0.535431 125.575C1.59651 120.256 4.21203 115.371 8.05079 111.54C10.5792 108.973 13.5967 106.94 16.9249 105.56C20.253 104.181 23.8241 103.483 27.4268 103.508H29.3908C26.0157 101.314 22.9255 98.7099 20.1908 95.7558C8.96279 83.6198 3.61079 65.8118 5.17479 45.6078C7.13479 20.0278 30.6268 0.0078125 58.6508 0.0078125H321.319C364.359 0.0078125 400.227 32.4078 402.979 73.7598C403.762 84.5859 402.288 95.4566 398.651 105.684C395.014 115.911 389.293 125.271 381.851 133.172C374.433 141.095 365.471 147.416 355.517 151.745C345.563 156.073 334.829 158.318 323.975 158.34ZM27.4268 111.508C24.8804 111.488 22.356 111.98 20.0033 112.954C17.6506 113.929 15.5176 115.366 13.7308 117.18C11.0051 119.89 9.14565 123.349 8.38837 127.117C7.6311 130.885 8.0101 134.794 9.47728 138.346C10.9445 141.899 13.4338 144.936 16.6294 147.072C19.825 149.208 23.583 150.347 27.4268 150.344H323.975C333.734 150.323 343.385 148.304 352.335 144.412C361.284 140.52 369.341 134.836 376.011 127.712C382.703 120.607 387.846 112.19 391.115 102.994C394.384 93.7973 395.708 84.0224 395.003 74.2878C392.523 37.1078 360.159 7.99581 321.319 7.99581H58.6508C35.1788 7.99581 14.7668 25.1438 13.1508 46.2198C11.7748 64.1758 16.3508 79.8198 26.0668 90.3118C30.0212 94.5454 34.8163 97.9063 40.1449 100.179C45.4735 102.452 51.2181 103.587 57.0108 103.512H323.211C324.272 103.512 325.289 103.933 326.039 104.683C326.789 105.434 327.211 106.451 327.211 107.512C327.211 108.573 326.789 109.59 326.039 110.34C325.289 111.09 324.272 111.512 323.211 111.512L27.4268 111.508Z" fill="#2F3A5A"/>
<path d="M323.211 111.508C322.15 111.508 321.132 111.087 320.382 110.336C319.632 109.586 319.211 108.569 319.211 107.508C319.211 106.447 319.632 105.43 320.382 104.68C321.132 103.929 322.15 103.508 323.211 103.508C327.876 103.66 332.487 102.466 336.493 100.069C340.498 97.6717 343.73 94.173 345.802 89.9899C347.873 85.8067 348.698 81.1159 348.177 76.477C347.656 71.8382 345.811 67.4472 342.863 63.8279C340.587 61.0178 337.711 58.752 334.447 57.1962C331.182 55.6404 327.611 54.834 323.995 54.8359H57.0107C55.9499 54.8359 54.9325 54.4145 54.1823 53.6644C53.4322 52.9142 53.0107 51.8968 53.0107 50.8359C53.0107 49.7751 53.4322 48.7577 54.1823 48.0075C54.9325 47.2574 55.9499 46.8359 57.0107 46.8359H323.971C328.788 46.8391 333.545 47.9178 337.892 49.9932C342.24 52.0687 346.069 55.0886 349.101 58.8326C352.133 62.5765 354.291 66.9502 355.417 71.6343C356.543 76.3185 356.609 81.1949 355.611 85.9079C353.983 93.2526 349.87 99.8105 343.967 104.474C338.064 109.138 330.733 111.623 323.211 111.508Z" fill="#2F3A5A"/>
<path d="M320.659 455.019H432.811C443.115 455.015 453.309 452.893 462.76 448.786C472.211 444.68 480.718 438.675 487.752 431.145C494.786 423.614 500.199 414.719 503.653 405.011C507.108 395.303 508.531 384.988 507.835 374.707C505.183 334.819 470.211 304.707 430.167 304.707H320.659" fill="#FFC943"/>
<path d="M432.811 459.02H320.659C319.598 459.02 318.58 458.598 317.83 457.848C317.08 457.098 316.659 456.081 316.659 455.02C316.659 453.959 317.08 452.941 317.83 452.191C318.58 451.441 319.598 451.02 320.659 451.02H432.811C442.569 450.999 452.219 448.98 461.168 445.089C470.116 441.197 478.173 435.515 484.843 428.392C491.535 421.287 496.679 412.87 499.949 403.674C503.219 394.478 504.544 384.703 503.839 374.968C501.363 337.796 469.003 308.68 430.163 308.68H320.659C319.598 308.68 318.58 308.258 317.83 307.508C317.08 306.758 316.659 305.741 316.659 304.68C316.659 303.619 317.08 302.601 317.83 301.851C318.58 301.101 319.598 300.68 320.659 300.68H430.167C473.207 300.68 509.075 333.08 511.827 374.432C512.611 385.26 511.138 396.133 507.502 406.362C503.865 416.591 498.143 425.953 490.699 433.856C483.279 441.78 474.314 448.1 464.359 452.428C454.403 456.756 443.666 458.999 432.811 459.02Z" fill="#2F3A5A"/>
<path d="M323.211 408.183H27.4266C24.3494 408.165 21.2999 408.763 18.4578 409.943C15.6156 411.123 13.0386 412.859 10.8786 415.051C7.60041 418.323 5.36694 422.495 4.46091 427.037C3.55489 431.579 4.01707 436.288 5.78893 440.568C7.56079 444.848 10.5627 448.505 14.4144 451.078C18.2662 453.65 22.7947 455.022 27.4266 455.019H323.975C334.278 455.013 344.471 452.89 353.92 448.783C363.37 444.675 371.875 438.67 378.908 431.14C385.941 423.61 391.352 414.716 394.806 405.008C398.26 395.301 399.683 384.987 398.987 374.707C396.335 334.819 361.363 304.707 321.319 304.707H58.6506C34.1386 304.707 11.0506 322.191 9.16256 346.623C6.27456 384.327 28.2866 408.223 57.0106 408.223" fill="#FFC943"/>
<path d="M323.975 459.019H27.4268C22.0031 459.022 16.7004 457.416 12.1901 454.404C7.67986 451.392 4.16482 447.109 2.09012 442.098C0.015413 437.087 -0.525653 431.573 0.535431 426.254C1.59651 420.935 4.21203 416.05 8.05079 412.219C10.5785 409.651 13.5958 407.616 16.9239 406.235C20.2521 404.854 23.8235 404.155 27.4268 404.179H29.3908C26.0157 401.985 22.9255 399.381 20.1908 396.427C8.96279 384.307 3.61079 366.495 5.17479 346.307C7.13479 320.727 30.6268 300.707 58.6508 300.707H321.319C364.359 300.707 400.227 333.107 402.979 374.459C403.763 385.286 402.29 396.159 398.653 406.387C395.016 416.615 389.294 425.977 381.851 433.879C374.43 441.798 365.467 448.113 355.514 452.437C345.56 456.76 334.827 459 323.975 459.019ZM27.4268 412.183C24.8804 412.163 22.356 412.655 20.0033 413.629C17.6506 414.604 15.5176 416.041 13.7308 417.855C11.0051 420.565 9.14565 424.024 8.38837 427.792C7.6311 431.561 8.0101 435.469 9.47728 439.022C10.9445 442.574 13.4338 445.611 16.6294 447.747C19.825 449.883 23.583 451.022 27.4268 451.019H323.975C333.733 450.999 343.385 448.981 352.334 445.089C361.283 441.197 369.341 435.515 376.011 428.391C382.703 421.286 387.846 412.869 391.115 403.673C394.384 394.477 395.708 384.702 395.003 374.967C392.527 337.795 360.167 308.679 321.327 308.679H58.6508C35.1788 308.679 14.7668 325.827 13.1508 346.903C11.7748 364.859 16.3508 380.503 26.0668 390.995C30.0212 395.229 34.8163 398.59 40.1449 400.863C45.4735 403.136 51.2181 404.271 57.0108 404.195H323.211C324.272 404.195 325.289 404.616 326.039 405.367C326.789 406.117 327.211 407.134 327.211 408.195C327.211 409.256 326.789 410.273 326.039 411.023C325.289 411.774 324.272 412.195 323.211 412.195L27.4268 412.183Z" fill="#2F3A5A"/>
<path d="M323.211 412.184C322.15 412.184 321.132 411.762 320.382 411.012C319.632 410.262 319.211 409.245 319.211 408.184C319.211 407.123 319.632 406.106 320.382 405.355C321.132 404.605 322.15 404.184 323.211 404.184C327.876 404.335 332.487 403.142 336.493 400.745C340.498 398.348 343.73 394.849 345.802 390.666C347.873 386.483 348.698 381.792 348.177 377.153C347.656 372.514 345.811 368.123 342.863 364.504C340.585 361.69 337.706 359.422 334.438 357.866C331.17 356.309 327.595 355.503 323.975 355.508H57.0107C55.9499 355.508 54.9325 355.086 54.1823 354.336C53.4322 353.586 53.0107 352.569 53.0107 351.508C53.0107 350.447 53.4322 349.43 54.1823 348.679C54.9325 347.929 55.9499 347.508 57.0107 347.508H323.971C328.789 347.511 333.546 348.589 337.895 350.665C342.243 352.741 346.073 355.762 349.105 359.507C352.137 363.252 354.294 367.627 355.42 372.312C356.545 376.997 356.611 381.874 355.611 386.588C353.982 393.932 349.869 400.489 343.966 405.152C338.063 409.815 330.732 412.299 323.211 412.184Z" fill="#2F3A5A"/>
<path d="M398.043 197.909L392.567 169.549L384.011 202.533C382.525 207.487 379.76 211.963 375.996 215.51C372.232 219.057 367.6 221.551 362.567 222.741L333.951 229.509L361.007 234.969C366.2 236.017 371.014 238.446 374.943 242.001C378.871 245.555 381.769 250.102 383.331 255.165L390.811 289.477L399.587 259.413C400.668 253.68 403.426 248.396 407.513 244.233C411.6 240.069 416.831 237.212 422.543 236.025L453.887 229.509L421.031 222.477C415.149 221.218 409.794 218.189 405.685 213.797C401.576 209.405 398.909 203.861 398.043 197.909Z" fill="#F0F5F9"/>
<path d="M390.81 293.475H390.67C389.782 293.444 388.929 293.117 388.247 292.547C387.564 291.977 387.091 291.196 386.902 290.327L379.422 256.015C378.04 251.708 375.531 247.849 372.155 244.838C368.779 241.827 364.659 239.774 360.222 238.891L333.158 233.427C332.263 233.248 331.456 232.767 330.872 232.066C330.287 231.364 329.96 230.484 329.945 229.571C329.93 228.658 330.228 227.767 330.79 227.047C331.351 226.327 332.141 225.82 333.03 225.611L361.658 218.843C366.006 217.808 370.005 215.65 373.257 212.584C376.509 209.519 378.9 205.654 380.19 201.375L388.69 168.531C388.918 167.652 389.437 166.877 390.164 166.332C390.89 165.788 391.781 165.507 392.688 165.535C393.595 165.564 394.466 165.9 395.157 166.489C395.848 167.077 396.318 167.884 396.49 168.775L401.97 197.135L402.002 197.319C402.764 202.458 405.073 207.244 408.623 211.038C412.172 214.831 416.793 217.454 421.87 218.555L454.726 225.587C455.624 225.779 456.428 226.274 457.004 226.988C457.58 227.703 457.892 228.593 457.889 229.511C457.887 230.429 457.568 231.317 456.988 232.028C456.408 232.739 455.601 233.229 454.702 233.415L423.358 239.931C418.418 240.949 413.892 243.416 410.359 247.016C406.827 250.617 404.446 255.188 403.522 260.147L394.654 290.587C394.413 291.42 393.908 292.152 393.215 292.673C392.521 293.194 391.678 293.476 390.81 293.475ZM352.642 229.199L361.798 231.047C367.697 232.236 373.166 234.994 377.628 239.031C382.091 243.067 385.382 248.233 387.154 253.983L391.37 273.287L395.746 258.307C397.004 251.86 400.146 245.931 404.774 241.27C409.402 236.61 415.309 233.426 421.746 232.123L434.546 229.463L420.226 226.399C413.57 224.954 407.51 221.521 402.849 216.553C398.189 211.585 395.148 205.318 394.13 198.583L392.01 187.691L387.91 203.531C386.229 209.184 383.088 214.295 378.805 218.35C374.522 222.405 369.247 225.261 363.51 226.631L352.642 229.199Z" fill="#2F3A5A"/>
<path d="M456.075 348.923L453.167 333.871L448.631 351.383C447.842 354.013 446.376 356.389 444.378 358.272C442.38 360.155 439.922 361.479 437.251 362.111L422.051 365.711L436.411 368.611C439.168 369.167 441.724 370.456 443.809 372.343C445.895 374.23 447.434 376.644 448.263 379.331L452.231 397.543L456.891 381.587C457.467 378.547 458.932 375.746 461.101 373.538C463.27 371.331 466.045 369.817 469.075 369.187L485.711 365.727L468.271 361.995C465.146 361.324 462.301 359.711 460.121 357.373C457.94 355.036 456.528 352.087 456.075 348.923Z" fill="#F0F5F9"/>
<path d="M452.239 401.532H452.099C451.21 401.501 450.357 401.174 449.675 400.604C448.992 400.034 448.52 399.253 448.331 398.384L444.363 380.172C443.711 378.239 442.559 376.514 441.025 375.17C439.491 373.826 437.628 372.912 435.627 372.52L421.271 369.624C420.375 369.444 419.568 368.964 418.984 368.263C418.4 367.561 418.073 366.681 418.058 365.768C418.043 364.855 418.341 363.964 418.902 363.244C419.463 362.523 420.254 362.017 421.143 361.808L436.343 358.208C438.332 357.734 440.161 356.745 441.647 355.341C443.133 353.937 444.224 352.167 444.811 350.208L449.307 332.844C449.549 331.973 450.073 331.207 450.797 330.665C451.52 330.123 452.403 329.836 453.307 329.848C454.214 329.876 455.086 330.212 455.777 330.801C456.468 331.39 456.939 332.196 457.111 333.088L460.011 348.168L460.043 348.348C460.391 350.698 461.446 352.886 463.069 354.62C464.692 356.354 466.805 357.553 469.127 358.056L486.567 361.788C487.464 361.98 488.268 362.475 488.844 363.189C489.42 363.903 489.733 364.794 489.73 365.712C489.727 366.629 489.409 367.518 488.828 368.229C488.248 368.94 487.441 369.43 486.543 369.616L469.903 373.076C467.644 373.54 465.575 374.668 463.96 376.313C462.345 377.959 461.257 380.049 460.835 382.316L456.087 398.648C455.845 399.481 455.339 400.213 454.644 400.733C453.95 401.253 453.106 401.533 452.239 401.532ZM440.011 365.468C442.866 366.503 445.442 368.185 447.537 370.384C449.632 372.583 451.188 375.238 452.083 378.14L452.787 381.34L453.047 380.44C453.733 376.973 455.357 373.761 457.74 371.152C460.124 368.543 463.176 366.637 466.567 365.64C463.246 364.759 460.212 363.026 457.766 360.614C455.32 358.201 453.546 355.192 452.619 351.884L452.499 352.352C451.612 355.375 450.016 358.142 447.844 360.424C445.672 362.705 442.986 364.434 440.011 365.468Z" fill="#2F3A5A"/>
</svg>
