<svg width="40" height="40" viewBox="0 0 496 497" fill="none" xmlns="http://www.w3.org/2000/svg">
<path d="M288 367.914L168 487.914L48 367.914" fill="#669E4F"/>
<path d="M251.312 367.914H228.672L168 428.586L107.32 367.914H84.688L162.336 445.562C163.079 446.306 163.961 446.896 164.932 447.299C165.904 447.701 166.945 447.908 167.996 447.908C169.047 447.908 170.088 447.701 171.06 447.299C172.031 446.896 172.913 446.306 173.656 445.562L251.312 367.914Z" fill="#78B75B"/>
<path d="M208 127.914L328 7.91406L448 127.914" fill="#669E4F"/>
<path d="M333.656 50.2425C332.122 48.8037 330.099 48.0029 327.996 48.0029C325.893 48.0029 323.869 48.8037 322.336 50.2425L244.672 127.914H267.304L328 67.2185L388.688 127.914H411.32L333.656 50.2425Z" fill="#78B75B"/>
<path d="M8 127.914H488V367.914H8V127.914Z" fill="#96CC7F"/>
<path d="M248 327.914C292.183 327.914 328 292.097 328 247.914C328 203.731 292.183 167.914 248 167.914C203.817 167.914 168 203.731 168 247.914C168 292.097 203.817 327.914 248 327.914Z" fill="#669E4F"/>
<path d="M288 223.914V215.914C288 209.549 285.471 203.444 280.971 198.943C276.47 194.443 270.365 191.914 264 191.914H256V183.914H240V191.914H232C225.635 191.914 219.53 194.443 215.029 198.943C210.529 203.444 208 209.549 208 215.914V231.914C208 238.279 210.529 244.384 215.029 248.885C219.53 253.385 225.635 255.914 232 255.914H240V287.914H232C229.878 287.914 227.843 287.071 226.343 285.571C224.843 284.071 224 282.036 224 279.914V271.914H208V279.914C208 286.279 210.529 292.384 215.029 296.885C219.53 301.385 225.635 303.914 232 303.914H240V311.914H256V303.914H264C270.365 303.914 276.47 301.385 280.971 296.885C285.471 292.384 288 286.279 288 279.914V263.914C288 257.549 285.471 251.444 280.971 246.943C276.47 242.443 270.365 239.914 264 239.914H256V207.914H264C266.122 207.914 268.157 208.757 269.657 210.257C271.157 211.757 272 213.792 272 215.914V223.914H288ZM264 255.914C266.122 255.914 268.157 256.757 269.657 258.257C271.157 259.757 272 261.792 272 263.914V279.914C272 282.036 271.157 284.071 269.657 285.571C268.157 287.071 266.122 287.914 264 287.914H256V255.914H264ZM240 239.914H232C229.878 239.914 227.843 239.071 226.343 237.571C224.843 236.071 224 234.036 224 231.914V215.914C224 213.792 224.843 211.757 226.343 210.257C227.843 208.757 229.878 207.914 232 207.914H240V239.914Z" fill="#96CC7F"/>
<path d="M152 343.914H40C37.8783 343.914 35.8434 343.071 34.3431 341.571C32.8429 340.071 32 338.036 32 335.914V159.914C32 157.792 32.8429 155.757 34.3431 154.257C35.8434 152.757 37.8783 151.914 40 151.914H152V167.914H48V327.914H152V343.914ZM456 343.914H384V327.914H448V167.914H344V151.914H456C458.122 151.914 460.157 152.757 461.657 154.257C463.157 155.757 464 157.792 464 159.914V335.914C464 338.036 463.157 340.071 461.657 341.571C460.157 343.071 458.122 343.914 456 343.914Z" fill="#78B75B"/>
<path d="M72 231.914H136V263.914H72V231.914ZM360 231.914H424V263.914H360V231.914Z" fill="#669E4F"/>
<path d="M384 487.914C428.183 487.914 464 452.097 464 407.914C464 363.731 428.183 327.914 384 327.914C339.817 327.914 304 363.731 304 407.914C304 452.097 339.817 487.914 384 487.914Z" fill="#F7D881"/>
<path d="M424 383.914V375.914C424 369.549 421.471 363.444 416.971 358.944C412.47 354.443 406.365 351.914 400 351.914H392V343.914H376V351.914H368C361.635 351.914 355.53 354.443 351.029 358.944C346.529 363.444 344 369.549 344 375.914V391.914C344 398.279 346.529 404.384 351.029 408.885C355.53 413.385 361.635 415.914 368 415.914H376V447.914H368C365.878 447.914 363.843 447.071 362.343 445.571C360.843 444.071 360 442.036 360 439.914V431.914H344V439.914C344 446.279 346.529 452.384 351.029 456.885C355.53 461.385 361.635 463.914 368 463.914H376V471.914H392V463.914H400C406.365 463.914 412.47 461.385 416.971 456.885C421.471 452.384 424 446.279 424 439.914V423.914C424 417.549 421.471 411.444 416.971 406.944C412.47 402.443 406.365 399.914 400 399.914H392V367.914H400C402.122 367.914 404.157 368.757 405.657 370.257C407.157 371.757 408 373.792 408 375.914V383.914H424ZM400 415.914C402.122 415.914 404.157 416.757 405.657 418.257C407.157 419.757 408 421.792 408 423.914V439.914C408 442.036 407.157 444.071 405.657 445.571C404.157 447.071 402.122 447.914 400 447.914H392V415.914H400ZM376 399.914H368C365.878 399.914 363.843 399.071 362.343 397.571C360.843 396.071 360 394.036 360 391.914V375.914C360 373.792 360.843 371.757 362.343 370.257C363.843 368.757 365.878 367.914 368 367.914H376V399.914Z" fill="#F2C351"/>
<path d="M488 119.915H451.304L333.656 2.24253C332.123 0.801985 330.099 0 327.996 0C325.893 0 323.869 0.801985 322.336 2.24253L204.68 119.915H8C5.87827 119.915 3.84344 120.757 2.34315 122.258C0.842854 123.758 0 125.793 0 127.915V367.915C0 370.036 0.842854 372.071 2.34315 373.571C3.84344 375.072 5.87827 375.915 8 375.915H44.68L162.336 493.563C163.079 494.306 163.961 494.896 164.932 495.299C165.904 495.702 166.945 495.909 167.996 495.909C169.047 495.909 170.088 495.702 171.06 495.299C172.031 494.896 172.913 494.306 173.656 493.563L291.32 375.915H302.112C296.861 389.258 294.951 403.682 296.547 417.932C298.143 432.182 303.197 445.826 311.269 457.678C319.341 469.529 330.187 479.228 342.863 485.931C355.539 492.634 369.661 496.138 384 496.138C398.339 496.138 412.461 492.634 425.137 485.931C437.813 479.228 448.659 469.529 456.731 457.678C464.803 445.826 469.857 432.182 471.453 417.932C473.049 403.682 471.139 389.258 465.888 375.915H488C490.122 375.915 492.157 375.072 493.657 373.571C495.157 372.071 496 370.036 496 367.915V127.915C496 125.793 495.157 123.758 493.657 122.258C492.157 120.757 490.122 119.915 488 119.915ZM328 19.2185L428.672 119.915H403.312L333.656 50.2425C332.123 48.802 330.099 48 327.996 48C325.893 48 323.869 48.802 322.336 50.2425L252.68 119.915H227.32L328 19.2185ZM380.672 119.915H275.32L328 67.2185L380.672 119.915ZM168 476.587L67.32 375.915H92.68L162.336 445.571C163.079 446.314 163.961 446.904 164.932 447.307C165.904 447.71 166.945 447.917 167.996 447.917C169.047 447.917 170.088 447.71 171.06 447.307C172.031 446.904 172.913 446.314 173.656 445.571L243.312 375.915H268.68L168 476.587ZM115.312 375.915H220.672L168 428.587L115.312 375.915ZM384 479.915C369.76 479.915 355.839 475.692 343.999 467.78C332.159 459.869 322.93 448.624 317.481 435.468C312.031 422.311 310.605 407.835 313.383 393.868C316.162 379.901 323.019 367.072 333.088 357.003C343.158 346.933 355.987 340.076 369.953 337.298C383.92 334.52 398.397 335.946 411.553 341.395C424.709 346.845 435.954 356.073 443.866 367.913C451.777 379.754 456 393.674 456 407.915C455.981 427.004 448.389 445.307 434.891 458.805C421.392 472.304 403.09 479.895 384 479.915ZM480 359.915H457.656C453.82 354.068 449.303 348.697 444.2 343.915H456C458.122 343.915 460.157 343.072 461.657 341.571C463.157 340.071 464 338.036 464 335.915V159.915C464 157.793 463.157 155.758 461.657 154.258C460.157 152.757 458.122 151.915 456 151.915H344V167.915H448V327.915H420.432C401.298 319.127 379.64 317.525 359.422 323.401C339.204 329.278 321.778 342.24 310.336 359.915H16V135.915H480V359.915Z" fill="black"/>
<path d="M232 303.914H240V311.914H256V303.914H264C270.365 303.914 276.47 301.385 280.971 296.885C285.471 292.384 288 286.279 288 279.914V263.914C288 257.549 285.471 251.444 280.971 246.943C276.47 242.443 270.365 239.914 264 239.914H256V207.914H264C266.122 207.914 268.157 208.757 269.657 210.257C271.157 211.757 272 213.792 272 215.914V223.914H288V215.914C288 209.549 285.471 203.444 280.971 198.943C276.47 194.443 270.365 191.914 264 191.914H256V183.914H240V191.914H232C225.635 191.914 219.53 194.443 215.029 198.943C210.529 203.444 208 209.549 208 215.914V231.914C208 238.279 210.529 244.384 215.029 248.885C219.53 253.385 225.635 255.914 232 255.914H240V287.914H232C229.878 287.914 227.843 287.071 226.343 285.571C224.843 284.071 224 282.036 224 279.914V271.914H208V279.914C208 286.279 210.529 292.384 215.029 296.885C219.53 301.385 225.635 303.914 232 303.914ZM232 239.914C229.878 239.914 227.843 239.071 226.343 237.571C224.843 236.071 224 234.036 224 231.914V215.914C224 213.792 224.843 211.757 226.343 210.257C227.843 208.757 229.878 207.914 232 207.914H240V239.914H232ZM256 255.914H264C266.122 255.914 268.157 256.757 269.657 258.257C271.157 259.757 272 261.792 272 263.914V279.914C272 282.036 271.157 284.071 269.657 285.571C268.157 287.071 266.122 287.914 264 287.914H256V255.914Z" fill="black"/>
<path d="M248 335.914C265.405 335.914 282.419 330.753 296.89 321.083C311.362 311.414 322.641 297.67 329.301 281.59C335.962 265.51 337.705 247.816 334.309 230.746C330.914 213.676 322.532 197.996 310.225 185.689C297.918 173.382 282.238 165 265.168 161.605C248.098 158.209 230.404 159.952 214.324 166.613C198.244 173.273 184.5 184.552 174.831 199.024C165.161 213.495 160 230.509 160 247.914C160.028 271.245 169.308 293.612 185.805 310.109C202.302 326.606 224.669 335.887 248 335.914ZM248 175.914C262.24 175.914 276.161 180.137 288.001 188.048C299.841 195.96 309.07 207.205 314.519 220.361C319.969 233.517 321.395 247.994 318.617 261.961C315.838 275.927 308.981 288.756 298.912 298.826C288.842 308.895 276.013 315.752 262.047 318.531C248.08 321.309 233.603 319.883 220.447 314.433C207.291 308.984 196.046 299.755 188.134 287.915C180.223 276.075 176 262.154 176 247.914C176.021 228.825 183.614 210.524 197.112 197.026C210.61 183.528 228.911 175.935 248 175.914ZM400 351.914H392V343.914H376V351.914H368C361.635 351.914 355.53 354.443 351.029 358.944C346.529 363.444 344 369.549 344 375.914V391.914C344 398.279 346.529 404.384 351.029 408.885C355.53 413.385 361.635 415.914 368 415.914H376V447.914H368C365.878 447.914 363.843 447.071 362.343 445.571C360.843 444.071 360 442.036 360 439.914V431.914H344V439.914C344 446.279 346.529 452.384 351.029 456.885C355.53 461.385 361.635 463.914 368 463.914H376V471.914H392V463.914H400C406.365 463.914 412.47 461.385 416.971 456.885C421.471 452.384 424 446.279 424 439.914V423.914C424 417.549 421.471 411.444 416.971 406.944C412.47 402.443 406.365 399.914 400 399.914H392V367.914H400C402.122 367.914 404.157 368.757 405.657 370.257C407.157 371.757 408 373.792 408 375.914V383.914H424V375.914C424 369.549 421.471 363.444 416.971 358.944C412.47 354.443 406.365 351.914 400 351.914ZM400 415.914C402.122 415.914 404.157 416.757 405.657 418.257C407.157 419.757 408 421.792 408 423.914V439.914C408 442.036 407.157 444.071 405.657 445.571C404.157 447.071 402.122 447.914 400 447.914H392V415.914H400ZM376 399.914H368C365.878 399.914 363.843 399.071 362.343 397.571C360.843 396.071 360 394.036 360 391.914V375.914C360 373.792 360.843 371.757 362.343 370.257C363.843 368.757 365.878 367.914 368 367.914H376V399.914ZM40 343.914H152V327.914H48V167.914H152V151.914H40C37.8783 151.914 35.8434 152.757 34.3431 154.257C32.8429 155.757 32 157.792 32 159.914V335.914C32 338.036 32.8429 340.071 34.3431 341.571C35.8434 343.071 37.8783 343.914 40 343.914Z" fill="black"/>
<path d="M72 223.914C69.8783 223.914 67.8434 224.757 66.3431 226.257C64.8429 227.757 64 229.792 64 231.914V263.914C64 266.036 64.8429 268.071 66.3431 269.571C67.8434 271.071 69.8783 271.914 72 271.914H136C138.122 271.914 140.157 271.071 141.657 269.571C143.157 268.071 144 266.036 144 263.914V231.914C144 229.792 143.157 227.757 141.657 226.257C140.157 224.757 138.122 223.914 136 223.914H72ZM128 255.914H80V239.914H128V255.914ZM360 271.914H424C426.122 271.914 428.157 271.071 429.657 269.571C431.157 268.071 432 266.036 432 263.914V231.914C432 229.792 431.157 227.757 429.657 226.257C428.157 224.757 426.122 223.914 424 223.914H360C357.878 223.914 355.843 224.757 354.343 226.257C352.843 227.757 352 229.792 352 231.914V263.914C352 266.036 352.843 268.071 354.343 269.571C355.843 271.071 357.878 271.914 360 271.914ZM368 239.914H416V255.914H368V239.914Z" fill="black"/>
</svg>
