<svg width="70" height="70" viewBox="0 0 513 448" fill="none" xmlns="http://www.w3.org/2000/svg">
<path d="M301.311 116.133H374.955C403.299 116.133 426.155 143.381 424.211 176.041C422.467 205.789 399.507 228.265 373.215 228.265H301.311" fill="#C1CDD3"/>
<path d="M373.223 232.261H301.311C300.25 232.261 299.233 231.839 298.483 231.089C297.732 230.339 297.311 229.322 297.311 228.261C297.311 227.2 297.732 226.183 298.483 225.432C299.233 224.682 300.25 224.261 301.311 224.261H373.223C397.991 224.261 418.639 202.977 420.231 175.805C420.78 168.217 419.78 160.598 417.291 153.409C414.803 146.22 410.878 139.613 405.755 133.989C401.851 129.684 397.101 126.231 391.801 123.846C386.501 121.461 380.766 120.196 374.955 120.129H301.311C300.25 120.129 299.233 119.707 298.483 118.957C297.732 118.207 297.311 117.19 297.311 116.129C297.311 115.068 297.732 114.051 298.483 113.3C299.233 112.55 300.25 112.129 301.311 112.129H374.955C381.855 112.192 388.668 113.678 394.967 116.495C401.266 119.312 406.916 123.4 411.563 128.501C417.433 134.918 421.935 142.463 424.796 150.676C427.656 158.889 428.816 167.598 428.203 176.273C426.367 207.669 402.211 232.261 373.223 232.261Z" fill="#2F3A5A"/>
<path d="M302.975 151.065H108.775C106.701 151.051 104.655 150.585 102.778 149.7C100.902 148.815 99.2414 147.532 97.911 145.941C94.9614 142.509 93.3581 138.122 93.399 133.597C93.1347 129.245 94.6035 124.965 97.4846 121.693C100.366 118.421 104.425 116.422 108.775 116.133H303.487C331.831 116.133 354.687 143.381 352.743 176.041C350.999 205.789 328.023 228.261 301.743 228.261H129.275C120.924 228.076 112.947 224.76 106.928 218.968C100.908 213.177 97.2858 205.335 96.779 196.997C94.883 168.877 109.335 151.061 128.195 151.061" fill="#F0F5F9"/>
<path d="M301.743 232.259H129.275C119.898 232.113 110.923 228.423 104.154 221.931C97.3856 215.439 93.3246 206.626 92.7872 197.263C91.6832 180.863 95.8352 166.711 104.479 157.463C105.295 156.589 106.156 155.759 107.059 154.975C102.319 154.5 97.951 152.196 94.8832 148.551C91.3003 144.395 89.3511 139.078 89.3992 133.591C89.1419 128.179 91.0349 122.885 94.6654 118.864C98.2959 114.842 103.369 112.419 108.779 112.123H303.487C310.388 112.187 317.201 113.675 323.5 116.493C329.8 119.312 335.449 123.4 340.095 128.503C345.965 134.92 350.467 142.465 353.328 150.678C356.188 158.891 357.348 167.6 356.735 176.275C354.895 207.667 330.739 232.259 301.743 232.259ZM128.195 155.059C124.83 155.042 121.499 155.734 118.419 157.089C115.339 158.445 112.579 160.434 110.319 162.927C103.203 170.527 99.8112 182.527 100.767 196.723C101.245 204.035 104.43 210.906 109.7 215.996C114.97 221.087 121.948 224.031 129.271 224.255H301.743C326.507 224.255 347.155 202.971 348.751 175.799C349.3 168.212 348.3 160.592 345.811 153.403C343.323 146.214 339.398 139.607 334.275 133.983C330.371 129.678 325.621 126.225 320.321 123.84C315.021 121.455 309.286 120.19 303.475 120.123H108.775C105.491 120.426 102.457 122.008 100.328 124.528C98.1996 127.047 97.1461 130.302 97.3952 133.591C97.3498 137.144 98.5996 140.592 100.911 143.291C101.868 144.454 103.068 145.394 104.426 146.044C105.785 146.694 107.269 147.039 108.775 147.055H302.975C304.036 147.055 305.053 147.476 305.804 148.227C306.554 148.977 306.975 149.994 306.975 151.055C306.975 152.116 306.554 153.133 305.804 153.883C305.053 154.634 304.036 155.055 302.975 155.055L128.195 155.059Z" fill="#2F3A5A"/>
<path d="M303.487 197.328H128.195C127.134 197.328 126.117 196.907 125.367 196.156C124.617 195.406 124.195 194.389 124.195 193.328C124.195 192.267 124.617 191.25 125.367 190.5C126.117 189.75 127.134 189.328 128.195 189.328H303.487C305.5 189.296 307.48 188.815 309.283 187.921C311.086 187.027 312.667 185.742 313.911 184.16C315.657 181.99 316.905 179.463 317.567 176.758C318.229 174.053 318.29 171.235 317.743 168.504C317.253 164.887 315.504 161.559 312.803 159.104C310.102 156.648 306.622 155.224 302.975 155.08C301.914 155.08 300.897 154.659 300.147 153.908C299.397 153.158 298.975 152.141 298.975 151.08C298.975 150.019 299.397 149.002 300.147 148.252C300.897 147.502 301.914 147.08 302.975 147.08C308.499 147.218 313.798 149.298 317.94 152.956C322.081 156.614 324.8 161.615 325.619 167.08C326.38 170.966 326.275 174.972 325.313 178.813C324.35 182.654 322.554 186.236 320.051 189.304C318.048 191.774 315.525 193.774 312.663 195.16C309.8 196.547 306.668 197.287 303.487 197.328Z" fill="#2F3A5A"/>
<path d="M301.311 228.26H374.955C403.299 228.26 426.155 255.508 424.211 288.168C422.467 317.916 399.507 340.392 373.215 340.392H301.311" fill="#EF5361"/>
<path d="M302.975 263.192H108.775C106.701 263.177 104.655 262.712 102.778 261.827C100.902 260.942 99.2414 259.659 97.911 258.068C94.9614 254.636 93.3581 250.249 93.399 245.724C93.1347 241.372 94.6035 237.092 97.4846 233.82C100.366 230.548 104.425 228.549 108.775 228.26H303.487C331.831 228.26 354.687 255.508 352.743 288.168C350.999 317.92 328.023 340.392 301.743 340.392H129.275C120.924 340.207 112.947 336.891 106.928 331.099C100.908 325.308 97.2858 317.465 96.779 309.128C94.883 281.008 109.335 263.192 128.195 263.192" fill="#EF5361"/>
<path d="M301.311 325.188H374.955C403.299 325.188 426.155 352.435 424.211 385.095C422.467 414.843 399.507 437.319 373.215 437.319H301.311" fill="#D9E2E9"/>
<path d="M373.223 441.304H301.311C300.25 441.304 299.233 440.882 298.483 440.132C297.732 439.382 297.311 438.365 297.311 437.304C297.311 436.243 297.732 435.226 298.483 434.475C299.233 433.725 300.25 433.304 301.311 433.304H373.223C397.991 433.304 418.639 412.02 420.231 384.848C420.78 377.26 419.78 369.641 417.291 362.452C414.803 355.263 410.878 348.656 405.755 343.032C401.851 338.727 397.101 335.274 391.801 332.889C386.501 330.504 380.766 329.239 374.955 329.172H301.311C300.25 329.172 299.233 328.75 298.483 328C297.732 327.25 297.311 326.233 297.311 325.172C297.311 324.111 297.732 323.094 298.483 322.343C299.233 321.593 300.25 321.172 301.311 321.172H374.955C381.855 321.235 388.668 322.721 394.967 325.538C401.266 328.355 406.916 332.443 411.563 337.544C417.433 343.961 421.935 351.506 424.796 359.719C427.656 367.932 428.816 376.641 428.203 385.316C426.367 416.724 402.211 441.304 373.223 441.304Z" fill="#2F3A5A"/>
<path d="M302.975 360.104H108.775C106.701 360.09 104.655 359.624 102.778 358.739C100.902 357.854 99.2414 356.571 97.911 354.98C94.9614 351.548 93.3581 347.161 93.399 342.636C93.1347 338.284 94.6035 334.004 97.4846 330.732C100.366 327.46 104.425 325.461 108.775 325.172H303.487C331.831 325.172 354.687 352.42 352.743 385.08C350.999 414.844 328.023 437.304 301.743 437.304H129.275C120.924 437.12 112.947 433.803 106.928 428.011C100.908 422.22 97.2858 414.378 96.779 406.04C94.883 377.92 109.335 360.104 128.195 360.104" fill="#D9E2E9"/>
<path d="M301.311 4H374.955C403.299 4 426.155 31.248 424.211 63.908C422.467 93.656 399.507 116.132 373.215 116.132H301.311" fill="#FFC943"/>
<path d="M373.223 120.128H301.311C300.25 120.128 299.233 119.707 298.483 118.956C297.732 118.206 297.311 117.189 297.311 116.128C297.311 115.067 297.732 114.05 298.483 113.3C299.233 112.549 300.25 112.128 301.311 112.128H373.223C397.991 112.128 418.639 90.844 420.231 63.672C420.78 56.0852 419.779 48.4661 417.291 41.2781C414.802 34.0901 410.877 27.4834 405.755 21.86C401.851 17.5549 397.101 14.1018 391.801 11.7169C386.501 9.33207 380.766 8.06669 374.955 8H301.311C300.25 8 299.233 7.57857 298.483 6.82843C297.732 6.07828 297.311 5.06087 297.311 4C297.311 2.93913 297.732 1.92172 298.483 1.17157C299.233 0.421424 300.25 0 301.311 0H374.955C381.856 0.0631916 388.669 1.54985 394.969 4.36695C401.269 7.18405 406.919 11.271 411.567 16.372C417.436 22.7897 421.937 30.3346 424.797 38.5474C427.657 46.7602 428.816 55.4691 428.203 64.144C426.367 95.536 402.211 120.128 373.223 120.128Z" fill="#2F3A5A"/>
<path d="M302.975 38.932H108.775C106.701 38.9177 104.655 38.452 102.778 37.5671C100.902 36.6822 99.2414 35.3995 97.911 33.808C94.9614 30.3757 93.3581 25.9894 93.399 21.464C93.1347 17.1122 94.6035 12.8326 97.4846 9.56028C100.366 6.28799 104.425 4.28898 108.775 4H303.487C331.831 4 354.687 31.248 352.743 63.908C350.999 93.656 328.023 116.132 301.743 116.132H129.275C120.924 115.948 112.947 112.631 106.928 106.839C100.908 101.048 97.2858 93.2057 96.779 84.868C94.883 56.748 109.335 38.932 128.195 38.932" fill="#FFC943"/>
<path d="M301.743 120.128H129.275C119.897 119.982 110.923 116.292 104.154 109.8C97.3854 103.308 93.3244 94.4953 92.787 85.132C91.683 68.732 95.835 54.58 104.475 45.336C105.292 44.4622 106.155 43.6318 107.059 42.848C102.32 42.3729 97.9533 40.0683 94.887 36.424C91.3017 32.2692 89.3509 26.9516 89.399 21.464C89.1428 16.0528 91.0363 10.7598 94.6667 6.73908C98.2971 2.71831 103.37 0.295892 108.779 0H303.487C310.388 0.0631916 317.201 1.54985 323.501 4.36695C329.801 7.18405 335.451 11.271 340.099 16.372C345.968 22.7897 350.469 30.3346 353.329 38.5474C356.189 46.7602 357.348 55.4691 356.735 64.144C354.895 95.536 330.739 120.128 301.743 120.128ZM128.195 42.928C124.83 42.9125 121.499 43.605 118.418 44.9605C115.338 46.316 112.577 48.3042 110.315 50.796C103.203 58.396 99.811 70.396 100.767 84.592C101.245 91.9035 104.43 98.7747 109.7 103.865C114.97 108.955 121.947 111.9 129.271 112.124H301.743C326.507 112.124 347.155 90.84 348.751 63.668C349.3 56.0812 348.299 48.4621 345.811 41.2741C343.322 34.0861 339.397 27.4794 334.275 21.856C330.371 17.5509 325.621 14.0978 320.321 11.7129C315.021 9.32807 309.286 8.06269 303.475 7.996H108.775C105.491 8.29832 102.457 9.87936 100.328 12.3981C98.1995 14.9169 97.146 18.1715 97.395 21.46C97.3499 25.0131 98.5997 28.461 100.911 31.16C101.868 32.3224 103.068 33.2616 104.427 33.9117C105.785 34.5619 107.269 34.9074 108.775 34.924H302.975C304.036 34.924 305.053 35.3454 305.803 36.0956C306.554 36.8457 306.975 37.8631 306.975 38.924C306.975 39.9849 306.554 41.0023 305.803 41.7524C305.053 42.5026 304.036 42.924 302.975 42.924L128.195 42.928Z" fill="#2F3A5A"/>
<path d="M303.487 85.1996H128.195C127.134 85.1996 126.117 84.7782 125.367 84.0281C124.617 83.2779 124.195 82.2605 124.195 81.1996C124.195 80.1388 124.617 79.1214 125.367 78.3712C126.117 77.6211 127.134 77.1996 128.195 77.1996H303.487C305.5 77.1671 307.48 76.6864 309.283 75.7924C311.086 74.8984 312.667 73.6137 313.911 72.0316C315.66 69.8594 316.91 67.3292 317.572 64.6202C318.234 61.9112 318.293 59.0897 317.743 56.3556C317.253 52.7387 315.504 49.4103 312.803 46.9552C310.102 44.5001 306.622 43.0754 302.975 42.9316C301.914 42.9316 300.897 42.5102 300.147 41.7601C299.397 41.0099 298.975 39.9925 298.975 38.9316C298.975 37.8708 299.397 36.8534 300.147 36.1032C300.897 35.3531 301.914 34.9316 302.975 34.9316C308.499 35.0692 313.798 37.1499 317.94 40.8079C322.081 44.4659 324.8 49.4669 325.619 54.9316C326.378 58.8158 326.272 62.8193 325.31 66.658C324.348 70.4967 322.552 74.0766 320.051 77.1436C318.051 79.6198 315.53 81.6251 312.667 83.0174C309.804 84.4097 306.67 85.1547 303.487 85.1996Z" fill="#2F3A5A"/>
<path d="M37.3149 193.328L81.0109 417.14C82.4488 424.54 86.4171 431.208 92.2349 436.001C98.0526 440.794 105.357 443.413 112.895 443.408H399.951C407.489 443.413 414.793 440.794 420.611 436.001C426.429 431.208 430.397 424.54 431.835 417.14L475.531 193.328H37.3149ZM78.1149 234.816H116.515L121.031 271.98H83.8949L78.1149 234.816ZM86.8549 291.476H123.395L127.475 325.184H92.0589L86.8549 291.476ZM94.7949 342.904H129.655L133.351 373.54H99.5469L94.7949 342.904ZM106.367 417.704L102.043 389.66H135.319L138.679 417.704H106.367ZM141.755 234.804H180.219L182.667 271.968H145.467L141.755 234.804ZM147.355 291.464H183.895L186.151 325.172H150.735L147.355 291.464ZM152.511 342.904H187.311L189.311 373.54H155.539L152.511 342.904ZM159.907 417.704L157.107 389.66H190.383L192.255 417.704H159.907ZM205.379 234.816H243.843L244.243 271.98H207.043L205.379 234.816ZM207.875 291.476H244.467L244.803 325.184H209.367L207.875 291.476ZM210.183 342.904H244.983L245.319 373.54H211.527L210.183 342.904ZM213.447 417.704L212.247 389.66H245.523L245.811 417.704H213.447ZM299.399 417.704H267.035L267.323 389.66H300.599L299.399 417.704ZM301.319 373.528H267.515L267.851 342.892H302.651L301.319 373.528ZM303.479 325.172H268.043L268.443 291.464H304.983L303.479 325.172ZM305.831 271.972H268.631L269.031 234.808H307.495L305.831 271.972ZM352.939 417.704H320.575L322.447 389.66H355.723L352.939 417.704ZM357.311 373.528H323.503L325.503 342.892H360.383L357.311 373.528ZM362.111 325.172H326.675L328.931 291.464H365.475L362.111 325.172ZM367.391 271.972H330.191L332.687 234.808H371.087L367.391 271.972ZM406.479 417.708H374.163L377.523 389.664H410.799L406.479 417.708ZM413.279 373.532H379.495L383.191 342.896H418.051L413.279 373.532ZM420.771 325.176H385.351L389.435 291.468H425.975L420.771 325.176ZM428.983 271.976H391.783L396.295 234.812H434.695L428.983 271.976Z" fill="#078DD8" stroke="#2F3A5A" stroke-width="8" stroke-linecap="round" stroke-linejoin="round"/>
<path d="M489.187 167.703H23.6632C18.5615 167.703 13.6688 169.73 10.0613 173.337C6.45389 176.945 4.42725 181.837 4.42725 186.939C4.42725 192.041 6.45389 196.934 10.0613 200.541C13.6688 204.148 18.5615 206.175 23.6632 206.175H489.187C494.289 206.175 499.182 204.148 502.789 200.541C506.397 196.934 508.423 192.041 508.423 186.939C508.423 181.837 506.397 176.945 502.789 173.337C499.182 169.73 494.289 167.703 489.187 167.703Z" fill="#078DD8"/>
<path d="M508.219 184.228C508.001 184.194 507.78 184.181 507.559 184.188H42.0232C36.931 184.188 32.0474 186.211 28.4467 189.811C24.846 193.412 22.8232 198.296 22.8232 203.388C22.8281 204.297 22.8963 205.204 23.0272 206.104C17.935 206.017 13.0858 203.912 9.54619 200.25C6.00663 196.588 4.0667 191.67 4.15316 186.578C4.23962 181.486 6.34539 176.637 10.0072 173.097C13.6691 169.557 18.587 167.617 23.6792 167.704H489.171C493.806 167.695 498.287 169.364 501.788 172.401C505.289 175.438 507.573 179.639 508.219 184.228Z" fill="#0AA4E8"/>
<path d="M489.183 210.167H23.6671C20.58 210.225 17.5124 209.666 14.6436 208.524C11.7748 207.382 9.16229 205.68 6.95881 203.517C4.75533 201.354 3.00504 198.774 1.81021 195.927C0.615392 193.08 0 190.023 0 186.935C0 183.848 0.615392 180.791 1.81021 177.944C3.00504 175.097 4.75533 172.516 6.95881 170.353C9.16229 168.19 11.7748 166.488 14.6436 165.346C17.5124 164.204 20.58 163.646 23.6671 163.703H489.183C495.346 163.703 501.257 166.152 505.615 170.509C509.973 174.867 512.421 180.778 512.421 186.941C512.421 193.104 509.973 199.015 505.615 203.373C501.257 207.731 495.346 210.179 489.183 210.179V210.167ZM23.6671 171.703C21.666 171.703 19.6846 172.097 17.8358 172.863C15.987 173.629 14.3072 174.751 12.8922 176.166C11.4773 177.581 10.3548 179.261 9.58905 181.11C8.82327 182.959 8.42913 184.94 8.42913 186.941C8.42913 188.942 8.82327 190.924 9.58905 192.773C10.3548 194.621 11.4773 196.301 12.8922 197.716C14.3072 199.131 15.987 200.254 17.8358 201.019C19.6846 201.785 21.666 202.179 23.6671 202.179H489.183C491.184 202.179 493.166 201.785 495.014 201.019C496.863 200.254 498.543 199.131 499.958 197.716C501.373 196.301 502.495 194.621 503.261 192.773C504.027 190.924 504.421 188.942 504.421 186.941C504.421 184.94 504.027 182.959 503.261 181.11C502.495 179.261 501.373 177.581 499.958 176.166C498.543 174.751 496.863 173.629 495.014 172.863C493.166 172.097 491.184 171.703 489.183 171.703H23.6671Z" fill="#2F3A5A"/>
</svg>
