<svg xmlns="http://www.w3.org/2000/svg" xmlns:xlink="http://www.w3.org/1999/xlink" width="400" zoomAndPan="magnify" viewBox="0 0 300 299.999988" height="400" preserveAspectRatio="xMidYMid meet" version="1.0"><defs><clipPath id="0ab668d894"><path d="M 139 104.773438 L 150 104.773438 L 150 108 L 139 108 Z M 139 104.773438 " clip-rule="nonzero"/></clipPath><clipPath id="4919c6fdf4"><path d="M 122.632812 106 L 166 106 L 166 143.773438 L 122.632812 143.773438 Z M 122.632812 106 " clip-rule="nonzero"/></clipPath><clipPath id="0686af1f6d"><path d="M 25 49.027344 L 275 49.027344 L 275 250.777344 L 25 250.777344 Z M 25 49.027344 " clip-rule="nonzero"/></clipPath><clipPath id="43ddabb114"><path d="M 25 49.027344 L 252 49.027344 L 252 250.777344 L 25 250.777344 Z M 25 49.027344 " clip-rule="nonzero"/></clipPath><clipPath id="5a0ebd3dee"><path d="M 25 49.027344 L 188 49.027344 L 188 176 L 25 176 Z M 25 49.027344 " clip-rule="nonzero"/></clipPath><clipPath id="e293dbac99"><path d="M 27 49.027344 L 275 49.027344 L 275 237 L 27 237 Z M 27 49.027344 " clip-rule="nonzero"/></clipPath></defs><g clip-path="url(#0ab668d894)"><path fill="#ddbaba" d="M 139.746094 105.945312 C 139.640625 105.679688 139.585938 105.359375 139.800781 105.203125 C 139.855469 105.148438 139.960938 105.148438 140.015625 105.148438 C 141.03125 105.042969 142.105469 104.933594 143.121094 104.882812 C 143.65625 104.828125 144.195312 104.828125 144.730469 104.828125 C 145.960938 104.773438 147.140625 104.828125 148.320312 104.988281 C 148.640625 105.042969 148.960938 105.09375 149.285156 105.203125 C 149.390625 105.253906 149.445312 105.253906 149.496094 105.359375 C 149.550781 105.46875 149.605469 105.574219 149.605469 105.679688 C 149.660156 105.945312 149.660156 106.265625 149.496094 106.480469 C 149.335938 106.640625 149.175781 106.800781 149.070312 107.011719 C 148.695312 107.492188 147.945312 107.386719 147.410156 107.4375 C 146.710938 107.492188 145.960938 107.546875 145.265625 107.597656 C 143.820312 107.652344 142.371094 107.652344 140.925781 107.546875 C 140.335938 107.4375 139.960938 106.425781 139.746094 105.945312 Z M 139.746094 105.945312 " fill-opacity="1" fill-rule="nonzero"/></g><g clip-path="url(#4919c6fdf4)"><path fill="#ffe3e3" d="M 165.519531 140.953125 C 165.410156 141.109375 165.25 141.269531 165.089844 141.429688 C 164.929688 141.589844 164.769531 141.695312 164.605469 141.804688 C 163.964844 142.28125 163.160156 142.65625 162.515625 142.921875 C 161.765625 143.242188 160.964844 143.507812 160.160156 143.613281 C 159.945312 143.613281 157.695312 143.773438 157.695312 143.667969 C 158.015625 142.125 158.285156 140.523438 157.964844 138.980469 C 157.910156 138.714844 157.855469 138.445312 157.75 138.179688 C 157.695312 138.019531 157.640625 137.859375 157.589844 137.703125 C 157.480469 137.382812 157.320312 137.0625 157.214844 136.6875 C 157.105469 136.421875 157.050781 136.15625 156.945312 135.835938 C 156.785156 135.195312 156.625 134.503906 156.515625 133.863281 C 156.785156 135.355469 156.675781 137.382812 156.570312 138.875 C 156.570312 139.085938 156.515625 139.300781 156.355469 139.40625 C 156.195312 139.511719 155.980469 139.511719 155.765625 139.511719 C 150.035156 139.03125 144.300781 138.339844 138.621094 139.351562 C 137.175781 139.621094 135.726562 139.992188 134.226562 140.046875 C 133.640625 140.046875 132.996094 140.046875 132.566406 139.621094 C 131.871094 138.925781 132.351562 137.859375 132.351562 137.007812 C 132.300781 136.15625 131.925781 135.355469 132.085938 134.503906 C 131.976562 135.039062 131.871094 135.570312 131.710938 136.101562 C 131.65625 136.316406 131.601562 136.476562 131.550781 136.636719 C 131.335938 137.167969 131.121094 137.703125 130.960938 138.289062 C 130.90625 138.5 130.851562 138.714844 130.800781 138.925781 C 130.800781 138.980469 130.800781 139.03125 130.800781 139.085938 C 130.53125 140.578125 130.800781 142.125 131.066406 143.613281 C 131.066406 143.722656 128.816406 143.5625 128.601562 143.5625 C 127.796875 143.457031 126.996094 143.1875 126.246094 142.871094 C 125.601562 142.601562 124.960938 142.28125 124.316406 141.855469 C 124.15625 141.75 124.046875 141.644531 123.886719 141.539062 C 123.621094 141.324219 123.40625 141.109375 123.246094 140.898438 C 122.816406 140.3125 122.816406 139.9375 123.191406 139.351562 C 123.671875 138.445312 124.15625 137.59375 124.53125 136.636719 C 124.691406 136.210938 124.796875 135.835938 124.960938 135.410156 C 125.011719 135.25 125.066406 135.089844 125.121094 134.878906 C 125.441406 133.8125 125.710938 132.691406 125.921875 131.574219 C 126.941406 126.992188 128.066406 122.410156 129.246094 117.882812 C 129.460938 117.027344 129.675781 116.175781 129.941406 115.378906 C 130.316406 114.417969 130.691406 113.621094 131.28125 112.875 C 131.335938 112.765625 131.441406 112.605469 131.550781 112.5 C 131.871094 112.128906 132.246094 111.753906 132.621094 111.433594 C 133.15625 110.847656 133.90625 110.421875 134.496094 109.996094 C 135.621094 109.144531 136.800781 108.34375 138.03125 107.652344 C 138.191406 107.546875 138.355469 107.4375 138.515625 107.332031 C 139.90625 106.480469 141.890625 106.746094 143.445312 106.691406 C 145.320312 106.640625 147.195312 106.53125 149.015625 106.480469 C 149.496094 106.480469 150.140625 107.171875 150.570312 107.4375 C 151.160156 107.863281 151.75 108.34375 152.390625 108.71875 C 153.625 109.410156 154.75 110.210938 155.765625 111.167969 C 155.820312 111.222656 155.875 111.273438 155.925781 111.328125 C 156.464844 111.753906 156.890625 112.179688 157.265625 112.660156 C 157.375 112.820312 157.480469 112.925781 157.589844 113.085938 C 158.070312 113.726562 158.445312 114.472656 158.714844 115.378906 C 159.035156 116.230469 159.25 117.027344 159.410156 117.882812 C 160.535156 122.464844 161.660156 126.992188 162.730469 131.574219 C 162.945312 132.585938 163.214844 133.652344 163.480469 134.664062 C 163.535156 134.878906 163.589844 135.089844 163.640625 135.25 C 163.804688 135.730469 163.910156 136.15625 164.125 136.636719 C 164.5 137.59375 164.980469 138.5 165.464844 139.351562 C 165.894531 139.992188 165.945312 140.363281 165.519531 140.953125 Z M 165.519531 140.953125 " fill-opacity="1" fill-rule="nonzero"/></g><path fill="#ddbaba" d="M 150.355469 106.640625 C 150.195312 106.265625 150.035156 105.894531 149.765625 105.574219 C 149.710938 105.46875 149.605469 105.359375 149.496094 105.253906 C 149.390625 105.203125 149.230469 105.09375 149.121094 105.148438 C 149.121094 105.46875 148.960938 105.734375 148.910156 106.054688 C 148.910156 106.214844 148.855469 106.375 148.855469 106.53125 C 148.855469 106.691406 148.800781 106.800781 148.800781 106.90625 C 148.371094 108.929688 147.035156 110.957031 144.890625 111.382812 C 144.78125 111.382812 144.675781 111.382812 144.621094 111.382812 C 144.460938 111.382812 144.355469 111.382812 144.195312 111.382812 C 144.140625 111.382812 144.085938 111.382812 143.980469 111.382812 C 144.03125 111.382812 143.980469 111.382812 143.980469 111.382812 C 143.980469 111.382812 143.980469 111.382812 143.925781 111.382812 C 143.871094 111.328125 143.871094 111.328125 143.820312 111.273438 C 143.605469 111.113281 143.28125 111.007812 143.070312 110.847656 C 142.800781 110.6875 142.53125 110.476562 142.320312 110.261719 C 141.835938 109.835938 141.460938 109.304688 141.140625 108.769531 C 140.871094 108.292969 140.65625 107.8125 140.496094 107.332031 C 140.335938 106.851562 140.335938 106.480469 140.28125 106 C 140.230469 105.679688 140.066406 105.414062 140.066406 105.09375 C 139.90625 105.09375 139.800781 105.148438 139.691406 105.203125 C 139.585938 105.308594 139.480469 105.414062 139.425781 105.519531 C 139.15625 105.839844 138.996094 106.214844 138.835938 106.585938 C 138.730469 106.800781 138.621094 107.066406 138.621094 107.332031 C 138.515625 107.972656 138.515625 108.664062 138.835938 109.25 C 139.265625 110.15625 140.066406 110.742188 140.925781 111.167969 C 140.980469 111.167969 140.980469 111.222656 141.03125 111.222656 C 141.085938 111.222656 141.140625 111.222656 141.191406 111.222656 C 141.515625 111.167969 141.835938 110.957031 142.105469 111.0625 C 142.425781 111.222656 142.800781 111.433594 143.121094 111.648438 C 143.175781 111.703125 143.230469 111.703125 143.28125 111.753906 C 143.335938 111.808594 143.28125 111.914062 143.28125 112.019531 C 142.90625 113.085938 142.425781 114.207031 142.105469 115.324219 C 142.105469 115.378906 142.050781 115.484375 142.050781 115.539062 C 142.050781 115.589844 142.105469 115.695312 142.105469 115.75 C 142.371094 116.441406 142.585938 117.136719 142.960938 117.773438 C 142.960938 117.828125 143.015625 117.828125 143.015625 117.882812 C 142.640625 118.46875 142.265625 119.054688 142.050781 119.691406 C 142.050781 119.746094 142.15625 119.800781 142.15625 119.746094 C 142.371094 119.265625 142.640625 118.839844 142.90625 118.414062 C 142.960938 118.308594 143.070312 118.253906 143.121094 118.148438 C 143.390625 118.679688 143.65625 119.160156 143.820312 119.746094 C 143.871094 119.960938 144.246094 120.066406 144.355469 119.800781 C 144.621094 119.105469 144.945312 118.414062 145.320312 117.722656 C 145.371094 117.988281 145.480469 118.308594 145.585938 118.574219 C 145.800781 119.054688 146.070312 119.480469 146.605469 119.53125 C 146.820312 119.53125 146.871094 119.214844 146.660156 119.160156 C 146.121094 119 145.90625 118.203125 145.800781 117.773438 C 145.746094 117.507812 145.695312 117.296875 145.640625 117.027344 C 145.800781 116.761719 145.90625 116.441406 146.070312 116.175781 C 146.121094 116.125 146.121094 116.015625 146.175781 115.964844 C 146.175781 115.855469 146.175781 115.75 146.175781 115.644531 C 146.070312 115.21875 145.960938 114.738281 145.855469 114.3125 C 145.90625 114.3125 146.015625 114.363281 146.070312 114.363281 C 146.550781 114.417969 147.246094 113.992188 147.246094 113.460938 C 147.246094 112.925781 146.605469 112.554688 146.175781 112.394531 C 145.90625 112.289062 145.640625 112.179688 145.371094 112.128906 C 145.371094 112.074219 145.425781 111.96875 145.480469 111.914062 C 145.746094 111.648438 146.335938 111.488281 146.660156 111.328125 C 146.765625 111.273438 146.980469 111.113281 147.140625 111.0625 C 147.246094 111.0625 147.410156 111.167969 147.515625 111.222656 C 147.730469 111.273438 147.945312 111.382812 148.160156 111.328125 C 148.371094 111.273438 148.535156 111.113281 148.695312 111.007812 C 148.910156 110.847656 149.175781 110.6875 149.390625 110.476562 C 149.820312 110.101562 150.195312 109.675781 150.410156 109.195312 C 150.675781 108.609375 150.730469 108.023438 150.625 107.4375 C 150.570312 107.171875 150.515625 106.90625 150.355469 106.640625 Z M 143.65625 113.992188 C 143.710938 113.566406 143.820312 113.140625 143.925781 112.660156 C 143.925781 112.714844 143.980469 112.765625 143.980469 112.820312 C 144.085938 113.085938 144.246094 113.300781 144.300781 113.621094 C 144.355469 113.9375 144.355469 114.257812 144.300781 114.578125 C 144.246094 114.84375 144.195312 115.109375 144.03125 115.324219 C 143.765625 115.644531 143.65625 115.164062 143.605469 114.953125 C 143.550781 114.632812 143.605469 114.3125 143.65625 113.992188 Z M 143.335938 117.347656 C 143.175781 117.082031 143.015625 116.816406 142.90625 116.550781 C 142.800781 116.390625 142.746094 116.230469 142.695312 116.015625 C 142.695312 115.855469 142.695312 115.695312 142.746094 115.539062 C 142.855469 115.003906 143.015625 114.523438 143.230469 113.992188 C 143.175781 114.472656 143.121094 115.058594 143.390625 115.484375 C 143.496094 115.695312 143.765625 115.855469 143.980469 115.804688 C 144.085938 115.804688 144.195312 115.695312 144.300781 115.644531 C 144.300781 115.695312 144.246094 115.804688 144.246094 115.855469 C 144.03125 116.335938 143.820312 116.816406 143.496094 117.242188 C 143.390625 117.296875 143.335938 117.347656 143.335938 117.347656 Z M 145.105469 116.921875 C 144.835938 117.613281 144.515625 118.308594 144.140625 119 C 144.195312 118.894531 143.925781 118.46875 143.871094 118.359375 C 143.765625 118.148438 143.65625 117.933594 143.550781 117.722656 C 143.550781 117.722656 143.550781 117.667969 143.496094 117.667969 C 143.605469 117.507812 143.765625 117.347656 143.871094 117.1875 C 144.140625 116.816406 144.355469 116.335938 144.570312 115.855469 C 144.730469 115.539062 144.78125 115.164062 144.835938 114.84375 C 144.945312 115.484375 144.996094 116.125 145.105469 116.710938 C 145.105469 116.816406 145.105469 116.871094 145.105469 116.921875 Z M 146.660156 113.351562 C 146.765625 113.511719 146.765625 113.621094 146.660156 113.726562 C 146.550781 113.886719 146.335938 113.992188 146.175781 113.992188 C 146.015625 113.992188 145.90625 113.886719 145.746094 113.832031 C 145.695312 113.566406 145.640625 113.246094 145.53125 112.980469 C 145.53125 112.925781 145.53125 112.875 145.480469 112.875 C 145.90625 112.925781 146.390625 113.03125 146.660156 113.351562 Z M 132.996094 124.167969 C 133.101562 125.980469 133.210938 127.84375 133.101562 129.710938 C 133.101562 130.296875 133.050781 130.828125 132.996094 131.414062 C 132.890625 132.53125 132.78125 133.652344 132.566406 134.769531 C 132.460938 135.355469 132.300781 135.996094 132.191406 136.582031 C 132.191406 135.941406 132.136719 135.304688 132.136719 134.664062 C 132.03125 135.195312 131.925781 135.730469 131.761719 136.261719 C 131.816406 135.515625 131.976562 134.769531 132.136719 133.972656 C 132.300781 133.226562 132.40625 132.480469 132.511719 131.734375 C 132.726562 129.441406 132.726562 127.097656 132.566406 124.808594 C 132.460938 123.15625 132.300781 121.558594 132.136719 119.90625 C 132.085938 119.214844 131.976562 118.46875 131.925781 117.773438 C 131.761719 116.175781 131.65625 114.523438 131.28125 112.925781 C 131.335938 112.820312 131.441406 112.660156 131.550781 112.554688 C 131.871094 113.511719 132.085938 114.472656 132.191406 115.484375 C 132.191406 115.484375 132.191406 115.539062 132.191406 115.539062 C 132.246094 116.015625 132.300781 116.550781 132.351562 117.082031 C 132.621094 119.375 132.835938 121.769531 132.996094 124.167969 Z M 156.945312 135.941406 C 156.785156 135.304688 156.625 134.609375 156.515625 133.972656 C 156.675781 134.769531 156.675781 135.625 156.570312 136.476562 C 156.570312 136.421875 156.570312 136.371094 156.570312 136.316406 C 156.464844 135.570312 156.355469 134.824219 156.300781 134.078125 C 156.25 133.277344 156.25 132.425781 156.25 131.628906 L 156.25 131.09375 C 156.25 130.082031 156.300781 129.125 156.300781 128.164062 C 156.355469 126.9375 156.410156 125.660156 156.464844 124.433594 C 156.625 120.492188 156.410156 116.496094 157.320312 112.660156 C 157.425781 112.820312 157.535156 112.925781 157.640625 113.085938 C 157.050781 116.871094 156.890625 120.757812 156.785156 124.542969 C 156.730469 126.726562 156.675781 128.910156 156.625 131.09375 C 156.625 132.160156 156.625 133.171875 156.675781 134.238281 C 156.675781 134.664062 156.785156 135.039062 156.785156 135.464844 C 156.890625 135.625 156.945312 135.78125 156.945312 135.941406 Z M 130.746094 138.339844 C 130.851562 138.394531 130.90625 138.445312 131.011719 138.445312 C 130.960938 138.660156 130.90625 138.875 130.851562 139.085938 C 130.851562 139.140625 130.851562 139.191406 130.851562 139.246094 C 130.425781 139.140625 129.941406 138.820312 129.621094 138.605469 C 129.03125 138.289062 128.496094 137.96875 127.960938 137.59375 C 127.421875 137.273438 126.941406 136.902344 126.460938 136.527344 C 126.351562 137.007812 126.136719 137.488281 125.921875 137.96875 C 125.710938 138.554688 125.496094 139.085938 125.28125 139.671875 C 125.011719 140.417969 124.746094 141.21875 124.421875 141.964844 C 124.261719 141.855469 124.15625 141.75 123.996094 141.644531 C 124.261719 140.898438 124.53125 140.207031 124.796875 139.460938 C 125.011719 138.925781 125.226562 138.394531 125.386719 137.859375 C 125.601562 137.328125 125.761719 136.742188 126.085938 136.261719 C 125.710938 135.996094 125.386719 135.730469 125.066406 135.410156 C 125.121094 135.25 125.171875 135.089844 125.226562 134.878906 C 126.246094 135.570312 127.261719 136.210938 128.335938 136.847656 C 128.871094 137.167969 129.460938 137.488281 130.050781 137.808594 C 130.210938 138.019531 130.476562 138.179688 130.746094 138.339844 Z M 165.089844 141.429688 C 164.929688 141.589844 164.769531 141.695312 164.605469 141.804688 C 164.5 141.589844 164.394531 141.378906 164.285156 141.164062 C 164.019531 140.632812 163.75 140.097656 163.429688 139.566406 C 163.105469 139.03125 162.785156 138.5 162.464844 137.914062 C 162.304688 137.648438 162.140625 137.328125 161.980469 137.0625 C 161.875 136.847656 161.765625 136.636719 161.660156 136.421875 C 160.375 137.113281 159.089844 137.753906 157.75 138.179688 C 157.695312 138.019531 157.640625 137.859375 157.589844 137.703125 C 158.980469 137.007812 160.429688 136.421875 161.820312 135.675781 C 162.464844 135.355469 163.054688 134.984375 163.640625 134.609375 C 163.695312 134.824219 163.75 135.039062 163.804688 135.195312 C 163.265625 135.515625 162.730469 135.835938 162.195312 136.15625 C 162.355469 136.371094 162.464844 136.582031 162.625 136.796875 C 162.785156 137.0625 163 137.382812 163.160156 137.648438 C 163.480469 138.179688 163.804688 138.714844 164.125 139.300781 C 164.445312 139.832031 164.769531 140.363281 164.980469 140.953125 C 164.980469 141.164062 165.035156 141.324219 165.089844 141.429688 Z M 165.089844 141.429688 " fill-opacity="1" fill-rule="nonzero"/><path fill="#ffffff" d="M 144.996094 110.050781 C 144.890625 110.15625 144.621094 110.210938 144.460938 110.210938 C 144.300781 110.210938 144.085938 110.210938 143.925781 110.15625 C 143.550781 110.101562 143.230469 109.941406 142.90625 109.730469 C 142.585938 109.515625 142.371094 109.195312 142.15625 108.878906 C 141.890625 108.503906 141.621094 108.132812 141.355469 107.757812 C 141.300781 107.652344 141.40625 107.546875 141.515625 107.652344 C 141.78125 107.972656 142.050781 108.292969 142.320312 108.609375 C 142.53125 108.878906 142.746094 109.144531 143.015625 109.410156 C 143.28125 109.625 143.605469 109.78125 143.925781 109.835938 C 144.085938 109.890625 144.246094 109.835938 144.460938 109.835938 C 144.621094 109.835938 144.78125 109.78125 144.945312 109.78125 C 145.050781 109.835938 145.050781 109.996094 144.996094 110.050781 Z M 146.015625 109.355469 C 145.960938 109.355469 145.960938 109.355469 145.960938 109.410156 C 145.960938 109.410156 145.960938 109.410156 145.90625 109.410156 C 145.90625 109.410156 145.855469 109.410156 145.855469 109.464844 C 145.855469 109.464844 145.800781 109.515625 145.800781 109.515625 C 145.800781 109.515625 145.746094 109.515625 145.746094 109.515625 C 145.746094 109.515625 145.746094 109.515625 145.695312 109.515625 C 145.640625 109.515625 145.585938 109.515625 145.585938 109.570312 C 145.53125 109.625 145.53125 109.675781 145.53125 109.675781 C 145.53125 109.730469 145.53125 109.730469 145.585938 109.78125 C 145.640625 109.835938 145.695312 109.835938 145.746094 109.835938 C 145.855469 109.835938 145.910156 109.78125 145.960938 109.730469 C 145.960938 109.730469 146.015625 109.675781 146.015625 109.675781 C 146.015625 109.675781 146.015625 109.675781 146.070312 109.625 C 146.070312 109.625 146.070312 109.570312 146.070312 109.570312 C 146.070312 109.570312 146.070312 109.515625 146.070312 109.515625 C 146.121094 109.464844 146.070312 109.410156 146.015625 109.355469 Z M 139.746094 108.769531 C 139.691406 108.71875 139.691406 108.609375 139.640625 108.558594 C 139.585938 108.398438 139.53125 108.238281 139.480469 108.078125 C 139.425781 107.757812 139.371094 107.386719 139.425781 107.011719 C 139.425781 106.851562 139.210938 106.851562 139.15625 106.960938 C 139.105469 107.332031 139.105469 107.757812 139.15625 108.132812 C 139.210938 108.34375 139.265625 108.503906 139.316406 108.664062 C 139.371094 108.769531 139.371094 108.824219 139.425781 108.929688 C 139.480469 109.039062 139.53125 109.089844 139.585938 109.144531 C 139.691406 109.25 139.800781 109.089844 139.746094 108.984375 C 139.855469 108.984375 139.800781 108.878906 139.746094 108.769531 Z M 136.640625 110.261719 C 136.53125 110.261719 136.476562 110.371094 136.371094 110.421875 C 136.265625 110.476562 136.210938 110.582031 136.15625 110.636719 C 135.996094 110.796875 135.835938 110.902344 135.675781 111.0625 C 135.515625 111.167969 135.351562 111.328125 135.191406 111.433594 C 135.085938 111.488281 135.03125 111.542969 134.976562 111.648438 C 134.925781 111.703125 134.816406 111.808594 134.765625 111.859375 C 134.710938 111.914062 134.816406 112.019531 134.871094 112.019531 C 134.976562 112.019531 135.03125 111.914062 135.140625 111.859375 C 135.246094 111.808594 135.351562 111.753906 135.40625 111.703125 C 135.566406 111.59375 135.726562 111.433594 135.890625 111.273438 C 136.050781 111.113281 136.210938 111.007812 136.371094 110.847656 C 136.476562 110.796875 136.53125 110.6875 136.585938 110.636719 C 136.640625 110.527344 136.746094 110.476562 136.746094 110.371094 C 136.746094 110.261719 136.691406 110.210938 136.640625 110.261719 Z M 133.960938 112.714844 C 133.90625 112.820312 133.800781 112.925781 133.746094 112.980469 L 133.640625 113.140625 C 133.585938 113.191406 133.585938 113.246094 133.53125 113.300781 C 133.53125 113.351562 133.53125 113.40625 133.53125 113.40625 C 133.585938 113.460938 133.640625 113.40625 133.691406 113.40625 C 133.746094 113.351562 133.800781 113.351562 133.800781 113.300781 C 133.851562 113.246094 133.851562 113.191406 133.90625 113.191406 C 133.960938 113.085938 134.066406 113.03125 134.121094 112.925781 C 134.175781 112.875 134.175781 112.765625 134.121094 112.714844 C 134.066406 112.660156 134.015625 112.660156 133.960938 112.714844 Z M 130.425781 118.894531 C 129.886719 120.597656 129.40625 122.355469 128.976562 124.113281 C 128.761719 124.96875 128.550781 125.875 128.335938 126.726562 C 128.226562 127.152344 128.121094 127.578125 128.066406 128.003906 C 127.960938 128.429688 127.851562 128.855469 127.796875 129.335938 C 127.796875 129.441406 127.960938 129.441406 127.960938 129.335938 C 128.121094 128.910156 128.175781 128.484375 128.28125 128.058594 C 128.386719 127.632812 128.496094 127.152344 128.601562 126.726562 C 128.816406 125.875 129.03125 124.96875 129.246094 124.113281 C 129.675781 122.355469 130.101562 120.652344 130.585938 118.894531 C 130.585938 118.839844 130.425781 118.789062 130.425781 118.894531 Z M 127.371094 130.5625 C 127.316406 130.773438 127.261719 130.988281 127.210938 131.203125 C 127.15625 131.308594 127.15625 131.359375 127.101562 131.46875 C 127.046875 131.574219 126.996094 131.679688 126.941406 131.789062 C 126.886719 131.894531 127.046875 131.894531 127.101562 131.894531 C 127.210938 131.839844 127.261719 131.734375 127.316406 131.628906 C 127.371094 131.519531 127.421875 131.414062 127.476562 131.308594 C 127.585938 131.09375 127.585938 130.882812 127.636719 130.667969 C 127.636719 130.457031 127.371094 130.402344 127.371094 130.5625 Z M 135.191406 122.089844 C 135.191406 121.929688 134.976562 121.929688 134.976562 122.089844 C 134.976562 123.902344 135.085938 125.714844 135.085938 127.523438 C 135.085938 128.429688 135.140625 129.28125 135.140625 130.1875 C 135.140625 130.667969 135.140625 131.09375 135.140625 131.574219 C 135.140625 132 135.140625 132.425781 135.191406 132.851562 C 135.191406 132.960938 135.40625 132.960938 135.40625 132.851562 C 135.460938 132.425781 135.460938 132.054688 135.460938 131.628906 C 135.460938 131.148438 135.460938 130.722656 135.460938 130.242188 C 135.460938 129.335938 135.460938 128.429688 135.40625 127.523438 C 135.460938 125.660156 135.351562 123.847656 135.191406 122.089844 Z M 135.246094 134.664062 C 135.140625 134.664062 135.085938 134.71875 135.085938 134.824219 C 135.085938 135.039062 135.03125 135.195312 135.03125 135.410156 C 135.03125 135.515625 135.03125 135.570312 135.03125 135.675781 C 135.03125 135.730469 135.03125 135.78125 135.03125 135.835938 C 135.03125 135.890625 135.03125 135.941406 135.085938 135.996094 C 135.140625 136.050781 135.246094 136.101562 135.300781 135.996094 C 135.300781 135.941406 135.351562 135.941406 135.351562 135.890625 C 135.351562 135.890625 135.351562 135.835938 135.351562 135.835938 C 135.351562 135.78125 135.351562 135.730469 135.351562 135.675781 C 135.351562 135.570312 135.40625 135.464844 135.40625 135.355469 C 135.40625 135.144531 135.460938 134.984375 135.460938 134.769531 C 135.40625 134.769531 135.351562 134.664062 135.246094 134.664062 Z M 158.660156 132.851562 C 158.445312 131.945312 158.445312 130.988281 158.550781 130.027344 C 158.605469 129.015625 158.660156 128.058594 158.714844 127.046875 C 158.765625 125.019531 158.714844 123.050781 158.660156 121.023438 C 158.660156 120.863281 158.445312 120.863281 158.445312 121.023438 C 158.390625 123.101562 158.445312 125.128906 158.339844 127.207031 C 158.285156 128.21875 158.230469 129.175781 158.175781 130.1875 C 158.125 131.148438 158.070312 132.054688 158.445312 132.960938 C 158.5 133.011719 158.714844 132.960938 158.660156 132.851562 Z M 159.195312 134.878906 C 159.25 134.878906 159.25 134.824219 159.25 134.769531 C 159.25 134.71875 159.25 134.71875 159.25 134.664062 C 159.25 134.664062 159.25 134.609375 159.195312 134.609375 C 159.195312 134.558594 159.140625 134.503906 159.140625 134.503906 C 159.089844 134.398438 159.089844 134.34375 159.035156 134.238281 C 158.980469 134.078125 158.925781 133.863281 158.875 133.652344 C 158.875 133.597656 158.765625 133.546875 158.714844 133.546875 C 158.605469 133.546875 158.605469 133.652344 158.605469 133.707031 C 158.660156 133.917969 158.660156 134.078125 158.765625 134.292969 C 158.820312 134.398438 158.820312 134.503906 158.875 134.609375 C 158.925781 134.71875 158.980469 134.824219 159.035156 134.878906 C 159.089844 134.878906 159.140625 134.878906 159.195312 134.878906 Z M 159.515625 140.3125 C 159.515625 139.886719 159.464844 139.460938 159.355469 138.980469 C 159.300781 138.820312 159.035156 138.875 159.089844 139.03125 C 159.140625 139.460938 159.140625 139.886719 159.140625 140.3125 C 159.140625 140.523438 159.140625 140.738281 159.140625 140.953125 C 159.140625 141.164062 159.140625 141.378906 159.195312 141.589844 C 159.195312 141.695312 159.355469 141.695312 159.410156 141.589844 C 159.464844 141.484375 159.464844 141.378906 159.464844 141.269531 C 159.464844 141.164062 159.515625 141.058594 159.515625 140.953125 C 159.515625 140.738281 159.515625 140.523438 159.515625 140.3125 Z M 159.515625 140.3125 " fill-opacity="1" fill-rule="nonzero"/><g clip-path="url(#0686af1f6d)"><path fill="#5ba17b" d="M 273.105469 166.851562 C 267.941406 158.0625 258.980469 143.148438 249.257812 128.890625 L 249.269531 128.878906 C 260.238281 100.742188 231.164062 84.613281 212.277344 76.878906 C 193.390625 69.144531 205.15625 53.046875 173.566406 51.8125 C 158.761719 51.230469 147.09375 56.378906 138.878906 62.015625 C 138.878906 62.015625 128.714844 50.1875 107.550781 49.238281 L 107.539062 49.238281 C 107.496094 49.238281 107.449219 49.238281 107.40625 49.234375 L 108.132812 49.226562 L 107.191406 49.226562 C 102.839844 49.046875 98.03125 49.335938 92.746094 50.273438 C 89.578125 50.839844 86.65625 51.601562 83.960938 52.523438 C 83.957031 52.527344 83.949219 52.53125 83.945312 52.53125 L 84.375 52.097656 L 83.925781 52.539062 C 75.039062 55.539062 68.535156 60.242188 63.210938 65.15625 C 55.160156 72.59375 49.832031 80.53125 43.183594 83.898438 C 42.375 84.304688 41.558594 84.648438 40.714844 84.90625 C 34.292969 86.914062 29.34375 96.222656 27.039062 106.828125 C 27.035156 106.839844 27.035156 106.847656 27.03125 106.855469 L 27.027344 106.238281 L 27.027344 106.886719 C 24.335938 119.257812 25.246094 133.375 31.574219 139.699219 C 29.945312 139.699219 28.488281 140.363281 27.417969 141.417969 C 26.363281 142.488281 25.695312 143.945312 25.695312 145.570312 C 25.695312 148.820312 28.332031 151.453125 31.574219 151.453125 L 33.625 151.453125 C 31.773438 156.351562 29.804688 160.683594 27.609375 163.8125 C 25.375 166.992188 26.894531 171.382812 30.625 172.507812 C 33.605469 173.410156 37.5 174.074219 42.382812 173.976562 L 56.289062 239.546875 C 57.679688 246.097656 63.46875 250.785156 70.175781 250.785156 L 213.789062 250.785156 C 220.492188 250.785156 226.285156 246.097656 227.671875 239.546875 L 239.953125 181.652344 C 240.097656 182.035156 240.234375 182.414062 240.367188 182.78125 C 242.085938 187.609375 247.667969 189.804688 252.214844 187.394531 C 257.945312 184.359375 264.546875 181.0625 269.582031 178.582031 C 273.949219 176.433594 275.5625 171.050781 273.105469 166.851562 Z M 86.714844 92 C 86.714844 91.988281 86.714844 91.988281 86.714844 91.988281 L 86.726562 91.988281 C 86.714844 91.988281 86.714844 91.988281 86.714844 92 Z M 86.714844 92 " fill-opacity="1" fill-rule="nonzero"/></g><g clip-path="url(#43ddabb114)"><path fill="#5ba17b" d="M 235.707031 173.394531 C 235.359375 173.394531 235.015625 173.207031 234.835938 172.878906 C 230.441406 164.886719 224.722656 158.0625 217.753906 152.449219 L 185.628906 152.449219 C 188.097656 157.648438 187.847656 161.542969 182.089844 166.304688 C 174.992188 172.183594 158.203125 175.804688 142.976562 175.300781 L 142.976562 235.765625 C 142.976562 236.3125 142.53125 236.757812 141.984375 236.757812 C 141.433594 236.757812 140.988281 236.3125 140.988281 235.765625 L 140.988281 175.210938 C 133.703125 174.789062 126.902344 173.386719 121.855469 170.789062 C 113.707031 166.601562 112.625 159.066406 109.621094 152.445312 L 66.058594 152.445312 C 64.417969 155.210938 62.796875 158.257812 61.234375 161.523438 C 61.0625 161.882812 60.707031 162.089844 60.335938 162.089844 C 60.195312 162.089844 60.050781 162.058594 59.914062 161.996094 C 58.519531 164.960938 57.429688 167.550781 56.703125 169.367188 C 56.003906 171.121094 54.472656 172.414062 52.621094 172.792969 C 48.8125 173.566406 45.40625 173.914062 42.382812 173.976562 L 56.292969 239.546875 C 57.679688 246.097656 63.472656 250.785156 70.175781 250.785156 L 213.789062 250.785156 C 220.496094 250.785156 226.285156 246.097656 227.675781 239.546875 L 239.953125 181.652344 C 239.007812 179.121094 237.777344 176.277344 236.179688 173.273438 C 236.03125 173.355469 235.867188 173.394531 235.707031 173.394531 Z M 79.578125 236.738281 C 79.507812 236.753906 79.4375 236.757812 79.371094 236.757812 C 78.910156 236.757812 78.496094 236.4375 78.398438 235.972656 L 64.285156 169.449219 C 64.171875 168.914062 64.515625 168.386719 65.054688 168.273438 C 65.59375 168.15625 66.117188 168.5 66.234375 169.039062 L 80.34375 235.558594 C 80.457031 236.097656 80.113281 236.625 79.578125 236.738281 Z M 110.78125 236.753906 C 110.746094 236.757812 110.710938 236.757812 110.675781 236.757812 C 110.171875 236.757812 109.742188 236.378906 109.6875 235.871094 L 102.632812 169.347656 C 102.574219 168.804688 102.96875 168.3125 103.515625 168.253906 C 104.0625 168.203125 104.550781 168.59375 104.609375 169.140625 L 111.664062 235.660156 C 111.722656 236.207031 111.328125 236.695312 110.78125 236.753906 Z M 181.332031 169.347656 L 174.277344 235.871094 C 174.222656 236.378906 173.792969 236.757812 173.289062 236.757812 C 173.253906 236.757812 173.21875 236.757812 173.183594 236.753906 C 172.636719 236.695312 172.242188 236.207031 172.300781 235.660156 L 179.355469 169.140625 C 179.414062 168.59375 179.902344 168.199219 180.449219 168.253906 C 180.996094 168.3125 181.390625 168.804688 181.332031 169.347656 Z M 219.679688 169.449219 L 205.566406 235.972656 C 205.46875 236.4375 205.054688 236.757812 204.597656 236.757812 C 204.527344 236.757812 204.457031 236.75 204.386719 236.738281 C 203.851562 236.625 203.507812 236.097656 203.621094 235.558594 L 217.734375 169.039062 C 217.847656 168.5 218.375 168.15625 218.910156 168.273438 C 219.449219 168.386719 219.792969 168.914062 219.679688 169.449219 Z M 33.957031 150.5625 C 33.847656 150.859375 33.738281 151.160156 33.628906 151.453125 L 31.574219 151.453125 C 28.332031 151.453125 25.699219 148.820312 25.699219 145.570312 C 25.699219 143.945312 26.363281 142.484375 27.417969 141.417969 C 28.488281 140.363281 29.945312 139.699219 31.574219 139.699219 L 36.585938 139.699219 C 35.644531 142.640625 34.539062 146.042969 33.363281 149.289062 C 33.179688 149.804688 33.445312 150.375 33.957031 150.5625 Z M 73.546875 140.609375 C 73.84375 140.300781 74.140625 139.992188 74.441406 139.699219 L 87.785156 139.699219 C 100.578125 140.511719 105.648438 144.992188 108.636719 150.460938 L 67.273438 150.460938 C 69.386719 147.121094 71.507812 144.277344 73.597656 142 C 73.960938 141.597656 73.9375 140.980469 73.546875 140.609375 Z M 177.921875 139.699219 L 197.207031 139.699219 C 198.03125 140.011719 198.839844 140.332031 199.632812 140.664062 C 199.425781 141.167969 199.65625 141.746094 200.160156 141.960938 C 205.636719 144.308594 210.632812 147.152344 215.15625 150.460938 L 184.597656 150.460938 C 182.921875 147.449219 180.546875 143.976562 177.921875 139.699219 Z M 125.339844 74.550781 C 139.792969 77.980469 152.453125 84.359375 158.746094 87.878906 C 159.226562 88.148438 159.398438 88.753906 159.128906 89.230469 C 159.128906 89.234375 159.128906 89.234375 159.128906 89.234375 C 160.019531 89.742188 160.734375 90.167969 161.265625 90.488281 C 161.488281 90.394531 161.71875 90.304688 161.941406 90.214844 C 161.972656 90.203125 162.003906 90.191406 162.035156 90.183594 C 191.359375 78.523438 198.5 82.035156 217.5625 91.398438 L 217.679688 91.453125 C 224.6875 94.894531 235.011719 106.460938 248.363281 125.824219 C 248.675781 126.277344 248.5625 126.894531 248.109375 127.207031 C 248.492188 127.769531 248.875 128.328125 249.257812 128.890625 L 249.269531 128.878906 C 260.238281 100.742188 231.167969 84.613281 212.277344 76.878906 C 193.390625 69.144531 205.15625 53.046875 173.566406 51.8125 C 158.761719 51.230469 147.09375 56.378906 138.878906 62.015625 C 131.535156 67.058594 126.949219 72.488281 125.339844 74.550781 Z M 227.609375 95.050781 C 227.734375 94.515625 228.269531 94.183594 228.804688 94.308594 C 229.175781 94.398438 237.945312 96.539062 241.117188 104.753906 C 241.316406 105.265625 241.0625 105.839844 240.546875 106.039062 C 240.429688 106.082031 240.308594 106.105469 240.191406 106.105469 C 239.792969 106.105469 239.414062 105.863281 239.261719 105.46875 C 236.476562 98.25 228.429688 96.265625 228.347656 96.246094 C 227.816406 96.117188 227.484375 95.582031 227.609375 95.050781 Z M 174.070312 71.5625 C 174.828125 71.441406 192.699219 68.652344 198.453125 75.625 C 198.804688 76.050781 198.742188 76.675781 198.320312 77.027344 C 198.132812 77.179688 197.910156 77.253906 197.6875 77.253906 C 197.398438 77.253906 197.113281 77.128906 196.917969 76.890625 C 191.886719 70.792969 174.558594 73.5 174.386719 73.527344 C 173.84375 73.613281 173.332031 73.246094 173.246094 72.703125 C 173.15625 72.160156 173.527344 71.652344 174.070312 71.5625 Z M 143.402344 66.085938 C 143.703125 65.746094 150.828125 57.828125 161.425781 58.789062 C 161.972656 58.839844 162.378906 59.324219 162.328125 59.871094 C 162.277344 60.417969 161.796875 60.8125 161.246094 60.769531 C 151.671875 59.894531 144.960938 67.328125 144.894531 67.402344 C 144.699219 67.625 144.425781 67.738281 144.148438 67.738281 C 143.914062 67.738281 143.679688 67.65625 143.492188 67.488281 C 143.078125 67.125 143.039062 66.496094 143.402344 66.085938 Z M 106.945312 49.226562 L 108.132812 49.226562 L 107.40625 49.234375 L 106.945312 49.238281 Z M 83.527344 52.929688 L 83.925781 52.539062 L 84.375 52.097656 L 83.945312 52.53125 L 83.539062 52.941406 Z M 27.027344 107.421875 L 27.027344 106.234375 L 27.03125 106.855469 L 27.039062 107.421875 Z M 27.027344 107.421875 " fill-opacity="1" fill-rule="nonzero"/></g><g clip-path="url(#5a0ebd3dee)"><path fill="#bfa4f3" d="M 36.582031 139.699219 L 31.574219 139.699219 C 25.246094 133.375 24.335938 119.257812 27.027344 106.886719 L 27.027344 107.421875 L 27.039062 107.421875 L 27.035156 106.855469 C 27.035156 106.847656 27.039062 106.839844 27.039062 106.828125 C 27.5 106.769531 37.707031 105.699219 45.753906 113.675781 C 45.699219 113.785156 45.640625 113.894531 45.589844 114 C 42.910156 119.53125 40.527344 127.128906 38.007812 135.175781 C 37.566406 136.582031 37.125 137.992188 36.679688 139.394531 C 36.648438 139.496094 36.617188 139.597656 36.582031 139.699219 Z M 96.628906 74.445312 C 100.035156 73.664062 103.5 73.234375 106.992188 73.234375 C 107.683594 73.234375 108.367188 73.25 109.054688 73.269531 C 109.054688 73.269531 109.054688 73.265625 109.054688 73.261719 C 109.082031 72.710938 109.550781 72.289062 110.097656 72.320312 C 110.53125 72.339844 110.964844 72.367188 111.398438 72.398438 C 111.53125 72.40625 111.664062 72.417969 111.792969 72.429688 C 115.542969 63.726562 107.746094 49.59375 107.550781 49.238281 L 107.539062 49.238281 C 107.496094 49.238281 107.449219 49.238281 107.40625 49.234375 L 106.945312 49.238281 L 106.945312 49.226562 L 107.191406 49.226562 C 102.839844 49.042969 98.03125 49.335938 92.746094 50.269531 C 89.578125 50.839844 86.65625 51.601562 83.960938 52.523438 C 84.496094 53 98.835938 65.835938 96.628906 74.445312 Z M 57.90625 98.609375 C 63.257812 92.832031 69.964844 87.078125 77.457031 82.511719 L 77.457031 82.5 C 78.324219 76.140625 63.210938 65.15625 63.210938 65.15625 C 55.160156 72.59375 49.832031 80.53125 43.183594 83.898438 C 43.183594 83.898438 55.730469 90.851562 57.90625 98.609375 Z M 113.484375 124.066406 C 115.480469 123.96875 117.449219 123.851562 119.386719 123.71875 C 145.382812 121.976562 165.71875 117.992188 174.660156 134.125 C 175.769531 136.128906 176.863281 137.976562 177.921875 139.699219 C 180.546875 143.976562 182.921875 147.449219 184.597656 150.460938 C 184.980469 151.144531 185.324219 151.808594 185.628906 152.449219 C 188.097656 157.648438 187.847656 161.542969 182.089844 166.304688 C 174.992188 172.183594 158.203125 175.804688 142.976562 175.300781 C 142.3125 175.277344 141.648438 175.25 140.988281 175.210938 C 133.703125 174.789062 126.902344 173.386719 121.855469 170.789062 C 113.707031 166.601562 112.625 159.066406 109.621094 152.449219 C 109.316406 151.773438 108.988281 151.109375 108.636719 150.460938 C 105.648438 144.992188 100.578125 140.511719 87.785156 139.699219 C 87.785156 139.699219 87.214844 137.101562 88.816406 134.027344 C 90.953125 129.886719 96.984375 124.871094 113.484375 124.066406 Z M 180.589844 155.757812 C 164.132812 151.589844 122.09375 157.785156 120.3125 158.050781 C 119.769531 158.132812 119.394531 158.636719 119.472656 159.179688 C 119.546875 159.675781 119.972656 160.027344 120.457031 160.027344 C 120.507812 160.027344 120.554688 160.023438 120.605469 160.015625 C 121.039062 159.953125 164.027344 153.613281 180.101562 157.6875 C 180.632812 157.824219 181.171875 157.5 181.308594 156.96875 C 181.445312 156.433594 181.121094 155.894531 180.589844 155.757812 Z M 169.320312 143.035156 C 167.878906 142.910156 133.785156 140.046875 116.1875 147.753906 C 115.683594 147.976562 115.457031 148.5625 115.675781 149.0625 C 115.839844 149.4375 116.203125 149.660156 116.585938 149.660156 C 116.722656 149.660156 116.855469 149.632812 116.988281 149.574219 C 134.117188 142.070312 168.800781 144.988281 169.148438 145.015625 C 169.695312 145.074219 170.175781 144.660156 170.222656 144.113281 C 170.273438 143.566406 169.867188 143.085938 169.320312 143.035156 Z M 100.835938 135.148438 C 100.304688 135.296875 99.996094 135.84375 100.144531 136.371094 C 100.269531 136.8125 100.667969 137.101562 101.101562 137.101562 C 101.191406 137.101562 101.28125 137.085938 101.371094 137.0625 C 101.738281 136.960938 138.457031 126.855469 162.074219 132.613281 C 162.609375 132.742188 163.148438 132.417969 163.277344 131.886719 C 163.410156 131.351562 163.082031 130.8125 162.546875 130.683594 C 138.425781 124.800781 102.359375 134.722656 100.835938 135.148438 Z M 100.835938 135.148438 " fill-opacity="1" fill-rule="nonzero"/></g><g clip-path="url(#e293dbac99)"><path fill="#f7f3ea" d="M 27.039062 106.828125 C 29.34375 96.222656 34.292969 86.914062 40.714844 84.90625 C 41.558594 84.648438 42.378906 84.304688 43.183594 83.898438 C 43.183594 83.898438 55.730469 90.851562 57.90625 98.609375 C 57.289062 99.261719 56.695312 99.914062 56.125 100.566406 C 56.078125 100.617188 56.035156 100.667969 55.992188 100.71875 C 55.992188 100.714844 55.988281 100.714844 55.988281 100.710938 C 55.570312 100.355469 54.941406 100.40625 54.585938 100.824219 C 50.746094 105.308594 47.707031 109.742188 45.753906 113.679688 C 37.707031 105.699219 27.5 106.773438 27.039062 106.828125 Z M 77.457031 82.5 C 81.5625 79.996094 85.910156 77.851562 90.40625 76.261719 C 90.40625 76.261719 93.398438 84.894531 86.726562 91.988281 C 104.84375 99.820312 112.523438 81.492188 106.992188 73.234375 C 103.5 73.234375 100.035156 73.664062 96.628906 74.445312 C 98.835938 65.835938 84.496094 53 83.960938 52.523438 C 83.957031 52.527344 83.949219 52.53125 83.945312 52.53125 L 83.539062 52.941406 L 83.527344 52.929688 L 83.925781 52.539062 C 75.039062 55.539062 68.535156 60.242188 63.210938 65.15625 C 63.210938 65.15625 78.324219 76.140625 77.457031 82.5 Z M 111.792969 72.429688 C 115.9375 72.714844 120.351562 73.390625 124.917969 74.449219 C 125.058594 74.484375 125.199219 74.519531 125.339844 74.550781 C 126.949219 72.488281 131.535156 67.058594 138.878906 62.015625 C 138.878906 62.015625 128.714844 50.1875 107.550781 49.238281 C 107.746094 49.59375 115.542969 63.726562 111.792969 72.429688 Z M 82.242188 95.523438 C 69.941406 102.832031 56.136719 100.566406 56.136719 100.566406 C 56.136719 100.566406 56.113281 100.652344 56.082031 100.8125 C 56.40625 101.175781 56.425781 101.730469 56.097656 102.113281 C 56.003906 102.222656 55.910156 102.335938 55.816406 102.445312 C 55.230469 107.242188 55.300781 119.316406 71.792969 115.476562 C 92.011719 110.769531 86.835938 92.394531 86.714844 92.003906 C 85.539062 93.234375 84.082031 94.433594 82.242188 95.523438 Z M 218.914062 168.273438 C 218.375 168.15625 217.847656 168.5 217.734375 169.039062 L 203.621094 235.558594 C 203.507812 236.097656 203.851562 236.625 204.390625 236.738281 C 204.457031 236.75 204.527344 236.757812 204.597656 236.757812 C 205.054688 236.757812 205.46875 236.4375 205.570312 235.972656 L 219.679688 169.449219 C 219.792969 168.914062 219.449219 168.386719 218.914062 168.273438 Z M 180.449219 168.253906 C 179.902344 168.203125 179.414062 168.59375 179.355469 169.140625 L 172.300781 235.660156 C 172.242188 236.207031 172.636719 236.695312 173.183594 236.753906 C 173.21875 236.757812 173.253906 236.757812 173.289062 236.757812 C 173.792969 236.757812 174.222656 236.378906 174.277344 235.871094 L 181.332031 169.347656 C 181.390625 168.804688 180.996094 168.3125 180.449219 168.253906 Z M 140.988281 235.765625 C 140.988281 236.3125 141.433594 236.757812 141.984375 236.757812 C 142.53125 236.757812 142.976562 236.3125 142.976562 235.765625 L 142.976562 175.300781 C 142.3125 175.277344 141.648438 175.246094 140.988281 175.210938 Z M 104.609375 169.140625 C 104.550781 168.59375 104.0625 168.203125 103.515625 168.253906 C 102.96875 168.3125 102.574219 168.804688 102.632812 169.347656 L 109.6875 235.871094 C 109.742188 236.378906 110.175781 236.757812 110.675781 236.757812 C 110.710938 236.757812 110.746094 236.757812 110.78125 236.753906 C 111.328125 236.695312 111.722656 236.207031 111.667969 235.660156 Z M 66.234375 169.039062 C 66.117188 168.5 65.589844 168.15625 65.054688 168.273438 C 64.515625 168.386719 64.171875 168.914062 64.285156 169.449219 L 78.398438 235.972656 C 78.496094 236.4375 78.910156 236.757812 79.371094 236.757812 C 79.4375 236.757812 79.507812 236.75 79.578125 236.738281 C 80.117188 236.625 80.457031 236.097656 80.34375 235.558594 Z M 215.15625 150.460938 L 184.597656 150.460938 C 184.980469 151.144531 185.324219 151.804688 185.628906 152.445312 L 217.753906 152.445312 C 216.90625 151.765625 216.039062 151.105469 215.15625 150.460938 Z M 108.636719 150.460938 L 67.273438 150.460938 C 66.964844 150.953125 66.652344 151.453125 66.339844 151.96875 C 66.246094 152.125 66.152344 152.289062 66.058594 152.445312 L 109.621094 152.445312 C 109.316406 151.773438 108.992188 151.109375 108.636719 150.460938 Z M 269.582031 178.582031 C 264.546875 181.0625 257.945312 184.359375 252.214844 187.394531 C 247.667969 189.804688 242.085938 187.609375 240.367188 182.78125 C 240.234375 182.414062 240.097656 182.035156 239.953125 181.652344 C 239.007812 179.117188 237.777344 176.277344 236.179688 173.273438 C 236.179688 173.273438 236.183594 173.273438 236.1875 173.269531 C 236.667969 173.007812 236.84375 172.402344 236.578125 171.921875 C 231.164062 162.070312 220.585938 148.558594 200.941406 140.132812 C 200.4375 139.917969 199.851562 140.148438 199.636719 140.65625 C 199.636719 140.65625 199.636719 140.660156 199.632812 140.664062 C 198.839844 140.332031 198.027344 140.011719 197.207031 139.699219 C 190.65625 137.210938 183.1875 135.273438 174.660156 134.125 C 165.71875 117.992188 145.382812 121.976562 119.386719 123.71875 C 119.386719 123.71875 119.761719 122.898438 120.644531 121.480469 C 121.101562 121.773438 121.710938 121.648438 122.011719 121.195312 C 123.40625 119.089844 125.996094 115.664062 130.199219 111.675781 C 130.304688 111.609375 130.398438 111.523438 130.472656 111.421875 C 136.53125 105.734375 145.859375 98.960938 159.695312 93.265625 C 160.6875 92.863281 161.660156 92.46875 162.605469 92.089844 C 162.636719 92.078125 162.664062 92.070312 162.691406 92.058594 C 191.257812 80.691406 198.183594 84.09375 216.683594 93.179688 L 216.800781 93.238281 C 223.40625 96.480469 233.753906 108.140625 246.726562 126.949219 C 246.917969 127.230469 247.226562 127.382812 247.542969 127.382812 C 247.738281 127.382812 247.933594 127.324219 248.105469 127.207031 C 248.492188 127.765625 248.875 128.328125 249.257812 128.890625 C 258.980469 143.148438 267.945312 158.058594 273.105469 166.851562 C 275.5625 171.050781 273.949219 176.433594 269.582031 178.582031 Z M 210.664062 111.066406 C 210.664062 111.609375 211.105469 112.054688 211.648438 112.066406 C 211.714844 112.066406 218.59375 112.40625 225.292969 129.257812 C 225.445312 129.648438 225.820312 129.886719 226.214844 129.886719 C 226.339844 129.886719 226.464844 129.863281 226.582031 129.816406 C 227.09375 129.613281 227.34375 129.035156 227.140625 128.527344 C 219.847656 110.179688 211.964844 110.09375 211.636719 110.078125 C 211.09375 110.085938 210.667969 110.523438 210.664062 111.066406 Z M 167.074219 103.125 C 167.238281 103.035156 183.851562 94.195312 196.628906 96.726562 C 197.167969 96.835938 197.691406 96.484375 197.796875 95.945312 C 197.90625 95.40625 197.554688 94.886719 197.015625 94.777344 C 183.527344 92.109375 166.832031 100.996094 166.128906 101.378906 C 165.644531 101.636719 165.464844 102.242188 165.726562 102.722656 C 165.90625 103.054688 166.25 103.246094 166.601562 103.246094 C 166.761719 103.246094 166.921875 103.207031 167.074219 103.125 Z M 253.53125 170.566406 C 252.578125 157.234375 232.269531 143.761719 231.40625 143.195312 C 230.949219 142.894531 230.332031 143.023438 230.03125 143.480469 C 229.730469 143.9375 229.855469 144.554688 230.316406 144.855469 C 230.519531 144.992188 250.664062 158.355469 251.546875 170.710938 C 251.585938 171.230469 252.023438 171.632812 252.539062 171.632812 C 252.5625 171.632812 252.585938 171.628906 252.609375 171.628906 C 253.15625 171.589844 253.570312 171.113281 253.53125 170.566406 Z M 253.53125 170.566406 " fill-opacity="1" fill-rule="nonzero"/></g><path fill="#dcb73c" d="M 86.726562 91.988281 L 86.714844 91.988281 C 86.714844 91.988281 86.714844 91.988281 86.714844 92 C 85.539062 93.234375 84.082031 94.433594 82.242188 95.523438 C 69.941406 102.832031 56.136719 100.566406 56.136719 100.566406 C 56.136719 100.566406 56.113281 100.652344 56.082031 100.8125 C 56.054688 100.78125 56.023438 100.746094 55.992188 100.71875 C 56.035156 100.667969 56.078125 100.617188 56.125 100.566406 C 56.691406 99.914062 57.285156 99.261719 57.902344 98.609375 C 63.257812 92.832031 69.964844 87.078125 77.457031 82.511719 L 77.457031 82.5 C 81.5625 79.996094 85.910156 77.851562 90.40625 76.261719 C 90.40625 76.261719 93.398438 84.894531 86.726562 91.988281 Z M 56.707031 169.367188 C 57.429688 167.550781 58.519531 164.960938 59.914062 161.996094 C 59.910156 161.996094 59.910156 161.992188 59.90625 161.992188 C 59.410156 161.757812 59.203125 161.164062 59.4375 160.667969 C 61.121094 157.15625 62.867188 153.882812 64.636719 150.941406 C 67.125 146.828125 69.644531 143.371094 72.128906 140.65625 C 72.5 140.253906 73.128906 140.222656 73.535156 140.59375 C 73.539062 140.597656 73.542969 140.605469 73.546875 140.609375 C 73.84375 140.300781 74.140625 139.992188 74.441406 139.699219 C 76.472656 137.726562 78.613281 136.125 80.835938 135.085938 C 80.828125 135.0625 80.8125 135.050781 80.804688 135.027344 C 80.773438 134.9375 77.453125 125.976562 70.21875 124.585938 C 69.679688 124.484375 69.324219 123.964844 69.429688 123.425781 C 69.53125 122.886719 70.054688 122.53125 70.59375 122.636719 C 78.949219 124.242188 82.53125 133.941406 82.679688 134.355469 C 82.679688 134.355469 82.679688 134.359375 82.679688 134.359375 C 84.671875 133.730469 86.722656 133.566406 88.816406 134.027344 C 90.953125 129.886719 96.984375 124.871094 113.484375 124.0625 C 115.480469 123.96875 117.449219 123.851562 119.386719 123.71875 C 119.386719 123.71875 119.761719 122.898438 120.644531 121.480469 C 120.640625 121.480469 120.636719 121.476562 120.636719 121.476562 C 120.175781 121.171875 120.050781 120.554688 120.355469 120.097656 C 122.023438 117.582031 124.640625 114.199219 128.550781 110.441406 C 127.875 107.78125 124.878906 97 118.574219 88.128906 C 118.257812 87.679688 118.363281 87.0625 118.808594 86.742188 C 119.257812 86.425781 119.878906 86.53125 120.195312 86.976562 C 126.125 95.324219 129.15625 105.015625 130.207031 108.898438 C 136.496094 103.222656 145.703125 96.875 158.941406 91.425781 C 159.734375 91.105469 160.503906 90.792969 161.265625 90.488281 C 160.734375 90.167969 160.019531 89.742188 159.128906 89.234375 C 158.945312 89.558594 158.609375 89.738281 158.261719 89.738281 C 158.097656 89.738281 157.929688 89.699219 157.777344 89.613281 C 151.511719 86.109375 138.855469 79.730469 124.46875 76.386719 C 119.867188 75.320312 115.421875 74.644531 111.261719 74.382812 C 110.832031 74.351562 110.414062 74.324219 109.996094 74.304688 C 109.453125 74.277344 109.03125 73.816406 109.054688 73.273438 C 108.367188 73.25 107.683594 73.238281 106.992188 73.238281 C 112.523438 81.492188 104.84375 99.820312 86.730469 91.992188 C 86.71875 91.992188 86.71875 91.992188 86.71875 92.003906 C 86.835938 92.394531 92.011719 110.769531 71.792969 115.476562 C 55.304688 119.316406 55.234375 107.242188 55.820312 102.445312 C 52.167969 106.753906 49.179688 111.152344 47.378906 114.867188 C 44.761719 120.265625 42.40625 127.796875 39.90625 135.769531 C 39.46875 137.175781 39.023438 138.589844 38.578125 140 C 37.613281 143.027344 36.460938 146.578125 35.238281 149.964844 C 35.089844 150.371094 34.707031 150.621094 34.300781 150.621094 C 34.1875 150.621094 34.074219 150.605469 33.964844 150.5625 C 33.960938 150.5625 33.960938 150.5625 33.960938 150.5625 C 33.847656 150.859375 33.738281 151.160156 33.628906 151.453125 C 31.777344 156.351562 29.804688 160.683594 27.609375 163.8125 C 25.378906 166.992188 26.898438 171.382812 30.625 172.507812 C 33.609375 173.410156 37.5 174.074219 42.382812 173.976562 C 45.410156 173.914062 48.8125 173.5625 52.621094 172.792969 C 54.472656 172.414062 56.003906 171.121094 56.707031 169.367188 Z M 56.707031 169.367188 " fill-opacity="1" fill-rule="nonzero"/><path fill="#5400bf" d="M 87.785156 139.699219 L 74.441406 139.699219 C 76.472656 137.726562 78.613281 136.125 80.835938 135.085938 C 80.828125 135.0625 80.8125 135.050781 80.804688 135.027344 C 80.773438 134.9375 77.453125 125.976562 70.21875 124.585938 C 69.679688 124.484375 69.324219 123.964844 69.429688 123.425781 C 69.53125 122.886719 70.054688 122.53125 70.59375 122.636719 C 78.949219 124.242188 82.53125 133.941406 82.679688 134.355469 C 82.679688 134.355469 82.679688 134.359375 82.679688 134.359375 C 84.671875 133.730469 86.722656 133.566406 88.816406 134.027344 C 87.214844 137.101562 87.785156 139.699219 87.785156 139.699219 Z M 197.207031 139.699219 C 190.65625 137.210938 183.1875 135.273438 174.660156 134.125 C 175.769531 136.128906 176.863281 137.976562 177.921875 139.699219 Z M 248.363281 125.824219 C 235.011719 106.460938 224.6875 94.894531 217.679688 91.453125 L 217.5625 91.398438 C 198.5 82.035156 191.359375 78.523438 162.03125 90.183594 C 162 90.191406 161.96875 90.203125 161.941406 90.214844 C 161.71875 90.304688 161.488281 90.394531 161.261719 90.488281 C 160.503906 90.792969 159.734375 91.105469 158.941406 91.425781 C 145.703125 96.875 136.496094 103.222656 130.207031 108.898438 C 129.15625 105.015625 126.125 95.324219 120.195312 86.976562 C 119.878906 86.53125 119.257812 86.425781 118.808594 86.742188 C 118.363281 87.0625 118.257812 87.679688 118.574219 88.128906 C 124.878906 97 127.875 107.78125 128.550781 110.441406 C 124.640625 114.199219 122.019531 117.582031 120.355469 120.097656 C 120.050781 120.554688 120.175781 121.171875 120.632812 121.476562 C 120.636719 121.476562 120.640625 121.480469 120.644531 121.480469 C 121.101562 121.773438 121.710938 121.648438 122.011719 121.195312 C 123.40625 119.089844 125.996094 115.664062 130.199219 111.675781 C 130.304688 111.609375 130.398438 111.523438 130.472656 111.421875 C 136.53125 105.734375 145.859375 98.960938 159.695312 93.265625 C 160.6875 92.863281 161.65625 92.46875 162.605469 92.089844 C 162.636719 92.078125 162.664062 92.070312 162.691406 92.058594 C 191.257812 80.691406 198.183594 84.09375 216.683594 93.179688 L 216.800781 93.238281 C 223.40625 96.480469 233.753906 108.140625 246.726562 126.949219 C 246.917969 127.230469 247.226562 127.382812 247.542969 127.382812 C 247.738281 127.382812 247.933594 127.324219 248.105469 127.207031 C 248.109375 127.207031 248.109375 127.207031 248.109375 127.207031 C 248.5625 126.894531 248.675781 126.277344 248.363281 125.824219 Z M 200.160156 141.960938 C 205.636719 144.308594 210.632812 147.152344 215.15625 150.460938 C 216.039062 151.105469 216.90625 151.765625 217.753906 152.449219 C 224.722656 158.0625 230.441406 164.886719 234.835938 172.878906 C 235.015625 173.207031 235.355469 173.394531 235.707031 173.394531 C 235.867188 173.394531 236.03125 173.355469 236.179688 173.273438 C 236.183594 173.273438 236.183594 173.273438 236.1875 173.269531 C 236.667969 173.007812 236.84375 172.402344 236.578125 171.921875 C 231.164062 162.070312 220.585938 148.558594 200.945312 140.132812 C 200.4375 139.917969 199.855469 140.148438 199.636719 140.65625 C 199.636719 140.65625 199.636719 140.660156 199.632812 140.664062 C 199.425781 141.167969 199.65625 141.746094 200.160156 141.960938 Z M 67.273438 150.460938 C 69.386719 147.121094 71.507812 144.277344 73.597656 142 C 73.960938 141.597656 73.9375 140.980469 73.546875 140.609375 C 73.542969 140.605469 73.539062 140.597656 73.535156 140.59375 C 73.128906 140.222656 72.5 140.253906 72.128906 140.65625 C 69.644531 143.371094 67.125 146.828125 64.636719 150.941406 C 62.867188 153.882812 61.121094 157.15625 59.4375 160.667969 C 59.203125 161.164062 59.410156 161.757812 59.90625 161.992188 C 59.910156 161.992188 59.910156 161.992188 59.914062 161.996094 C 60.050781 162.058594 60.195312 162.089844 60.335938 162.089844 C 60.707031 162.089844 61.0625 161.882812 61.234375 161.523438 C 62.796875 158.257812 64.417969 155.210938 66.058594 152.445312 C 66.152344 152.289062 66.246094 152.125 66.34375 151.964844 C 66.652344 151.453125 66.964844 150.953125 67.273438 150.460938 Z M 158.746094 87.878906 C 152.453125 84.359375 139.792969 77.980469 125.339844 74.550781 C 125.199219 74.519531 125.058594 74.484375 124.917969 74.449219 C 120.351562 73.390625 115.9375 72.714844 111.792969 72.429688 C 111.664062 72.421875 111.527344 72.40625 111.398438 72.398438 C 110.964844 72.367188 110.53125 72.339844 110.097656 72.320312 C 109.550781 72.289062 109.082031 72.714844 109.054688 73.261719 C 109.054688 73.265625 109.054688 73.269531 109.054688 73.273438 C 109.03125 73.816406 109.453125 74.277344 109.996094 74.304688 C 110.414062 74.324219 110.832031 74.351562 111.261719 74.382812 C 115.421875 74.644531 119.863281 75.320312 124.464844 76.386719 C 138.855469 79.730469 151.511719 86.109375 157.773438 89.613281 C 157.929688 89.699219 158.097656 89.738281 158.261719 89.738281 C 158.605469 89.738281 158.945312 89.558594 159.125 89.234375 C 159.128906 89.234375 159.128906 89.234375 159.128906 89.230469 C 159.398438 88.753906 159.226562 88.148438 158.746094 87.878906 Z M 56.082031 100.8125 C 56.054688 100.78125 56.023438 100.746094 55.992188 100.71875 C 55.992188 100.714844 55.988281 100.714844 55.988281 100.710938 C 55.570312 100.355469 54.941406 100.40625 54.585938 100.824219 C 50.746094 105.308594 47.707031 109.742188 45.753906 113.679688 C 45.699219 113.785156 45.640625 113.894531 45.589844 114 C 42.90625 119.53125 40.527344 127.132812 38.007812 135.175781 C 37.566406 136.582031 37.125 137.992188 36.679688 139.398438 C 36.648438 139.496094 36.617188 139.597656 36.585938 139.699219 C 35.644531 142.640625 34.539062 146.042969 33.363281 149.292969 C 33.179688 149.804688 33.445312 150.375 33.957031 150.5625 C 33.960938 150.5625 33.960938 150.5625 33.964844 150.5625 C 34.074219 150.601562 34.1875 150.621094 34.300781 150.621094 C 34.707031 150.621094 35.089844 150.371094 35.234375 149.964844 C 36.460938 146.578125 37.613281 143.027344 38.578125 139.996094 C 39.023438 138.589844 39.464844 137.175781 39.90625 135.769531 C 42.402344 127.796875 44.761719 120.265625 47.378906 114.863281 C 49.179688 111.152344 52.167969 106.753906 55.820312 102.445312 C 55.910156 102.335938 56.003906 102.222656 56.097656 102.113281 C 56.425781 101.730469 56.40625 101.175781 56.082031 100.8125 Z M 196.628906 96.726562 C 197.167969 96.835938 197.691406 96.484375 197.796875 95.945312 C 197.90625 95.40625 197.554688 94.886719 197.015625 94.777344 C 183.527344 92.109375 166.832031 100.996094 166.128906 101.378906 C 165.644531 101.636719 165.464844 102.242188 165.726562 102.722656 C 165.90625 103.054688 166.25 103.246094 166.601562 103.246094 C 166.761719 103.246094 166.925781 103.207031 167.074219 103.125 C 167.238281 103.035156 183.851562 94.195312 196.628906 96.726562 Z M 211.648438 112.066406 C 211.714844 112.066406 218.59375 112.40625 225.292969 129.257812 C 225.445312 129.648438 225.820312 129.886719 226.214844 129.886719 C 226.339844 129.886719 226.464844 129.863281 226.582031 129.816406 C 227.09375 129.613281 227.34375 129.035156 227.140625 128.523438 C 219.847656 110.179688 211.964844 110.09375 211.636719 110.078125 C 211.09375 110.085938 210.667969 110.523438 210.664062 111.066406 C 210.664062 111.609375 211.105469 112.054688 211.648438 112.066406 Z M 231.40625 143.195312 C 230.949219 142.894531 230.332031 143.023438 230.03125 143.480469 C 229.730469 143.9375 229.855469 144.554688 230.316406 144.855469 C 230.519531 144.992188 250.664062 158.355469 251.546875 170.710938 C 251.585938 171.230469 252.023438 171.632812 252.539062 171.632812 C 252.5625 171.632812 252.585938 171.628906 252.609375 171.628906 C 253.160156 171.589844 253.570312 171.113281 253.53125 170.566406 C 252.578125 157.234375 232.269531 143.761719 231.40625 143.195312 Z M 100.835938 135.148438 C 100.304688 135.296875 99.996094 135.84375 100.144531 136.371094 C 100.269531 136.8125 100.667969 137.101562 101.101562 137.101562 C 101.191406 137.101562 101.28125 137.085938 101.371094 137.0625 C 101.738281 136.960938 138.457031 126.855469 162.074219 132.613281 C 162.609375 132.742188 163.148438 132.417969 163.277344 131.886719 C 163.410156 131.351562 163.082031 130.8125 162.546875 130.683594 C 138.425781 124.800781 102.359375 134.722656 100.835938 135.148438 Z M 116.1875 147.753906 C 115.683594 147.976562 115.457031 148.5625 115.675781 149.0625 C 115.839844 149.4375 116.203125 149.660156 116.585938 149.660156 C 116.722656 149.660156 116.855469 149.632812 116.988281 149.574219 C 134.117188 142.070312 168.800781 144.988281 169.148438 145.015625 C 169.695312 145.074219 170.175781 144.660156 170.222656 144.113281 C 170.273438 143.566406 169.867188 143.085938 169.320312 143.035156 C 167.878906 142.910156 133.785156 140.046875 116.1875 147.753906 Z M 180.589844 155.757812 C 164.132812 151.589844 122.09375 157.785156 120.3125 158.050781 C 119.769531 158.132812 119.394531 158.636719 119.472656 159.179688 C 119.546875 159.675781 119.972656 160.027344 120.457031 160.027344 C 120.507812 160.027344 120.554688 160.023438 120.605469 160.015625 C 121.039062 159.953125 164.027344 153.613281 180.101562 157.6875 C 180.632812 157.824219 181.171875 157.5 181.308594 156.96875 C 181.445312 156.433594 181.121094 155.894531 180.589844 155.757812 Z M 144.148438 67.738281 C 144.425781 67.738281 144.699219 67.621094 144.894531 67.402344 C 144.960938 67.328125 151.671875 59.894531 161.246094 60.769531 C 161.796875 60.8125 162.277344 60.417969 162.328125 59.871094 C 162.378906 59.324219 161.972656 58.839844 161.425781 58.789062 C 150.828125 57.828125 143.703125 65.746094 143.402344 66.085938 C 143.039062 66.496094 143.078125 67.125 143.492188 67.488281 C 143.679688 67.652344 143.914062 67.738281 144.148438 67.738281 Z M 174.386719 73.527344 C 174.558594 73.5 191.886719 70.792969 196.917969 76.890625 C 197.113281 77.128906 197.398438 77.253906 197.6875 77.253906 C 197.910156 77.253906 198.132812 77.179688 198.320312 77.027344 C 198.742188 76.675781 198.800781 76.050781 198.453125 75.628906 C 192.699219 68.65625 174.828125 71.441406 174.070312 71.566406 C 173.527344 71.652344 173.15625 72.164062 173.246094 72.703125 C 173.332031 73.246094 173.84375 73.613281 174.386719 73.527344 Z M 228.347656 96.246094 C 228.429688 96.265625 236.476562 98.25 239.261719 105.46875 C 239.414062 105.863281 239.792969 106.105469 240.191406 106.105469 C 240.308594 106.105469 240.429688 106.082031 240.546875 106.039062 C 241.0625 105.839844 241.316406 105.265625 241.117188 104.753906 C 237.945312 96.539062 229.175781 94.398438 228.804688 94.308594 C 228.269531 94.183594 227.734375 94.515625 227.609375 95.050781 C 227.484375 95.582031 227.816406 96.117188 228.347656 96.246094 Z M 228.347656 96.246094 " fill-opacity="1" fill-rule="nonzero"/></svg>