<svg width="80" height="80" viewBox="0 0 1847 385" fill="none" xmlns="http://www.w3.org/2000/svg">
<path d="M1066.82 214.993C1103.1 214.993 1184.52 214.993 1190.56 214.993C1201.18 214.993 1201.18 219.625 1201.18 227.243C1201.18 234.86 1201.18 274.081 1201.18 289.882C1201.18 305.735 1199.34 311.037 1182.57 311.037C1165.76 311.037 1072.86 311.037 1068.47 311.037C1064.05 311.037 1058.04 313.456 1058.04 301.309C1058.04 289.059 1058.04 261.213 1058.04 252.875C1058.04 244.588 1056.73 241.603 1050.09 241.603C1043.49 241.603 1028.1 241.603 1024.28 241.603C1020.41 241.603 1016.59 241.603 1016.59 252.875C1016.59 264.25 1016.59 309.493 1016.59 338.265C1016.59 366.934 1025.33 385 1052.3 385C1079.24 385 1179.46 385 1201.44 385C1223.47 385 1243.01 369.147 1243.01 330.699C1243.01 292.147 1243.01 233.265 1243.01 206.14C1243.01 178.912 1228.12 157.757 1201.18 157.757C1174.2 157.757 1077.1 157.757 1070.43 157.757C1063.82 157.757 1058.04 156.316 1058.04 143.449C1058.04 130.632 1058.04 92.9044 1058.04 86.0073C1058.04 79.2647 1060.71 74.0662 1069 74.0662C1077.25 74.0662 1180.51 74.0662 1192.06 74.0662C1203.66 74.0662 1201.18 77.7206 1201.18 89.0441C1201.18 100.368 1201.18 113.287 1201.18 122.243C1201.18 131.353 1206.4 131.353 1212.4 131.353C1218.48 131.353 1228.98 131.353 1235.51 131.353C1242.19 131.353 1243.01 126.824 1243.01 120.029C1243.01 113.287 1243.01 68.9191 1243.01 68.9191C1243.01 18.375 1230.07 -4.33866e-06 1199.23 -4.33866e-06C1168.39 -4.33866e-06 1103.1 -4.33866e-06 1069 -4.33866e-06C1034.89 -4.33866e-06 1016.59 0.823539 1016.21 68.9191C1016.21 104.022 1016.21 112.309 1016.21 114.007V114.368C1016.21 116.375 1016.21 138.147 1016.21 168.257C1016.21 200.118 1030.5 214.993 1066.82 214.993Z" fill="#007BC2"/>
<path d="M1328.86 199.346C1328.86 199.346 1328.86 106.39 1328.86 92.1323C1328.86 77.7206 1334.64 74.0662 1341.28 74.0662C1344.54 74.0662 1452.97 74.0662 1461.23 74.0662C1469.52 74.0662 1471.92 77 1471.92 86.0073C1471.92 95.0662 1471.92 285.353 1471.92 298.272C1471.92 311.037 1466.74 311.037 1461.23 311.037C1455.79 311.037 1348.93 311.037 1340.71 311.037C1332.42 311.037 1328.86 308.772 1328.86 297.551C1328.86 286.125 1328.86 199.346 1328.86 199.346ZM1329.35 385C1360.68 385 1436.84 385 1467.64 385C1498.45 385 1513.79 370.897 1513.79 321.022C1513.79 271.147 1513.79 114.985 1513.79 68.9191C1513.79 22.6471 1499.72 -4.33866e-06 1469.29 -4.33866e-06C1440.63 -4.33866e-06 1361.09 -4.33866e-06 1332.42 -4.33866e-06C1303.83 -4.33866e-06 1286.99 16.0588 1286.99 68.9191C1286.99 121.779 1286.99 213.706 1286.99 213.706C1286.99 213.706 1286.99 296.882 1286.99 329.309C1286.99 361.787 1297.98 385 1329.35 385Z" fill="#007BC2"/>
<path d="M6.26572 74.0662H43.4474V311.037H7.35378C3.86449 311.037 1.08806 314.897 1.08806 319.632V376.507C1.08806 381.294 3.86449 385 7.35378 385H225.979C229.431 385 232.207 381.294 232.207 376.507V246.39C232.207 241.654 229.468 237.794 226.016 237.794H196.414C192.962 237.794 190.148 241.654 190.148 246.39V311.037H85.2814V74.0662H120.287C123.814 74.0662 126.59 70.2059 126.59 65.3676V8.5956C126.59 3.8603 123.814 -4.33866e-06 120.287 -4.33866e-06H6.26572C2.81395 -4.33866e-06 0 3.8603 0 8.5956V65.3676C0 70.2059 2.81395 74.0662 6.26572 74.0662Z" fill="#007BC2"/>
<path d="M415.451 134.801L447.38 213.706H447.718L447.417 213.86L447.38 213.706H383.034L382.809 213.603L415.451 134.801ZM263.798 385H377.819C381.271 385 384.122 381.294 384.122 376.507V319.632C384.122 314.897 381.271 311.037 377.819 311.037H342.588L342.363 310.882L358.834 270.993H470.567L470.454 271.147L486.625 311.191L486.475 311.037H452.032C448.581 311.037 445.729 314.897 445.729 319.632V376.507C445.729 381.294 448.581 385 452.032 385H566.166C569.543 385 572.357 381.294 572.357 376.507V319.632C572.357 314.897 569.543 311.037 566.166 311.037H534.35V311.191L438.938 74.0662H474.769C478.258 74.0662 481.035 70.2059 481.035 65.3676V8.5956C481.035 3.8603 478.258 -4.33866e-06 474.769 -4.33866e-06H360.673C357.221 -4.33866e-06 354.445 3.8603 354.445 8.5956V65.3676C354.445 70.2059 357.221 74.0662 360.673 74.0662H392.452L294.301 310.882L294.414 311.037H263.798C260.346 311.037 257.532 314.897 257.532 319.632V376.507C257.532 381.294 260.346 385 263.798 385Z" fill="#007BC2"/>
<path d="M526.846 74.0662H561.064L646.645 311.037H611.64C608.188 311.037 605.411 314.897 605.411 319.632V376.507C605.411 381.294 608.188 385 611.64 385H725.773C729.188 385 732.039 381.294 732.039 376.507V319.632C732.039 314.897 729.188 311.037 725.773 311.037H693.994L755.901 137.787L818.408 311.037H784.491C781.039 311.037 778.225 314.897 778.225 319.632V376.507C778.225 381.294 781.039 385 784.491 385H898.55C902.039 385 904.815 381.294 904.815 376.507V319.632C904.815 314.897 902.039 311.037 898.55 311.037H866.546L950.964 74.0662H984.469C987.921 74.0662 990.66 70.2059 990.66 65.3676V8.5956C990.66 3.8603 987.921 -4.33866e-06 984.469 -4.33866e-06H870.335C866.883 -4.33866e-06 864.069 3.8603 864.069 8.5956V65.3676C864.069 70.2059 866.883 74.0662 870.335 74.0662H904.515L842.346 247.934L779.576 74.0662H812.743C816.195 74.0662 818.934 70.2059 818.934 65.3676V8.5956C818.934 3.8603 816.195 -4.33866e-06 812.743 -4.33866e-06H698.609C695.158 -4.33866e-06 692.381 3.8603 692.381 8.5956V65.3676C692.381 70.2059 695.158 74.0662 698.609 74.0662H731.739L670.207 246.39L607.888 74.0662H640.98C644.469 74.0662 647.245 70.2059 647.245 65.3676V8.5956C647.245 3.8603 644.469 -4.33866e-06 640.98 -4.33866e-06H526.846C523.432 -4.33866e-06 520.655 3.8603 520.655 8.5956V65.3676C520.655 70.2059 523.432 74.0662 526.846 74.0662Z" fill="#007BC2"/>
<path d="M1547.26 385H1661.32C1664.84 385 1667.55 381.294 1667.55 376.507V319.632C1667.55 314.897 1664.84 311.037 1661.32 311.037H1623.84V141.493H1623.91L1756.2 311.037H1726.64C1723.22 311.037 1720.41 314.897 1720.41 319.632V376.507C1720.41 381.294 1723.22 385 1726.64 385H1840.73C1844.22 385 1847 381.294 1847 376.507V319.632C1847 314.897 1844.22 311.037 1840.73 311.037H1804.42V74.0662H1840.73C1844.22 74.0662 1847 70.2059 1847 65.3676V8.59557C1847 3.86028 1844.22 -4.33866e-06 1840.73 -4.33866e-06H1726.64C1723.22 -4.33866e-06 1720.41 3.86028 1720.41 8.59557V65.3676C1720.41 70.2059 1723.22 74.0662 1726.64 74.0662H1762.54V240.574H1762.39L1632.58 74.0662H1661.32C1664.84 74.0662 1667.55 70.2059 1667.55 65.3676V8.59557C1667.55 3.86028 1664.84 -4.33866e-06 1661.32 -4.33866e-06H1547.26C1543.77 -4.33866e-06 1540.99 3.86028 1540.99 8.59557V65.3676C1540.99 70.2059 1543.77 74.0662 1547.26 74.0662H1582V311.037H1547.26C1543.77 311.037 1540.99 314.897 1540.99 319.632V376.507C1540.99 381.294 1543.77 385 1547.26 385Z" fill="#007BC2"/>
</svg>
