<svg xmlns="http://www.w3.org/2000/svg" xmlns:xlink="http://www.w3.org/1999/xlink" width="400" zoomAndPan="magnify" viewBox="0 0 300 299.999988" height="400" preserveAspectRatio="xMidYMid meet" version="1.0"><defs><clipPath id="26b8d46a02"><path d="M 146 145.214844 L 155 145.214844 L 155 148 L 146 148 Z M 146 145.214844 " clip-rule="nonzero"/></clipPath><clipPath id="0a797c611c"><path d="M 134.097656 146 L 166.347656 146 L 166.347656 173.714844 L 134.097656 173.714844 Z M 134.097656 146 " clip-rule="nonzero"/></clipPath><clipPath id="be999ef45b"><path d="M 135 145.214844 L 166 145.214844 L 166 173 L 135 173 Z M 135 145.214844 " clip-rule="nonzero"/></clipPath><clipPath id="8efcca0769"><path d="M 25.761719 34.03125 L 231 34.03125 L 231 234 L 25.761719 234 Z M 25.761719 34.03125 " clip-rule="nonzero"/></clipPath><clipPath id="7e8045e195"><path d="M 60 92 L 274.761719 92 L 274.761719 234 L 60 234 Z M 60 92 " clip-rule="nonzero"/></clipPath><clipPath id="66fc34dbfb"><path d="M 59 135 L 190 135 L 190 265.78125 L 59 265.78125 Z M 59 135 " clip-rule="nonzero"/></clipPath><clipPath id="e51489466e"><path d="M 25.761719 53 L 261 53 L 261 265.78125 L 25.761719 265.78125 Z M 25.761719 53 " clip-rule="nonzero"/></clipPath></defs><g clip-path="url(#26b8d46a02)"><path fill="#ddbaba" d="M 146.785156 146.074219 C 146.703125 145.878906 146.664062 145.644531 146.824219 145.527344 C 146.863281 145.488281 146.941406 145.488281 146.984375 145.488281 C 147.738281 145.410156 148.53125 145.332031 149.289062 145.292969 C 149.683594 145.253906 150.082031 145.253906 150.480469 145.253906 C 151.394531 145.214844 152.265625 145.253906 153.140625 145.371094 C 153.378906 145.410156 153.617188 145.449219 153.855469 145.527344 C 153.9375 145.566406 153.976562 145.566406 154.015625 145.644531 C 154.054688 145.722656 154.09375 145.800781 154.09375 145.878906 C 154.132812 146.074219 154.132812 146.304688 154.015625 146.460938 C 153.894531 146.578125 153.777344 146.695312 153.699219 146.851562 C 153.417969 147.203125 152.863281 147.125 152.464844 147.164062 C 151.949219 147.203125 151.394531 147.242188 150.875 147.28125 C 149.804688 147.320312 148.730469 147.320312 147.65625 147.242188 C 147.222656 147.164062 146.941406 146.421875 146.785156 146.074219 Z M 146.785156 146.074219 " fill-opacity="1" fill-rule="nonzero"/></g><g clip-path="url(#0a797c611c)"><path fill="#ffe3e3" d="M 165.894531 171.652344 C 165.816406 171.769531 165.695312 171.886719 165.578125 172.003906 C 165.457031 172.121094 165.339844 172.199219 165.21875 172.277344 C 164.742188 172.625 164.148438 172.898438 163.671875 173.09375 C 163.113281 173.328125 162.519531 173.523438 161.921875 173.597656 C 161.761719 173.597656 160.09375 173.714844 160.09375 173.636719 C 160.332031 172.507812 160.53125 171.339844 160.292969 170.210938 C 160.253906 170.019531 160.214844 169.824219 160.132812 169.628906 C 160.09375 169.511719 160.054688 169.394531 160.015625 169.277344 C 159.933594 169.042969 159.816406 168.8125 159.738281 168.539062 C 159.65625 168.34375 159.617188 168.148438 159.539062 167.914062 C 159.417969 167.449219 159.300781 166.941406 159.21875 166.472656 C 159.417969 167.566406 159.339844 169.042969 159.261719 170.132812 C 159.261719 170.289062 159.21875 170.445312 159.101562 170.523438 C 158.980469 170.601562 158.824219 170.601562 158.664062 170.601562 C 154.414062 170.25 150.160156 169.746094 145.949219 170.484375 C 144.875 170.679688 143.804688 170.953125 142.691406 170.992188 C 142.253906 170.992188 141.777344 170.992188 141.460938 170.679688 C 140.941406 170.171875 141.300781 169.394531 141.300781 168.773438 C 141.261719 168.148438 140.984375 167.566406 141.101562 166.941406 C 141.023438 167.332031 140.941406 167.71875 140.824219 168.109375 C 140.785156 168.265625 140.746094 168.382812 140.703125 168.5 C 140.546875 168.886719 140.386719 169.277344 140.269531 169.707031 C 140.226562 169.863281 140.1875 170.019531 140.148438 170.171875 C 140.148438 170.210938 140.148438 170.25 140.148438 170.289062 C 139.949219 171.378906 140.148438 172.507812 140.347656 173.597656 C 140.347656 173.675781 138.679688 173.5625 138.519531 173.5625 C 137.921875 173.484375 137.328125 173.289062 136.769531 173.054688 C 136.292969 172.859375 135.816406 172.625 135.339844 172.316406 C 135.222656 172.238281 135.140625 172.160156 135.023438 172.082031 C 134.824219 171.925781 134.664062 171.769531 134.546875 171.613281 C 134.230469 171.1875 134.230469 170.914062 134.507812 170.484375 C 134.863281 169.824219 135.222656 169.199219 135.5 168.5 C 135.621094 168.1875 135.699219 167.914062 135.816406 167.605469 C 135.859375 167.488281 135.898438 167.371094 135.9375 167.214844 C 136.175781 166.4375 136.375 165.617188 136.53125 164.800781 C 137.289062 161.453125 138.121094 158.105469 138.996094 154.792969 C 139.15625 154.171875 139.3125 153.546875 139.511719 152.964844 C 139.792969 152.261719 140.070312 151.679688 140.507812 151.132812 C 140.546875 151.054688 140.625 150.941406 140.703125 150.863281 C 140.941406 150.589844 141.222656 150.316406 141.5 150.082031 C 141.898438 149.65625 142.453125 149.34375 142.890625 149.03125 C 143.722656 148.410156 144.597656 147.824219 145.511719 147.320312 C 145.632812 147.242188 145.75 147.164062 145.871094 147.085938 C 146.902344 146.460938 148.375 146.65625 149.527344 146.617188 C 150.917969 146.578125 152.308594 146.5 153.65625 146.460938 C 154.015625 146.460938 154.492188 146.96875 154.808594 147.164062 C 155.246094 147.472656 155.683594 147.824219 156.160156 148.097656 C 157.074219 148.605469 157.910156 149.1875 158.664062 149.886719 C 158.703125 149.925781 158.742188 149.964844 158.78125 150.003906 C 159.179688 150.316406 159.5 150.628906 159.777344 150.980469 C 159.855469 151.09375 159.933594 151.171875 160.015625 151.289062 C 160.371094 151.757812 160.652344 152.300781 160.847656 152.964844 C 161.085938 153.585938 161.246094 154.171875 161.367188 154.792969 C 162.199219 158.144531 163.035156 161.453125 163.828125 164.800781 C 163.988281 165.539062 164.1875 166.320312 164.386719 167.058594 C 164.425781 167.214844 164.464844 167.371094 164.503906 167.488281 C 164.625 167.835938 164.703125 168.148438 164.863281 168.5 C 165.140625 169.199219 165.496094 169.863281 165.855469 170.484375 C 166.171875 170.953125 166.214844 171.222656 165.894531 171.652344 Z M 165.894531 171.652344 " fill-opacity="1" fill-rule="nonzero"/></g><g clip-path="url(#be999ef45b)"><path fill="#ddbaba" d="M 154.652344 146.578125 C 154.53125 146.304688 154.414062 146.035156 154.214844 145.800781 C 154.175781 145.722656 154.09375 145.644531 154.015625 145.566406 C 153.9375 145.527344 153.816406 145.449219 153.738281 145.488281 C 153.738281 145.722656 153.617188 145.917969 153.578125 146.152344 C 153.578125 146.269531 153.539062 146.382812 153.539062 146.5 C 153.539062 146.617188 153.5 146.695312 153.5 146.773438 C 153.179688 148.253906 152.1875 149.734375 150.597656 150.042969 C 150.519531 150.042969 150.4375 150.042969 150.398438 150.042969 C 150.28125 150.042969 150.199219 150.042969 150.082031 150.042969 C 150.042969 150.042969 150.003906 150.042969 149.921875 150.042969 C 149.960938 150.042969 149.921875 150.042969 149.921875 150.042969 C 149.921875 150.042969 149.921875 150.042969 149.882812 150.042969 C 149.84375 150.003906 149.84375 150.003906 149.804688 149.964844 C 149.644531 149.847656 149.40625 149.773438 149.246094 149.65625 C 149.046875 149.539062 148.851562 149.382812 148.691406 149.226562 C 148.332031 148.914062 148.054688 148.527344 147.816406 148.136719 C 147.617188 147.785156 147.460938 147.4375 147.339844 147.085938 C 147.222656 146.734375 147.222656 146.460938 147.179688 146.113281 C 147.140625 145.878906 147.023438 145.683594 147.023438 145.449219 C 146.902344 145.449219 146.824219 145.488281 146.746094 145.527344 C 146.664062 145.605469 146.585938 145.683594 146.546875 145.761719 C 146.347656 145.996094 146.226562 146.269531 146.109375 146.539062 C 146.027344 146.695312 145.949219 146.890625 145.949219 147.085938 C 145.871094 147.550781 145.871094 148.058594 146.109375 148.488281 C 146.425781 149.148438 147.023438 149.578125 147.65625 149.886719 C 147.699219 149.886719 147.699219 149.925781 147.738281 149.925781 C 147.777344 149.925781 147.816406 149.925781 147.855469 149.925781 C 148.09375 149.886719 148.332031 149.734375 148.53125 149.8125 C 148.769531 149.925781 149.046875 150.082031 149.289062 150.238281 C 149.328125 150.277344 149.367188 150.277344 149.40625 150.316406 C 149.445312 150.355469 149.40625 150.433594 149.40625 150.511719 C 149.128906 151.289062 148.769531 152.109375 148.53125 152.925781 C 148.53125 152.964844 148.492188 153.042969 148.492188 153.082031 C 148.492188 153.121094 148.53125 153.199219 148.53125 153.238281 C 148.730469 153.742188 148.890625 154.25 149.167969 154.714844 C 149.167969 154.753906 149.207031 154.753906 149.207031 154.792969 C 148.929688 155.222656 148.652344 155.652344 148.492188 156.117188 C 148.492188 156.15625 148.570312 156.195312 148.570312 156.15625 C 148.730469 155.804688 148.929688 155.496094 149.128906 155.183594 C 149.167969 155.105469 149.246094 155.066406 149.289062 154.988281 C 149.484375 155.378906 149.683594 155.730469 149.804688 156.15625 C 149.84375 156.3125 150.121094 156.390625 150.199219 156.195312 C 150.398438 155.691406 150.636719 155.183594 150.917969 154.675781 C 150.957031 154.871094 151.035156 155.105469 151.113281 155.300781 C 151.273438 155.652344 151.472656 155.960938 151.871094 156 C 152.027344 156 152.070312 155.769531 151.910156 155.730469 C 151.511719 155.613281 151.351562 155.027344 151.273438 154.714844 C 151.234375 154.523438 151.195312 154.367188 151.15625 154.171875 C 151.273438 153.976562 151.351562 153.742188 151.472656 153.546875 C 151.511719 153.507812 151.511719 153.429688 151.550781 153.394531 C 151.550781 153.316406 151.550781 153.238281 151.550781 153.160156 C 151.472656 152.847656 151.394531 152.496094 151.3125 152.1875 C 151.351562 152.1875 151.433594 152.222656 151.472656 152.222656 C 151.828125 152.261719 152.347656 151.953125 152.347656 151.5625 C 152.347656 151.171875 151.871094 150.902344 151.550781 150.785156 C 151.351562 150.707031 151.15625 150.628906 150.957031 150.589844 C 150.957031 150.550781 150.996094 150.472656 151.035156 150.433594 C 151.234375 150.238281 151.671875 150.121094 151.910156 150.003906 C 151.988281 149.964844 152.148438 149.847656 152.265625 149.8125 C 152.347656 149.8125 152.464844 149.886719 152.546875 149.925781 C 152.703125 149.964844 152.863281 150.042969 153.023438 150.003906 C 153.179688 149.964844 153.300781 149.847656 153.417969 149.773438 C 153.578125 149.65625 153.777344 149.539062 153.9375 149.382812 C 154.253906 149.109375 154.53125 148.796875 154.691406 148.449219 C 154.890625 148.019531 154.929688 147.589844 154.851562 147.164062 C 154.808594 146.96875 154.769531 146.773438 154.652344 146.578125 Z M 149.683594 151.953125 C 149.722656 151.640625 149.804688 151.328125 149.882812 150.980469 C 149.882812 151.019531 149.921875 151.054688 149.921875 151.09375 C 150.003906 151.289062 150.121094 151.445312 150.160156 151.679688 C 150.199219 151.914062 150.199219 152.148438 150.160156 152.378906 C 150.121094 152.574219 150.082031 152.769531 149.960938 152.925781 C 149.765625 153.160156 149.683594 152.808594 149.644531 152.652344 C 149.605469 152.417969 149.644531 152.1875 149.683594 151.953125 Z M 149.445312 154.40625 C 149.328125 154.210938 149.207031 154.015625 149.128906 153.820312 C 149.046875 153.703125 149.007812 153.585938 148.96875 153.429688 C 148.96875 153.316406 148.96875 153.199219 149.007812 153.082031 C 149.089844 152.691406 149.207031 152.339844 149.367188 151.953125 C 149.328125 152.300781 149.289062 152.730469 149.484375 153.042969 C 149.566406 153.199219 149.765625 153.316406 149.921875 153.277344 C 150.003906 153.277344 150.082031 153.199219 150.160156 153.160156 C 150.160156 153.199219 150.121094 153.277344 150.121094 153.316406 C 149.960938 153.664062 149.804688 154.015625 149.566406 154.328125 C 149.484375 154.367188 149.445312 154.40625 149.445312 154.40625 Z M 150.757812 154.09375 C 150.558594 154.597656 150.320312 155.105469 150.042969 155.613281 C 150.082031 155.535156 149.882812 155.222656 149.84375 155.144531 C 149.765625 154.988281 149.683594 154.832031 149.605469 154.675781 C 149.605469 154.675781 149.605469 154.636719 149.566406 154.636719 C 149.644531 154.523438 149.765625 154.40625 149.84375 154.289062 C 150.042969 154.015625 150.199219 153.664062 150.359375 153.316406 C 150.480469 153.082031 150.519531 152.808594 150.558594 152.574219 C 150.636719 153.042969 150.679688 153.507812 150.757812 153.9375 C 150.757812 154.015625 150.757812 154.054688 150.757812 154.09375 Z M 151.910156 151.484375 C 151.988281 151.601562 151.988281 151.679688 151.910156 151.757812 C 151.828125 151.875 151.671875 151.953125 151.550781 151.953125 C 151.433594 151.953125 151.351562 151.875 151.234375 151.835938 C 151.195312 151.640625 151.15625 151.40625 151.074219 151.210938 C 151.074219 151.171875 151.074219 151.132812 151.035156 151.132812 C 151.351562 151.171875 151.710938 151.25 151.910156 151.484375 Z M 141.777344 159.386719 C 141.855469 160.710938 141.9375 162.074219 141.855469 163.4375 C 141.855469 163.867188 141.816406 164.253906 141.777344 164.683594 C 141.699219 165.5 141.617188 166.320312 141.460938 167.136719 C 141.378906 167.566406 141.261719 168.03125 141.183594 168.460938 C 141.183594 167.992188 141.140625 167.527344 141.140625 167.058594 C 141.0625 167.449219 140.984375 167.835938 140.863281 168.226562 C 140.902344 167.679688 141.023438 167.136719 141.140625 166.550781 C 141.261719 166.007812 141.339844 165.460938 141.421875 164.917969 C 141.578125 163.242188 141.578125 161.53125 141.460938 159.855469 C 141.378906 158.648438 141.261719 157.480469 141.140625 156.273438 C 141.101562 155.769531 141.023438 155.222656 140.984375 154.714844 C 140.863281 153.546875 140.785156 152.339844 140.507812 151.171875 C 140.546875 151.09375 140.625 150.980469 140.703125 150.902344 C 140.941406 151.601562 141.101562 152.300781 141.183594 153.042969 C 141.183594 153.042969 141.183594 153.082031 141.183594 153.082031 C 141.222656 153.429688 141.261719 153.820312 141.300781 154.210938 C 141.5 155.882812 141.660156 157.636719 141.777344 159.386719 Z M 159.539062 167.992188 C 159.417969 167.527344 159.300781 167.019531 159.21875 166.550781 C 159.339844 167.136719 159.339844 167.757812 159.261719 168.382812 C 159.261719 168.34375 159.261719 168.304688 159.261719 168.265625 C 159.179688 167.71875 159.101562 167.175781 159.0625 166.628906 C 159.023438 166.046875 159.023438 165.421875 159.023438 164.839844 L 159.023438 164.449219 C 159.023438 163.710938 159.0625 163.007812 159.0625 162.308594 C 159.101562 161.414062 159.140625 160.480469 159.179688 159.582031 C 159.300781 156.703125 159.140625 153.78125 159.816406 150.980469 C 159.894531 151.09375 159.976562 151.171875 160.054688 151.289062 C 159.617188 154.054688 159.5 156.898438 159.417969 159.660156 C 159.378906 161.257812 159.339844 162.855469 159.300781 164.449219 C 159.300781 165.230469 159.300781 165.96875 159.339844 166.746094 C 159.339844 167.058594 159.417969 167.332031 159.417969 167.644531 C 159.5 167.757812 159.539062 167.875 159.539062 167.992188 Z M 140.109375 169.746094 C 140.1875 169.785156 140.226562 169.824219 140.308594 169.824219 C 140.269531 169.980469 140.226562 170.132812 140.1875 170.289062 C 140.1875 170.328125 140.1875 170.367188 140.1875 170.40625 C 139.871094 170.328125 139.511719 170.09375 139.273438 169.941406 C 138.835938 169.707031 138.441406 169.472656 138.042969 169.199219 C 137.644531 168.964844 137.289062 168.695312 136.929688 168.421875 C 136.851562 168.773438 136.691406 169.121094 136.53125 169.472656 C 136.375 169.902344 136.214844 170.289062 136.054688 170.71875 C 135.859375 171.261719 135.660156 171.847656 135.421875 172.394531 C 135.300781 172.316406 135.222656 172.238281 135.101562 172.160156 C 135.300781 171.613281 135.5 171.109375 135.699219 170.5625 C 135.859375 170.171875 136.015625 169.785156 136.136719 169.394531 C 136.292969 169.003906 136.414062 168.578125 136.652344 168.226562 C 136.375 168.03125 136.136719 167.835938 135.898438 167.605469 C 135.9375 167.488281 135.976562 167.371094 136.015625 167.214844 C 136.769531 167.71875 137.527344 168.1875 138.320312 168.65625 C 138.71875 168.886719 139.15625 169.121094 139.59375 169.355469 C 139.710938 169.511719 139.910156 169.628906 140.109375 169.746094 Z M 165.578125 172.003906 C 165.457031 172.121094 165.339844 172.199219 165.21875 172.277344 C 165.140625 172.121094 165.0625 171.964844 164.980469 171.808594 C 164.78125 171.417969 164.585938 171.03125 164.34375 170.640625 C 164.105469 170.25 163.867188 169.863281 163.628906 169.433594 C 163.511719 169.238281 163.390625 169.003906 163.273438 168.8125 C 163.195312 168.65625 163.113281 168.5 163.035156 168.34375 C 162.082031 168.847656 161.128906 169.316406 160.132812 169.628906 C 160.09375 169.511719 160.054688 169.394531 160.015625 169.277344 C 161.046875 168.773438 162.121094 168.34375 163.152344 167.796875 C 163.628906 167.566406 164.066406 167.292969 164.503906 167.019531 C 164.542969 167.175781 164.585938 167.332031 164.625 167.449219 C 164.226562 167.679688 163.828125 167.914062 163.433594 168.148438 C 163.550781 168.304688 163.628906 168.460938 163.75 168.617188 C 163.867188 168.8125 164.027344 169.042969 164.148438 169.238281 C 164.386719 169.628906 164.625 170.019531 164.863281 170.445312 C 165.101562 170.835938 165.339844 171.222656 165.496094 171.652344 C 165.496094 171.808594 165.539062 171.925781 165.578125 172.003906 Z M 165.578125 172.003906 " fill-opacity="1" fill-rule="nonzero"/></g><path fill="#ffffff" d="M 150.679688 149.070312 C 150.597656 149.148438 150.398438 149.1875 150.28125 149.1875 C 150.160156 149.1875 150.003906 149.1875 149.882812 149.148438 C 149.605469 149.109375 149.367188 148.992188 149.128906 148.835938 C 148.890625 148.679688 148.730469 148.449219 148.570312 148.214844 C 148.375 147.941406 148.175781 147.667969 147.976562 147.398438 C 147.9375 147.320312 148.015625 147.242188 148.09375 147.320312 C 148.292969 147.550781 148.492188 147.785156 148.691406 148.019531 C 148.851562 148.214844 149.007812 148.410156 149.207031 148.605469 C 149.40625 148.757812 149.644531 148.875 149.882812 148.914062 C 150.003906 148.953125 150.121094 148.914062 150.28125 148.914062 C 150.398438 148.914062 150.519531 148.875 150.636719 148.875 C 150.71875 148.914062 150.71875 149.03125 150.679688 149.070312 Z M 151.433594 148.566406 C 151.394531 148.566406 151.394531 148.566406 151.394531 148.605469 C 151.394531 148.605469 151.394531 148.605469 151.351562 148.605469 C 151.351562 148.605469 151.3125 148.605469 151.3125 148.644531 C 151.3125 148.644531 151.273438 148.679688 151.273438 148.679688 C 151.273438 148.679688 151.234375 148.679688 151.234375 148.679688 C 151.234375 148.679688 151.234375 148.679688 151.195312 148.679688 C 151.15625 148.679688 151.113281 148.679688 151.113281 148.71875 C 151.074219 148.757812 151.074219 148.796875 151.074219 148.796875 C 151.074219 148.835938 151.074219 148.835938 151.113281 148.875 C 151.15625 148.914062 151.195312 148.914062 151.234375 148.914062 C 151.3125 148.914062 151.351562 148.875 151.394531 148.835938 C 151.394531 148.835938 151.433594 148.796875 151.433594 148.796875 C 151.433594 148.796875 151.433594 148.796875 151.472656 148.757812 C 151.472656 148.757812 151.472656 148.71875 151.472656 148.71875 C 151.472656 148.71875 151.472656 148.679688 151.472656 148.679688 C 151.511719 148.644531 151.472656 148.605469 151.433594 148.566406 Z M 146.785156 148.136719 C 146.746094 148.097656 146.746094 148.019531 146.703125 147.980469 C 146.664062 147.863281 146.625 147.746094 146.585938 147.628906 C 146.546875 147.398438 146.503906 147.125 146.546875 146.851562 C 146.546875 146.734375 146.386719 146.734375 146.347656 146.8125 C 146.308594 147.085938 146.308594 147.398438 146.347656 147.667969 C 146.386719 147.824219 146.425781 147.941406 146.464844 148.058594 C 146.503906 148.136719 146.503906 148.175781 146.546875 148.253906 C 146.585938 148.332031 146.625 148.371094 146.664062 148.410156 C 146.746094 148.488281 146.824219 148.371094 146.785156 148.292969 C 146.863281 148.292969 146.824219 148.214844 146.785156 148.136719 Z M 144.480469 149.226562 C 144.398438 149.226562 144.359375 149.304688 144.28125 149.34375 C 144.203125 149.382812 144.160156 149.460938 144.121094 149.5 C 144.003906 149.617188 143.882812 149.695312 143.765625 149.8125 C 143.644531 149.886719 143.527344 150.003906 143.40625 150.082031 C 143.328125 150.121094 143.289062 150.160156 143.246094 150.238281 C 143.207031 150.277344 143.128906 150.355469 143.089844 150.394531 C 143.050781 150.433594 143.128906 150.511719 143.167969 150.511719 C 143.246094 150.511719 143.289062 150.433594 143.367188 150.394531 C 143.445312 150.355469 143.527344 150.316406 143.566406 150.277344 C 143.683594 150.199219 143.804688 150.082031 143.921875 149.964844 C 144.042969 149.847656 144.160156 149.773438 144.28125 149.65625 C 144.359375 149.617188 144.398438 149.539062 144.441406 149.5 C 144.480469 149.421875 144.558594 149.382812 144.558594 149.304688 C 144.558594 149.226562 144.519531 149.1875 144.480469 149.226562 Z M 142.492188 151.019531 C 142.453125 151.09375 142.375 151.171875 142.332031 151.210938 L 142.253906 151.328125 C 142.214844 151.367188 142.214844 151.40625 142.175781 151.445312 C 142.175781 151.484375 142.175781 151.523438 142.175781 151.523438 C 142.214844 151.5625 142.253906 151.523438 142.292969 151.523438 C 142.332031 151.484375 142.375 151.484375 142.375 151.445312 C 142.414062 151.40625 142.414062 151.367188 142.453125 151.367188 C 142.492188 151.289062 142.574219 151.25 142.613281 151.171875 C 142.652344 151.132812 142.652344 151.054688 142.613281 151.019531 C 142.574219 150.980469 142.53125 150.980469 142.492188 151.019531 Z M 139.871094 155.535156 C 139.472656 156.78125 139.117188 158.066406 138.796875 159.347656 C 138.640625 159.972656 138.480469 160.632812 138.320312 161.257812 C 138.242188 161.570312 138.160156 161.878906 138.121094 162.191406 C 138.042969 162.503906 137.964844 162.816406 137.921875 163.164062 C 137.921875 163.242188 138.042969 163.242188 138.042969 163.164062 C 138.160156 162.855469 138.203125 162.542969 138.28125 162.230469 C 138.359375 161.917969 138.441406 161.570312 138.519531 161.257812 C 138.679688 160.632812 138.835938 159.972656 138.996094 159.347656 C 139.3125 158.066406 139.632812 156.820312 139.988281 155.535156 C 139.988281 155.496094 139.871094 155.457031 139.871094 155.535156 Z M 137.605469 164.0625 C 137.566406 164.214844 137.527344 164.371094 137.488281 164.527344 C 137.445312 164.605469 137.445312 164.644531 137.40625 164.722656 C 137.367188 164.800781 137.328125 164.878906 137.289062 164.957031 C 137.25 165.035156 137.367188 165.035156 137.40625 165.035156 C 137.488281 164.996094 137.527344 164.917969 137.566406 164.839844 C 137.605469 164.761719 137.644531 164.683594 137.683594 164.605469 C 137.765625 164.449219 137.765625 164.292969 137.804688 164.136719 C 137.804688 163.984375 137.605469 163.945312 137.605469 164.0625 Z M 143.40625 157.871094 C 143.40625 157.753906 143.246094 157.753906 143.246094 157.871094 C 143.246094 159.195312 143.328125 160.519531 143.328125 161.839844 C 143.328125 162.503906 143.367188 163.125 143.367188 163.789062 C 143.367188 164.136719 143.367188 164.449219 143.367188 164.800781 C 143.367188 165.113281 143.367188 165.421875 143.40625 165.734375 C 143.40625 165.8125 143.566406 165.8125 143.566406 165.734375 C 143.605469 165.421875 143.605469 165.152344 143.605469 164.839844 C 143.605469 164.488281 143.605469 164.175781 143.605469 163.828125 C 143.605469 163.164062 143.605469 162.503906 143.566406 161.839844 C 143.605469 160.480469 143.527344 159.15625 143.40625 157.871094 Z M 143.445312 167.058594 C 143.367188 167.058594 143.328125 167.097656 143.328125 167.175781 C 143.328125 167.332031 143.289062 167.449219 143.289062 167.605469 C 143.289062 167.679688 143.289062 167.71875 143.289062 167.796875 C 143.289062 167.835938 143.289062 167.875 143.289062 167.914062 C 143.289062 167.953125 143.289062 167.992188 143.328125 168.03125 C 143.367188 168.070312 143.445312 168.109375 143.484375 168.03125 C 143.484375 167.992188 143.527344 167.992188 143.527344 167.953125 C 143.527344 167.953125 143.527344 167.914062 143.527344 167.914062 C 143.527344 167.875 143.527344 167.835938 143.527344 167.796875 C 143.527344 167.71875 143.566406 167.644531 143.566406 167.566406 C 143.566406 167.410156 143.605469 167.292969 143.605469 167.136719 C 143.566406 167.136719 143.527344 167.058594 143.445312 167.058594 Z M 160.808594 165.734375 C 160.652344 165.074219 160.652344 164.371094 160.730469 163.671875 C 160.769531 162.929688 160.808594 162.230469 160.847656 161.492188 C 160.890625 160.011719 160.847656 158.570312 160.808594 157.089844 C 160.808594 156.972656 160.652344 156.972656 160.652344 157.089844 C 160.609375 158.609375 160.652344 160.089844 160.570312 161.609375 C 160.53125 162.347656 160.492188 163.046875 160.453125 163.789062 C 160.414062 164.488281 160.371094 165.152344 160.652344 165.8125 C 160.691406 165.851562 160.847656 165.8125 160.808594 165.734375 Z M 161.207031 167.214844 C 161.246094 167.214844 161.246094 167.175781 161.246094 167.136719 C 161.246094 167.097656 161.246094 167.097656 161.246094 167.058594 C 161.246094 167.058594 161.246094 167.019531 161.207031 167.019531 C 161.207031 166.980469 161.167969 166.941406 161.167969 166.941406 C 161.128906 166.863281 161.128906 166.824219 161.085938 166.746094 C 161.046875 166.628906 161.007812 166.472656 160.96875 166.320312 C 160.96875 166.28125 160.890625 166.242188 160.847656 166.242188 C 160.769531 166.242188 160.769531 166.320312 160.769531 166.359375 C 160.808594 166.511719 160.808594 166.628906 160.890625 166.785156 C 160.929688 166.863281 160.929688 166.941406 160.96875 167.019531 C 161.007812 167.097656 161.046875 167.175781 161.085938 167.214844 C 161.128906 167.214844 161.167969 167.214844 161.207031 167.214844 Z M 161.445312 171.1875 C 161.445312 170.875 161.40625 170.5625 161.324219 170.210938 C 161.285156 170.09375 161.085938 170.132812 161.128906 170.25 C 161.167969 170.5625 161.167969 170.875 161.167969 171.1875 C 161.167969 171.339844 161.167969 171.496094 161.167969 171.652344 C 161.167969 171.808594 161.167969 171.964844 161.207031 172.121094 C 161.207031 172.199219 161.324219 172.199219 161.367188 172.121094 C 161.40625 172.042969 161.40625 171.964844 161.40625 171.886719 C 161.40625 171.808594 161.445312 171.730469 161.445312 171.652344 C 161.445312 171.496094 161.445312 171.339844 161.445312 171.1875 Z M 161.445312 171.1875 " fill-opacity="1" fill-rule="nonzero"/><g clip-path="url(#8efcca0769)"><path fill="#63a335" d="M 230.277344 98.800781 C 231.023438 99.613281 230.976562 100.867188 230.167969 101.625 L 88.570312 232.765625 C 87.757812 233.519531 86.5 233.464844 85.742188 232.664062 L 26.53125 169 C 25.777344 168.199219 25.824219 166.929688 26.632812 166.1875 L 168.21875 35.035156 C 169.03125 34.292969 170.304688 34.335938 171.046875 35.144531 L 230.273438 98.800781 " fill-opacity="1" fill-rule="nonzero"/></g><path fill="#7fcb4a" d="M 217.683594 100.046875 C 218.308594 100.714844 218.222656 101.808594 217.496094 102.476562 L 90.367188 220.222656 C 89.644531 220.898438 88.546875 220.898438 87.933594 220.230469 L 39.109375 167.75 C 38.496094 167.085938 38.582031 166.003906 39.308594 165.335938 L 166.4375 47.589844 C 167.160156 46.914062 168.246094 46.914062 168.871094 47.578125 L 217.683594 100.046875 " fill-opacity="1" fill-rule="nonzero"/><path fill="#63a335" d="M 146.785156 116.867188 C 156.222656 127.003906 155.632812 142.851562 145.472656 152.253906 C 135.3125 161.660156 119.433594 161.070312 110.007812 150.933594 C 100.582031 140.804688 101.171875 124.960938 111.320312 115.554688 C 121.480469 106.152344 137.363281 106.742188 146.785156 116.867188 " fill-opacity="1" fill-rule="nonzero"/><path fill="#63a335" d="M 39.109375 167.75 L 52.339844 181.980469 C 60.886719 174.074219 61.378906 160.753906 53.457031 152.222656 L 39.308594 165.335938 C 38.582031 166.003906 38.496094 167.085938 39.109375 167.75 " fill-opacity="1" fill-rule="nonzero"/><path fill="#70b646" d="M 90.257812 220.320312 L 104.515625 207.121094 C 96.582031 198.601562 83.242188 198.097656 74.695312 206.015625 L 87.835938 220.121094 C 88.503906 220.855469 89.589844 220.941406 90.257812 220.320312 " fill-opacity="1" fill-rule="nonzero"/><path fill="#63a335" d="M 168.871094 47.578125 L 182.097656 61.796875 C 173.5625 69.703125 160.210938 69.210938 152.289062 60.691406 L 166.4375 47.589844 C 167.160156 46.914062 168.246094 46.914062 168.871094 47.578125 " fill-opacity="1" fill-rule="nonzero"/><path fill="#63a335" d="M 217.597656 102.378906 L 203.347656 115.578125 C 195.414062 107.058594 195.917969 93.738281 204.457031 85.832031 L 217.585938 99.949219 C 218.265625 100.671875 218.265625 101.765625 217.597656 102.378906 " fill-opacity="1" fill-rule="nonzero"/><g clip-path="url(#7e8045e195)"><path fill="#70b646" d="M 274.445312 177.515625 C 274.75 178.566406 274.148438 179.683594 273.074219 179.976562 L 87.429688 233.320312 C 86.378906 233.617188 85.269531 233.015625 84.964844 231.957031 L 60.875 148.492188 C 60.570312 147.433594 61.183594 146.328125 62.246094 146.023438 L 247.886719 92.679688 C 248.953125 92.371094 250.058594 92.984375 250.367188 94.046875 L 274.445312 177.515625 " fill-opacity="1" fill-rule="nonzero"/></g><path fill="#8dd260" d="M 262.652344 172.96875 C 262.902344 173.84375 262.332031 174.761719 261.378906 175.035156 L 94.707031 222.933594 C 93.753906 223.207031 92.777344 222.714844 92.527344 221.839844 L 72.667969 153.03125 C 72.414062 152.167969 72.984375 151.226562 73.9375 150.953125 L 240.621094 103.066406 C 241.566406 102.804688 242.539062 103.285156 242.804688 104.160156 L 262.652344 172.96875 " fill-opacity="1" fill-rule="nonzero"/><path fill="#70b646" d="M 191.777344 156.074219 C 195.613281 169.359375 187.917969 183.238281 174.601562 187.0625 C 161.285156 190.890625 147.390625 183.214844 143.554688 169.929688 C 139.71875 156.640625 147.402344 142.761719 160.714844 138.9375 C 174.03125 135.121094 187.941406 142.785156 191.777344 156.074219 " fill-opacity="1" fill-rule="nonzero"/><path fill="#70b646" d="M 72.667969 153.03125 L 78.050781 171.675781 C 89.25 168.472656 95.703125 156.804688 92.492188 145.628906 L 73.9375 150.953125 C 72.984375 151.226562 72.414062 152.167969 72.667969 153.03125 " fill-opacity="1" fill-rule="nonzero"/><path fill="#70b646" d="M 94.566406 222.964844 L 113.25 217.597656 C 110.027344 206.429688 98.347656 199.980469 87.144531 203.195312 L 92.484375 221.707031 C 92.757812 222.648438 93.6875 223.21875 94.566406 222.964844 " fill-opacity="1" fill-rule="nonzero"/><path fill="#70b646" d="M 242.804688 104.160156 L 248.183594 122.804688 C 236.984375 126.019531 225.289062 119.570312 222.066406 108.402344 L 240.621094 103.066406 C 241.566406 102.804688 242.539062 103.285156 242.804688 104.160156 " fill-opacity="1" fill-rule="nonzero"/><path fill="#70b646" d="M 261.523438 175.003906 L 242.835938 180.371094 C 239.613281 169.195312 246.082031 157.539062 257.269531 154.3125 L 262.605469 172.824219 C 262.882812 173.777344 262.398438 174.75 261.523438 175.003906 " fill-opacity="1" fill-rule="nonzero"/><g clip-path="url(#66fc34dbfb)"><path fill="#f68f34" d="M 189.472656 200.546875 C 189.472656 236.492188 160.277344 265.625 124.253906 265.625 C 88.242188 265.625 59.035156 236.492188 59.035156 200.546875 C 59.035156 164.601562 88.242188 135.46875 124.253906 135.46875 C 160.277344 135.46875 189.472656 164.601562 189.472656 200.546875 " fill-opacity="1" fill-rule="nonzero"/></g><path fill="#fabb34" d="M 174.8125 200.546875 C 174.8125 228.402344 152.179688 250.996094 124.253906 250.996094 C 96.339844 250.996094 73.710938 228.402344 73.710938 200.546875 C 73.710938 172.695312 96.339844 150.101562 124.253906 150.101562 C 152.179688 150.101562 174.8125 172.695312 174.8125 200.546875 " fill-opacity="1" fill-rule="nonzero"/><g clip-path="url(#e51489466e)"><path stroke-linecap="round" transform="matrix(0.109595, 0, 0, -0.109357, -82.737834, 382.561639)" fill="none" stroke-linejoin="miter" d="M 2042.81417 1820.613075 C 2042.81417 1820.613075 2034.295595 1919.200722 1904.485356 1928.916606 C 1801.014976 1936.596441 1739.103832 1900.090435 1728.411061 1831.007642 C 1728.411061 1831.007642 1713.69068 1732.384274 1775.209755 1700.486169 C 1847.991883 1662.908559 2049.087262 1658.086337 2051.190174 1524.314329 C 2051.190174 1524.314329 2059.494892 1405.401909 1894.006441 1405.401909 C 1894.006441 1405.401909 1734.399013 1401.11549 1726.094294 1500.917623 " stroke="#f68f34" stroke-width="76.435997" stroke-opacity="1" stroke-miterlimit="10"/></g><path stroke-linecap="round" transform="matrix(0.109595, 0, 0, -0.109357, -82.737834, 382.561639)" fill="none" stroke-linejoin="miter" d="M 1819.79861 2014.716436 L 1819.79861 1923.415701 " stroke="#f68f34" stroke-width="76.435997" stroke-opacity="1" stroke-miterlimit="10"/><path stroke-linecap="round" transform="matrix(0.109595, 0, 0, -0.109357, -82.737834, 382.561639)" fill="none" stroke-linejoin="miter" d="M 1936.599312 2014.716436 L 1936.599312 1923.415701 " stroke="#f68f34" stroke-width="76.435997" stroke-opacity="1" stroke-miterlimit="10"/><path stroke-linecap="round" transform="matrix(0.109595, 0, 0, -0.109357, -82.737834, 382.561639)" fill="none" stroke-linejoin="miter" d="M 1830.313168 1405.401909 L 1830.313168 1313.994014 " stroke="#f68f34" stroke-width="76.435997" stroke-opacity="1" stroke-miterlimit="10"/><path stroke-linecap="round" transform="matrix(0.109595, 0, 0, -0.109357, -82.737834, 382.561639)" fill="none" stroke-linejoin="miter" d="M 1947.11387 1405.401909 L 1947.11387 1313.994014 " stroke="#f68f34" stroke-width="76.435997" stroke-opacity="1" stroke-miterlimit="10"/></svg>