<svg xmlns="http://www.w3.org/2000/svg" xmlns:xlink="http://www.w3.org/1999/xlink" width="400" zoomAndPan="magnify" viewBox="0 0 300 299.999988" height="400" preserveAspectRatio="xMidYMid meet" version="1.0"><defs><clipPath id="b4d42f0033"><path d="M 146 145.214844 L 155 145.214844 L 155 148 L 146 148 Z M 146 145.214844 " clip-rule="nonzero"/></clipPath><clipPath id="e02d1a8c48"><path d="M 134.097656 146 L 166.347656 146 L 166.347656 173.714844 L 134.097656 173.714844 Z M 134.097656 146 " clip-rule="nonzero"/></clipPath><clipPath id="999e0cf7ee"><path d="M 135 145.214844 L 166 145.214844 L 166 173 L 135 173 Z M 135 145.214844 " clip-rule="nonzero"/></clipPath></defs><g clip-path="url(#b4d42f0033)"><path fill="#ddbaba" d="M 146.785156 146.074219 C 146.703125 145.878906 146.664062 145.644531 146.824219 145.527344 C 146.863281 145.488281 146.941406 145.488281 146.984375 145.488281 C 147.738281 145.410156 148.53125 145.332031 149.289062 145.292969 C 149.683594 145.253906 150.082031 145.253906 150.480469 145.253906 C 151.394531 145.214844 152.265625 145.253906 153.140625 145.371094 C 153.378906 145.410156 153.617188 145.449219 153.855469 145.527344 C 153.9375 145.566406 153.976562 145.566406 154.015625 145.644531 C 154.054688 145.722656 154.09375 145.800781 154.09375 145.878906 C 154.132812 146.074219 154.132812 146.304688 154.015625 146.460938 C 153.894531 146.578125 153.777344 146.695312 153.699219 146.851562 C 153.417969 147.203125 152.863281 147.125 152.464844 147.164062 C 151.949219 147.203125 151.394531 147.242188 150.875 147.28125 C 149.804688 147.320312 148.730469 147.320312 147.65625 147.242188 C 147.222656 147.164062 146.941406 146.421875 146.785156 146.074219 Z M 146.785156 146.074219 " fill-opacity="1" fill-rule="nonzero"/></g><g clip-path="url(#e02d1a8c48)"><path fill="#ffe3e3" d="M 165.894531 171.652344 C 165.816406 171.769531 165.695312 171.886719 165.578125 172.003906 C 165.457031 172.121094 165.339844 172.199219 165.21875 172.277344 C 164.742188 172.625 164.148438 172.898438 163.671875 173.09375 C 163.113281 173.328125 162.519531 173.523438 161.921875 173.597656 C 161.761719 173.597656 160.09375 173.714844 160.09375 173.636719 C 160.332031 172.507812 160.53125 171.339844 160.292969 170.210938 C 160.253906 170.019531 160.214844 169.824219 160.132812 169.628906 C 160.09375 169.511719 160.054688 169.394531 160.015625 169.277344 C 159.933594 169.042969 159.816406 168.8125 159.738281 168.539062 C 159.65625 168.34375 159.617188 168.148438 159.539062 167.914062 C 159.417969 167.449219 159.300781 166.941406 159.21875 166.472656 C 159.417969 167.566406 159.339844 169.042969 159.261719 170.132812 C 159.261719 170.289062 159.21875 170.445312 159.101562 170.523438 C 158.980469 170.601562 158.824219 170.601562 158.664062 170.601562 C 154.414062 170.25 150.160156 169.746094 145.949219 170.484375 C 144.875 170.679688 143.804688 170.953125 142.691406 170.992188 C 142.253906 170.992188 141.777344 170.992188 141.460938 170.679688 C 140.941406 170.171875 141.300781 169.394531 141.300781 168.773438 C 141.261719 168.148438 140.984375 167.566406 141.101562 166.941406 C 141.023438 167.332031 140.941406 167.71875 140.824219 168.109375 C 140.785156 168.265625 140.746094 168.382812 140.703125 168.5 C 140.546875 168.886719 140.386719 169.277344 140.269531 169.707031 C 140.226562 169.863281 140.1875 170.019531 140.148438 170.171875 C 140.148438 170.210938 140.148438 170.25 140.148438 170.289062 C 139.949219 171.378906 140.148438 172.507812 140.347656 173.597656 C 140.347656 173.675781 138.679688 173.5625 138.519531 173.5625 C 137.921875 173.484375 137.328125 173.289062 136.769531 173.054688 C 136.292969 172.859375 135.816406 172.625 135.339844 172.316406 C 135.222656 172.238281 135.140625 172.160156 135.023438 172.082031 C 134.824219 171.925781 134.664062 171.769531 134.546875 171.613281 C 134.230469 171.1875 134.230469 170.914062 134.507812 170.484375 C 134.863281 169.824219 135.222656 169.199219 135.5 168.5 C 135.621094 168.1875 135.699219 167.914062 135.816406 167.605469 C 135.859375 167.488281 135.898438 167.371094 135.9375 167.214844 C 136.175781 166.4375 136.375 165.617188 136.53125 164.800781 C 137.289062 161.453125 138.121094 158.105469 138.996094 154.792969 C 139.15625 154.171875 139.3125 153.546875 139.511719 152.964844 C 139.792969 152.261719 140.070312 151.679688 140.507812 151.132812 C 140.546875 151.054688 140.625 150.941406 140.703125 150.863281 C 140.941406 150.589844 141.222656 150.316406 141.5 150.082031 C 141.898438 149.65625 142.453125 149.34375 142.890625 149.03125 C 143.722656 148.410156 144.597656 147.824219 145.511719 147.320312 C 145.632812 147.242188 145.75 147.164062 145.871094 147.085938 C 146.902344 146.460938 148.375 146.65625 149.527344 146.617188 C 150.917969 146.578125 152.308594 146.5 153.65625 146.460938 C 154.015625 146.460938 154.492188 146.96875 154.808594 147.164062 C 155.246094 147.472656 155.683594 147.824219 156.160156 148.097656 C 157.074219 148.605469 157.910156 149.1875 158.664062 149.886719 C 158.703125 149.925781 158.742188 149.964844 158.78125 150.003906 C 159.179688 150.316406 159.5 150.628906 159.777344 150.980469 C 159.855469 151.09375 159.933594 151.171875 160.015625 151.289062 C 160.371094 151.757812 160.652344 152.300781 160.847656 152.964844 C 161.085938 153.585938 161.246094 154.171875 161.367188 154.792969 C 162.199219 158.144531 163.035156 161.453125 163.828125 164.800781 C 163.988281 165.539062 164.1875 166.320312 164.386719 167.058594 C 164.425781 167.214844 164.464844 167.371094 164.503906 167.488281 C 164.625 167.835938 164.703125 168.148438 164.863281 168.5 C 165.140625 169.199219 165.496094 169.863281 165.855469 170.484375 C 166.171875 170.953125 166.214844 171.222656 165.894531 171.652344 Z M 165.894531 171.652344 " fill-opacity="1" fill-rule="nonzero"/></g><g clip-path="url(#999e0cf7ee)"><path fill="#ddbaba" d="M 154.652344 146.578125 C 154.53125 146.304688 154.414062 146.035156 154.214844 145.800781 C 154.175781 145.722656 154.09375 145.644531 154.015625 145.566406 C 153.9375 145.527344 153.816406 145.449219 153.738281 145.488281 C 153.738281 145.722656 153.617188 145.917969 153.578125 146.152344 C 153.578125 146.269531 153.539062 146.382812 153.539062 146.5 C 153.539062 146.617188 153.5 146.695312 153.5 146.773438 C 153.179688 148.253906 152.1875 149.734375 150.597656 150.042969 C 150.519531 150.042969 150.4375 150.042969 150.398438 150.042969 C 150.28125 150.042969 150.199219 150.042969 150.082031 150.042969 C 150.042969 150.042969 150.003906 150.042969 149.921875 150.042969 C 149.960938 150.042969 149.921875 150.042969 149.921875 150.042969 C 149.921875 150.042969 149.921875 150.042969 149.882812 150.042969 C 149.84375 150.003906 149.84375 150.003906 149.804688 149.964844 C 149.644531 149.847656 149.40625 149.773438 149.246094 149.65625 C 149.046875 149.539062 148.851562 149.382812 148.691406 149.226562 C 148.332031 148.914062 148.054688 148.527344 147.816406 148.136719 C 147.617188 147.785156 147.460938 147.4375 147.339844 147.085938 C 147.222656 146.734375 147.222656 146.460938 147.179688 146.113281 C 147.140625 145.878906 147.023438 145.683594 147.023438 145.449219 C 146.902344 145.449219 146.824219 145.488281 146.746094 145.527344 C 146.664062 145.605469 146.585938 145.683594 146.546875 145.761719 C 146.347656 145.996094 146.226562 146.269531 146.109375 146.539062 C 146.027344 146.695312 145.949219 146.890625 145.949219 147.085938 C 145.871094 147.550781 145.871094 148.058594 146.109375 148.488281 C 146.425781 149.148438 147.023438 149.578125 147.65625 149.886719 C 147.699219 149.886719 147.699219 149.925781 147.738281 149.925781 C 147.777344 149.925781 147.816406 149.925781 147.855469 149.925781 C 148.09375 149.886719 148.332031 149.734375 148.53125 149.8125 C 148.769531 149.925781 149.046875 150.082031 149.289062 150.238281 C 149.328125 150.277344 149.367188 150.277344 149.40625 150.316406 C 149.445312 150.355469 149.40625 150.433594 149.40625 150.511719 C 149.128906 151.289062 148.769531 152.109375 148.53125 152.925781 C 148.53125 152.964844 148.492188 153.042969 148.492188 153.082031 C 148.492188 153.121094 148.53125 153.199219 148.53125 153.238281 C 148.730469 153.742188 148.890625 154.25 149.167969 154.714844 C 149.167969 154.753906 149.207031 154.753906 149.207031 154.792969 C 148.929688 155.222656 148.652344 155.652344 148.492188 156.117188 C 148.492188 156.15625 148.570312 156.195312 148.570312 156.15625 C 148.730469 155.804688 148.929688 155.496094 149.128906 155.183594 C 149.167969 155.105469 149.246094 155.066406 149.289062 154.988281 C 149.484375 155.378906 149.683594 155.730469 149.804688 156.15625 C 149.84375 156.3125 150.121094 156.390625 150.199219 156.195312 C 150.398438 155.691406 150.636719 155.183594 150.917969 154.675781 C 150.957031 154.871094 151.035156 155.105469 151.113281 155.300781 C 151.273438 155.652344 151.472656 155.960938 151.871094 156 C 152.027344 156 152.070312 155.769531 151.910156 155.730469 C 151.511719 155.613281 151.351562 155.027344 151.273438 154.714844 C 151.234375 154.523438 151.195312 154.367188 151.15625 154.171875 C 151.273438 153.976562 151.351562 153.742188 151.472656 153.546875 C 151.511719 153.507812 151.511719 153.429688 151.550781 153.394531 C 151.550781 153.316406 151.550781 153.238281 151.550781 153.160156 C 151.472656 152.847656 151.394531 152.496094 151.3125 152.1875 C 151.351562 152.1875 151.433594 152.222656 151.472656 152.222656 C 151.828125 152.261719 152.347656 151.953125 152.347656 151.5625 C 152.347656 151.171875 151.871094 150.902344 151.550781 150.785156 C 151.351562 150.707031 151.15625 150.628906 150.957031 150.589844 C 150.957031 150.550781 150.996094 150.472656 151.035156 150.433594 C 151.234375 150.238281 151.671875 150.121094 151.910156 150.003906 C 151.988281 149.964844 152.148438 149.847656 152.265625 149.8125 C 152.347656 149.8125 152.464844 149.886719 152.546875 149.925781 C 152.703125 149.964844 152.863281 150.042969 153.023438 150.003906 C 153.179688 149.964844 153.300781 149.847656 153.417969 149.773438 C 153.578125 149.65625 153.777344 149.539062 153.9375 149.382812 C 154.253906 149.109375 154.53125 148.796875 154.691406 148.449219 C 154.890625 148.019531 154.929688 147.589844 154.851562 147.164062 C 154.808594 146.96875 154.769531 146.773438 154.652344 146.578125 Z M 149.683594 151.953125 C 149.722656 151.640625 149.804688 151.328125 149.882812 150.980469 C 149.882812 151.019531 149.921875 151.054688 149.921875 151.09375 C 150.003906 151.289062 150.121094 151.445312 150.160156 151.679688 C 150.199219 151.914062 150.199219 152.148438 150.160156 152.378906 C 150.121094 152.574219 150.082031 152.769531 149.960938 152.925781 C 149.765625 153.160156 149.683594 152.808594 149.644531 152.652344 C 149.605469 152.417969 149.644531 152.1875 149.683594 151.953125 Z M 149.445312 154.40625 C 149.328125 154.210938 149.207031 154.015625 149.128906 153.820312 C 149.046875 153.703125 149.007812 153.585938 148.96875 153.429688 C 148.96875 153.316406 148.96875 153.199219 149.007812 153.082031 C 149.089844 152.691406 149.207031 152.339844 149.367188 151.953125 C 149.328125 152.300781 149.289062 152.730469 149.484375 153.042969 C 149.566406 153.199219 149.765625 153.316406 149.921875 153.277344 C 150.003906 153.277344 150.082031 153.199219 150.160156 153.160156 C 150.160156 153.199219 150.121094 153.277344 150.121094 153.316406 C 149.960938 153.664062 149.804688 154.015625 149.566406 154.328125 C 149.484375 154.367188 149.445312 154.40625 149.445312 154.40625 Z M 150.757812 154.09375 C 150.558594 154.597656 150.320312 155.105469 150.042969 155.613281 C 150.082031 155.535156 149.882812 155.222656 149.84375 155.144531 C 149.765625 154.988281 149.683594 154.832031 149.605469 154.675781 C 149.605469 154.675781 149.605469 154.636719 149.566406 154.636719 C 149.644531 154.523438 149.765625 154.40625 149.84375 154.289062 C 150.042969 154.015625 150.199219 153.664062 150.359375 153.316406 C 150.480469 153.082031 150.519531 152.808594 150.558594 152.574219 C 150.636719 153.042969 150.679688 153.507812 150.757812 153.9375 C 150.757812 154.015625 150.757812 154.054688 150.757812 154.09375 Z M 151.910156 151.484375 C 151.988281 151.601562 151.988281 151.679688 151.910156 151.757812 C 151.828125 151.875 151.671875 151.953125 151.550781 151.953125 C 151.433594 151.953125 151.351562 151.875 151.234375 151.835938 C 151.195312 151.640625 151.15625 151.40625 151.074219 151.210938 C 151.074219 151.171875 151.074219 151.132812 151.035156 151.132812 C 151.351562 151.171875 151.710938 151.25 151.910156 151.484375 Z M 141.777344 159.386719 C 141.855469 160.710938 141.9375 162.074219 141.855469 163.4375 C 141.855469 163.867188 141.816406 164.253906 141.777344 164.683594 C 141.699219 165.5 141.617188 166.320312 141.460938 167.136719 C 141.378906 167.566406 141.261719 168.03125 141.183594 168.460938 C 141.183594 167.992188 141.140625 167.527344 141.140625 167.058594 C 141.0625 167.449219 140.984375 167.835938 140.863281 168.226562 C 140.902344 167.679688 141.023438 167.136719 141.140625 166.550781 C 141.261719 166.007812 141.339844 165.460938 141.421875 164.917969 C 141.578125 163.242188 141.578125 161.53125 141.460938 159.855469 C 141.378906 158.648438 141.261719 157.480469 141.140625 156.273438 C 141.101562 155.769531 141.023438 155.222656 140.984375 154.714844 C 140.863281 153.546875 140.785156 152.339844 140.507812 151.171875 C 140.546875 151.09375 140.625 150.980469 140.703125 150.902344 C 140.941406 151.601562 141.101562 152.300781 141.183594 153.042969 C 141.183594 153.042969 141.183594 153.082031 141.183594 153.082031 C 141.222656 153.429688 141.261719 153.820312 141.300781 154.210938 C 141.5 155.882812 141.660156 157.636719 141.777344 159.386719 Z M 159.539062 167.992188 C 159.417969 167.527344 159.300781 167.019531 159.21875 166.550781 C 159.339844 167.136719 159.339844 167.757812 159.261719 168.382812 C 159.261719 168.34375 159.261719 168.304688 159.261719 168.265625 C 159.179688 167.71875 159.101562 167.175781 159.0625 166.628906 C 159.023438 166.046875 159.023438 165.421875 159.023438 164.839844 L 159.023438 164.449219 C 159.023438 163.710938 159.0625 163.007812 159.0625 162.308594 C 159.101562 161.414062 159.140625 160.480469 159.179688 159.582031 C 159.300781 156.703125 159.140625 153.78125 159.816406 150.980469 C 159.894531 151.09375 159.976562 151.171875 160.054688 151.289062 C 159.617188 154.054688 159.5 156.898438 159.417969 159.660156 C 159.378906 161.257812 159.339844 162.855469 159.300781 164.449219 C 159.300781 165.230469 159.300781 165.96875 159.339844 166.746094 C 159.339844 167.058594 159.417969 167.332031 159.417969 167.644531 C 159.5 167.757812 159.539062 167.875 159.539062 167.992188 Z M 140.109375 169.746094 C 140.1875 169.785156 140.226562 169.824219 140.308594 169.824219 C 140.269531 169.980469 140.226562 170.132812 140.1875 170.289062 C 140.1875 170.328125 140.1875 170.367188 140.1875 170.40625 C 139.871094 170.328125 139.511719 170.09375 139.273438 169.941406 C 138.835938 169.707031 138.441406 169.472656 138.042969 169.199219 C 137.644531 168.964844 137.289062 168.695312 136.929688 168.421875 C 136.851562 168.773438 136.691406 169.121094 136.53125 169.472656 C 136.375 169.902344 136.214844 170.289062 136.054688 170.71875 C 135.859375 171.261719 135.660156 171.847656 135.421875 172.394531 C 135.300781 172.316406 135.222656 172.238281 135.101562 172.160156 C 135.300781 171.613281 135.5 171.109375 135.699219 170.5625 C 135.859375 170.171875 136.015625 169.785156 136.136719 169.394531 C 136.292969 169.003906 136.414062 168.578125 136.652344 168.226562 C 136.375 168.03125 136.136719 167.835938 135.898438 167.605469 C 135.9375 167.488281 135.976562 167.371094 136.015625 167.214844 C 136.769531 167.71875 137.527344 168.1875 138.320312 168.65625 C 138.71875 168.886719 139.15625 169.121094 139.59375 169.355469 C 139.710938 169.511719 139.910156 169.628906 140.109375 169.746094 Z M 165.578125 172.003906 C 165.457031 172.121094 165.339844 172.199219 165.21875 172.277344 C 165.140625 172.121094 165.0625 171.964844 164.980469 171.808594 C 164.78125 171.417969 164.585938 171.03125 164.34375 170.640625 C 164.105469 170.25 163.867188 169.863281 163.628906 169.433594 C 163.511719 169.238281 163.390625 169.003906 163.273438 168.8125 C 163.195312 168.65625 163.113281 168.5 163.035156 168.34375 C 162.082031 168.847656 161.128906 169.316406 160.132812 169.628906 C 160.09375 169.511719 160.054688 169.394531 160.015625 169.277344 C 161.046875 168.773438 162.121094 168.34375 163.152344 167.796875 C 163.628906 167.566406 164.066406 167.292969 164.503906 167.019531 C 164.542969 167.175781 164.585938 167.332031 164.625 167.449219 C 164.226562 167.679688 163.828125 167.914062 163.433594 168.148438 C 163.550781 168.304688 163.628906 168.460938 163.75 168.617188 C 163.867188 168.8125 164.027344 169.042969 164.148438 169.238281 C 164.386719 169.628906 164.625 170.019531 164.863281 170.445312 C 165.101562 170.835938 165.339844 171.222656 165.496094 171.652344 C 165.496094 171.808594 165.539062 171.925781 165.578125 172.003906 Z M 165.578125 172.003906 " fill-opacity="1" fill-rule="nonzero"/></g><path fill="#ffffff" d="M 150.679688 149.070312 C 150.597656 149.148438 150.398438 149.1875 150.28125 149.1875 C 150.160156 149.1875 150.003906 149.1875 149.882812 149.148438 C 149.605469 149.109375 149.367188 148.992188 149.128906 148.835938 C 148.890625 148.679688 148.730469 148.449219 148.570312 148.214844 C 148.375 147.941406 148.175781 147.667969 147.976562 147.398438 C 147.9375 147.320312 148.015625 147.242188 148.09375 147.320312 C 148.292969 147.550781 148.492188 147.785156 148.691406 148.019531 C 148.851562 148.214844 149.007812 148.410156 149.207031 148.605469 C 149.40625 148.757812 149.644531 148.875 149.882812 148.914062 C 150.003906 148.953125 150.121094 148.914062 150.28125 148.914062 C 150.398438 148.914062 150.519531 148.875 150.636719 148.875 C 150.71875 148.914062 150.71875 149.03125 150.679688 149.070312 Z M 151.433594 148.566406 C 151.394531 148.566406 151.394531 148.566406 151.394531 148.605469 C 151.394531 148.605469 151.394531 148.605469 151.351562 148.605469 C 151.351562 148.605469 151.3125 148.605469 151.3125 148.644531 C 151.3125 148.644531 151.273438 148.679688 151.273438 148.679688 C 151.273438 148.679688 151.234375 148.679688 151.234375 148.679688 C 151.234375 148.679688 151.234375 148.679688 151.195312 148.679688 C 151.15625 148.679688 151.113281 148.679688 151.113281 148.71875 C 151.074219 148.757812 151.074219 148.796875 151.074219 148.796875 C 151.074219 148.835938 151.074219 148.835938 151.113281 148.875 C 151.15625 148.914062 151.195312 148.914062 151.234375 148.914062 C 151.3125 148.914062 151.351562 148.875 151.394531 148.835938 C 151.394531 148.835938 151.433594 148.796875 151.433594 148.796875 C 151.433594 148.796875 151.433594 148.796875 151.472656 148.757812 C 151.472656 148.757812 151.472656 148.71875 151.472656 148.71875 C 151.472656 148.71875 151.472656 148.679688 151.472656 148.679688 C 151.511719 148.644531 151.472656 148.605469 151.433594 148.566406 Z M 146.785156 148.136719 C 146.746094 148.097656 146.746094 148.019531 146.703125 147.980469 C 146.664062 147.863281 146.625 147.746094 146.585938 147.628906 C 146.546875 147.398438 146.503906 147.125 146.546875 146.851562 C 146.546875 146.734375 146.386719 146.734375 146.347656 146.8125 C 146.308594 147.085938 146.308594 147.398438 146.347656 147.667969 C 146.386719 147.824219 146.425781 147.941406 146.464844 148.058594 C 146.503906 148.136719 146.503906 148.175781 146.546875 148.253906 C 146.585938 148.332031 146.625 148.371094 146.664062 148.410156 C 146.746094 148.488281 146.824219 148.371094 146.785156 148.292969 C 146.863281 148.292969 146.824219 148.214844 146.785156 148.136719 Z M 144.480469 149.226562 C 144.398438 149.226562 144.359375 149.304688 144.28125 149.34375 C 144.203125 149.382812 144.160156 149.460938 144.121094 149.5 C 144.003906 149.617188 143.882812 149.695312 143.765625 149.8125 C 143.644531 149.886719 143.527344 150.003906 143.40625 150.082031 C 143.328125 150.121094 143.289062 150.160156 143.246094 150.238281 C 143.207031 150.277344 143.128906 150.355469 143.089844 150.394531 C 143.050781 150.433594 143.128906 150.511719 143.167969 150.511719 C 143.246094 150.511719 143.289062 150.433594 143.367188 150.394531 C 143.445312 150.355469 143.527344 150.316406 143.566406 150.277344 C 143.683594 150.199219 143.804688 150.082031 143.921875 149.964844 C 144.042969 149.847656 144.160156 149.773438 144.28125 149.65625 C 144.359375 149.617188 144.398438 149.539062 144.441406 149.5 C 144.480469 149.421875 144.558594 149.382812 144.558594 149.304688 C 144.558594 149.226562 144.519531 149.1875 144.480469 149.226562 Z M 142.492188 151.019531 C 142.453125 151.09375 142.375 151.171875 142.332031 151.210938 L 142.253906 151.328125 C 142.214844 151.367188 142.214844 151.40625 142.175781 151.445312 C 142.175781 151.484375 142.175781 151.523438 142.175781 151.523438 C 142.214844 151.5625 142.253906 151.523438 142.292969 151.523438 C 142.332031 151.484375 142.375 151.484375 142.375 151.445312 C 142.414062 151.40625 142.414062 151.367188 142.453125 151.367188 C 142.492188 151.289062 142.574219 151.25 142.613281 151.171875 C 142.652344 151.132812 142.652344 151.054688 142.613281 151.019531 C 142.574219 150.980469 142.53125 150.980469 142.492188 151.019531 Z M 139.871094 155.535156 C 139.472656 156.78125 139.117188 158.066406 138.796875 159.347656 C 138.640625 159.972656 138.480469 160.632812 138.320312 161.257812 C 138.242188 161.570312 138.160156 161.878906 138.121094 162.191406 C 138.042969 162.503906 137.964844 162.816406 137.921875 163.164062 C 137.921875 163.242188 138.042969 163.242188 138.042969 163.164062 C 138.160156 162.855469 138.203125 162.542969 138.28125 162.230469 C 138.359375 161.917969 138.441406 161.570312 138.519531 161.257812 C 138.679688 160.632812 138.835938 159.972656 138.996094 159.347656 C 139.3125 158.066406 139.632812 156.820312 139.988281 155.535156 C 139.988281 155.496094 139.871094 155.457031 139.871094 155.535156 Z M 137.605469 164.0625 C 137.566406 164.214844 137.527344 164.371094 137.488281 164.527344 C 137.445312 164.605469 137.445312 164.644531 137.40625 164.722656 C 137.367188 164.800781 137.328125 164.878906 137.289062 164.957031 C 137.25 165.035156 137.367188 165.035156 137.40625 165.035156 C 137.488281 164.996094 137.527344 164.917969 137.566406 164.839844 C 137.605469 164.761719 137.644531 164.683594 137.683594 164.605469 C 137.765625 164.449219 137.765625 164.292969 137.804688 164.136719 C 137.804688 163.984375 137.605469 163.945312 137.605469 164.0625 Z M 143.40625 157.871094 C 143.40625 157.753906 143.246094 157.753906 143.246094 157.871094 C 143.246094 159.195312 143.328125 160.519531 143.328125 161.839844 C 143.328125 162.503906 143.367188 163.125 143.367188 163.789062 C 143.367188 164.136719 143.367188 164.449219 143.367188 164.800781 C 143.367188 165.113281 143.367188 165.421875 143.40625 165.734375 C 143.40625 165.8125 143.566406 165.8125 143.566406 165.734375 C 143.605469 165.421875 143.605469 165.152344 143.605469 164.839844 C 143.605469 164.488281 143.605469 164.175781 143.605469 163.828125 C 143.605469 163.164062 143.605469 162.503906 143.566406 161.839844 C 143.605469 160.480469 143.527344 159.15625 143.40625 157.871094 Z M 143.445312 167.058594 C 143.367188 167.058594 143.328125 167.097656 143.328125 167.175781 C 143.328125 167.332031 143.289062 167.449219 143.289062 167.605469 C 143.289062 167.679688 143.289062 167.71875 143.289062 167.796875 C 143.289062 167.835938 143.289062 167.875 143.289062 167.914062 C 143.289062 167.953125 143.289062 167.992188 143.328125 168.03125 C 143.367188 168.070312 143.445312 168.109375 143.484375 168.03125 C 143.484375 167.992188 143.527344 167.992188 143.527344 167.953125 C 143.527344 167.953125 143.527344 167.914062 143.527344 167.914062 C 143.527344 167.875 143.527344 167.835938 143.527344 167.796875 C 143.527344 167.71875 143.566406 167.644531 143.566406 167.566406 C 143.566406 167.410156 143.605469 167.292969 143.605469 167.136719 C 143.566406 167.136719 143.527344 167.058594 143.445312 167.058594 Z M 160.808594 165.734375 C 160.652344 165.074219 160.652344 164.371094 160.730469 163.671875 C 160.769531 162.929688 160.808594 162.230469 160.847656 161.492188 C 160.890625 160.011719 160.847656 158.570312 160.808594 157.089844 C 160.808594 156.972656 160.652344 156.972656 160.652344 157.089844 C 160.609375 158.609375 160.652344 160.089844 160.570312 161.609375 C 160.53125 162.347656 160.492188 163.046875 160.453125 163.789062 C 160.414062 164.488281 160.371094 165.152344 160.652344 165.8125 C 160.691406 165.851562 160.847656 165.8125 160.808594 165.734375 Z M 161.207031 167.214844 C 161.246094 167.214844 161.246094 167.175781 161.246094 167.136719 C 161.246094 167.097656 161.246094 167.097656 161.246094 167.058594 C 161.246094 167.058594 161.246094 167.019531 161.207031 167.019531 C 161.207031 166.980469 161.167969 166.941406 161.167969 166.941406 C 161.128906 166.863281 161.128906 166.824219 161.085938 166.746094 C 161.046875 166.628906 161.007812 166.472656 160.96875 166.320312 C 160.96875 166.28125 160.890625 166.242188 160.847656 166.242188 C 160.769531 166.242188 160.769531 166.320312 160.769531 166.359375 C 160.808594 166.511719 160.808594 166.628906 160.890625 166.785156 C 160.929688 166.863281 160.929688 166.941406 160.96875 167.019531 C 161.007812 167.097656 161.046875 167.175781 161.085938 167.214844 C 161.128906 167.214844 161.167969 167.214844 161.207031 167.214844 Z M 161.445312 171.1875 C 161.445312 170.875 161.40625 170.5625 161.324219 170.210938 C 161.285156 170.09375 161.085938 170.132812 161.128906 170.25 C 161.167969 170.5625 161.167969 170.875 161.167969 171.1875 C 161.167969 171.339844 161.167969 171.496094 161.167969 171.652344 C 161.167969 171.808594 161.167969 171.964844 161.207031 172.121094 C 161.207031 172.199219 161.324219 172.199219 161.367188 172.121094 C 161.40625 172.042969 161.40625 171.964844 161.40625 171.886719 C 161.40625 171.808594 161.445312 171.730469 161.445312 171.652344 C 161.445312 171.496094 161.445312 171.339844 161.445312 171.1875 Z M 161.445312 171.1875 " fill-opacity="1" fill-rule="nonzero"/><path fill="#de7b5f" d="M 116.75 98.289062 L 117.195312 41.4375 C 117.195312 41.4375 121.996094 37.214844 134.933594 39.976562 C 147.867188 42.742188 152.863281 46.371094 152.863281 46.371094 L 140.199219 107.839844 L 116.75 98.289062 " fill-opacity="1" fill-rule="nonzero"/><path fill="#de7b5f" d="M 145.320312 138.125 C 145.320312 138.125 141.535156 144.824219 139.195312 146.472656 C 136.855469 148.113281 135.398438 146.679688 135.398438 146.679688 C 135.398438 146.679688 133.410156 149.234375 130.820312 150.359375 C 128.230469 151.480469 127.003906 149.691406 127.003906 149.691406 C 127.003906 149.691406 124.648438 152.910156 122.21875 153.59375 C 119.792969 154.285156 117.40625 152.753906 117.40625 152.753906 C 117.40625 152.753906 114.144531 156.261719 111.574219 154.332031 C 109.003906 152.398438 107.609375 150.101562 106.609375 145.054688 C 105.613281 140.003906 106.375 130.734375 106.375 130.734375 C 106.375 130.734375 109.859375 124.5 110.292969 123.976562 C 110.726562 123.453125 145.320312 138.125 145.320312 138.125 " fill-opacity="1" fill-rule="nonzero"/><path fill="#c66751" d="M 107.5625 143.351562 L 109.800781 147.835938 C 109.800781 147.835938 109.863281 143.570312 110.167969 141.828125 C 110.472656 140.085938 112.535156 138.050781 112.535156 138.050781 L 112.226562 128.25 C 112.226562 128.25 108.503906 124.433594 108.011719 125.289062 C 107.519531 126.144531 105.152344 140.179688 105.152344 140.179688 L 107.5625 143.351562 " fill-opacity="1" fill-rule="nonzero"/><path fill="#de7b5f" d="M 140.230469 101.371094 L 140.09375 102.160156 C 140.09375 102.160156 145.785156 132.230469 145.777344 135.945312 C 145.769531 139.664062 142.625 140.785156 140.851562 140.28125 C 139.082031 139.78125 138.183594 139.046875 137.640625 139.207031 C 137.101562 139.371094 136.765625 142.390625 133.957031 143.054688 C 131.148438 143.71875 129.636719 141.722656 128.96875 141.863281 C 128.304688 142 128.425781 144.976562 125.699219 145.910156 C 122.972656 146.84375 120.617188 144.894531 120.160156 144.941406 C 119.703125 144.988281 119.550781 147.335938 115.984375 147.929688 C 112.417969 148.527344 111.546875 141.769531 111.429688 139.503906 C 111.3125 137.238281 111.15625 132.976562 110.699219 130.460938 C 110.238281 127.945312 109.738281 128.242188 109.171875 129.296875 C 108.601562 130.351562 107.140625 135.910156 107.414062 138.011719 C 107.6875 140.113281 107.855469 144.78125 106.738281 148.242188 C 105.621094 151.699219 103.980469 153.144531 102.335938 153.757812 C 100.6875 154.367188 99.351562 152.851562 99.589844 147.441406 C 99.828125 142.03125 97.820312 129.671875 100.714844 121.175781 C 103.609375 112.675781 109.765625 106.054688 111.945312 103.871094 C 114.121094 101.683594 116.441406 99.78125 116.875 97.292969 C 117.421875 94.152344 120.414062 92.054688 123.550781 92.601562 L 135.539062 94.695312 C 138.679688 95.242188 140.777344 98.234375 140.230469 101.371094 " fill-opacity="1" fill-rule="nonzero"/><path fill="#f78e6c" d="M 155.078125 86.320312 L 173.394531 32.5 C 173.394531 32.5 179.28125 30.003906 190.691406 36.699219 C 202.097656 43.398438 205.695312 48.417969 205.695312 48.417969 L 174.328125 102.769531 L 155.078125 86.320312 " fill-opacity="1" fill-rule="nonzero"/><path fill="#6fc24f" d="M 257.046875 175.148438 C 257.070312 175.152344 273.847656 159.628906 276.46875 157.632812 C 279.089844 155.632812 284.972656 159.449219 283.585938 169.066406 C 276.957031 172.5625 266.230469 181.113281 266.230469 181.113281 L 257.046875 175.148438 " fill-opacity="1" fill-rule="nonzero"/><path fill="#5b8c49" d="M 276.09375 165.25 C 276.09375 165.25 276.65625 162.375 276.09375 162.753906 C 275.53125 163.128906 260.609375 176.371094 260.609375 176.371094 L 262.671875 178.425781 L 276.09375 165.25 " fill-opacity="1" fill-rule="nonzero"/><path fill="#6fc24f" d="M 43.09375 175.148438 C 43.066406 175.152344 26.292969 159.628906 23.671875 157.632812 C 21.046875 155.632812 15.167969 159.449219 16.550781 169.066406 C 23.183594 172.5625 33.910156 181.113281 33.910156 181.113281 L 43.09375 175.148438 " fill-opacity="1" fill-rule="nonzero"/><path fill="#5b8c49" d="M 24.046875 165.25 C 24.046875 165.25 23.484375 162.378906 24.046875 162.753906 C 24.605469 163.128906 39.53125 176.371094 39.53125 176.371094 L 37.46875 178.425781 L 24.046875 165.25 " fill-opacity="1" fill-rule="nonzero"/><path fill="#78cc55" d="M 150.257812 209.589844 L 150.257812 270 C 150.257812 270 210.210938 269.28125 235.597656 258.789062 C 247 241.058594 253.84375 201.863281 253.84375 201.863281 L 254.597656 193.996094 L 150.257812 201.261719 L 150.257812 209.589844 " fill-opacity="1" fill-rule="nonzero"/><path fill="#8fd461" d="M 205.808594 263.703125 C 205.808594 263.703125 211.722656 242.390625 212.96875 231.730469 C 214.21875 221.074219 215.632812 207.921875 215.632812 207.921875 C 215.632812 207.921875 240.105469 206.339844 251.304688 203.214844 C 251.304688 203.214844 249.097656 216.5 244.683594 230.820312 C 240.273438 245.136719 234.613281 256.542969 233.695312 257.542969 C 232.78125 258.542969 228.121094 260.207031 218.378906 261.871094 C 208.640625 263.535156 205.808594 263.703125 205.808594 263.703125 " fill-opacity="1" fill-rule="nonzero"/><path fill="#78cc55" d="M 150.257812 209.589844 L 150.257812 270 C 150.257812 270 90.304688 269.28125 64.917969 258.789062 C 53.511719 241.058594 46.667969 201.863281 46.667969 201.863281 L 45.914062 193.996094 L 150.257812 201.261719 L 150.257812 209.589844 " fill-opacity="1" fill-rule="nonzero"/><path fill="#5b8c49" d="M 253.84375 201.863281 C 253.84375 201.863281 229.570312 209.589844 150.257812 209.589844 C 150.257812 206.617188 150.257812 201.261719 150.257812 201.261719 L 254.597656 198.441406 L 253.84375 201.863281 " fill-opacity="1" fill-rule="nonzero"/><path fill="#5b8c49" d="M 46.667969 201.863281 C 46.667969 201.863281 70.945312 209.589844 150.257812 209.589844 C 150.257812 206.617188 150.257812 201.261719 150.257812 201.261719 L 45.914062 198.441406 L 46.667969 201.863281 " fill-opacity="1" fill-rule="nonzero"/><path fill="#78cc55" d="M 38.648438 176.886719 C 38.648438 176.886719 32.136719 179.117188 32.136719 186.339844 C 32.136719 193.558594 37.03125 196.953125 42.984375 198.332031 C 48.941406 199.707031 99.875 189.96875 99.875 189.96875 L 99.152344 182.171875 L 48.769531 176.886719 L 38.648438 176.886719 " fill-opacity="1" fill-rule="nonzero"/><path fill="#78cc55" d="M 261.851562 176.886719 C 261.851562 176.886719 268.367188 179.117188 268.367188 186.339844 C 268.367188 193.558594 263.472656 196.953125 257.515625 198.332031 C 251.558594 199.707031 200.640625 189.671875 200.640625 189.671875 L 201.351562 182.171875 L 251.734375 176.886719 L 261.851562 176.886719 " fill-opacity="1" fill-rule="nonzero"/><path fill="#78cc55" d="M 262.59375 195.289062 C 262.59375 200.929688 212.300781 205.5 150.257812 205.5 C 88.210938 205.5 37.917969 200.929688 37.917969 195.289062 C 37.917969 189.644531 88.210938 185.074219 150.257812 185.074219 C 212.300781 185.074219 262.59375 189.644531 262.59375 195.289062 " fill-opacity="1" fill-rule="nonzero"/><path fill="#a6dc76" d="M 262.59375 177.957031 C 262.59375 183.109375 212.300781 187.289062 150.257812 187.289062 C 88.210938 187.289062 37.917969 183.109375 37.917969 177.957031 C 37.917969 172.800781 88.210938 168.625 150.257812 168.625 C 212.300781 168.625 262.59375 172.800781 262.59375 177.957031 " fill-opacity="1" fill-rule="nonzero"/><path fill="#5b8c49" d="M 228.980469 182.265625 C 246.117188 181.125 256.5625 179.613281 256.5625 177.957031 C 256.5625 174.414062 208.96875 171.542969 150.257812 171.542969 C 91.546875 171.542969 43.949219 174.414062 43.949219 177.957031 C 43.949219 179.613281 54.394531 181.125 71.53125 182.265625 C 90.980469 180.972656 119.046875 180.164062 150.257812 180.164062 C 181.464844 180.164062 209.535156 180.972656 228.980469 182.265625 " fill-opacity="1" fill-rule="nonzero"/><path fill="#78d3e4" d="M 228.980469 182.265625 C 209.535156 180.972656 181.464844 180.164062 150.257812 180.164062 C 119.046875 180.164062 90.980469 180.972656 71.53125 182.265625 C 90.980469 183.554688 119.046875 184.367188 150.257812 184.367188 C 181.464844 184.367188 209.535156 183.554688 228.980469 182.265625 " fill-opacity="1" fill-rule="nonzero"/><path fill="#6fc24f" d="M 37.199219 179.113281 C 37.199219 179.113281 32.535156 181.339844 33.179688 188.03125 C 33.820312 194.722656 39.265625 196.90625 46.757812 198.75 C 54.25 200.59375 64.917969 201.929688 64.917969 201.929688 C 64.917969 201.929688 61.144531 199.246094 59.859375 193.359375 C 58.570312 187.472656 62.105469 184.605469 61.867188 184.367188 C 61.625 184.128906 51.902344 183.941406 44.589844 181.960938 C 37.277344 179.980469 37.199219 179.113281 37.199219 179.113281 " fill-opacity="1" fill-rule="nonzero"/><path fill="#8fd461" d="M 262.5 194.863281 C 261.53125 192.703125 253.1875 190.71875 239.695312 189.105469 C 239.160156 186.070312 237.382812 184.539062 237.550781 184.367188 C 237.796875 184.128906 247.515625 183.941406 254.828125 181.960938 C 262.144531 179.980469 262.222656 179.113281 262.222656 179.113281 C 262.222656 179.113281 266.882812 181.339844 266.242188 188.03125 C 265.941406 191.144531 264.601562 193.28125 262.5 194.863281 " fill-opacity="1" fill-rule="nonzero"/><path fill="#8fd461" d="M 234.503906 201.929688 C 234.503906 201.929688 238.277344 199.246094 239.5625 193.359375 C 239.921875 191.707031 239.90625 190.292969 239.695312 189.105469 C 253.1875 190.71875 261.53125 192.703125 262.5 194.863281 C 260.085938 196.679688 256.664062 197.761719 252.660156 198.75 C 245.167969 200.59375 234.503906 201.929688 234.503906 201.929688 " fill-opacity="1" fill-rule="nonzero"/><path fill="#8fd461" d="M 206.359375 200.246094 C 199.957031 200.246094 195.566406 199.195312 194.132812 197.261719 C 191.882812 194.226562 193.550781 189.078125 199.597656 188.652344 C 200.046875 188.621094 210.035156 187.746094 217.488281 187.746094 C 220.636719 187.746094 223.332031 187.902344 224.667969 188.339844 C 229.167969 189.828125 232.300781 197.203125 219.125 199.183594 C 214.332031 199.902344 210.015625 200.246094 206.359375 200.246094 " fill-opacity="1" fill-rule="nonzero"/><path fill="#6fc24f" d="M 48.394531 203.214844 C 48.394531 203.214844 50.601562 216.5 55.011719 230.820312 C 59.425781 245.136719 65.085938 256.542969 66 257.542969 C 66.914062 258.542969 71.578125 260.207031 81.316406 261.871094 C 91.054688 263.535156 93.886719 263.703125 93.886719 263.703125 C 93.886719 263.703125 87.976562 242.390625 86.726562 231.730469 C 85.480469 221.074219 84.0625 207.921875 84.0625 207.921875 C 84.0625 207.921875 59.589844 206.339844 48.394531 203.214844 " fill-opacity="1" fill-rule="nonzero"/><path fill="#78cc55" d="M 41.769531 180.386719 C 41.769531 180.386719 26.417969 167.5 24.046875 165.25 C 21.671875 163.003906 17.054688 164.128906 16.554688 168.625 C 16.054688 173.117188 31.660156 186.222656 34.160156 187.289062 C 36.65625 188.355469 42.632812 182.410156 41.769531 180.386719 " fill-opacity="1" fill-rule="nonzero"/><path fill="#78cc55" d="M 258.371094 180.386719 C 258.371094 180.386719 273.722656 167.5 276.09375 165.25 C 278.46875 163.003906 283.085938 164.125 283.585938 168.621094 C 284.085938 173.117188 268.476562 186.222656 265.980469 187.289062 C 263.484375 188.355469 257.503906 182.410156 258.371094 180.386719 " fill-opacity="1" fill-rule="nonzero"/><path fill="#e9ba40" d="M 113.617188 128.445312 C 113.617188 128.445312 107.691406 133.210938 106.777344 140.542969 C 105.863281 147.871094 107.824219 151.65625 107.5625 158.710938 C 107.300781 165.761719 103.90625 171.378906 101.292969 175.167969 C 98.683594 178.953125 96.449219 183.488281 96.449219 183.488281 C 96.449219 183.488281 109.007812 183.894531 111.875 183.9375 C 114.742188 183.980469 122.195312 159.492188 122.195312 159.492188 L 114.222656 128.445312 L 113.617188 128.445312 " fill-opacity="1" fill-rule="nonzero"/><path fill="#fcd558" d="M 165.542969 117.308594 C 166.242188 117.65625 177.207031 126.730469 180.386719 137.300781 C 183.5625 147.871094 187.480469 155.054688 193.75 165.894531 C 200.015625 176.734375 205.695312 183.425781 205.695312 183.425781 C 205.695312 183.425781 166.324219 184.429688 150.785156 184.367188 C 135.246094 184.304688 111.875 183.9375 111.875 183.9375 C 111.875 183.9375 112.261719 160.929688 113.175781 155.445312 C 114.089844 149.960938 108.214844 141.078125 110.304688 133.375 C 112.394531 125.667969 124.667969 123.707031 129.5 119.136719 C 134.332031 114.566406 162.148438 115.609375 165.542969 117.308594 " fill-opacity="1" fill-rule="nonzero"/><path fill="#e9ba40" d="M 191.75 183.757812 C 191.75 183.757812 176.773438 160.023438 172.246094 150.117188 C 167.71875 140.207031 161.101562 128.019531 159.011719 126.796875 C 156.921875 125.578125 151.046875 124.703125 143.691406 126.449219 C 136.332031 128.195312 123.316406 127.570312 123.316406 127.570312 C 123.316406 127.570312 124.886719 127.78125 126.105469 134.429688 C 127.324219 141.078125 122.273438 168.765625 127.5 173.121094 C 132.722656 177.476562 134.113281 167.898438 132.023438 159.363281 C 129.933594 150.832031 125.582031 138.640625 131.851562 142.992188 C 138.117188 147.347656 139.339844 162.625 142.125 170.574219 C 144.910156 178.519531 148.390625 184.355469 148.390625 184.355469 L 156.761719 184.355469 C 156.761719 184.355469 146.476562 162.996094 143.515625 154.910156 C 140.554688 146.824219 134.460938 139.511719 140.035156 140.035156 C 145.605469 140.554688 157.792969 156.402344 163.539062 166.328125 C 169.285156 176.257812 174.507812 183.9375 174.507812 183.9375 L 191.75 183.757812 " fill-opacity="1" fill-rule="nonzero"/><path fill="#de7b5f" d="M 169.65625 133.128906 C 169.65625 133.128906 163.949219 138.296875 161.214844 139.121094 C 158.476562 139.945312 157.542969 138.121094 157.542969 138.121094 C 157.542969 138.121094 154.855469 139.921875 152.039062 140.171875 C 149.230469 140.425781 148.628906 138.339844 148.628906 138.339844 C 148.628906 138.339844 145.378906 140.648438 142.855469 140.535156 C 140.335938 140.425781 138.554688 138.222656 138.554688 138.222656 C 138.554688 138.222656 134.351562 140.523438 132.523438 137.882812 C 130.691406 135.238281 130.089844 132.621094 130.730469 127.515625 C 131.371094 122.40625 135.015625 113.847656 135.015625 113.847656 C 135.015625 113.847656 140.285156 109.027344 140.859375 108.667969 C 141.4375 108.308594 169.65625 133.128906 169.65625 133.128906 " fill-opacity="1" fill-rule="nonzero"/><path fill="#c66751" d="M 132.171875 126.199219 L 132.882812 131.160156 C 132.882812 131.160156 134.285156 127.132812 135.121094 125.570312 C 135.960938 124.015625 138.558594 122.734375 138.558594 122.734375 L 141.351562 113.332031 C 141.351562 113.332031 139.015625 108.539062 138.28125 109.195312 C 137.546875 109.851562 130.882812 122.433594 130.882812 122.433594 L 132.171875 126.199219 " fill-opacity="1" fill-rule="nonzero"/><path fill="#f78e6c" d="M 176.390625 96.644531 L 176.011719 97.347656 C 176.011719 97.347656 171.953125 127.679688 170.773438 131.203125 C 169.59375 134.730469 166.257812 134.800781 164.734375 133.769531 C 163.210938 132.734375 162.589844 131.753906 162.023438 131.738281 C 161.460938 131.722656 160.191406 134.484375 157.316406 134.226562 C 154.441406 133.972656 153.636719 131.605469 152.957031 131.527344 C 152.28125 131.453125 151.464844 134.308594 148.578125 134.335938 C 145.695312 134.363281 144.078125 131.773438 143.628906 131.675781 C 143.179688 131.578125 142.292969 133.753906 138.722656 133.199219 C 135.148438 132.640625 136.449219 125.949219 137.050781 123.765625 C 137.652344 121.578125 138.847656 117.484375 139.203125 114.953125 C 139.5625 112.417969 138.992188 112.542969 138.121094 113.363281 C 137.25 114.1875 134.109375 119.003906 133.710938 121.082031 C 133.308594 123.164062 132 127.648438 129.847656 130.582031 C 127.699219 133.511719 125.6875 134.367188 123.933594 134.425781 C 122.179688 134.488281 121.386719 132.628906 123.316406 127.570312 C 125.246094 122.511719 127.230469 110.144531 132.652344 102.992188 C 138.074219 95.839844 146.003906 91.492188 148.757812 90.105469 C 151.511719 88.71875 154.3125 87.640625 155.507812 85.414062 C 157.019531 82.609375 160.515625 81.554688 163.320312 83.066406 L 174.042969 88.828125 C 176.847656 90.335938 177.898438 93.835938 176.390625 96.644531 " fill-opacity="1" fill-rule="nonzero"/><path fill="#d6f1f5" d="M 186.261719 183.8125 C 186.261719 183.8125 185.457031 181.042969 188 180.164062 C 190.546875 179.28125 192.703125 180.164062 192.703125 180.164062 C 192.703125 180.164062 188.65625 175.753906 190.941406 173.859375 C 193.226562 171.96875 196.230469 174.96875 196.230469 174.96875 C 196.230469 174.96875 195.132812 172.363281 197.183594 171.542969 C 199.234375 170.726562 201.257812 174.1875 201.257812 174.1875 C 201.257812 174.1875 202.691406 166.679688 208.113281 166.351562 C 213.53125 166.023438 215.6875 171.542969 215.6875 171.542969 C 215.6875 171.542969 215.425781 168.675781 219.472656 168.625 C 223.519531 168.570312 224.761719 172.492188 224.761719 172.492188 C 224.761719 172.492188 225.417969 165.175781 232.730469 165.175781 C 240.039062 165.175781 241.804688 170.484375 241.804688 170.574219 C 241.804688 170.660156 241.738281 168.085938 245.199219 168.625 C 248.660156 169.160156 248.789062 172.75 248.789062 172.75 C 248.789062 172.75 251.925781 171.707031 253.554688 173.925781 C 255.1875 176.148438 251.53125 178.425781 251.53125 178.425781 L 253.050781 179.597656 C 253.050781 179.597656 244.21875 181.5 221.761719 183.003906 C 199.296875 184.503906 186.261719 183.8125 186.261719 183.8125 " fill-opacity="1" fill-rule="nonzero"/><path fill="#d6f1f5" d="M 92.585938 183.34375 C 92.585938 183.34375 91.019531 181.457031 92.152344 180.164062 C 93.285156 178.867188 95.199219 179.5625 95.199219 179.5625 C 95.199219 179.5625 92.960938 174.386719 98.085938 173.296875 C 103.210938 172.207031 106.285156 177.5625 106.097656 177.300781 C 105.90625 177.039062 105.574219 173.476562 108.84375 173.644531 C 112.117188 173.8125 114.4375 178.605469 114.4375 178.605469 C 114.4375 178.605469 114.273438 167.726562 125.5 168.289062 C 136.726562 168.855469 136.726562 177.796875 136.726562 178.246094 C 136.726562 178.695312 139.6875 174.515625 142.90625 176.34375 C 146.128906 178.171875 145.777344 181.828125 145.777344 181.828125 C 145.777344 181.828125 148.652344 179.390625 153.527344 180.347656 C 158.402344 181.304688 159.710938 184.371094 159.710938 184.371094 C 159.710938 184.371094 135.160156 184.621094 119.664062 184.355469 C 104.167969 184.09375 92.585938 183.34375 92.585938 183.34375 " fill-opacity="1" fill-rule="nonzero"/></svg>