<svg width="50" height="50" viewBox="0 0 457 509" fill="none" xmlns="http://www.w3.org/2000/svg">
<path d="M424.256 4H32.4441C16.7327 4 3.99609 16.7366 3.99609 32.448V459.292C3.99609 475.003 16.7327 487.74 32.4441 487.74H424.256C439.967 487.74 452.704 475.003 452.704 459.292V32.448C452.704 16.7366 439.967 4 424.256 4Z" fill="#D9E2E9"/>
<path d="M452.692 32.44V459.28C452.695 463.018 451.962 466.719 450.535 470.173C449.107 473.627 447.013 476.767 444.372 479.411C441.731 482.056 438.595 484.155 435.142 485.587C431.69 487.02 427.99 487.758 424.252 487.76H32.4522C24.9393 487.753 17.7339 484.776 12.4065 479.479C7.07917 474.181 4.06182 466.993 4.01221 459.48H391.172C398.714 459.478 405.947 456.481 411.28 451.148C416.613 445.815 419.61 438.582 419.612 431.04V4H424.252C427.988 3.9979 431.687 4.73209 435.138 6.16059C438.59 7.58909 441.726 9.68388 444.367 12.3252C447.008 14.9665 449.103 18.1025 450.532 21.554C451.96 25.0054 452.694 28.7046 452.692 32.44Z" fill="#C1CDD3"/>
<path d="M424.256 491.74H32.448C23.8452 491.73 15.5974 488.309 9.51432 482.226C3.43121 476.143 0.0095287 467.895 0 459.292V32.448C0.0095287 23.8452 3.43121 15.5974 9.51432 9.51432C15.5974 3.43121 23.8452 0.0095287 32.448 0L424.26 0C432.863 0.0095287 441.111 3.43121 447.194 9.51432C453.277 15.5974 456.698 23.8452 456.708 32.448V459.292C456.698 467.896 453.276 476.144 447.192 482.227C441.108 488.31 432.86 491.732 424.256 491.74ZM32.448 8C25.9656 8.00635 19.7504 10.584 15.1663 15.1674C10.5821 19.7508 8.00341 25.9656 7.996 32.448V459.292C8.00341 465.774 10.5816 471.988 15.1648 476.571C19.7481 481.154 25.9623 483.733 32.444 483.74H424.256C430.738 483.733 436.952 481.154 441.535 476.571C446.118 471.988 448.697 465.774 448.704 459.292V32.448C448.697 25.9663 446.118 19.7521 441.535 15.1688C436.952 10.5856 430.738 8.00741 424.256 8H32.448Z" fill="#2F3A5A"/>
<path d="M424.26 4H32.4441C24.8992 4 17.6634 6.99719 12.3283 12.3322C6.99328 17.6673 3.99609 24.9031 3.99609 32.448V104.196H452.708V32.448C452.708 24.9031 449.711 17.6673 444.376 12.3322C439.041 6.99719 431.805 4 424.26 4Z" fill="#9297AB"/>
<path d="M452.692 32.44V104.2H419.612V32.44C419.61 24.8979 416.613 17.6653 411.28 12.3322C405.947 6.99915 398.714 4.00213 391.172 4H424.252C427.987 3.9979 431.686 4.73209 435.138 6.16059C438.589 7.58909 441.725 9.68388 444.367 12.3252C447.008 14.9665 449.103 18.1025 450.531 21.554C451.96 25.0054 452.694 28.7046 452.692 32.44Z" fill="#84879C"/>
<path d="M424.256 491.74H32.448C23.8452 491.73 15.5974 488.309 9.51432 482.226C3.43121 476.143 0.0095287 467.895 0 459.292V32.448C0.0095287 23.8452 3.43121 15.5974 9.51432 9.51432C15.5974 3.43121 23.8452 0.0095287 32.448 0L424.26 0C432.863 0.0095287 441.111 3.43121 447.194 9.51432C453.277 15.5974 456.698 23.8452 456.708 32.448V459.292C456.698 467.896 453.276 476.144 447.192 482.227C441.108 488.31 432.86 491.732 424.256 491.74ZM32.448 8C25.9656 8.00635 19.7504 10.584 15.1663 15.1674C10.5821 19.7508 8.00341 25.9656 7.996 32.448V459.292C8.00341 465.774 10.5816 471.988 15.1648 476.571C19.7481 481.154 25.9623 483.733 32.444 483.74H424.256C430.738 483.733 436.952 481.154 441.535 476.571C446.118 471.988 448.697 465.774 448.704 459.292V32.448C448.697 25.9663 446.118 19.7521 441.535 15.1688C436.952 10.5856 430.738 8.00741 424.256 8H32.448Z" fill="#2F3A5A"/>
<path d="M1.07617 100.195H452.704V108.195H1.07617V100.195Z" fill="#2F3A5A"/>
<path d="M389.329 64.6315C396.444 57.5162 396.444 45.9799 389.329 38.8646C382.213 31.7492 370.677 31.7492 363.562 38.8646C356.446 45.9799 356.446 57.5162 363.562 64.6315C370.677 71.7469 382.213 71.7469 389.329 64.6315Z" fill="#9297AB"/>
<path d="M376.492 73.9162C372.839 73.9156 369.243 73.0142 366.022 71.2918C362.801 69.5694 360.054 67.0792 358.025 64.0417C355.996 61.0042 354.748 57.5132 354.39 53.878C354.033 50.2427 354.577 46.5755 355.976 43.2009C357.374 39.8264 359.583 36.8489 362.407 34.532C365.231 32.2151 368.583 30.6304 372.165 29.9183C375.748 29.2063 379.451 29.3887 382.946 30.4496C386.442 31.5104 389.621 33.4169 392.204 36.0002C395.312 39.1063 397.429 43.0646 398.286 47.3741C399.144 51.6836 398.703 56.1506 397.021 60.2099C395.339 64.2692 392.491 67.7382 388.836 70.178C385.182 72.6179 380.886 73.9188 376.492 73.9162ZM376.492 37.5162C373.68 37.5144 370.931 38.3468 368.592 39.908C366.253 41.4693 364.43 43.6892 363.354 46.2869C362.277 48.8846 361.995 51.7433 362.544 54.5013C363.093 57.2592 364.447 59.7923 366.436 61.7802C369.145 64.3651 372.746 65.8072 376.49 65.8072C380.234 65.8072 383.835 64.3651 386.544 61.7802C388.539 59.7936 389.9 57.2591 390.453 54.4982C391.005 51.7372 390.726 48.8743 389.649 46.2726C388.572 43.6709 386.746 41.4478 384.404 39.8852C382.061 38.3227 379.308 37.4912 376.492 37.4962V37.5162Z" fill="#2F3A5A"/>
<path d="M389.972 38.2285L363.016 65.1885L389.972 38.2285Z" fill="#84879C"/>
<path d="M360.14 62.3915L387.096 35.4395L392.752 41.0955L365.796 68.0475L360.14 62.3915Z" fill="#2F3A5A"/>
<path d="M305.391 64.6218C312.506 57.5064 312.506 45.9701 305.391 38.8548C298.276 31.7394 286.739 31.7394 279.624 38.8548C272.509 45.9701 272.509 57.5064 279.624 64.6218C286.739 71.7371 298.276 71.7371 305.391 64.6218Z" fill="#9297AB"/>
<path d="M292.548 73.9242C287.408 73.9238 282.428 72.1413 278.455 68.8805C274.482 65.6197 271.763 61.0823 270.76 56.0414C269.758 51.0004 270.534 45.7678 272.957 41.2351C275.38 36.7024 279.3 33.1501 284.048 31.1832C288.797 29.2164 294.08 28.9568 298.998 30.4487C303.917 31.9406 308.166 35.0917 311.021 39.3651C313.877 43.6384 315.162 48.7697 314.659 53.8846C314.155 58.9996 311.894 63.7817 308.26 67.4162C306.202 69.4865 303.753 71.1277 301.056 72.2448C298.359 73.362 295.467 73.9328 292.548 73.9242ZM292.548 37.4882C289.736 37.4886 286.987 38.3227 284.649 39.885C282.311 41.4473 280.489 43.6676 279.413 46.2654C278.337 48.8632 278.055 51.7217 278.603 54.4797C279.151 57.2377 280.504 59.7713 282.492 61.7602C285.201 64.346 288.801 65.7888 292.546 65.7888C296.291 65.7888 299.891 64.346 302.6 61.7602C304.59 59.772 305.945 57.2383 306.494 54.4797C307.043 51.721 306.762 48.8615 305.685 46.2629C304.608 43.6644 302.785 41.4436 300.446 39.8816C298.107 38.3196 295.361 37.4867 292.548 37.4882Z" fill="#2F3A5A"/>
<path d="M306.028 38.2285L279.072 65.1885L306.028 38.2285Z" fill="#84879C"/>
<path d="M276.204 62.3876L303.16 35.4316L308.816 41.0876L281.86 68.0436L276.204 62.3876Z" fill="#2F3A5A"/>
<path d="M44.292 31.7559H143.868V76.3639H44.292V31.7559Z" fill="#B9DDFC"/>
<path d="M143.872 80.3599H44.2959C43.235 80.3599 42.2176 79.9384 41.4675 79.1883C40.7173 78.4381 40.2959 77.4207 40.2959 76.3599V31.7559C40.2959 30.695 40.7173 29.6776 41.4675 28.9274C42.2176 28.1773 43.235 27.7559 44.2959 27.7559H143.872C144.933 27.7559 145.95 28.1773 146.7 28.9274C147.45 29.6776 147.872 30.695 147.872 31.7559V76.3599C147.872 77.4207 147.45 78.4381 146.7 79.1883C145.95 79.9384 144.933 80.3599 143.872 80.3599ZM48.2959 72.3599H139.872V35.7559H48.2959V72.3599Z" fill="#2F3A5A"/>
<path d="M228.352 386.772C283.636 386.772 328.452 341.956 328.452 286.672C328.452 231.389 283.636 186.572 228.352 186.572C173.068 186.572 128.252 231.389 128.252 286.672C128.252 341.956 173.068 386.772 228.352 386.772Z" fill="#9297AB"/>
<path d="M228.352 390.776C207.763 390.776 187.637 384.671 170.518 373.232C153.398 361.794 140.056 345.536 132.177 326.515C124.297 307.493 122.236 286.562 126.252 266.369C130.268 246.175 140.183 227.627 154.741 213.068C169.299 198.509 187.847 188.594 208.041 184.577C228.234 180.56 249.165 182.621 268.187 190.499C287.208 198.378 303.467 211.72 314.906 228.838C326.345 245.957 332.451 266.083 332.452 286.672C332.421 314.272 321.444 340.733 301.928 360.25C282.412 379.766 255.952 390.744 228.352 390.776ZM228.352 190.572C209.345 190.572 190.765 196.208 174.962 206.768C159.158 217.328 146.841 232.336 139.567 249.896C132.294 267.456 130.39 286.779 134.099 305.42C137.807 324.062 146.959 341.185 160.399 354.625C173.839 368.065 190.962 377.218 209.604 380.926C228.245 384.634 247.568 382.731 265.128 375.457C282.688 368.183 297.697 355.866 308.256 340.063C318.816 324.259 324.452 305.679 324.452 286.672C324.423 261.194 314.289 236.767 296.273 218.751C278.257 200.735 253.831 190.601 228.352 190.572Z" fill="#2F3A5A"/>
<path d="M228.352 365.108C271.671 365.108 306.788 329.991 306.788 286.672C306.788 243.353 271.671 208.236 228.352 208.236C185.033 208.236 149.916 243.353 149.916 286.672C149.916 329.991 185.033 365.108 228.352 365.108Z" fill="#D9E2E9"/>
<path d="M150.036 289.096C150.636 309.466 159.15 328.802 173.772 342.998C188.393 357.195 207.97 365.136 228.35 365.136C248.729 365.136 268.307 357.195 282.928 342.998C297.549 328.802 306.064 309.466 306.664 289.096H150.036Z" fill="#3DBCE9"/>
<path d="M228.352 369.108C212.048 369.108 196.11 364.274 182.553 355.215C168.997 346.157 158.431 333.282 152.191 318.219C145.952 303.156 144.319 286.581 147.5 270.59C150.681 254.599 158.532 239.91 170.061 228.381C181.59 216.852 196.279 209.001 212.27 205.82C228.261 202.64 244.836 204.272 259.899 210.511C274.962 216.751 287.837 227.317 296.895 240.873C305.953 254.43 310.788 270.368 310.788 286.672C310.764 308.528 302.071 329.482 286.616 344.937C271.162 360.391 250.208 369.084 228.352 369.108ZM228.352 212.236C213.63 212.236 199.239 216.602 186.998 224.781C174.757 232.96 165.216 244.586 159.582 258.187C153.948 271.788 152.474 286.755 155.346 301.194C158.218 315.633 165.308 328.897 175.718 339.307C186.128 349.717 199.391 356.806 213.83 359.678C228.269 362.55 243.236 361.076 256.837 355.442C270.439 349.808 282.064 340.268 290.243 328.027C298.422 315.786 302.788 301.394 302.788 286.672C302.766 266.938 294.916 248.017 280.962 234.063C267.007 220.108 248.087 212.259 228.352 212.236Z" fill="#2F3A5A"/>
<path d="M383.816 487.74H423.028V504.516H383.816V487.74Z" fill="#D9E2E9"/>
<path d="M423.028 508.516H383.828C382.767 508.516 381.75 508.095 381 507.345C380.25 506.595 379.828 505.577 379.828 504.516V487.74C379.828 486.679 380.25 485.662 381 484.912C381.75 484.162 382.767 483.74 383.828 483.74H423.028C424.089 483.74 425.106 484.162 425.857 484.912C426.607 485.662 427.028 486.679 427.028 487.74V504.516C427.028 505.577 426.607 506.595 425.857 507.345C425.106 508.095 424.089 508.516 423.028 508.516ZM387.828 500.516H419.028V491.74H387.828V500.516Z" fill="#2F3A5A"/>
<path d="M33.6758 487.74H72.8878V504.516H33.6758V487.74Z" fill="#D9E2E9"/>
<path d="M72.8919 508.516H33.6919C32.631 508.516 31.6136 508.095 30.8635 507.345C30.1133 506.595 29.6919 505.577 29.6919 504.516V487.74C29.6919 486.679 30.1133 485.662 30.8635 484.912C31.6136 484.162 32.631 483.74 33.6919 483.74H72.8919C73.9528 483.74 74.9702 484.162 75.7203 484.912C76.4705 485.662 76.8919 486.679 76.8919 487.74V504.516C76.8919 505.577 76.4705 506.595 75.7203 507.345C74.9702 508.095 73.9528 508.516 72.8919 508.516ZM37.6919 500.516H68.8919V491.74H37.6919V500.516Z" fill="#2F3A5A"/>
</svg>
