<svg width="100" height="100" viewBox="0 0 490 512" fill="none" xmlns="http://www.w3.org/2000/svg">
<path d="M34.2 391.891L455.805 391.89C477.521 355.316 490.004 312.617 490.004 266.996C490.004 131.685 380.313 21.9941 245.002 21.9941C109.691 21.9941 0 131.685 0 266.996C0 312.618 12.484 355.317 34.2 391.891Z" fill="#7E6DD1"/>
<path d="M344.308 71.7196C321.434 -0.951378 245.002 0.000620554 245.002 0.000620554C245.002 0.000620554 168.57 -0.950378 145.696 71.7196C128.54 126.223 131.843 181.379 124.493 224.796C119.961 251.565 138.605 276.814 165.479 280.675C184.631 283.427 210.421 285.4 245.002 285.4C279.583 285.4 305.372 283.427 324.525 280.675C351.399 276.814 370.043 251.564 365.511 224.796C358.161 181.379 361.464 126.222 344.308 71.7196Z" fill="#56415E"/>
<path d="M245.002 0.000618651C245.002 0.000618651 168.57 -0.950378 145.696 71.7196C128.54 126.223 131.843 181.379 124.493 224.796C119.961 251.565 138.605 276.814 165.479 280.675C184.632 283.427 210.421 285.4 245.002 285.4C279.583 285.4 305.372 283.427 324.525 280.675C351.399 276.814 370.043 251.564 365.511 224.796C330.176 242.925 318.909 216.152 318.909 216.152C318.909 216.152 253.513 123.334 222.48 75.8466C191.448 28.3586 245.002 0.000618651 245.002 0.000618651Z" fill="#45304C"/>
<path d="M307.345 306.536C307.577 304.109 308.667 301.845 310.418 300.149C297.368 292.356 288.048 282.932 288.048 271.901V263.838C277.618 273.162 259.732 285.041 245.002 285.398C230.272 285.041 212.386 273.162 201.957 263.838V271.901C201.957 282.575 193.225 291.744 180.835 299.388C182.631 301.047 183.741 303.318 183.947 305.755C185.966 328.343 198.32 350.341 220.664 371.138C227.273 377.291 221.375 388.494 212.035 385.954C210.707 385.591 209.382 385.218 208.06 384.837C207.828 384.77 207.584 384.758 207.347 384.802C207.109 384.846 206.885 384.944 206.692 385.089C206.5 385.234 206.343 385.422 206.235 385.638C206.127 385.854 206.071 386.092 206.071 386.333V399.706C211.733 403.008 217.587 405.968 223.602 408.572C237.65 414.647 253.756 414.648 267.802 408.572C273.322 406.18 278.707 403.488 283.932 400.507V386.722C283.932 385.691 282.945 384.942 281.95 385.224C281.05 385.479 280.17 385.725 279.332 385.954C270.01 388.497 264.085 377.299 270.702 371.138C292.783 350.588 305.11 328.853 307.345 306.536Z" fill="#FFD9A1"/>
<path d="M201.957 271.901C201.957 282.575 193.225 291.744 180.835 299.388C182.631 301.047 183.741 303.318 183.947 305.755C185.294 320.826 191.249 335.634 201.696 349.999C202.285 349.936 202.873 349.851 203.456 349.746C242.547 342.68 245.002 285.398 245.002 285.398C230.272 285.042 212.386 273.162 201.957 263.838V271.901Z" fill="#F9C98A"/>
<path d="M283.933 398.433C278.708 401.414 273.323 404.106 267.803 406.498C253.758 412.574 237.651 412.573 223.603 406.498C217.588 403.894 211.733 400.934 206.071 397.632V508.909C231.861 513.03 258.143 513.03 283.933 508.909V398.433Z" fill="#6C5475"/>
<path d="M177.754 354.836C173.352 365.396 171.936 370.222 171.492 372.356C167.142 372.699 151.89 374.19 136.808 379.102C112.891 386.894 100.248 399.707 100.248 416.158V464.644C133.438 488.993 172.976 505.197 215.933 510.276V367.764L180.847 349.807C179.621 351.191 178.579 352.857 177.754 354.836Z" fill="#FF7186"/>
<path d="M182.223 350.51L125.235 321.343C109.769 325.544 98.142 327.668 98.142 327.668C85.493 330.097 57.731 338.931 41.913 370.567C38.877 376.639 36.329 383.838 34.201 391.893C51.43 420.91 74.492 446.044 101.75 465.727V416.158C101.75 377.668 172.799 373.767 172.799 373.767C172.799 373.767 172.615 371.065 179.14 355.413C179.994 353.362 181.046 351.761 182.223 350.51Z" fill="#FF4155"/>
<path d="M455.805 391.892C453.677 383.837 451.129 376.638 448.093 370.566C432.274 338.93 404.512 330.096 391.863 327.667C391.863 327.667 381.521 325.779 367.369 322.039L274.071 368.752V510.275C351.462 501.126 417.794 455.91 455.805 391.892Z" fill="#FF7186"/>
<path d="M279.743 387.457C298.245 382.412 332.24 371.08 357.809 350.714C360.753 348.372 363.441 345.726 365.83 342.819C375.171 331.44 369.988 314.174 355.938 309.776C344.905 306.322 333.154 302.026 322.664 296.898C315.265 293.281 306.616 298.187 305.796 306.383C304.005 324.276 295.003 346.397 269.644 370C268.164 371.379 267.121 373.162 266.645 375.128C266.168 377.094 266.278 379.157 266.962 381.06C268.793 386.206 274.471 388.894 279.743 387.457ZM221.725 369.999C213.369 362.222 206.798 354.607 201.667 347.249C198.314 345.863 192.175 344.005 186.575 345.938C182.614 347.304 179.647 350.297 177.755 354.836C173.353 365.396 171.937 370.222 171.493 372.356C171.077 372.389 170.56 372.432 169.954 372.488C185.909 379.793 201.218 384.62 211.626 387.458C216.897 388.896 222.575 386.207 224.407 381.06C225.091 379.156 225.201 377.094 224.724 375.128C224.248 373.162 223.205 371.379 221.725 369.999Z" fill="#D3DCFB"/>
<path d="M185.498 305.617C184.763 297.395 175.87 292.643 168.484 296.33C158.015 301.556 146.194 305.938 135.042 309.467C121.069 313.888 116.039 331.042 125.239 342.452C127.701 345.503 130.491 348.273 133.559 350.714C145.603 360.307 159.515 367.894 172.798 373.766C172.797 373.748 172.635 371.014 179.139 355.413C185.663 339.762 203.454 349.747 203.456 349.748C191.489 333.503 186.645 318.447 185.498 305.617Z" fill="#BEC8F7"/>
<path d="M179.139 445.884C174.267 445.884 170.282 441.898 170.282 437.027V364.27C170.282 359.399 174.268 355.413 179.139 355.413C184.011 355.413 187.996 359.399 187.996 364.27V437.027C187.996 441.898 184.011 445.884 179.139 445.884ZM310.865 445.884C305.993 445.884 302.008 441.898 302.008 437.027V364.27C302.008 359.399 305.994 355.413 310.865 355.413C315.737 355.413 319.722 359.399 319.722 364.27V437.027C319.723 441.898 315.737 445.884 310.865 445.884Z" fill="#DEEEFF"/>
<path d="M408.778 84.793C396.749 95.744 384.496 114.224 389.34 142.326C397.518 189.77 386.695 305.501 484.947 316.73C488.318 300.367 490.012 283.704 490.004 266.998C490.004 194.653 458.64 129.641 408.778 84.793ZM81.226 84.793C93.255 95.744 105.508 114.224 100.664 142.326C92.486 189.77 103.309 305.501 5.05801 316.73C1.6871 300.367 -0.00731845 283.704 0.00100709 266.998C7.09348e-06 194.653 31.364 129.641 81.226 84.793Z" fill="#9589E8"/>
<path d="M424.827 433.339C419.708 414.342 407.788 403.221 398.076 397.081C391.825 393.129 383.674 397.577 383.674 404.973V468.96C398.666 458.643 412.468 446.697 424.827 433.339Z" fill="#FF4155"/>
<path d="M350.732 136.423C349.472 135.868 347.992 135.956 346.867 136.75C341.8 140.328 335.126 140.723 329.64 138.021C332.328 157.198 328.521 181.325 328.521 181.325C328.319 182.214 328.108 183.074 327.902 183.949C341.544 184.159 344.834 175.277 345.491 169.209C345.806 166.357 346.481 163.556 347.498 160.873C349.637 155.185 353.246 147.398 353.157 140.061C353.144 139.286 352.909 138.531 352.479 137.886C352.049 137.241 351.442 136.733 350.732 136.423Z" fill="#FFD9A1"/>
<path d="M330.367 138.347C327.829 137.25 325.599 135.547 323.872 133.387C316.132 123.695 303.802 104.875 297.776 77.5801C297.254 75.2131 294.757 73.8511 292.507 74.7531C284.33 78.0311 264.842 83.5101 237.351 76.2941C230.742 74.5591 225.374 74.7151 220.927 76.3421C215.658 99.4341 195.655 216.739 270.6 280.14C284.927 271.624 296.714 259.844 305.079 245.528C315.471 227.744 323.583 206.193 329.193 181.43C330.771 171.402 332.411 153.237 330.367 138.347Z" fill="#FCE6CA"/>
<path d="M222.48 75.8457C192.685 84.0617 202.211 154.615 170.99 182.828C165.931 187.4 164 194.506 165.978 201.031C171.029 217.695 177.37 232.607 184.92 245.528C195.472 263.586 211.452 277.631 231.132 286.146C239.947 289.958 250.054 289.959 258.867 286.146C263.356 284.2 267.701 281.937 271.868 279.374C193.512 214.667 218.632 90.6717 222.48 75.8457Z" fill="#FFD9A1"/>
</svg>
