<svg xmlns="http://www.w3.org/2000/svg" xmlns:xlink="http://www.w3.org/1999/xlink" width="400" zoomAndPan="magnify" viewBox="0 0 300 299.999988" height="400" preserveAspectRatio="xMidYMid meet" version="1.0"><defs><clipPath id="cb8c1105a8"><path d="M 108 168.292969 L 116 168.292969 L 116 171 L 108 171 Z M 108 168.292969 " clip-rule="nonzero"/></clipPath><clipPath id="2a3af0ed1e"><path d="M 95.425781 169 L 127.675781 169 L 127.675781 196.792969 L 95.425781 196.792969 Z M 95.425781 169 " clip-rule="nonzero"/></clipPath><clipPath id="681c9443a8"><path d="M 96 168.292969 L 127 168.292969 L 127 196 L 96 196 Z M 96 168.292969 " clip-rule="nonzero"/></clipPath><clipPath id="1f35138be8"><path d="M 164 19 L 274.851562 19 L 274.851562 204 L 164 204 Z M 164 19 " clip-rule="nonzero"/></clipPath><clipPath id="da68112076"><path d="M 160 281 L 167 281 L 167 283.808594 L 160 283.808594 Z M 160 281 " clip-rule="nonzero"/></clipPath><clipPath id="578d83259a"><path d="M 151 282 L 157 282 L 157 283.808594 L 151 283.808594 Z M 151 282 " clip-rule="nonzero"/></clipPath><clipPath id="33bc9b4066"><path d="M 141 281 L 148 281 L 148 283.808594 L 141 283.808594 Z M 141 281 " clip-rule="nonzero"/></clipPath></defs><g clip-path="url(#cb8c1105a8)"><path fill="#ddbaba" d="M 108.113281 169.148438 C 108.035156 168.957031 107.996094 168.722656 108.152344 168.605469 C 108.195312 168.566406 108.273438 168.566406 108.3125 168.566406 C 109.066406 168.488281 109.863281 168.410156 110.617188 168.371094 C 111.015625 168.332031 111.414062 168.332031 111.808594 168.332031 C 112.722656 168.292969 113.597656 168.332031 114.472656 168.449219 C 114.710938 168.488281 114.949219 168.527344 115.1875 168.605469 C 115.265625 168.644531 115.304688 168.644531 115.347656 168.722656 C 115.386719 168.800781 115.425781 168.878906 115.425781 168.957031 C 115.464844 169.148438 115.464844 169.382812 115.347656 169.539062 C 115.226562 169.65625 115.109375 169.773438 115.027344 169.929688 C 114.75 170.277344 114.195312 170.199219 113.796875 170.238281 C 113.28125 170.277344 112.722656 170.316406 112.207031 170.355469 C 111.132812 170.394531 110.0625 170.394531 108.988281 170.316406 C 108.550781 170.238281 108.273438 169.5 108.113281 169.148438 Z M 108.113281 169.148438 " fill-opacity="1" fill-rule="nonzero"/></g><g clip-path="url(#2a3af0ed1e)"><path fill="#ffe3e3" d="M 127.226562 194.730469 C 127.144531 194.847656 127.027344 194.964844 126.90625 195.082031 C 126.789062 195.195312 126.667969 195.273438 126.550781 195.351562 C 126.074219 195.703125 125.476562 195.976562 125 196.171875 C 124.445312 196.402344 123.847656 196.597656 123.253906 196.675781 C 123.09375 196.675781 121.425781 196.792969 121.425781 196.714844 C 121.664062 195.585938 121.863281 194.417969 121.625 193.289062 C 121.582031 193.09375 121.542969 192.898438 121.464844 192.707031 C 121.425781 192.589844 121.386719 192.472656 121.34375 192.355469 C 121.265625 192.121094 121.148438 191.886719 121.066406 191.613281 C 120.988281 191.421875 120.949219 191.226562 120.867188 190.992188 C 120.75 190.523438 120.628906 190.019531 120.550781 189.550781 C 120.75 190.640625 120.671875 192.121094 120.589844 193.210938 C 120.589844 193.367188 120.550781 193.523438 120.429688 193.601562 C 120.3125 193.679688 120.152344 193.679688 119.996094 193.679688 C 115.742188 193.328125 111.492188 192.820312 107.28125 193.5625 C 106.207031 193.757812 105.132812 194.027344 104.023438 194.066406 C 103.585938 194.066406 103.109375 194.066406 102.789062 193.757812 C 102.273438 193.25 102.632812 192.472656 102.632812 191.847656 C 102.589844 191.226562 102.3125 190.640625 102.433594 190.019531 C 102.351562 190.40625 102.273438 190.796875 102.15625 191.1875 C 102.113281 191.34375 102.074219 191.460938 102.035156 191.574219 C 101.875 191.964844 101.71875 192.355469 101.597656 192.78125 C 101.558594 192.9375 101.519531 193.09375 101.480469 193.25 C 101.480469 193.289062 101.480469 193.328125 101.480469 193.367188 C 101.28125 194.457031 101.480469 195.585938 101.679688 196.675781 C 101.679688 196.753906 100.007812 196.636719 99.851562 196.636719 C 99.253906 196.558594 98.660156 196.363281 98.101562 196.132812 C 97.625 195.9375 97.148438 195.703125 96.671875 195.390625 C 96.550781 195.3125 96.472656 195.234375 96.355469 195.15625 C 96.15625 195.003906 95.996094 194.847656 95.878906 194.691406 C 95.558594 194.261719 95.558594 193.988281 95.835938 193.5625 C 96.195312 192.898438 96.550781 192.277344 96.832031 191.574219 C 96.949219 191.265625 97.027344 190.992188 97.148438 190.679688 C 97.1875 190.5625 97.226562 190.445312 97.269531 190.292969 C 97.507812 189.511719 97.703125 188.695312 97.863281 187.878906 C 98.617188 184.527344 99.453125 181.179688 100.328125 177.871094 C 100.484375 177.25 100.644531 176.625 100.84375 176.042969 C 101.121094 175.339844 101.398438 174.757812 101.835938 174.210938 C 101.875 174.132812 101.957031 174.015625 102.035156 173.9375 C 102.273438 173.667969 102.550781 173.394531 102.832031 173.160156 C 103.226562 172.730469 103.785156 172.421875 104.222656 172.109375 C 105.054688 171.484375 105.929688 170.902344 106.84375 170.394531 C 106.960938 170.316406 107.082031 170.238281 107.199219 170.164062 C 108.234375 169.539062 109.703125 169.734375 110.855469 169.695312 C 112.246094 169.65625 113.636719 169.578125 114.988281 169.539062 C 115.347656 169.539062 115.824219 170.046875 116.140625 170.238281 C 116.578125 170.550781 117.015625 170.902344 117.492188 171.175781 C 118.40625 171.679688 119.238281 172.265625 119.996094 172.964844 C 120.035156 173.003906 120.074219 173.042969 120.113281 173.082031 C 120.511719 173.394531 120.828125 173.707031 121.105469 174.054688 C 121.1875 174.171875 121.265625 174.25 121.34375 174.367188 C 121.703125 174.835938 121.980469 175.378906 122.179688 176.042969 C 122.417969 176.664062 122.578125 177.25 122.695312 177.871094 C 123.53125 181.21875 124.363281 184.527344 125.160156 187.878906 C 125.320312 188.617188 125.515625 189.394531 125.714844 190.136719 C 125.753906 190.292969 125.796875 190.445312 125.835938 190.5625 C 125.953125 190.914062 126.035156 191.226562 126.191406 191.574219 C 126.472656 192.277344 126.828125 192.9375 127.1875 193.5625 C 127.503906 194.027344 127.542969 194.300781 127.226562 194.730469 Z M 127.226562 194.730469 " fill-opacity="1" fill-rule="nonzero"/></g><g clip-path="url(#681c9443a8)"><path fill="#ddbaba" d="M 115.980469 169.65625 C 115.863281 169.382812 115.742188 169.109375 115.542969 168.878906 C 115.503906 168.800781 115.425781 168.722656 115.347656 168.644531 C 115.265625 168.605469 115.148438 168.527344 115.066406 168.566406 C 115.066406 168.800781 114.949219 168.992188 114.910156 169.226562 C 114.910156 169.34375 114.867188 169.460938 114.867188 169.578125 C 114.867188 169.695312 114.828125 169.773438 114.828125 169.851562 C 114.511719 171.332031 113.519531 172.808594 111.929688 173.121094 C 111.847656 173.121094 111.769531 173.121094 111.730469 173.121094 C 111.609375 173.121094 111.53125 173.121094 111.414062 173.121094 C 111.371094 173.121094 111.332031 173.121094 111.253906 173.121094 C 111.292969 173.121094 111.253906 173.121094 111.253906 173.121094 C 111.253906 173.121094 111.253906 173.121094 111.214844 173.121094 C 111.175781 173.082031 111.175781 173.082031 111.132812 173.042969 C 110.976562 172.925781 110.738281 172.847656 110.578125 172.730469 C 110.378906 172.613281 110.179688 172.460938 110.023438 172.304688 C 109.664062 171.992188 109.386719 171.601562 109.148438 171.214844 C 108.949219 170.863281 108.789062 170.511719 108.671875 170.164062 C 108.550781 169.8125 108.550781 169.539062 108.511719 169.1875 C 108.472656 168.957031 108.351562 168.761719 108.351562 168.527344 C 108.234375 168.527344 108.152344 168.566406 108.074219 168.605469 C 107.996094 168.683594 107.914062 168.761719 107.875 168.839844 C 107.675781 169.070312 107.558594 169.34375 107.4375 169.617188 C 107.359375 169.773438 107.28125 169.96875 107.28125 170.164062 C 107.199219 170.628906 107.199219 171.136719 107.4375 171.5625 C 107.757812 172.226562 108.351562 172.652344 108.988281 172.964844 C 109.027344 172.964844 109.027344 173.003906 109.066406 173.003906 C 109.109375 173.003906 109.148438 173.003906 109.1875 173.003906 C 109.425781 172.964844 109.664062 172.808594 109.863281 172.886719 C 110.101562 173.003906 110.378906 173.160156 110.617188 173.316406 C 110.65625 173.355469 110.695312 173.355469 110.738281 173.394531 C 110.777344 173.433594 110.738281 173.511719 110.738281 173.589844 C 110.457031 174.367188 110.101562 175.183594 109.863281 176.003906 C 109.863281 176.042969 109.824219 176.117188 109.824219 176.15625 C 109.824219 176.195312 109.863281 176.273438 109.863281 176.3125 C 110.0625 176.820312 110.21875 177.324219 110.5 177.792969 C 110.5 177.832031 110.539062 177.832031 110.539062 177.871094 C 110.261719 178.300781 109.980469 178.726562 109.824219 179.195312 C 109.824219 179.234375 109.902344 179.273438 109.902344 179.234375 C 110.0625 178.882812 110.261719 178.570312 110.457031 178.261719 C 110.5 178.183594 110.578125 178.144531 110.617188 178.066406 C 110.816406 178.457031 111.015625 178.804688 111.132812 179.234375 C 111.175781 179.390625 111.453125 179.46875 111.53125 179.273438 C 111.730469 178.765625 111.96875 178.261719 112.246094 177.753906 C 112.285156 177.949219 112.367188 178.183594 112.445312 178.378906 C 112.605469 178.726562 112.804688 179.039062 113.199219 179.078125 C 113.359375 179.078125 113.398438 178.84375 113.238281 178.804688 C 112.84375 178.6875 112.683594 178.105469 112.605469 177.792969 C 112.566406 177.597656 112.523438 177.441406 112.484375 177.25 C 112.605469 177.054688 112.683594 176.820312 112.804688 176.625 C 112.84375 176.585938 112.84375 176.507812 112.882812 176.46875 C 112.882812 176.390625 112.882812 176.3125 112.882812 176.234375 C 112.804688 175.925781 112.722656 175.574219 112.644531 175.261719 C 112.683594 175.261719 112.761719 175.300781 112.804688 175.300781 C 113.160156 175.339844 113.675781 175.027344 113.675781 174.640625 C 113.675781 174.25 113.199219 173.976562 112.882812 173.859375 C 112.683594 173.78125 112.484375 173.707031 112.285156 173.667969 C 112.285156 173.628906 112.328125 173.550781 112.367188 173.511719 C 112.566406 173.316406 113 173.199219 113.238281 173.082031 C 113.320312 173.042969 113.476562 172.925781 113.597656 172.886719 C 113.675781 172.886719 113.796875 172.964844 113.875 173.003906 C 114.035156 173.042969 114.195312 173.121094 114.351562 173.082031 C 114.511719 173.042969 114.628906 172.925781 114.75 172.847656 C 114.910156 172.730469 115.109375 172.613281 115.265625 172.460938 C 115.585938 172.1875 115.863281 171.875 116.019531 171.523438 C 116.21875 171.097656 116.257812 170.667969 116.179688 170.238281 C 116.140625 170.046875 116.101562 169.851562 115.980469 169.65625 Z M 111.015625 175.027344 C 111.054688 174.71875 111.132812 174.40625 111.214844 174.054688 C 111.214844 174.09375 111.253906 174.132812 111.253906 174.171875 C 111.332031 174.367188 111.453125 174.523438 111.492188 174.757812 C 111.53125 174.988281 111.53125 175.222656 111.492188 175.457031 C 111.453125 175.652344 111.414062 175.847656 111.292969 176.003906 C 111.09375 176.234375 111.015625 175.886719 110.976562 175.730469 C 110.933594 175.496094 110.976562 175.261719 111.015625 175.027344 Z M 110.777344 177.480469 C 110.65625 177.289062 110.539062 177.09375 110.457031 176.898438 C 110.378906 176.78125 110.339844 176.664062 110.300781 176.507812 C 110.300781 176.390625 110.300781 176.273438 110.339844 176.15625 C 110.417969 175.769531 110.539062 175.417969 110.695312 175.027344 C 110.65625 175.378906 110.617188 175.808594 110.816406 176.117188 C 110.894531 176.273438 111.09375 176.390625 111.253906 176.351562 C 111.332031 176.351562 111.414062 176.273438 111.492188 176.234375 C 111.492188 176.273438 111.453125 176.351562 111.453125 176.390625 C 111.292969 176.742188 111.132812 177.09375 110.894531 177.402344 C 110.816406 177.441406 110.777344 177.480469 110.777344 177.480469 Z M 112.085938 177.171875 C 111.890625 177.675781 111.652344 178.183594 111.371094 178.6875 C 111.414062 178.609375 111.214844 178.300781 111.175781 178.222656 C 111.09375 178.066406 111.015625 177.910156 110.933594 177.753906 C 110.933594 177.753906 110.933594 177.714844 110.894531 177.714844 C 110.976562 177.597656 111.09375 177.480469 111.175781 177.363281 C 111.371094 177.09375 111.53125 176.742188 111.691406 176.390625 C 111.808594 176.15625 111.847656 175.886719 111.890625 175.652344 C 111.96875 176.117188 112.007812 176.585938 112.085938 177.015625 C 112.085938 177.09375 112.085938 177.132812 112.085938 177.171875 Z M 113.238281 174.5625 C 113.320312 174.679688 113.320312 174.757812 113.238281 174.835938 C 113.160156 174.949219 113 175.027344 112.882812 175.027344 C 112.761719 175.027344 112.683594 174.949219 112.566406 174.914062 C 112.523438 174.71875 112.484375 174.484375 112.40625 174.289062 C 112.40625 174.25 112.40625 174.210938 112.367188 174.210938 C 112.683594 174.25 113.042969 174.328125 113.238281 174.5625 Z M 103.109375 182.464844 C 103.1875 183.789062 103.265625 185.152344 103.1875 186.515625 C 103.1875 186.941406 103.148438 187.332031 103.109375 187.761719 C 103.027344 188.578125 102.949219 189.394531 102.789062 190.214844 C 102.710938 190.640625 102.589844 191.109375 102.511719 191.539062 C 102.511719 191.070312 102.472656 190.601562 102.472656 190.136719 C 102.394531 190.523438 102.3125 190.914062 102.195312 191.304688 C 102.234375 190.757812 102.351562 190.214844 102.472656 189.628906 C 102.589844 189.085938 102.671875 188.539062 102.75 187.992188 C 102.910156 186.320312 102.910156 184.605469 102.789062 182.933594 C 102.710938 181.726562 102.589844 180.558594 102.472656 179.351562 C 102.433594 178.84375 102.351562 178.300781 102.3125 177.792969 C 102.195312 176.625 102.113281 175.417969 101.835938 174.25 C 101.875 174.171875 101.957031 174.054688 102.035156 173.976562 C 102.273438 174.679688 102.433594 175.378906 102.511719 176.117188 C 102.511719 176.117188 102.511719 176.15625 102.511719 176.15625 C 102.550781 176.507812 102.589844 176.898438 102.632812 177.289062 C 102.832031 178.960938 102.988281 180.714844 103.109375 182.464844 Z M 120.867188 191.070312 C 120.75 190.601562 120.628906 190.097656 120.550781 189.628906 C 120.671875 190.214844 120.671875 190.835938 120.589844 191.460938 C 120.589844 191.421875 120.589844 191.382812 120.589844 191.34375 C 120.511719 190.796875 120.429688 190.253906 120.390625 189.707031 C 120.351562 189.125 120.351562 188.5 120.351562 187.917969 L 120.351562 187.527344 C 120.351562 186.789062 120.390625 186.085938 120.390625 185.386719 C 120.429688 184.488281 120.472656 183.554688 120.511719 182.660156 C 120.628906 179.777344 120.472656 176.859375 121.148438 174.054688 C 121.226562 174.171875 121.304688 174.25 121.386719 174.367188 C 120.949219 177.132812 120.828125 179.972656 120.75 182.738281 C 120.710938 184.335938 120.671875 185.929688 120.628906 187.527344 C 120.628906 188.304688 120.628906 189.046875 120.671875 189.824219 C 120.671875 190.136719 120.75 190.40625 120.75 190.71875 C 120.828125 190.835938 120.867188 190.953125 120.867188 191.070312 Z M 101.441406 192.820312 C 101.519531 192.859375 101.558594 192.898438 101.636719 192.898438 C 101.597656 193.054688 101.558594 193.210938 101.519531 193.367188 C 101.519531 193.40625 101.519531 193.445312 101.519531 193.484375 C 101.199219 193.40625 100.84375 193.171875 100.605469 193.015625 C 100.167969 192.78125 99.769531 192.550781 99.375 192.277344 C 98.976562 192.042969 98.617188 191.769531 98.261719 191.5 C 98.179688 191.847656 98.023438 192.199219 97.863281 192.550781 C 97.703125 192.976562 97.546875 193.367188 97.386719 193.796875 C 97.1875 194.339844 96.988281 194.925781 96.75 195.46875 C 96.632812 195.390625 96.550781 195.3125 96.433594 195.234375 C 96.632812 194.691406 96.832031 194.183594 97.027344 193.640625 C 97.1875 193.25 97.347656 192.859375 97.464844 192.472656 C 97.625 192.082031 97.746094 191.652344 97.984375 191.304688 C 97.703125 191.109375 97.464844 190.914062 97.226562 190.679688 C 97.269531 190.5625 97.308594 190.445312 97.347656 190.292969 C 98.101562 190.796875 98.855469 191.265625 99.652344 191.730469 C 100.050781 191.964844 100.484375 192.199219 100.921875 192.433594 C 101.042969 192.589844 101.242188 192.707031 101.441406 192.820312 Z M 126.90625 195.082031 C 126.789062 195.195312 126.667969 195.273438 126.550781 195.351562 C 126.472656 195.195312 126.390625 195.042969 126.3125 194.886719 C 126.113281 194.496094 125.914062 194.105469 125.675781 193.71875 C 125.4375 193.328125 125.199219 192.9375 124.960938 192.511719 C 124.84375 192.316406 124.722656 192.082031 124.601562 191.886719 C 124.523438 191.730469 124.445312 191.574219 124.363281 191.421875 C 123.410156 191.925781 122.457031 192.394531 121.464844 192.707031 C 121.425781 192.589844 121.386719 192.472656 121.34375 192.355469 C 122.378906 191.847656 123.453125 191.421875 124.484375 190.875 C 124.960938 190.640625 125.398438 190.367188 125.835938 190.097656 C 125.875 190.253906 125.914062 190.40625 125.953125 190.523438 C 125.558594 190.757812 125.160156 190.992188 124.761719 191.226562 C 124.882812 191.382812 124.960938 191.539062 125.082031 191.691406 C 125.199219 191.886719 125.359375 192.121094 125.476562 192.316406 C 125.714844 192.707031 125.953125 193.09375 126.191406 193.523438 C 126.429688 193.914062 126.667969 194.300781 126.828125 194.730469 C 126.828125 194.886719 126.867188 195.003906 126.90625 195.082031 Z M 126.90625 195.082031 " fill-opacity="1" fill-rule="nonzero"/></g><path fill="#ffffff" d="M 112.007812 172.148438 C 111.929688 172.226562 111.730469 172.265625 111.609375 172.265625 C 111.492188 172.265625 111.332031 172.265625 111.214844 172.226562 C 110.933594 172.1875 110.695312 172.070312 110.457031 171.914062 C 110.21875 171.757812 110.0625 171.523438 109.902344 171.292969 C 109.703125 171.019531 109.503906 170.746094 109.304688 170.472656 C 109.265625 170.394531 109.347656 170.316406 109.425781 170.394531 C 109.625 170.628906 109.824219 170.863281 110.023438 171.097656 C 110.179688 171.292969 110.339844 171.484375 110.539062 171.679688 C 110.738281 171.835938 110.976562 171.953125 111.214844 171.992188 C 111.332031 172.03125 111.453125 171.992188 111.609375 171.992188 C 111.730469 171.992188 111.847656 171.953125 111.96875 171.953125 C 112.046875 171.992188 112.046875 172.109375 112.007812 172.148438 Z M 112.761719 171.640625 C 112.722656 171.640625 112.722656 171.640625 112.722656 171.679688 C 112.722656 171.679688 112.722656 171.679688 112.683594 171.679688 C 112.683594 171.679688 112.644531 171.679688 112.644531 171.71875 C 112.644531 171.71875 112.605469 171.757812 112.605469 171.757812 C 112.605469 171.757812 112.566406 171.757812 112.566406 171.757812 C 112.566406 171.757812 112.566406 171.757812 112.523438 171.757812 C 112.484375 171.757812 112.445312 171.757812 112.445312 171.796875 C 112.40625 171.835938 112.40625 171.875 112.40625 171.875 C 112.40625 171.914062 112.40625 171.914062 112.445312 171.953125 C 112.484375 171.992188 112.523438 171.992188 112.566406 171.992188 C 112.644531 171.992188 112.683594 171.953125 112.722656 171.914062 C 112.722656 171.914062 112.761719 171.875 112.761719 171.875 C 112.761719 171.875 112.761719 171.875 112.804688 171.835938 C 112.804688 171.835938 112.804688 171.796875 112.804688 171.796875 C 112.804688 171.796875 112.804688 171.757812 112.804688 171.757812 C 112.84375 171.71875 112.804688 171.679688 112.761719 171.640625 Z M 108.113281 171.214844 C 108.074219 171.175781 108.074219 171.097656 108.035156 171.058594 C 107.996094 170.941406 107.957031 170.824219 107.914062 170.707031 C 107.875 170.472656 107.835938 170.199219 107.875 169.929688 C 107.875 169.8125 107.71875 169.8125 107.675781 169.890625 C 107.636719 170.164062 107.636719 170.472656 107.675781 170.746094 C 107.71875 170.902344 107.757812 171.019531 107.796875 171.136719 C 107.835938 171.214844 107.835938 171.253906 107.875 171.332031 C 107.914062 171.40625 107.957031 171.445312 107.996094 171.484375 C 108.074219 171.5625 108.152344 171.445312 108.113281 171.367188 C 108.195312 171.367188 108.152344 171.292969 108.113281 171.214844 Z M 105.808594 172.304688 C 105.730469 172.304688 105.691406 172.382812 105.613281 172.421875 C 105.53125 172.460938 105.492188 172.539062 105.453125 172.574219 C 105.332031 172.691406 105.214844 172.769531 105.09375 172.886719 C 104.976562 172.964844 104.855469 173.082031 104.738281 173.160156 C 104.65625 173.199219 104.617188 173.238281 104.578125 173.316406 C 104.539062 173.355469 104.460938 173.433594 104.417969 173.472656 C 104.378906 173.511719 104.460938 173.589844 104.5 173.589844 C 104.578125 173.589844 104.617188 173.511719 104.699219 173.472656 C 104.777344 173.433594 104.855469 173.394531 104.894531 173.355469 C 105.015625 173.277344 105.132812 173.160156 105.253906 173.042969 C 105.371094 172.925781 105.492188 172.847656 105.613281 172.730469 C 105.691406 172.691406 105.730469 172.613281 105.769531 172.574219 C 105.808594 172.5 105.890625 172.460938 105.890625 172.382812 C 105.890625 172.304688 105.851562 172.265625 105.808594 172.304688 Z M 103.824219 174.09375 C 103.785156 174.171875 103.703125 174.25 103.664062 174.289062 L 103.585938 174.40625 C 103.546875 174.445312 103.546875 174.484375 103.503906 174.523438 C 103.503906 174.5625 103.503906 174.601562 103.503906 174.601562 C 103.546875 174.640625 103.585938 174.601562 103.625 174.601562 C 103.664062 174.5625 103.703125 174.5625 103.703125 174.523438 C 103.742188 174.484375 103.742188 174.445312 103.785156 174.445312 C 103.824219 174.367188 103.902344 174.328125 103.941406 174.25 C 103.980469 174.210938 103.980469 174.132812 103.941406 174.09375 C 103.902344 174.054688 103.863281 174.054688 103.824219 174.09375 Z M 101.199219 178.609375 C 100.804688 179.855469 100.445312 181.140625 100.128906 182.425781 C 99.96875 183.050781 99.808594 183.710938 99.652344 184.335938 C 99.570312 184.644531 99.492188 184.957031 99.453125 185.269531 C 99.375 185.582031 99.292969 185.890625 99.253906 186.242188 C 99.253906 186.320312 99.375 186.320312 99.375 186.242188 C 99.492188 185.929688 99.53125 185.617188 99.613281 185.308594 C 99.691406 184.996094 99.769531 184.644531 99.851562 184.335938 C 100.007812 183.710938 100.167969 183.050781 100.328125 182.425781 C 100.644531 181.140625 100.960938 179.894531 101.320312 178.609375 C 101.320312 178.570312 101.199219 178.53125 101.199219 178.609375 Z M 98.9375 187.136719 C 98.898438 187.292969 98.855469 187.449219 98.816406 187.605469 C 98.777344 187.683594 98.777344 187.722656 98.738281 187.800781 C 98.699219 187.878906 98.660156 187.957031 98.617188 188.03125 C 98.578125 188.109375 98.699219 188.109375 98.738281 188.109375 C 98.816406 188.070312 98.855469 187.992188 98.898438 187.917969 C 98.9375 187.839844 98.976562 187.761719 99.015625 187.683594 C 99.09375 187.527344 99.09375 187.371094 99.136719 187.214844 C 99.136719 187.058594 98.9375 187.019531 98.9375 187.136719 Z M 104.738281 180.945312 C 104.738281 180.832031 104.578125 180.832031 104.578125 180.945312 C 104.578125 182.269531 104.65625 183.59375 104.65625 184.917969 C 104.65625 185.582031 104.699219 186.203125 104.699219 186.863281 C 104.699219 187.214844 104.699219 187.527344 104.699219 187.878906 C 104.699219 188.1875 104.699219 188.5 104.738281 188.8125 C 104.738281 188.890625 104.894531 188.890625 104.894531 188.8125 C 104.9375 188.5 104.9375 188.226562 104.9375 187.917969 C 104.9375 187.566406 104.9375 187.253906 104.9375 186.902344 C 104.9375 186.242188 104.9375 185.582031 104.894531 184.917969 C 104.9375 183.554688 104.855469 182.230469 104.738281 180.945312 Z M 104.777344 190.136719 C 104.699219 190.136719 104.65625 190.175781 104.65625 190.253906 C 104.65625 190.40625 104.617188 190.523438 104.617188 190.679688 C 104.617188 190.757812 104.617188 190.796875 104.617188 190.875 C 104.617188 190.914062 104.617188 190.953125 104.617188 190.992188 C 104.617188 191.03125 104.617188 191.070312 104.65625 191.109375 C 104.699219 191.148438 104.777344 191.1875 104.816406 191.109375 C 104.816406 191.070312 104.855469 191.070312 104.855469 191.03125 C 104.855469 191.03125 104.855469 190.992188 104.855469 190.992188 C 104.855469 190.953125 104.855469 190.914062 104.855469 190.875 C 104.855469 190.796875 104.894531 190.71875 104.894531 190.640625 C 104.894531 190.484375 104.9375 190.367188 104.9375 190.214844 C 104.894531 190.214844 104.855469 190.136719 104.777344 190.136719 Z M 122.140625 188.8125 C 121.980469 188.148438 121.980469 187.449219 122.0625 186.75 C 122.101562 186.007812 122.140625 185.308594 122.179688 184.566406 C 122.21875 183.089844 122.179688 181.648438 122.140625 180.167969 C 122.140625 180.050781 121.980469 180.050781 121.980469 180.167969 C 121.941406 181.6875 121.980469 183.167969 121.902344 184.683594 C 121.863281 185.425781 121.820312 186.125 121.78125 186.863281 C 121.742188 187.566406 121.703125 188.226562 121.980469 188.890625 C 122.019531 188.929688 122.179688 188.890625 122.140625 188.8125 Z M 122.539062 190.292969 C 122.578125 190.292969 122.578125 190.253906 122.578125 190.214844 C 122.578125 190.175781 122.578125 190.175781 122.578125 190.136719 C 122.578125 190.136719 122.578125 190.097656 122.539062 190.097656 C 122.539062 190.058594 122.496094 190.019531 122.496094 190.019531 C 122.457031 189.941406 122.457031 189.902344 122.417969 189.824219 C 122.378906 189.707031 122.339844 189.550781 122.300781 189.394531 C 122.300781 189.355469 122.21875 189.316406 122.179688 189.316406 C 122.101562 189.316406 122.101562 189.394531 122.101562 189.433594 C 122.140625 189.589844 122.140625 189.707031 122.21875 189.863281 C 122.257812 189.941406 122.257812 190.019531 122.300781 190.097656 C 122.339844 190.175781 122.378906 190.253906 122.417969 190.292969 C 122.457031 190.292969 122.496094 190.292969 122.539062 190.292969 Z M 122.777344 194.261719 C 122.777344 193.949219 122.734375 193.640625 122.65625 193.289062 C 122.617188 193.171875 122.417969 193.210938 122.457031 193.328125 C 122.496094 193.640625 122.496094 193.949219 122.496094 194.261719 C 122.496094 194.417969 122.496094 194.574219 122.496094 194.730469 C 122.496094 194.886719 122.496094 195.042969 122.539062 195.195312 C 122.539062 195.273438 122.65625 195.273438 122.695312 195.195312 C 122.734375 195.117188 122.734375 195.042969 122.734375 194.964844 C 122.734375 194.886719 122.777344 194.808594 122.777344 194.730469 C 122.777344 194.574219 122.777344 194.417969 122.777344 194.261719 Z M 122.777344 194.261719 " fill-opacity="1" fill-rule="nonzero"/><path fill="#ffffff" d="M 179.222656 21.515625 C 183.5625 21.390625 250.652344 20.382812 254.8125 20.566406 C 258.96875 20.746094 272.691406 18.847656 273.109375 42.167969 C 273.527344 65.488281 273.707031 177.371094 273.617188 182.09375 C 273.527344 186.8125 272.53125 198.996094 252.367188 201.441406 C 232.199219 203.886719 192.332031 202.433594 183.742188 202.253906 C 175.152344 202.070312 165.929688 199.269531 165.929688 181.644531 C 165.929688 164.019531 164.738281 43 164.933594 37.5625 C 165.132812 32.125 169.195312 21.800781 179.222656 21.515625 Z M 179.222656 21.515625 " fill-opacity="1" fill-rule="nonzero"/><path fill="#fccac2" d="M 185.777344 112.175781 C 185.601562 109.871094 184.648438 103.859375 191.609375 103.726562 C 198.570312 103.589844 231.121094 104.039062 232.476562 103.726562 C 233.832031 103.410156 235.371094 101.328125 236.457031 98.570312 C 237.539062 95.8125 243.410156 87.828125 251.148438 87.183594 C 256.414062 86.742188 254.644531 92.742188 253.136719 92.921875 C 252.019531 93.0625 244.050781 94.851562 242.828125 99.648438 C 241.609375 104.445312 234.332031 130.933594 233.652344 132.832031 C 232.972656 134.726562 231.707031 138.699219 224.160156 139.066406 C 216.609375 139.433594 200.289062 138.582031 197.398438 138.460938 C 194.503906 138.34375 189.9375 137.167969 188.851562 132.46875 C 187.765625 127.769531 185.902344 113.851562 185.777344 112.175781 Z M 185.777344 112.175781 " fill-opacity="1" fill-rule="nonzero"/><path fill="#fccac2" d="M 227.425781 151.609375 C 230.0625 151.609375 232.203125 149.507812 232.203125 146.921875 C 232.203125 144.332031 230.0625 142.230469 227.425781 142.230469 C 224.785156 142.230469 222.648438 144.332031 222.648438 146.921875 C 222.648438 149.507812 224.785156 151.609375 227.425781 151.609375 Z M 227.425781 151.609375 " fill-opacity="1" fill-rule="nonzero"/><path fill="#501200" d="M 195.28125 63.09375 C 194.59375 63.078125 193.921875 63.269531 193.34375 63.640625 C 192.765625 64.011719 192.3125 64.546875 192.039062 65.175781 C 191.765625 65.804688 191.6875 66.5 191.808594 67.175781 C 191.933594 67.851562 192.253906 68.472656 192.730469 68.964844 C 193.214844 69.457031 193.828125 69.792969 194.5 69.933594 C 195.171875 70.074219 195.871094 70.011719 196.507812 69.75 C 197.144531 69.492188 197.6875 69.050781 198.074219 68.484375 C 198.457031 67.914062 198.664062 67.242188 198.667969 66.558594 C 198.675781 65.648438 198.324219 64.773438 197.691406 64.125 C 197.058594 63.476562 196.191406 63.105469 195.28125 63.09375 Z M 195.28125 68.878906 C 194.9375 68.890625 194.589844 68.828125 194.273438 68.6875 C 193.957031 68.550781 193.671875 68.34375 193.445312 68.082031 C 193.21875 67.824219 193.050781 67.515625 192.957031 67.183594 C 192.863281 66.847656 192.847656 66.5 192.90625 66.15625 C 193 65.578125 193.308594 65.054688 193.769531 64.695312 C 194.230469 64.335938 194.816406 64.164062 195.398438 64.210938 C 195.984375 64.261719 196.527344 64.535156 196.921875 64.96875 C 197.3125 65.402344 197.527344 65.972656 197.519531 66.558594 C 197.523438 66.855469 197.472656 67.15625 197.363281 67.433594 C 197.253906 67.710938 197.089844 67.964844 196.878906 68.183594 C 196.671875 68.398438 196.425781 68.570312 196.148438 68.691406 C 195.875 68.808594 195.582031 68.875 195.28125 68.878906 Z M 195.28125 68.878906 " fill-opacity="1" fill-rule="nonzero"/><path fill="#501200" d="M 213.609375 62.75 C 212.921875 62.734375 212.246094 62.921875 211.667969 63.292969 C 211.089844 63.664062 210.632812 64.199219 210.359375 64.828125 C 210.085938 65.460938 210.003906 66.15625 210.128906 66.835938 C 210.253906 67.511719 210.574219 68.132812 211.058594 68.625 C 211.535156 69.117188 212.152344 69.457031 212.828125 69.597656 C 213.5 69.738281 214.199219 69.671875 214.835938 69.414062 C 215.472656 69.15625 216.019531 68.714844 216.402344 68.144531 C 216.789062 67.574219 216.992188 66.902344 216.996094 66.214844 C 217.003906 65.308594 216.652344 64.433594 216.015625 63.785156 C 215.382812 63.136719 214.519531 62.761719 213.609375 62.75 Z M 213.609375 68.519531 C 213.148438 68.535156 212.695312 68.414062 212.304688 68.167969 C 211.910156 67.921875 211.601562 67.566406 211.414062 67.144531 C 211.273438 66.828125 211.207031 66.488281 211.21875 66.140625 C 211.226562 65.796875 211.3125 65.457031 211.46875 65.152344 C 211.628906 64.84375 211.851562 64.574219 212.125 64.367188 C 212.402344 64.15625 212.71875 64.011719 213.058594 63.941406 C 213.394531 63.871094 213.746094 63.875 214.078125 63.957031 C 214.414062 64.039062 214.726562 64.195312 214.996094 64.414062 C 215.261719 64.628906 215.476562 64.90625 215.625 65.21875 C 215.773438 65.527344 215.847656 65.871094 215.847656 66.214844 C 215.855469 66.816406 215.625 67.398438 215.207031 67.832031 C 214.789062 68.265625 214.214844 68.515625 213.609375 68.523438 Z M 213.609375 68.519531 " fill-opacity="1" fill-rule="nonzero"/><path fill="#501200" d="M 230.632812 62.898438 C 229.945312 62.886719 229.269531 63.078125 228.695312 63.453125 C 228.117188 63.824219 227.667969 64.363281 227.398438 64.992188 C 227.125 65.625 227.050781 66.320312 227.175781 66.996094 C 227.308594 67.671875 227.632812 68.292969 228.113281 68.78125 C 228.597656 69.269531 229.210938 69.601562 229.886719 69.738281 C 230.558594 69.875 231.257812 69.808594 231.890625 69.550781 C 232.527344 69.289062 233.070312 68.84375 233.449219 68.273438 C 233.832031 67.703125 234.035156 67.03125 234.035156 66.34375 C 234.039062 65.894531 233.953125 65.449219 233.785156 65.03125 C 233.617188 64.613281 233.367188 64.234375 233.050781 63.914062 C 232.734375 63.59375 232.359375 63.335938 231.941406 63.164062 C 231.527344 62.988281 231.082031 62.898438 230.632812 62.898438 Z M 230.632812 68.667969 C 230.167969 68.679688 229.714844 68.554688 229.324219 68.308594 C 228.929688 68.0625 228.625 67.703125 228.4375 67.28125 C 228.25 66.859375 228.195312 66.386719 228.277344 65.933594 C 228.363281 65.480469 228.578125 65.058594 228.898438 64.726562 C 229.222656 64.394531 229.636719 64.167969 230.089844 64.074219 C 230.539062 63.976562 231.011719 64.019531 231.441406 64.191406 C 231.867188 64.367188 232.234375 64.664062 232.492188 65.046875 C 232.75 65.429688 232.886719 65.882812 232.886719 66.34375 C 232.894531 66.953125 232.660156 67.535156 232.238281 67.96875 C 231.816406 68.402344 231.238281 68.652344 230.632812 68.664062 Z M 230.632812 68.667969 " fill-opacity="1" fill-rule="nonzero"/><path fill="#501200" d="M 252.933594 86.585938 C 250.277344 85.996094 239.933594 89.488281 235.980469 98.269531 C 235.054688 100.324219 233.707031 102.800781 232.675781 103.109375 C 231.480469 103.453125 193.238281 102.996094 191.277344 103.109375 C 186.898438 103.355469 185.183594 105.90625 185.210938 110.269531 C 185.242188 115.777344 186.878906 125.082031 188.203125 131.910156 C 189.28125 137.484375 193.753906 138.480469 197.007812 138.890625 C 202.0625 139.53125 223.972656 139.578125 225.082031 139.527344 C 231.019531 139.21875 232.847656 136.375 233.929688 133.609375 C 237.191406 125.285156 242.707031 101.421875 243.675781 99.1875 C 245.558594 94.84375 252.796875 93.5625 253.222656 93.402344 C 256.078125 92.296875 255.800781 87.21875 252.933594 86.585938 Z M 252.820312 92.339844 C 252.410156 92.476562 245.089844 93.757812 242.648438 98.679688 C 241.519531 100.960938 236.136719 124.753906 232.90625 133.085938 C 231.902344 135.675781 230.304688 138.105469 225.023438 138.382812 C 219.382812 138.679688 200.277344 138.074219 197.132812 137.746094 C 193.984375 137.417969 190.246094 136.472656 189.3125 131.699219 C 188.382812 126.828125 186.386719 112.394531 186.355469 110.253906 C 186.304688 106.296875 187.84375 104.449219 191.34375 104.253906 C 191.980469 104.222656 231.746094 104.582031 233.003906 104.203125 C 234.507812 103.746094 235.847656 101.410156 237.007812 98.792969 C 240.820312 90.234375 250.792969 87.289062 252.691406 87.710938 C 254.425781 88.074219 254.621094 91.636719 252.820312 92.339844 Z M 252.820312 92.339844 " fill-opacity="1" fill-rule="nonzero"/><path fill="#501200" d="M 227.296875 141.503906 C 226.25 141.527344 225.234375 141.859375 224.378906 142.457031 C 223.519531 143.054688 222.855469 143.890625 222.472656 144.863281 C 222.089844 145.835938 222 146.898438 222.21875 147.921875 C 222.4375 148.941406 222.953125 149.878906 223.699219 150.609375 C 224.445312 151.339844 225.390625 151.832031 226.417969 152.03125 C 227.445312 152.226562 228.507812 152.113281 229.46875 151.707031 C 230.433594 151.304688 231.257812 150.625 231.835938 149.753906 C 232.414062 148.882812 232.722656 147.863281 232.726562 146.816406 C 232.707031 145.394531 232.128906 144.035156 231.109375 143.039062 C 230.089844 142.042969 228.71875 141.492188 227.296875 141.503906 Z M 227.296875 150.96875 C 226.476562 150.945312 225.683594 150.683594 225.011719 150.210938 C 224.34375 149.738281 223.832031 149.078125 223.535156 148.316406 C 223.238281 147.554688 223.171875 146.71875 223.347656 145.917969 C 223.523438 145.121094 223.929688 144.390625 224.515625 143.820312 C 225.105469 143.25 225.847656 142.863281 226.652344 142.714844 C 227.460938 142.566406 228.289062 142.65625 229.042969 142.976562 C 229.796875 143.296875 230.441406 143.832031 230.890625 144.515625 C 231.34375 145.199219 231.582031 146 231.582031 146.816406 C 231.5625 147.9375 231.101562 149.003906 230.300781 149.78125 C 229.902344 150.167969 229.429688 150.472656 228.917969 150.675781 C 228.402344 150.878906 227.851562 150.980469 227.296875 150.96875 Z M 227.296875 150.96875 " fill-opacity="1" fill-rule="nonzero"/><g clip-path="url(#1f35138be8)"><path fill="#501200" d="M 273.214844 37.464844 C 272.136719 21.132812 261.691406 19.679688 250.96875 19.792969 C 250.035156 19.730469 193.347656 20.121094 179.207031 21.035156 C 169.507812 21.65625 164.246094 28.046875 164.34375 39 C 164.386719 41.667969 164.957031 167.34375 165.472656 185.78125 C 165.78125 196.949219 172.109375 203.058594 184.273438 203.058594 C 218.203125 203.058594 252.75 201.980469 252.765625 201.980469 C 271.847656 200.328125 274.054688 187.46875 274.117188 182.007812 C 274.175781 174.945312 274.6875 59.808594 273.214844 37.464844 Z M 195.519531 27.035156 C 198.027344 26.996094 199.542969 30.972656 202.550781 30.972656 C 208.128906 30.972656 227.84375 30.859375 227.84375 30.859375 C 231.03125 30.859375 231.664062 26.414062 235.742188 26.414062 C 241.1875 26.414062 244.503906 26.316406 245.421875 26.332031 C 250.210938 26.429688 260.21875 26.625 261.183594 42.089844 C 262.523438 63.042969 262.066406 171.335938 262 177.953125 C 261.917969 185.980469 260.265625 195.230469 248.234375 195.65625 C 237.671875 196.03125 199.359375 196.914062 187.328125 196.605469 C 183.46875 196.507812 171.25 196.210938 170.855469 181.4375 L 170.855469 43.378906 C 170.789062 36.566406 172.382812 28.292969 182.78125 27.605469 C 185.90625 27.394531 189.84375 27.125 195.519531 27.035156 Z M 272.972656 181.992188 C 273.039062 185.503906 272.050781 188.957031 270.140625 191.910156 C 268.230469 194.859375 265.480469 197.171875 262.246094 198.546875 C 266.988281 194.625 267.886719 188.054688 267.953125 182.074219 C 268.015625 175.011719 268.523438 59.871094 267.050781 37.527344 C 266.398438 27.476562 262.082031 23.132812 257.535156 21.214844 C 265.226562 22.082031 271.269531 25.464844 272.074219 37.542969 C 273.542969 59.859375 273.039062 174.945312 272.972656 181.992188 Z M 272.972656 181.992188 " fill-opacity="1" fill-rule="nonzero"/></g><path fill="#fccac2" d="M 196.648438 151.074219 C 199.285156 151.074219 201.425781 148.976562 201.425781 146.386719 C 201.425781 143.796875 199.285156 141.695312 196.648438 141.695312 C 194.007812 141.695312 191.871094 143.796875 191.871094 146.386719 C 191.871094 148.976562 194.007812 151.074219 196.648438 151.074219 Z M 196.648438 151.074219 " fill-opacity="1" fill-rule="nonzero"/><path fill="#501200" d="M 196.65625 141.082031 C 195.609375 141.101562 194.589844 141.429688 193.730469 142.023438 C 192.871094 142.621094 192.207031 143.457031 191.820312 144.429688 C 191.433594 145.402344 191.339844 146.464844 191.558594 147.488281 C 191.773438 148.511719 192.289062 149.449219 193.035156 150.183594 C 193.78125 150.914062 194.726562 151.410156 195.757812 151.605469 C 196.785156 151.804688 197.847656 151.691406 198.8125 151.289062 C 199.777344 150.882812 200.601562 150.203125 201.179688 149.332031 C 201.757812 148.460938 202.066406 147.4375 202.066406 146.390625 C 202.050781 144.972656 201.46875 143.617188 200.457031 142.621094 C 199.441406 141.625 198.078125 141.074219 196.65625 141.082031 Z M 196.65625 150.542969 C 195.835938 150.523438 195.042969 150.261719 194.371094 149.792969 C 193.699219 149.320312 193.183594 148.664062 192.886719 147.902344 C 192.585938 147.140625 192.519531 146.304688 192.691406 145.503906 C 192.863281 144.703125 193.273438 143.972656 193.859375 143.402344 C 194.445312 142.832031 195.1875 142.449219 195.992188 142.296875 C 196.800781 142.144531 197.628906 142.234375 198.382812 142.554688 C 199.136719 142.875 199.78125 143.410156 200.234375 144.089844 C 200.683594 144.773438 200.921875 145.574219 200.921875 146.394531 C 200.902344 147.507812 200.445312 148.570312 199.644531 149.347656 C 198.84375 150.125 197.769531 150.554688 196.65625 150.542969 Z M 196.65625 150.542969 " fill-opacity="1" fill-rule="nonzero"/><path fill="#ffb949" d="M 200.792969 82.199219 C 129.675781 76.789062 107.527344 80.191406 107.527344 80.191406 C 101.515625 96.476562 98.390625 116.605469 95.144531 133.332031 C 87.105469 174.761719 82.421875 207.921875 82.421875 207.921875 L 92.347656 205.933594 C 93.140625 206.160156 100.644531 212.9375 100.644531 212.9375 C 105.839844 214.738281 137.414062 215 165.019531 214.445312 C 193.632812 213.871094 218.234375 212.441406 218.234375 212.441406 C 218.953125 207.921875 206.265625 112.164062 200.792969 82.199219 Z M 200.792969 82.199219 " fill-opacity="1" fill-rule="nonzero"/><path fill="#ffffff" d="M 117.058594 110.640625 C 128.917969 110.140625 140.796875 110.53125 152.59375 111.816406 C 152.59375 111.816406 153.992188 133.101562 153.226562 135.042969 C 153.226562 135.042969 118.777344 134.863281 117.058594 133.960938 C 117.058594 133.960938 115.976562 113.847656 117.058594 110.640625 Z M 117.058594 110.640625 " fill-opacity="1" fill-rule="nonzero"/><path fill="#501200" d="M 153.894531 123.113281 C 153.679688 111.472656 153.351562 111.320312 152.933594 111.125 C 152.65625 110.992188 117.441406 108.695312 116.480469 110.171875 C 116.011719 110.101562 115.9375 133.671875 116.433594 134.375 C 117.023438 135.214844 153.0625 136.089844 153.59375 135.527344 C 154.144531 134.945312 153.90625 123.574219 153.894531 123.113281 Z M 152.769531 134.5 C 150.476562 134.742188 118.40625 133.40625 117.375 133.40625 C 117.375 133.40625 117.320312 113.734375 117.476562 111.117188 C 120.792969 110.621094 149.195312 111.71875 152.265625 112.132812 C 152.742188 114.585938 152.929688 132.0625 152.769531 134.5 Z M 152.769531 134.5 " fill-opacity="1" fill-rule="nonzero"/><path fill="#501200" d="M 201.328125 82.113281 C 200.808594 81.460938 194.207031 80.8125 184.714844 80.257812 C 183.355469 59.433594 175.582031 40.300781 154.714844 39.71875 C 152.65625 39.242188 150.550781 38.996094 148.433594 38.984375 C 121.292969 38.984375 116.535156 76.773438 116.296875 78.835938 C 108.429688 79.378906 107.609375 79.449219 107.550781 79.480469 C 103.011719 80.179688 80.945312 206.6875 82.015625 208.230469 C 82.078125 208.320312 82.160156 208.386719 82.261719 208.429688 C 82.359375 208.472656 82.464844 208.488281 82.574219 208.476562 C 85.027344 208.125 90.644531 206.765625 92.394531 206.53125 C 95.226562 208.664062 97.929688 210.964844 100.488281 213.417969 C 102.484375 215.234375 138.691406 215.222656 141.277344 215.222656 C 166.941406 215.222656 198.75 214.433594 218.253906 213.082031 C 218.363281 213.074219 218.464844 213.03125 218.550781 212.972656 C 218.640625 212.90625 218.710938 212.820312 218.757812 212.722656 C 219.625 210.761719 202.679688 83.816406 201.328125 82.113281 Z M 183.570312 80.191406 C 181.328125 80.066406 179.082031 79.953125 176.839844 79.847656 C 176.867188 77.332031 176.753906 57.410156 166.109375 46.261719 C 164.164062 44.214844 161.859375 42.542969 159.308594 41.332031 C 176.511719 44.558594 182.40625 62.644531 183.566406 80.191406 Z M 154.554688 40.851562 C 158.65625 41.828125 162.382812 43.980469 165.277344 47.042969 C 175.425781 57.667969 175.699219 77.273438 175.691406 79.789062 C 160.742188 79.117188 142.113281 78.671875 127.941406 78.683594 C 129.347656 59.574219 135.386719 40.367188 154.554688 40.851562 Z M 148.441406 40.121094 C 144.246094 41.230469 140.441406 43.480469 137.445312 46.621094 C 129.808594 54.726562 127.46875 68.5 126.75 78.6875 C 123.328125 78.699219 120.191406 78.738281 117.460938 78.804688 C 117.851562 75.570312 122.792969 40.128906 148.441406 40.128906 Z M 91.894531 205.453125 C 90.277344 205.683594 85.101562 206.929688 83.070312 207.246094 C 83.472656 202.902344 99.050781 107.25 105.925781 86.554688 C 102.078125 113.882812 92.636719 198.769531 91.894531 205.453125 Z M 100.304688 211.699219 C 98.046875 209.476562 95.613281 207.4375 93.027344 205.601562 C 93.644531 200.058594 100.648438 137.0625 105.074219 101.832031 C 103.132812 134.582031 100.785156 202.929688 100.304688 211.699219 Z M 101.398438 212.605469 C 101.523438 210.980469 106.363281 84.9375 108.140625 80.519531 C 114.296875 79.863281 120.488281 79.597656 126.671875 79.722656 C 126.488281 82.765625 126.425781 85.820312 126.496094 88.867188 C 125.761719 89.050781 125.121094 89.503906 124.699219 90.132812 C 124.277344 90.761719 124.105469 91.527344 124.21875 92.277344 C 124.332031 93.027344 124.71875 93.707031 125.304688 94.183594 C 125.894531 94.664062 126.636719 94.90625 127.394531 94.867188 C 128.152344 94.828125 128.867188 94.507812 129.398438 93.96875 C 129.933594 93.429688 130.246094 92.710938 130.277344 91.953125 C 130.308594 91.199219 130.058594 90.457031 129.574219 89.875 C 129.089844 89.292969 128.402344 88.910156 127.652344 88.808594 C 127.601562 85.777344 127.671875 82.746094 127.867188 79.722656 C 144.875 79.722656 168.058594 80.5625 183.648438 81.441406 C 183.847656 85.25 183.792969 88.429688 183.714844 90.417969 C 182.96875 90.574219 182.308594 91 181.859375 91.617188 C 181.414062 92.234375 181.210938 92.996094 181.296875 93.75 C 181.382812 94.507812 181.746094 95.207031 182.316406 95.707031 C 182.890625 96.210938 183.628906 96.484375 184.390625 96.46875 C 185.152344 96.457031 185.878906 96.160156 186.433594 95.636719 C 186.988281 95.117188 187.328125 94.40625 187.386719 93.648438 C 187.445312 92.886719 187.21875 92.136719 186.75 91.535156 C 186.285156 90.933594 185.609375 90.527344 184.859375 90.398438 C 184.96875 87.433594 184.949219 84.46875 184.789062 81.503906 C 190.027344 81.660156 195.25 82.121094 200.433594 82.878906 C 202.1875 88.355469 217.609375 203.789062 217.703125 211.976562 C 178.167969 214.671875 106.160156 214.695312 101.398438 212.605469 Z M 101.398438 212.605469 " fill-opacity="1" fill-rule="nonzero"/><path fill="#ffffff" d="M 41.46875 183.335938 C 41.457031 184.503906 41.558594 185.667969 41.765625 186.816406 C 41.992188 186.863281 68.550781 183.449219 79.671875 182.953125 C 90.792969 182.453125 105.648438 182.910156 106.210938 182.953125 C 106.210938 182.953125 91.070312 108.292969 90.550781 107.628906 C 77.613281 106.449219 33.722656 107.488281 30.605469 107.859375 C 30.605469 107.859375 31.046875 110.03125 30.976562 110.03125 L 28.882812 110.128906 L 29.421875 113.316406 L 27.5625 114 C 27.5625 114 30.265625 156.511719 26.878906 180.398438 C 29.015625 180.695312 31.183594 180.707031 33.324219 180.433594 C 33.324219 180.433594 33.246094 183.234375 33.183594 183.878906 C 35.957031 184.082031 38.746094 183.898438 41.46875 183.335938 Z M 41.46875 183.335938 " fill-opacity="1" fill-rule="nonzero"/><path fill="#ff7449" d="M 45.15625 103.703125 C 45.230469 103.421875 71.152344 101.1875 76.574219 102.179688 C 76.574219 102.179688 78.292969 108.199219 77.34375 111.066406 C 77.34375 111.066406 52.707031 112.875 45.5625 112.648438 C 44.628906 109.757812 44.492188 106.667969 45.15625 103.703125 Z M 45.15625 103.703125 " fill-opacity="1" fill-rule="nonzero"/><path fill="#501200" d="M 41.917969 126.675781 C 41.773438 126.671875 41.640625 126.617188 41.539062 126.519531 C 41.4375 126.417969 41.375 126.289062 41.363281 126.148438 C 41.351562 126.007812 41.394531 125.867188 41.480469 125.753906 C 41.566406 125.640625 41.691406 125.566406 41.832031 125.539062 C 43.386719 125.304688 66.96875 123.820312 70.492188 123.617188 C 70.640625 123.613281 70.78125 123.667969 70.890625 123.769531 C 71 123.871094 71.066406 124.007812 71.074219 124.15625 C 71.082031 124.304688 71.03125 124.449219 70.9375 124.5625 C 70.839844 124.675781 70.703125 124.746094 70.554688 124.761719 C 67.125 124.953125 41.945312 126.675781 41.917969 126.675781 Z M 41.917969 126.675781 " fill-opacity="1" fill-rule="nonzero"/><path fill="#501200" d="M 43.4375 139.355469 C 43.363281 139.359375 43.289062 139.347656 43.21875 139.320312 C 43.148438 139.292969 43.082031 139.253906 43.027344 139.199219 C 42.976562 139.148438 42.929688 139.085938 42.902344 139.019531 C 42.871094 138.949219 42.851562 138.875 42.851562 138.800781 C 42.847656 138.726562 42.863281 138.652344 42.890625 138.582031 C 42.917969 138.511719 42.957031 138.445312 43.007812 138.390625 C 43.058594 138.335938 43.121094 138.292969 43.191406 138.261719 C 43.257812 138.234375 43.332031 138.214844 43.410156 138.214844 C 43.679688 138.199219 70.363281 136.796875 73.289062 136.550781 C 73.433594 136.546875 73.578125 136.601562 73.683594 136.699219 C 73.792969 136.796875 73.863281 136.933594 73.875 137.078125 C 73.886719 137.222656 73.839844 137.371094 73.75 137.484375 C 73.660156 137.597656 73.527344 137.671875 73.382812 137.691406 C 70.441406 137.9375 43.4375 139.355469 43.4375 139.355469 Z M 43.4375 139.355469 " fill-opacity="1" fill-rule="nonzero"/><path fill="#501200" d="M 48.164062 166.402344 C 48.015625 166.398438 47.878906 166.339844 47.773438 166.238281 C 47.671875 166.132812 47.609375 165.996094 47.605469 165.847656 C 47.601562 165.703125 47.652344 165.5625 47.75 165.453125 C 47.847656 165.34375 47.980469 165.273438 48.125 165.261719 C 49.347656 165.179688 75.234375 163.238281 76.214844 163.214844 C 76.367188 163.214844 76.511719 163.273438 76.625 163.375 C 76.707031 163.453125 76.761719 163.554688 76.785156 163.664062 C 76.808594 163.777344 76.800781 163.890625 76.761719 163.996094 C 76.71875 164.101562 76.648438 164.191406 76.554688 164.257812 C 76.460938 164.324219 76.351562 164.359375 76.238281 164.359375 C 75.472656 164.375 48.164062 166.402344 48.164062 166.402344 Z M 48.164062 166.402344 " fill-opacity="1" fill-rule="nonzero"/><path fill="#501200" d="M 83.320312 126.695312 C 82.492188 126.695312 79.613281 122.53125 79.59375 122.488281 C 79.542969 122.351562 79.546875 122.203125 79.601562 122.066406 C 79.660156 121.933594 79.761719 121.824219 79.894531 121.765625 C 80.027344 121.707031 80.175781 121.699219 80.316406 121.746094 C 80.453125 121.792969 80.566406 121.886719 80.636719 122.015625 C 80.847656 122.359375 82.5625 124.566406 83.292969 125.363281 C 84.644531 123.097656 85.859375 120.757812 86.929688 118.347656 C 86.949219 118.269531 86.984375 118.199219 87.035156 118.140625 C 87.085938 118.078125 87.144531 118.027344 87.214844 117.992188 C 87.285156 117.957031 87.359375 117.933594 87.4375 117.929688 C 87.515625 117.921875 87.597656 117.933594 87.671875 117.960938 C 87.742188 117.984375 87.8125 118.027344 87.871094 118.078125 C 87.925781 118.132812 87.972656 118.199219 88.003906 118.269531 C 88.035156 118.339844 88.054688 118.417969 88.054688 118.496094 C 88.054688 118.574219 88.039062 118.652344 88.007812 118.726562 C 87.789062 119.398438 84.4375 126.695312 83.320312 126.695312 Z M 83.320312 126.695312 " fill-opacity="1" fill-rule="nonzero"/><path fill="#501200" d="M 83.484375 138.316406 C 82.523438 138.316406 79.734375 134.15625 79.71875 134.113281 C 79.667969 133.976562 79.667969 133.824219 79.726562 133.691406 C 79.78125 133.558594 79.886719 133.449219 80.019531 133.390625 C 80.152344 133.328125 80.300781 133.324219 80.441406 133.371094 C 80.578125 133.417969 80.691406 133.515625 80.761719 133.640625 C 81.597656 134.816406 82.492188 135.949219 83.445312 137.035156 C 84.777344 134.75 85.984375 132.394531 87.054688 129.976562 C 87.109375 129.835938 87.214844 129.726562 87.347656 129.664062 C 87.484375 129.601562 87.636719 129.59375 87.777344 129.640625 C 87.917969 129.691406 88.03125 129.792969 88.097656 129.925781 C 88.167969 130.054688 88.179688 130.210938 88.136719 130.351562 C 87.941406 130.933594 84.574219 138.316406 83.484375 138.316406 Z M 83.484375 138.316406 " fill-opacity="1" fill-rule="nonzero"/><path fill="#501200" d="M 91.207031 107.503906 C 90.882812 106.199219 78.144531 106.621094 78.144531 106.621094 C 78.097656 104.925781 77.757812 103.253906 77.144531 101.675781 C 77.023438 101.542969 76.855469 101.464844 76.675781 101.453125 C 74.640625 101.4375 72.601562 101.445312 70.566406 101.476562 C 70.257812 100.414062 67.78125 92.722656 60.296875 93.34375 C 53.042969 93.902344 51.789062 100.878906 51.609375 102.265625 C 47.605469 102.574219 44.851562 102.941406 44.707031 103.328125 C 44.347656 104.386719 44.167969 105.496094 44.171875 106.617188 C 42.148438 106.777344 34.988281 107.046875 30.394531 107.195312 C 30.300781 107.203125 30.210938 107.230469 30.132812 107.273438 C 30.050781 107.320312 29.984375 107.386719 29.933594 107.464844 C 29.886719 107.542969 29.855469 107.628906 29.847656 107.722656 C 29.835938 107.8125 29.851562 107.90625 29.886719 107.992188 C 29.933594 108.117188 30.066406 108.625 30.257812 109.449219 L 28.925781 109.476562 C 28.839844 109.476562 28.761719 109.496094 28.6875 109.53125 C 28.609375 109.566406 28.546875 109.617188 28.492188 109.679688 C 28.4375 109.742188 28.398438 109.816406 28.378906 109.894531 C 28.355469 109.976562 28.351562 110.058594 28.363281 110.140625 C 28.375 110.199219 28.527344 111.152344 28.769531 112.851562 C 28.414062 112.960938 27.789062 113.140625 27.4375 113.230469 C 26.851562 113.378906 26.851562 113.378906 27.1875 119.667969 C 29.960938 171.058594 25.398438 179.414062 26.535156 180.660156 C 27.175781 181.359375 31.707031 181.171875 32.734375 181.136719 C 32.703125 181.976562 32.667969 182.8125 32.628906 183.660156 C 32.625 183.765625 32.644531 183.867188 32.683594 183.964844 C 32.726562 184.0625 32.785156 184.148438 32.859375 184.21875 C 33.871094 184.851562 38.960938 184.402344 40.929688 184.171875 C 41.144531 186.875 41.085938 186.957031 41.347656 187.171875 C 42.492188 188.109375 71.460938 182.679688 106.207031 183.546875 C 106.296875 183.550781 106.390625 183.535156 106.472656 183.496094 C 106.554688 183.457031 106.628906 183.398438 106.683594 183.328125 C 107.304688 182.558594 91.242188 107.648438 91.207031 107.503906 Z M 60.382812 94.484375 C 66.613281 93.988281 68.882812 99.917969 69.378906 101.496094 C 63.695312 101.597656 57.519531 101.847656 52.769531 102.179688 C 53.003906 100.5625 54.25 94.957031 60.382812 94.484375 Z M 45.679688 104.007812 C 55.863281 102.96875 66.097656 102.496094 76.332031 102.59375 C 76.980469 105.207031 77.222656 107.90625 77.050781 110.59375 C 74.214844 110.953125 55.828125 112.160156 45.984375 112.042969 C 45.242188 109.429688 45.136719 106.671875 45.679688 104.007812 Z M 27.550781 179.890625 C 31.046875 152.367188 28.054688 118.421875 28.097656 114.238281 C 28.378906 114.164062 28.6875 114.074219 28.9375 114 C 30.335938 124.0625 33.75 152.257812 32.789062 179.992188 C 31.042969 180.082031 29.292969 180.050781 27.550781 179.890625 Z M 33.789062 183.402344 C 35.375 150.417969 30.382812 115.75 29.597656 110.609375 L 30.519531 110.59375 C 35.5 134.496094 38.949219 158.6875 40.839844 183.03125 C 38.507812 183.359375 36.148438 183.484375 33.789062 183.402344 Z M 42.242188 186.175781 C 39.089844 144.394531 32.492188 113.589844 31.15625 108.316406 C 33.765625 108.226562 41.625 107.957031 44.183594 107.753906 C 44.195312 109.503906 44.511719 111.238281 45.113281 112.882812 C 45.179688 112.964844 45.257812 113.035156 45.347656 113.085938 C 45.4375 113.140625 45.539062 113.171875 45.644531 113.183594 C 48.09375 113.3125 62.070312 112.765625 65.628906 112.5625 C 78.039062 111.863281 78.058594 111.710938 78.136719 111.148438 C 78.261719 110.023438 78.289062 108.890625 78.222656 107.757812 C 78.222656 107.757812 89.425781 107.320312 90.152344 108.03125 C 91.070312 112.238281 104.453125 175.425781 105.601562 182.367188 C 74.953125 180.925781 46.726562 185.847656 42.238281 186.175781 Z M 42.242188 186.175781 " fill-opacity="1" fill-rule="nonzero"/><path fill="#501200" d="M 45.21875 151.578125 C 45.074219 151.578125 44.933594 151.523438 44.828125 151.425781 C 44.722656 151.328125 44.660156 151.195312 44.648438 151.050781 C 44.640625 150.910156 44.683594 150.765625 44.769531 150.652344 C 44.859375 150.542969 44.988281 150.464844 45.128906 150.445312 C 46.6875 150.207031 70.269531 148.71875 73.796875 148.519531 C 73.945312 148.515625 74.089844 148.570312 74.195312 148.671875 C 74.304688 148.773438 74.371094 148.910156 74.378906 149.058594 C 74.386719 149.207031 74.339844 149.351562 74.242188 149.464844 C 74.144531 149.578125 74.011719 149.648438 73.863281 149.664062 C 70.425781 149.859375 45.246094 151.578125 45.21875 151.578125 Z M 45.21875 151.578125 " fill-opacity="1" fill-rule="nonzero"/><path fill="#fccac2" d="M 95.496094 25.832031 C 100.363281 34.246094 97.511719 49.355469 100.375 54.304688 C 103.242188 59.25 106.550781 61.386719 109.765625 61.863281 C 109.765625 61.863281 75.464844 64.675781 63.707031 64.539062 C 51.953125 64.402344 37.136719 64.644531 33.464844 59.296875 C 29.335938 53.289062 26.546875 29.289062 33.238281 23.367188 C 39.890625 17.484375 89.886719 16.132812 95.496094 25.832031 Z M 95.496094 25.832031 " fill-opacity="1" fill-rule="nonzero"/><path fill="#501200" d="M 35.410156 61.789062 C 27.558594 57.503906 26.195312 27.84375 33.117188 22.921875 C 41.25 17.136719 76.875 17.292969 88.878906 20.875 C 98.53125 23.753906 99.128906 31.320312 99.40625 45.566406 C 99.6875 60.171875 109.214844 61.1875 110.300781 61.253906 C 110.445312 61.257812 110.589844 61.316406 110.695312 61.417969 C 110.800781 61.519531 110.859375 61.660156 110.867188 61.808594 C 110.871094 61.957031 110.816406 62.101562 110.71875 62.210938 C 110.617188 62.320312 110.480469 62.386719 110.335938 62.398438 C 96.902344 63.816406 47.191406 68.210938 35.410156 61.789062 Z M 33.777344 23.855469 C 27.527344 28.300781 28.90625 56.9375 35.957031 60.785156 C 44.730469 65.566406 77.050781 64.402344 106.855469 61.558594 C 103.359375 60.113281 98.46875 56.199219 98.261719 45.589844 C 97.980469 31.511719 97.457031 24.625 88.550781 21.96875 C 77.066406 18.550781 41.847656 18.117188 33.777344 23.855469 Z M 33.777344 23.855469 " fill-opacity="1" fill-rule="nonzero"/><path fill="#501200" d="M 62.679688 50.671875 C 61.558594 50.671875 58.664062 47.296875 54.085938 40.640625 C 54.03125 40.570312 53.988281 40.488281 53.964844 40.402344 C 53.941406 40.3125 53.933594 40.222656 53.949219 40.132812 C 53.960938 40.042969 53.992188 39.957031 54.039062 39.882812 C 54.089844 39.804688 54.152344 39.738281 54.226562 39.6875 C 54.300781 39.636719 54.386719 39.601562 54.472656 39.582031 C 54.5625 39.566406 54.65625 39.566406 54.742188 39.589844 C 54.832031 39.609375 54.914062 39.648438 54.988281 39.699219 C 55.058594 39.753906 55.121094 39.824219 55.164062 39.902344 C 58.019531 44.050781 61.582031 48.6875 62.628906 49.316406 C 64.328125 47.980469 72.578125 34.667969 74 31.488281 C 74.03125 31.402344 74.078125 31.328125 74.140625 31.261719 C 74.203125 31.195312 74.277344 31.144531 74.359375 31.109375 C 74.441406 31.074219 74.53125 31.054688 74.621094 31.058594 C 74.710938 31.058594 74.800781 31.078125 74.882812 31.113281 C 74.964844 31.152344 75.039062 31.207031 75.101562 31.273438 C 75.160156 31.339844 75.207031 31.417969 75.234375 31.503906 C 75.265625 31.589844 75.277344 31.679688 75.269531 31.769531 C 75.261719 31.859375 75.234375 31.945312 75.191406 32.023438 C 74.722656 33.074219 64.667969 50.671875 62.679688 50.671875 Z M 62.679688 50.671875 " fill-opacity="1" fill-rule="nonzero"/><path fill="#ff7449" d="M 208.339844 188.285156 C 188.738281 190.023438 195.429688 213.441406 197.417969 218.492188 C 199.203125 223.042969 206.371094 238.089844 209.417969 237.484375 C 211.65625 237.042969 221.632812 220.257812 221.890625 204.597656 C 222.152344 188.9375 210.765625 188.070312 208.339844 188.285156 Z M 208.699219 209.597656 C 207.339844 209.648438 205.996094 209.289062 204.84375 208.570312 C 203.6875 207.855469 202.773438 206.804688 202.21875 205.566406 C 201.664062 204.324219 201.492188 202.945312 201.726562 201.605469 C 201.960938 200.269531 202.589844 199.03125 203.53125 198.050781 C 204.476562 197.070312 205.691406 196.398438 207.023438 196.117188 C 208.351562 195.832031 209.734375 195.953125 210.996094 196.460938 C 212.257812 196.96875 213.335938 197.84375 214.097656 198.96875 C 214.859375 200.09375 215.265625 201.421875 215.269531 202.78125 C 215.296875 204.105469 214.925781 205.410156 214.210938 206.523438 C 213.496094 207.636719 212.464844 208.515625 211.25 209.042969 C 210.445312 209.394531 209.578125 209.582031 208.699219 209.597656 Z M 208.699219 209.597656 " fill-opacity="1" fill-rule="nonzero"/><path fill="#501200" d="M 209.558594 238.085938 C 205.453125 237.996094 193.988281 217.988281 194.109375 203.84375 C 194.199219 193.222656 201.070312 188.132812 207.839844 187.796875 C 220.253906 187.164062 222.1875 198.839844 222.484375 202.433594 C 223.671875 216.890625 213.394531 234.589844 210.613281 237.480469 C 210.128906 237.980469 209.847656 238.09375 209.558594 238.085938 Z M 208.640625 188.921875 C 201.34375 188.921875 195.335938 194.15625 195.253906 203.855469 C 195.128906 218.308594 206.777344 236.4375 209.523438 236.933594 C 211.261719 235.796875 222.554688 217.238281 221.34375 202.527344 C 220.351562 190.511719 212.640625 188.921875 208.640625 188.921875 Z M 208.640625 188.921875 " fill-opacity="1" fill-rule="nonzero"/><path fill="#501200" d="M 208.699219 209.964844 C 207.269531 209.984375 205.871094 209.574219 204.675781 208.792969 C 203.480469 208.015625 202.542969 206.898438 201.984375 205.585938 C 201.570312 204.601562 201.375 203.539062 201.417969 202.472656 C 201.464844 201.410156 201.746094 200.367188 202.242188 199.421875 C 202.738281 198.476562 203.4375 197.65625 204.292969 197.015625 C 205.144531 196.375 206.128906 195.929688 207.175781 195.714844 C 208.21875 195.5 209.300781 195.523438 210.335938 195.78125 C 211.375 196.035156 212.339844 196.519531 213.167969 197.195312 C 213.992188 197.867188 214.660156 198.71875 215.117188 199.683594 C 215.574219 200.648438 215.808594 201.703125 215.808594 202.769531 C 215.820312 204.664062 215.078125 206.488281 213.742188 207.835938 C 212.410156 209.1875 210.59375 209.953125 208.699219 209.964844 Z M 208.699219 196.714844 C 207.496094 196.695312 206.316406 197.035156 205.3125 197.691406 C 204.304688 198.347656 203.515625 199.285156 203.042969 200.390625 C 202.570312 201.496094 202.4375 202.714844 202.660156 203.894531 C 202.882812 205.074219 203.453125 206.160156 204.296875 207.015625 C 205.140625 207.871094 206.21875 208.457031 207.394531 208.699219 C 208.570312 208.941406 209.792969 208.824219 210.90625 208.371094 C 212.019531 207.914062 212.96875 207.136719 213.640625 206.140625 C 214.308594 205.144531 214.664062 203.96875 214.664062 202.769531 C 214.675781 201.175781 214.050781 199.644531 212.933594 198.511719 C 211.816406 197.378906 210.292969 196.734375 208.699219 196.71875 Z M 208.699219 196.714844 " fill-opacity="1" fill-rule="nonzero"/><path fill="#501200" d="M 107.527344 232.855469 C 107.605469 232.851562 107.679688 232.832031 107.746094 232.796875 C 107.8125 232.757812 107.875 232.710938 107.921875 232.652344 C 108.910156 231.457031 110.113281 230.453125 111.472656 229.703125 C 111.601562 229.628906 111.699219 229.503906 111.738281 229.359375 C 111.78125 229.214844 111.761719 229.0625 111.691406 228.929688 C 111.617188 228.796875 111.496094 228.699219 111.351562 228.65625 C 111.207031 228.613281 111.054688 228.628906 110.921875 228.695312 C 109.4375 229.519531 108.125 230.613281 107.046875 231.921875 C 106.972656 232.007812 106.929688 232.113281 106.917969 232.222656 C 106.90625 232.335938 106.925781 232.449219 106.976562 232.550781 C 107.027344 232.648438 107.109375 232.730469 107.207031 232.785156 C 107.304688 232.839844 107.414062 232.863281 107.527344 232.855469 Z M 107.527344 232.855469 " fill-opacity="1" fill-rule="nonzero"/><path fill="#501200" d="M 65.4375 277.832031 C 63.890625 277.421875 62.367188 276.929688 60.875 276.351562 C 60.804688 276.328125 60.730469 276.3125 60.65625 276.3125 C 60.578125 276.316406 60.503906 276.332031 60.4375 276.363281 C 60.367188 276.390625 60.304688 276.433594 60.253906 276.488281 C 60.199219 276.542969 60.160156 276.609375 60.132812 276.675781 C 60.105469 276.746094 60.089844 276.820312 60.09375 276.898438 C 60.09375 276.972656 60.109375 277.046875 60.140625 277.113281 C 60.171875 277.183594 60.214844 277.246094 60.269531 277.300781 C 60.320312 277.351562 60.386719 277.390625 60.457031 277.417969 C 62.039062 278.046875 63.667969 278.558594 65.328125 278.949219 C 65.460938 278.9375 65.582031 278.878906 65.679688 278.785156 C 65.773438 278.691406 65.832031 278.566406 65.84375 278.433594 C 65.855469 278.300781 65.820312 278.167969 65.746094 278.058594 C 65.671875 277.949219 65.5625 277.867188 65.4375 277.832031 Z M 65.4375 277.832031 " fill-opacity="1" fill-rule="nonzero"/><path fill="#501200" d="M 74.910156 279.40625 C 73.3125 279.28125 71.71875 279.085938 70.136719 278.828125 C 69.988281 278.804688 69.835938 278.84375 69.714844 278.929688 C 69.59375 279.019531 69.511719 279.152344 69.488281 279.300781 C 69.464844 279.445312 69.5 279.597656 69.585938 279.722656 C 69.671875 279.84375 69.800781 279.929688 69.949219 279.957031 C 71.421875 280.199219 74.488281 280.582031 74.910156 280.546875 C 75.054688 280.539062 75.1875 280.472656 75.289062 280.367188 C 75.386719 280.261719 75.441406 280.121094 75.441406 279.976562 C 75.4375 279.832031 75.382812 279.695312 75.285156 279.589844 C 75.1875 279.484375 75.054688 279.417969 74.910156 279.40625 Z M 74.910156 279.40625 " fill-opacity="1" fill-rule="nonzero"/><path fill="#501200" d="M 56.539062 274.351562 C 55.144531 273.585938 53.8125 272.714844 52.554688 271.746094 C 52.433594 271.660156 52.285156 271.628906 52.140625 271.652344 C 51.996094 271.675781 51.867188 271.753906 51.777344 271.867188 C 51.6875 271.984375 51.648438 272.128906 51.660156 272.273438 C 51.675781 272.417969 51.746094 272.554688 51.855469 272.648438 C 53.160156 273.65625 54.542969 274.5625 55.988281 275.351562 C 56.121094 275.414062 56.273438 275.425781 56.410156 275.378906 C 56.550781 275.335938 56.667969 275.238281 56.738281 275.109375 C 56.808594 274.980469 56.824219 274.832031 56.789062 274.691406 C 56.753906 274.550781 56.664062 274.425781 56.539062 274.351562 Z M 56.539062 274.351562 " fill-opacity="1" fill-rule="nonzero"/><path fill="#501200" d="M 84.546875 279.488281 C 82.941406 279.589844 81.320312 279.628906 79.726562 279.621094 C 79.617188 279.625 79.511719 279.660156 79.421875 279.722656 C 79.332031 279.785156 79.261719 279.875 79.21875 279.976562 C 79.179688 280.078125 79.167969 280.1875 79.1875 280.296875 C 79.207031 280.402344 79.253906 280.503906 79.328125 280.585938 C 79.429688 280.691406 79.570312 280.757812 79.714844 280.765625 C 81.582031 280.777344 83.691406 280.703125 84.625 280.625 C 84.761719 280.601562 84.890625 280.523438 84.976562 280.414062 C 85.066406 280.300781 85.109375 280.164062 85.097656 280.023438 C 85.089844 279.882812 85.027344 279.75 84.925781 279.648438 C 84.824219 279.550781 84.6875 279.496094 84.546875 279.488281 Z M 84.546875 279.488281 " fill-opacity="1" fill-rule="nonzero"/><path fill="#501200" d="M 105.160156 255.273438 C 105.140625 255.199219 105.105469 255.128906 105.058594 255.066406 C 105.011719 255.007812 104.949219 254.957031 104.882812 254.917969 C 104.8125 254.882812 104.738281 254.859375 104.660156 254.855469 C 104.585938 254.847656 104.507812 254.855469 104.433594 254.878906 C 104.359375 254.902344 104.292969 254.9375 104.234375 254.988281 C 104.175781 255.039062 104.125 255.101562 104.09375 255.171875 C 104.058594 255.242188 104.039062 255.320312 104.035156 255.394531 C 104.03125 255.472656 104.042969 255.550781 104.070312 255.621094 C 104.574219 257.191406 105.1875 258.722656 105.914062 260.199219 C 105.984375 260.324219 106.105469 260.417969 106.242188 260.460938 C 106.382812 260.503906 106.53125 260.492188 106.660156 260.429688 C 106.792969 260.363281 106.894531 260.253906 106.945312 260.117188 C 106.996094 259.984375 106.996094 259.832031 106.941406 259.699219 C 106.242188 258.269531 105.644531 256.789062 105.160156 255.273438 Z M 105.160156 255.273438 " fill-opacity="1" fill-rule="nonzero"/><path fill="#501200" d="M 46.257812 264.710938 C 46.175781 264.589844 46.050781 264.5 45.90625 264.46875 C 45.765625 264.4375 45.613281 264.460938 45.488281 264.539062 C 45.363281 264.617188 45.273438 264.738281 45.234375 264.875 C 45.195312 265.019531 45.210938 265.167969 45.28125 265.296875 C 46.132812 266.71875 47.121094 268.050781 48.226562 269.285156 C 48.328125 269.394531 48.472656 269.464844 48.621094 269.472656 C 48.773438 269.480469 48.921875 269.425781 49.035156 269.328125 C 49.148438 269.226562 49.214844 269.082031 49.222656 268.933594 C 49.234375 268.78125 49.179688 268.632812 49.078125 268.519531 C 48.019531 267.34375 47.074219 266.066406 46.257812 264.710938 Z M 46.257812 264.710938 " fill-opacity="1" fill-rule="nonzero"/><path fill="#501200" d="M 94.105469 278.265625 C 92.527344 278.574219 90.941406 278.828125 89.347656 279.035156 C 89.238281 279.050781 89.132812 279.097656 89.050781 279.167969 C 88.96875 279.242188 88.90625 279.335938 88.878906 279.441406 C 88.847656 279.546875 88.847656 279.660156 88.878906 279.765625 C 88.910156 279.871094 88.972656 279.964844 89.058594 280.035156 C 89.171875 280.132812 89.316406 280.179688 89.460938 280.171875 C 89.71875 280.152344 92.078125 279.832031 94.324219 279.390625 C 94.398438 279.375 94.46875 279.347656 94.53125 279.308594 C 94.59375 279.265625 94.648438 279.210938 94.691406 279.148438 C 94.734375 279.085938 94.761719 279.015625 94.777344 278.941406 C 94.792969 278.867188 94.792969 278.792969 94.777344 278.71875 C 94.761719 278.644531 94.734375 278.574219 94.695312 278.507812 C 94.652344 278.445312 94.601562 278.390625 94.539062 278.351562 C 94.476562 278.304688 94.40625 278.277344 94.332031 278.265625 C 94.257812 278.25 94.179688 278.25 94.105469 278.265625 Z M 94.105469 278.265625 " fill-opacity="1" fill-rule="nonzero"/><path fill="#501200" d="M 103.375 275.714844 C 101.929688 276.242188 100.390625 276.734375 98.792969 277.167969 C 98.660156 277.210938 98.550781 277.300781 98.476562 277.417969 C 98.40625 277.535156 98.378906 277.675781 98.402344 277.8125 C 98.425781 277.949219 98.5 278.070312 98.605469 278.160156 C 98.714844 278.246094 98.847656 278.292969 98.988281 278.285156 C 99.371094 278.257812 102.640625 277.199219 103.769531 276.78125 C 103.898438 276.71875 103.996094 276.613281 104.050781 276.480469 C 104.101562 276.351562 104.105469 276.203125 104.054688 276.070312 C 104.007812 275.9375 103.910156 275.828125 103.785156 275.761719 C 103.660156 275.695312 103.511719 275.679688 103.375 275.714844 Z M 103.375 275.714844 " fill-opacity="1" fill-rule="nonzero"/><path fill="#501200" d="M 104.058594 250.636719 C 103.808594 249.066406 103.683594 247.480469 103.6875 245.894531 C 103.6875 245.78125 103.65625 245.667969 103.59375 245.574219 C 103.53125 245.480469 103.441406 245.40625 103.339844 245.363281 C 103.234375 245.316406 103.121094 245.304688 103.007812 245.328125 C 102.898438 245.351562 102.796875 245.402344 102.714844 245.484375 C 102.609375 245.589844 102.546875 245.734375 102.542969 245.886719 C 102.539062 247.539062 102.667969 249.1875 102.925781 250.816406 C 102.953125 250.964844 103.035156 251.101562 103.15625 251.191406 C 103.28125 251.277344 103.433594 251.316406 103.582031 251.292969 C 103.730469 251.265625 103.867188 251.183594 103.953125 251.0625 C 104.042969 250.9375 104.078125 250.785156 104.058594 250.636719 Z M 104.058594 250.636719 " fill-opacity="1" fill-rule="nonzero"/><path fill="#501200" d="M 103.613281 241.632812 C 104.5 241.5625 103.875 240.394531 105.5 236.648438 C 105.554688 236.511719 105.550781 236.359375 105.492188 236.222656 C 105.433594 236.085938 105.328125 235.976562 105.191406 235.917969 C 105.054688 235.859375 104.902344 235.855469 104.765625 235.90625 C 104.625 235.960938 104.511719 236.0625 104.449219 236.195312 C 103.792969 237.722656 103.3125 239.320312 103.007812 240.957031 C 102.992188 241.039062 102.996094 241.128906 103.019531 241.214844 C 103.042969 241.300781 103.085938 241.378906 103.144531 241.441406 C 103.203125 241.507812 103.273438 241.558594 103.355469 241.59375 C 103.4375 241.625 103.523438 241.636719 103.613281 241.632812 Z M 103.613281 241.632812 " fill-opacity="1" fill-rule="nonzero"/><path fill="#501200" d="M 124.824219 230.402344 C 126.128906 231.203125 127.207031 232.324219 127.957031 233.660156 C 128.03125 233.792969 128.15625 233.886719 128.300781 233.929688 C 128.449219 233.972656 128.605469 233.953125 128.738281 233.878906 C 128.871094 233.804688 128.96875 233.679688 129.007812 233.535156 C 129.050781 233.386719 129.03125 233.230469 128.957031 233.097656 C 128.113281 231.597656 126.898438 230.335938 125.433594 229.429688 C 125.355469 229.375 125.261719 229.34375 125.167969 229.332031 C 125.070312 229.324219 124.972656 229.339844 124.882812 229.378906 C 124.796875 229.414062 124.71875 229.476562 124.660156 229.550781 C 124.601562 229.628906 124.5625 229.71875 124.546875 229.816406 C 124.53125 229.929688 124.546875 230.046875 124.597656 230.152344 C 124.644531 230.253906 124.726562 230.34375 124.824219 230.398438 Z M 124.824219 230.402344 " fill-opacity="1" fill-rule="nonzero"/><path fill="#501200" d="M 65.492188 224.894531 C 67.070312 224.496094 68.675781 224.195312 70.292969 224 C 70.40625 223.984375 70.511719 223.9375 70.597656 223.863281 C 70.679688 223.789062 70.742188 223.691406 70.773438 223.582031 C 70.804688 223.472656 70.800781 223.359375 70.765625 223.25 C 70.730469 223.144531 70.664062 223.046875 70.574219 222.980469 C 70.457031 222.886719 70.304688 222.84375 70.152344 222.863281 C 68.519531 223.0625 66.898438 223.367188 65.304688 223.769531 C 65.164062 223.800781 65.039062 223.886719 64.960938 224.007812 C 64.878906 224.128906 64.847656 224.277344 64.875 224.417969 C 64.898438 224.5625 64.972656 224.691406 65.089844 224.78125 C 65.203125 224.867188 65.347656 224.910156 65.492188 224.894531 Z M 65.492188 224.894531 " fill-opacity="1" fill-rule="nonzero"/><path fill="#501200" d="M 42.9375 255.859375 C 42.898438 255.722656 42.808594 255.605469 42.6875 255.53125 C 42.597656 255.476562 42.492188 255.449219 42.386719 255.449219 C 42.28125 255.449219 42.175781 255.480469 42.085938 255.535156 C 41.996094 255.59375 41.925781 255.671875 41.878906 255.765625 C 41.832031 255.863281 41.808594 255.96875 41.820312 256.074219 C 42.125 257.695312 42.566406 259.289062 43.136719 260.835938 C 43.195312 260.976562 43.300781 261.085938 43.4375 261.144531 C 43.574219 261.203125 43.726562 261.207031 43.867188 261.15625 C 44.003906 261.101562 44.121094 261 44.183594 260.867188 C 44.25 260.730469 44.257812 260.578125 44.210938 260.4375 C 43.660156 258.949219 43.234375 257.417969 42.9375 255.859375 Z M 42.9375 255.859375 " fill-opacity="1" fill-rule="nonzero"/><path fill="#501200" d="M 43.40625 242.199219 C 44.179688 242.140625 43.777344 241.097656 46.042969 237.628906 C 46.113281 237.5 46.136719 237.351562 46.101562 237.210938 C 46.066406 237.070312 45.976562 236.945312 45.855469 236.867188 C 45.734375 236.789062 45.585938 236.757812 45.441406 236.78125 C 45.300781 236.808594 45.171875 236.886719 45.085938 237.003906 C 44.175781 238.394531 43.421875 239.875 42.828125 241.425781 C 42.773438 241.5625 42.777344 241.714844 42.832031 241.847656 C 42.886719 241.980469 42.992188 242.089844 43.125 242.148438 C 43.214844 242.1875 43.308594 242.207031 43.40625 242.199219 Z M 43.40625 242.199219 " fill-opacity="1" fill-rule="nonzero"/><path fill="#501200" d="M 56.433594 228.367188 C 56.796875 228.335938 57.691406 227.589844 61.015625 226.324219 C 61.152344 226.265625 61.261719 226.160156 61.320312 226.023438 C 61.378906 225.882812 61.382812 225.730469 61.328125 225.59375 C 61.277344 225.453125 61.171875 225.339844 61.039062 225.277344 C 60.902344 225.214844 60.75 225.207031 60.609375 225.253906 C 59.070312 225.835938 57.570312 226.519531 56.117188 227.289062 C 56.003906 227.351562 55.910156 227.453125 55.859375 227.574219 C 55.808594 227.695312 55.800781 227.828125 55.835938 227.957031 C 55.875 228.082031 55.953125 228.191406 56.0625 228.265625 C 56.171875 228.339844 56.300781 228.375 56.433594 228.367188 Z M 56.433594 228.367188 " fill-opacity="1" fill-rule="nonzero"/><path fill="#501200" d="M 42.410156 251.128906 C 42.355469 249.546875 42.449219 247.964844 42.691406 246.398438 C 42.703125 246.308594 42.695312 246.210938 42.664062 246.121094 C 42.632812 246.03125 42.582031 245.953125 42.511719 245.890625 C 42.441406 245.824219 42.359375 245.78125 42.269531 245.757812 C 42.175781 245.734375 42.082031 245.734375 41.988281 245.753906 C 41.878906 245.78125 41.78125 245.839844 41.703125 245.921875 C 41.625 246.007812 41.574219 246.113281 41.558594 246.222656 C 41.304688 247.859375 41.207031 249.511719 41.261719 251.167969 C 41.273438 251.3125 41.34375 251.445312 41.453125 251.542969 C 41.5625 251.640625 41.707031 251.691406 41.851562 251.6875 C 42 251.683594 42.136719 251.621094 42.242188 251.519531 C 42.34375 251.414062 42.40625 251.273438 42.410156 251.128906 Z M 42.410156 251.128906 " fill-opacity="1" fill-rule="nonzero"/><path fill="#501200" d="M 49.011719 233.9375 C 50.121094 232.804688 51.324219 231.761719 52.609375 230.828125 C 52.726562 230.734375 52.800781 230.601562 52.824219 230.457031 C 52.84375 230.308594 52.804688 230.160156 52.71875 230.039062 C 52.628906 229.921875 52.5 229.839844 52.351562 229.8125 C 52.207031 229.789062 52.054688 229.820312 51.933594 229.902344 C 50.597656 230.875 49.347656 231.957031 48.191406 233.140625 C 48.09375 233.25 48.042969 233.390625 48.050781 233.539062 C 48.054688 233.6875 48.117188 233.824219 48.222656 233.925781 C 48.328125 234.03125 48.46875 234.085938 48.613281 234.089844 C 48.761719 234.089844 48.902344 234.035156 49.011719 233.9375 Z M 49.011719 233.9375 " fill-opacity="1" fill-rule="nonzero"/><path fill="#501200" d="M 128.121094 278.136719 C 126.636719 277.53125 125.179688 276.859375 123.753906 276.125 C 123.621094 276.0625 123.464844 276.054688 123.324219 276.101562 C 123.1875 276.148438 123.070312 276.25 123 276.378906 C 122.933594 276.511719 122.917969 276.664062 122.960938 276.804688 C 123.003906 276.949219 123.097656 277.070312 123.226562 277.140625 C 124.75 277.953125 126.324219 278.65625 127.945312 279.238281 C 128.078125 279.230469 128.199219 279.179688 128.296875 279.089844 C 128.390625 279 128.457031 278.886719 128.476562 278.757812 C 128.496094 278.628906 128.472656 278.496094 128.40625 278.382812 C 128.34375 278.269531 128.242188 278.183594 128.121094 278.136719 Z M 128.121094 278.136719 " fill-opacity="1" fill-rule="nonzero"/><path fill="#501200" d="M 175.101562 278.402344 C 173.636719 279 172.117188 279.546875 170.578125 280.027344 C 170.441406 280.066406 170.324219 280.15625 170.25 280.277344 C 170.175781 280.398438 170.148438 280.542969 170.175781 280.6875 C 170.203125 280.824219 170.28125 280.949219 170.394531 281.035156 C 170.511719 281.121094 170.652344 281.160156 170.792969 281.144531 C 171.199219 281.117188 174.492188 279.886719 175.535156 279.46875 C 175.605469 279.441406 175.667969 279.398438 175.722656 279.34375 C 175.777344 279.292969 175.820312 279.230469 175.847656 279.15625 C 175.878906 279.089844 175.894531 279.015625 175.894531 278.9375 C 175.894531 278.863281 175.878906 278.789062 175.851562 278.71875 C 175.824219 278.648438 175.78125 278.585938 175.726562 278.53125 C 175.675781 278.476562 175.613281 278.433594 175.542969 278.402344 C 175.472656 278.375 175.398438 278.359375 175.320312 278.359375 C 175.246094 278.359375 175.171875 278.375 175.101562 278.402344 Z M 175.101562 278.402344 " fill-opacity="1" fill-rule="nonzero"/><g clip-path="url(#da68112076)"><path fill="#501200" d="M 165.933594 281.269531 C 164.371094 281.621094 162.792969 281.90625 161.203125 282.132812 C 161.054688 282.152344 160.921875 282.226562 160.828125 282.347656 C 160.738281 282.460938 160.695312 282.609375 160.710938 282.761719 C 160.726562 282.90625 160.800781 283.042969 160.917969 283.136719 C 161.03125 283.234375 161.179688 283.28125 161.328125 283.265625 C 161.789062 283.230469 164.332031 282.800781 166.1875 282.386719 C 166.332031 282.351562 166.460938 282.261719 166.542969 282.132812 C 166.625 282.003906 166.652344 281.851562 166.617188 281.703125 C 166.585938 281.554688 166.492188 281.425781 166.367188 281.34375 C 166.238281 281.261719 166.082031 281.234375 165.933594 281.269531 Z M 165.933594 281.269531 " fill-opacity="1" fill-rule="nonzero"/></g><g clip-path="url(#578d83259a)"><path fill="#501200" d="M 156.417969 282.625 C 154.828125 282.726562 153.199219 282.765625 151.601562 282.753906 C 151.457031 282.757812 151.316406 282.820312 151.210938 282.925781 C 151.109375 283.03125 151.050781 283.175781 151.050781 283.320312 C 151.050781 283.46875 151.105469 283.609375 151.207031 283.71875 C 151.308594 283.824219 151.445312 283.890625 151.589844 283.898438 C 153.226562 283.914062 154.863281 283.867188 156.496094 283.757812 C 156.632812 283.730469 156.757812 283.65625 156.839844 283.546875 C 156.925781 283.433594 156.96875 283.296875 156.957031 283.15625 C 156.949219 283.015625 156.886719 282.886719 156.789062 282.789062 C 156.6875 282.6875 156.554688 282.632812 156.417969 282.625 Z M 156.417969 282.625 " fill-opacity="1" fill-rule="nonzero"/></g><path fill="#501200" d="M 183.621094 273.988281 C 182.269531 274.847656 180.882812 275.652344 179.457031 276.386719 C 179.34375 276.449219 179.25 276.546875 179.199219 276.667969 C 179.148438 276.789062 179.136719 276.925781 179.171875 277.050781 C 179.210938 277.175781 179.289062 277.285156 179.394531 277.363281 C 179.503906 277.4375 179.632812 277.472656 179.765625 277.464844 C 181.308594 276.722656 182.804688 275.886719 184.238281 274.949219 C 184.355469 274.863281 184.429688 274.734375 184.457031 274.59375 C 184.480469 274.453125 184.453125 274.304688 184.371094 274.183594 C 184.292969 274.066406 184.175781 273.976562 184.035156 273.941406 C 183.898438 273.90625 183.75 273.921875 183.621094 273.988281 Z M 183.621094 273.988281 " fill-opacity="1" fill-rule="nonzero"/><path fill="#501200" d="M 202.628906 252.757812 C 201.894531 254.183594 201.105469 255.582031 200.265625 256.949219 C 200.207031 257.046875 200.179688 257.160156 200.183594 257.269531 C 200.1875 257.386719 200.226562 257.496094 200.292969 257.585938 C 200.359375 257.679688 200.449219 257.746094 200.554688 257.789062 C 200.660156 257.828125 200.777344 257.835938 200.886719 257.808594 C 201.035156 257.773438 201.164062 257.683594 201.246094 257.550781 C 202.082031 256.191406 202.894531 254.753906 203.652344 253.285156 C 203.6875 253.21875 203.710938 253.144531 203.714844 253.070312 C 203.722656 252.996094 203.714844 252.917969 203.691406 252.847656 C 203.671875 252.773438 203.632812 252.707031 203.582031 252.648438 C 203.535156 252.589844 203.472656 252.542969 203.40625 252.507812 C 203.339844 252.472656 203.265625 252.453125 203.191406 252.449219 C 203.078125 252.4375 202.960938 252.460938 202.863281 252.515625 C 202.761719 252.570312 202.679688 252.65625 202.628906 252.757812 Z M 202.628906 252.757812 " fill-opacity="1" fill-rule="nonzero"/><path fill="#501200" d="M 111.476562 270.820312 C 110.269531 271.859375 108.984375 272.808594 107.640625 273.664062 C 107.558594 273.714844 107.492188 273.785156 107.445312 273.867188 C 107.398438 273.953125 107.375 274.046875 107.375 274.140625 C 107.371094 274.238281 107.394531 274.328125 107.441406 274.414062 C 107.484375 274.5 107.550781 274.570312 107.628906 274.625 C 107.734375 274.695312 107.863281 274.726562 107.988281 274.71875 C 109.5 273.859375 110.917969 272.84375 112.21875 271.691406 C 112.277344 271.640625 112.324219 271.582031 112.359375 271.515625 C 112.390625 271.449219 112.414062 271.375 112.417969 271.300781 C 112.425781 271.226562 112.417969 271.152344 112.394531 271.078125 C 112.371094 271.007812 112.332031 270.941406 112.285156 270.882812 C 112.234375 270.828125 112.175781 270.78125 112.109375 270.746094 C 112.042969 270.710938 111.96875 270.691406 111.894531 270.6875 C 111.820312 270.679688 111.742188 270.6875 111.671875 270.710938 C 111.601562 270.734375 111.535156 270.769531 111.476562 270.820312 Z M 111.476562 270.820312 " fill-opacity="1" fill-rule="nonzero"/><g clip-path="url(#33bc9b4066)"><path fill="#501200" d="M 146.796875 282.53125 C 145.195312 282.398438 143.601562 282.207031 142.015625 281.960938 C 141.867188 281.933594 141.714844 281.972656 141.589844 282.0625 C 141.46875 282.152344 141.386719 282.285156 141.363281 282.4375 C 141.339844 282.585938 141.375 282.738281 141.464844 282.863281 C 141.554688 282.984375 141.6875 283.066406 141.839844 283.089844 C 143.628906 283.371094 146.46875 283.699219 146.792969 283.675781 C 146.9375 283.664062 147.070312 283.597656 147.167969 283.492188 C 147.269531 283.386719 147.324219 283.25 147.324219 283.105469 C 147.324219 282.960938 147.269531 282.820312 147.171875 282.714844 C 147.074219 282.609375 146.941406 282.542969 146.796875 282.53125 Z M 146.796875 282.53125 " fill-opacity="1" fill-rule="nonzero"/></g><path fill="#501200" d="M 197.5625 260.925781 C 196.609375 262.210938 195.601562 263.453125 194.535156 264.652344 C 194.4375 264.765625 194.386719 264.914062 194.394531 265.066406 C 194.402344 265.214844 194.472656 265.359375 194.582031 265.460938 C 194.699219 265.558594 194.847656 265.609375 195 265.601562 C 195.148438 265.59375 195.289062 265.527344 195.390625 265.414062 C 196.476562 264.1875 197.507812 262.917969 198.484375 261.605469 C 198.550781 261.515625 198.589844 261.40625 198.59375 261.292969 C 198.597656 261.179688 198.570312 261.066406 198.511719 260.972656 C 198.453125 260.875 198.367188 260.796875 198.265625 260.75 C 198.164062 260.699219 198.050781 260.683594 197.9375 260.695312 C 197.789062 260.722656 197.652344 260.800781 197.5625 260.925781 Z M 197.5625 260.925781 " fill-opacity="1" fill-rule="nonzero"/><path fill="#501200" d="M 191.191406 268.097656 C 190.027344 269.195312 188.808594 270.234375 187.542969 271.21875 C 187.4375 271.316406 187.367188 271.449219 187.355469 271.59375 C 187.34375 271.734375 187.382812 271.878906 187.472656 271.992188 C 187.5625 272.109375 187.691406 272.1875 187.832031 272.210938 C 187.976562 272.234375 188.121094 272.203125 188.242188 272.121094 C 189.535156 271.117188 190.78125 270.050781 191.972656 268.929688 C 192.046875 268.851562 192.097656 268.753906 192.113281 268.648438 C 192.132812 268.539062 192.125 268.433594 192.082031 268.332031 C 192.042969 268.230469 191.976562 268.144531 191.890625 268.082031 C 191.800781 268.019531 191.699219 267.980469 191.589844 267.972656 C 191.449219 267.964844 191.304688 268.007812 191.191406 268.097656 Z M 191.191406 268.097656 " fill-opacity="1" fill-rule="nonzero"/><path fill="#501200" d="M 119.605469 273.714844 C 118.265625 272.84375 116.980469 271.894531 115.753906 270.875 C 115.664062 270.796875 115.558594 270.75 115.445312 270.738281 C 115.332031 270.726562 115.21875 270.746094 115.117188 270.800781 C 115.019531 270.851562 114.933594 270.933594 114.882812 271.03125 C 114.828125 271.132812 114.804688 271.246094 114.816406 271.359375 C 114.828125 271.511719 114.902344 271.652344 115.015625 271.75 C 116.277344 272.800781 117.601562 273.777344 118.980469 274.671875 C 119.105469 274.753906 119.261719 274.785156 119.410156 274.75 C 119.558594 274.71875 119.6875 274.632812 119.769531 274.507812 C 119.8125 274.445312 119.839844 274.375 119.855469 274.300781 C 119.871094 274.226562 119.867188 274.148438 119.851562 274.078125 C 119.835938 274.003906 119.808594 273.933594 119.765625 273.871094 C 119.722656 273.808594 119.667969 273.757812 119.605469 273.714844 Z M 119.605469 273.714844 " fill-opacity="1" fill-rule="nonzero"/><path fill="#501200" d="M 120.761719 227.574219 C 119.125 227.183594 117.433594 227.0625 115.757812 227.214844 C 115.105469 227.273438 114.992188 228.238281 115.863281 228.351562 C 117.476562 228.238281 119.101562 228.355469 120.679688 228.707031 C 120.78125 228.695312 120.878906 228.660156 120.960938 228.601562 C 121.042969 228.542969 121.109375 228.464844 121.152344 228.371094 C 121.191406 228.277344 121.210938 228.175781 121.199219 228.074219 C 121.1875 227.972656 121.152344 227.875 121.089844 227.792969 C 121.011719 227.683594 120.894531 227.605469 120.761719 227.574219 Z M 120.761719 227.574219 " fill-opacity="1" fill-rule="nonzero"/><path fill="#501200" d="M 115.796875 268.320312 C 116.929688 267.140625 118.015625 265.914062 119.050781 264.648438 C 119.136719 264.53125 119.175781 264.382812 119.15625 264.238281 C 119.136719 264.09375 119.0625 263.960938 118.949219 263.867188 C 118.835938 263.777344 118.695312 263.730469 118.546875 263.738281 C 118.402344 263.75 118.265625 263.816406 118.167969 263.921875 C 117.148438 265.164062 116.085938 266.367188 114.972656 267.523438 C 114.867188 267.636719 114.808594 267.78125 114.8125 267.933594 C 114.816406 268.085938 114.878906 268.230469 114.988281 268.335938 C 115.097656 268.441406 115.242188 268.5 115.394531 268.496094 C 115.546875 268.492188 115.691406 268.429688 115.796875 268.320312 Z M 115.796875 268.320312 " fill-opacity="1" fill-rule="nonzero"/><path fill="#501200" d="M 109.34375 263.820312 C 109.257812 263.699219 109.125 263.613281 108.976562 263.585938 C 108.828125 263.558594 108.675781 263.589844 108.550781 263.671875 C 108.457031 263.734375 108.382812 263.824219 108.339844 263.929688 C 108.296875 264.035156 108.289062 264.148438 108.3125 264.261719 C 108.328125 264.335938 108.359375 264.40625 108.398438 264.464844 C 109.328125 265.828125 110.351562 267.121094 111.460938 268.335938 C 111.566406 268.4375 111.707031 268.496094 111.851562 268.496094 C 111.996094 268.5 112.136719 268.445312 112.246094 268.347656 C 112.351562 268.25 112.417969 268.113281 112.429688 267.96875 C 112.4375 267.824219 112.394531 267.679688 112.300781 267.566406 C 111.230469 266.386719 110.242188 265.136719 109.34375 263.820312 Z M 109.34375 263.820312 " fill-opacity="1" fill-rule="nonzero"/><path fill="#501200" d="M 123.679688 256.03125 C 122.878906 257.386719 122 258.75 121.074219 260.082031 C 121 260.207031 120.976562 260.355469 121.007812 260.496094 C 121.039062 260.636719 121.121094 260.757812 121.242188 260.84375 C 121.359375 260.925781 121.503906 260.957031 121.644531 260.941406 C 121.789062 260.921875 121.917969 260.847656 122.011719 260.738281 C 122.949219 259.398438 123.835938 258.023438 124.667969 256.613281 C 124.742188 256.484375 124.761719 256.328125 124.722656 256.179688 C 124.6875 256.035156 124.589844 255.910156 124.460938 255.835938 C 124.332031 255.757812 124.175781 255.734375 124.03125 255.769531 C 123.882812 255.808594 123.757812 255.902344 123.679688 256.03125 Z M 123.679688 256.03125 " fill-opacity="1" fill-rule="nonzero"/><path fill="#501200" d="M 137.289062 281.035156 C 135.726562 280.671875 134.175781 280.25 132.644531 279.769531 C 132.503906 279.730469 132.351562 279.746094 132.222656 279.816406 C 132.09375 279.886719 131.996094 280.007812 131.949219 280.144531 C 131.90625 280.289062 131.917969 280.4375 131.984375 280.570312 C 132.046875 280.703125 132.160156 280.804688 132.300781 280.855469 C 133.910156 281.375 135.546875 281.8125 137.203125 282.164062 C 137.339844 282.152344 137.464844 282.09375 137.5625 281.996094 C 137.65625 281.902344 137.714844 281.773438 137.726562 281.636719 C 137.734375 281.5 137.699219 281.367188 137.617188 281.257812 C 137.539062 281.148438 137.421875 281.070312 137.289062 281.035156 Z M 137.289062 281.035156 " fill-opacity="1" fill-rule="nonzero"/><path fill="#501200" d="M 129.242188 238.179688 C 129.339844 239.707031 129.25 241.242188 128.976562 242.746094 C 128.949219 242.894531 128.984375 243.050781 129.070312 243.171875 C 129.160156 243.296875 129.292969 243.378906 129.441406 243.40625 C 129.59375 243.433594 129.746094 243.398438 129.871094 243.3125 C 129.992188 243.222656 130.078125 243.089844 130.105469 242.941406 C 130.402344 241.296875 130.492188 239.621094 130.371094 237.953125 C 130.304688 237.265625 129.179688 237.378906 129.242188 238.179688 Z M 129.242188 238.179688 " fill-opacity="1" fill-rule="nonzero"/><path fill="#501200" d="M 127.765625 247.351562 C 127.238281 248.863281 126.628906 250.34375 125.941406 251.785156 C 125.882812 251.921875 125.882812 252.074219 125.933594 252.210938 C 125.988281 252.347656 126.089844 252.460938 126.222656 252.523438 C 126.355469 252.585938 126.507812 252.59375 126.648438 252.550781 C 126.789062 252.503906 126.90625 252.40625 126.976562 252.277344 C 127.683594 250.796875 128.308594 249.273438 128.847656 247.722656 C 128.871094 247.652344 128.882812 247.578125 128.878906 247.503906 C 128.871094 247.425781 128.851562 247.351562 128.820312 247.285156 C 128.785156 247.21875 128.742188 247.15625 128.683594 247.109375 C 128.628906 247.058594 128.5625 247.019531 128.492188 246.996094 C 128.347656 246.949219 128.191406 246.957031 128.054688 247.023438 C 127.917969 247.089844 127.8125 247.210938 127.765625 247.351562 Z M 127.765625 247.351562 " fill-opacity="1" fill-rule="nonzero"/></svg>