<svg width="70" height="70" viewBox="0 0 450 512" fill="none" xmlns="http://www.w3.org/2000/svg">
<path d="M140.48 77.112L157.16 4H298.392L303.488 105.424L227.776 126.892L140.48 77.112Z" fill="#3DBCE9"/>
<path d="M227.776 130.892C227.075 130.896 226.385 130.715 225.776 130.368L138.5 80.588C137.755 80.1624 137.166 79.5084 136.821 78.7225C136.476 77.9367 136.393 77.0607 136.584 76.224L153.26 3.108C153.462 2.22486 153.958 1.43646 154.666 0.871838C155.375 0.307221 156.254 -0.000161345 157.16 3.13268e-06H298.392C299.419 -0.00128151 300.407 0.392583 301.152 1.1C301.897 1.80742 302.341 2.77418 302.392 3.8L307.484 105.224C307.529 106.128 307.266 107.021 306.738 107.756C306.209 108.492 305.447 109.026 304.576 109.272L228.868 130.74C228.513 130.841 228.145 130.892 227.776 130.892ZM145.04 75.108L228.3 122.584L299.332 102.444L294.588 8H160.352L145.04 75.108Z" fill="#2F3A5A"/>
<path d="M419.988 75.9688H303.928L227.776 126.893L155.504 75.9688H29.292C22.5841 75.9688 16.151 78.6334 11.4079 83.3766C6.66469 88.1198 4 94.5529 4 101.261V482.709C4 489.417 6.66469 495.85 11.4079 500.593C16.151 505.336 22.5841 508.001 29.292 508.001H419.984C426.692 508.001 433.125 505.336 437.868 500.593C442.611 495.85 445.276 489.417 445.276 482.709V101.261C445.276 94.5536 442.612 88.1211 437.87 83.378C433.127 78.635 426.695 75.9698 419.988 75.9688Z" fill="#81DAFC"/>
<path opacity="0.5" d="M445.168 98.692C444.985 98.6562 444.798 98.6414 444.612 98.648H328.54L252.4 149.6L180.12 98.648H53.896C50.5759 98.647 47.2881 99.3001 44.2205 100.57C41.1529 101.84 38.3657 103.702 36.018 106.05C33.6703 108.398 31.8082 111.185 30.5382 114.253C29.2681 117.32 28.6149 120.608 28.616 123.928V505.388C28.616 506.244 28.6587 507.101 28.744 507.96C22.1371 507.835 15.8437 505.12 11.2192 500.4C6.59474 495.68 4.00937 489.332 4.01999 482.724V101.26C4.02317 94.5582 6.68825 88.132 11.4291 83.3949C16.1699 78.6579 22.5981 75.9979 29.3 76H155.524L227.764 126.9L303.944 76H419.972C426.236 75.9924 432.28 78.3086 436.934 82.5004C441.588 86.6923 444.522 92.4616 445.168 98.692Z" fill="white"/>
<path d="M419.988 512.001H29.292C21.5259 511.992 14.0803 508.904 8.58878 503.412C3.0973 497.921 0.00847021 490.475 0 482.709V101.261C0.00847021 93.4947 3.0973 86.0491 8.58878 80.5576C14.0803 75.0662 21.5259 71.9773 29.292 71.9688H155.508C156.333 71.9694 157.138 72.2251 157.812 72.7008L227.84 122.041L301.712 72.6408C302.37 72.2003 303.144 71.9651 303.936 71.9648H419.996C427.762 71.9733 435.208 75.0621 440.699 80.5536C446.191 86.0451 449.28 93.4907 449.288 101.257V482.705C449.281 490.473 446.191 497.921 440.698 503.413C435.204 508.906 427.756 511.995 419.988 512.001ZM29.292 79.9688C23.647 79.9752 18.2349 82.2205 14.2433 86.2121C10.2516 90.2038 8.00635 95.6158 8 101.261V482.709C8.00635 488.354 10.2516 493.766 14.2433 497.758C18.2349 501.749 23.647 503.995 29.292 504.001H419.988C425.633 503.995 431.045 501.749 435.037 497.758C439.028 493.766 441.274 488.354 441.28 482.709V101.261C441.274 95.6158 439.028 90.2038 435.037 86.2121C431.045 82.2205 425.633 79.9752 419.988 79.9688H305.144L230 130.217C229.328 130.666 228.536 130.901 227.727 130.891C226.919 130.881 226.133 130.627 225.472 130.161L154.24 79.9688H29.292Z" fill="#2F3A5A"/>
<path d="M203.24 126.893H246.036V508.001H203.24V126.893Z" fill="#81DAFC"/>
<path d="M246.04 512.001H203.24C202.179 512.001 201.162 511.579 200.412 510.829C199.661 510.079 199.24 509.061 199.24 508.001V126.893C199.24 125.832 199.661 124.814 200.412 124.064C201.162 123.314 202.179 122.893 203.24 122.893H246.04C247.101 122.893 248.118 123.314 248.868 124.064C249.619 124.814 250.04 125.832 250.04 126.893V508.001C250.04 509.061 249.619 510.079 248.868 510.829C248.118 511.579 247.101 512.001 246.04 512.001ZM207.24 504.001H242.04V130.893H207.24V504.001Z" fill="#2F3A5A"/>
<path d="M298.392 4L227.776 126.892L314.22 178.868L338.704 74.92L298.392 4Z" fill="#81DAFC"/>
<path d="M314.24 182.868C313.513 182.868 312.799 182.671 312.176 182.296L225.716 130.32C224.819 129.781 224.169 128.911 223.905 127.897C223.642 126.884 223.787 125.808 224.308 124.9L294.924 2C295.275 1.39135 295.781 0.886033 296.39 0.534925C296.999 0.183818 297.689 -0.000682862 298.392 1.89915e-06C299.097 0.00173917 299.789 0.189863 300.398 0.545308C301.007 0.900753 301.512 1.41088 301.86 2.024L342.18 72.94C342.673 73.8192 342.816 74.852 342.58 75.832L318.1 179.78C317.893 180.658 317.396 181.44 316.689 182C315.982 182.56 315.106 182.865 314.204 182.864L314.24 182.868ZM233.2 125.484L311.6 172.616L334.464 75.532L298.376 12.06L233.2 125.484Z" fill="#2F3A5A"/>
<path d="M157.16 4L227.776 126.892L141.332 178.868L116.848 74.92L157.16 4Z" fill="#81DAFC"/>
<path d="M141.332 182.868C140.43 182.869 139.554 182.564 138.847 182.004C138.14 181.445 137.643 180.662 137.436 179.784L112.952 75.8361C112.715 74.8548 112.858 73.8204 113.352 72.9401L153.684 2.02407C154.032 1.41095 154.537 0.900822 155.146 0.545377C155.755 0.189932 156.447 0.00180844 157.152 7.11668e-05C157.858 -0.00414088 158.553 0.178686 159.166 0.52997C159.778 0.881254 160.287 1.38847 160.64 2.00007L231.244 124.9C231.766 125.808 231.911 126.883 231.648 127.897C231.386 128.91 230.737 129.78 229.84 130.32L143.392 182.296C142.77 182.67 142.058 182.868 141.332 182.868ZM121.1 75.5281L143.968 172.612L222.368 125.48L157.18 12.0601L121.1 75.5281Z" fill="#2F3A5A"/>
<path d="M283.24 259.004H410.72V401.016H283.24V259.004Z" fill="#81DAFC"/>
<path d="M410.724 405.016H283.24C282.179 405.016 281.162 404.594 280.412 403.844C279.661 403.094 279.24 402.076 279.24 401.016V259.016C279.24 257.955 279.661 256.937 280.412 256.187C281.162 255.437 282.179 255.016 283.24 255.016H410.72C411.781 255.016 412.798 255.437 413.548 256.187C414.299 256.937 414.72 257.955 414.72 259.016V401.016C414.72 402.076 414.299 403.093 413.55 403.843C412.801 404.593 411.784 405.015 410.724 405.016ZM287.244 397.016H406.724V263.016H287.24L287.244 397.016Z" fill="#2F3A5A"/>
<path d="M283.24 259.004H410.72V293.52H283.24V259.004Z" fill="#81DAFC"/>
<path d="M410.724 297.52H283.24C282.179 297.52 281.162 297.098 280.412 296.348C279.661 295.598 279.24 294.581 279.24 293.52V259.004C279.24 257.943 279.661 256.926 280.412 256.175C281.162 255.425 282.179 255.004 283.24 255.004H410.72C411.781 255.004 412.798 255.425 413.548 256.175C414.299 256.926 414.72 257.943 414.72 259.004V293.52C414.72 294.58 414.299 295.597 413.55 296.347C412.801 297.097 411.784 297.519 410.724 297.52ZM287.244 289.52H406.724V263.004H287.24L287.244 289.52Z" fill="#2F3A5A"/>
<path d="M223.992 226.939C227.973 226.939 231.2 223.712 231.2 219.731C231.2 215.751 227.973 212.523 223.992 212.523C220.011 212.523 216.784 215.751 216.784 219.731C216.784 223.712 220.011 226.939 223.992 226.939Z" fill="#3DBCE9"/>
<path d="M223.992 321.871C227.973 321.871 231.2 318.644 231.2 314.663C231.2 310.682 227.973 307.455 223.992 307.455C220.011 307.455 216.784 310.682 216.784 314.663C216.784 318.644 220.011 321.871 223.992 321.871Z" fill="#3DBCE9"/>
<path d="M223.992 416.799C227.973 416.799 231.2 413.572 231.2 409.591C231.2 405.61 227.973 402.383 223.992 402.383C220.011 402.383 216.784 405.61 216.784 409.591C216.784 413.572 220.011 416.799 223.992 416.799Z" fill="#3DBCE9"/>
<path d="M80.268 190.884L75.268 164.996L67.472 195.108C66.1156 199.63 63.5928 203.715 60.1572 206.952C56.7215 210.19 52.4942 212.466 47.9 213.552L21.768 219.728L46.464 224.712C51.2037 225.669 55.5978 227.886 59.1837 231.129C62.7695 234.373 65.4144 238.524 66.84 243.144L73.664 274.464L81.664 247.024C82.6527 241.789 85.1743 236.965 88.9088 233.165C92.6434 229.365 97.4225 226.76 102.64 225.68L131.248 219.732L101.248 213.312C95.8797 212.162 90.992 209.397 87.2415 205.388C83.4911 201.378 81.0576 196.317 80.268 190.884Z" fill="#F0F5F9"/>
<path d="M73.668 278.468H73.528C72.6394 278.437 71.7865 278.11 71.1042 277.54C70.4218 276.97 69.9489 276.189 69.76 275.32L62.932 244C61.6848 240.134 59.4271 236.671 56.3926 233.969C53.358 231.268 49.6569 229.427 45.672 228.636L20.976 223.656C20.0807 223.476 19.2738 222.996 18.6893 222.294C18.1048 221.593 17.7779 220.713 17.763 219.8C17.748 218.887 18.0459 217.996 18.6071 217.276C19.1683 216.555 19.9591 216.049 20.848 215.84L46.976 209.664C50.8849 208.733 54.4811 206.793 57.4054 204.038C60.3296 201.282 62.4794 197.807 63.64 193.96L71.396 164C71.6177 163.142 72.1183 162.381 72.8191 161.838C73.52 161.295 74.3814 161 75.268 161H75.392C76.299 161.029 77.1692 161.365 77.8597 161.954C78.5503 162.543 79.0201 163.349 79.192 164.24L84.192 190.128C84.192 190.188 84.216 190.248 84.224 190.308C84.9094 194.928 86.986 199.23 90.1774 202.641C93.3687 206.052 97.5233 208.409 102.088 209.4L132.088 215.8C132.985 215.992 133.789 216.487 134.365 217.201C134.941 217.915 135.254 218.806 135.251 219.724C135.248 220.641 134.93 221.53 134.35 222.241C133.77 222.952 132.962 223.442 132.064 223.628L103.44 229.6C98.9967 230.511 94.9262 232.727 91.749 235.964C88.5717 239.201 86.4322 243.312 85.604 247.772L77.508 275.6C77.2635 276.429 76.7573 277.156 76.0651 277.673C75.3729 278.19 74.532 278.469 73.668 278.468ZM40.468 219.424L47.268 220.792C52.7137 221.89 57.7625 224.436 61.8821 228.163C66.0018 231.89 69.0398 236.659 70.676 241.968L74.24 258.28L77.84 245.908C79.0012 239.96 81.9018 234.49 86.1743 230.192C90.4468 225.894 95.8989 222.961 101.84 221.764L111.888 219.676L100.436 217.224C94.293 215.889 88.7003 212.719 84.3988 208.135C80.0973 203.55 77.2898 197.768 76.348 191.552L74.728 183.152L71.368 196.116C69.8159 201.336 66.9174 206.056 62.9638 209.801C59.0101 213.546 54.1404 216.185 48.844 217.452L40.468 219.424Z" fill="#2F3A5A"/>
<path d="M142.76 271.256L139.732 255.6L135.012 273.836C134.191 276.574 132.663 279.047 130.582 281.008C128.502 282.968 125.942 284.346 123.16 285.004L107.336 288.744L122.288 291.76C125.158 292.339 127.819 293.681 129.991 295.645C132.163 297.609 133.764 300.122 134.628 302.92L138.76 321.884L143.612 305.268C144.209 302.099 145.734 299.178 147.993 296.877C150.251 294.575 153.143 292.996 156.3 292.34L173.624 288.74L155.464 284.852C152.211 284.154 149.25 282.478 146.979 280.047C144.708 277.616 143.235 274.548 142.76 271.256Z" fill="#F0F5F9"/>
<path d="M138.76 325.868H138.64C137.751 325.837 136.899 325.51 136.216 324.94C135.534 324.37 135.061 323.589 134.872 322.72L130.72 303.756C130.037 301.716 128.826 299.893 127.21 298.472C125.594 297.052 123.631 296.084 121.52 295.668L106.564 292.652C105.669 292.472 104.862 291.992 104.277 291.29C103.693 290.589 103.366 289.709 103.351 288.796C103.336 287.883 103.634 286.992 104.195 286.272C104.756 285.551 105.547 285.045 106.436 284.836L122.26 281.092C124.357 280.593 126.286 279.552 127.855 278.074C129.424 276.595 130.577 274.731 131.2 272.668L135.88 254.584C136.102 253.726 136.602 252.965 137.303 252.422C138.004 251.879 138.865 251.584 139.752 251.584H139.84C140.747 251.613 141.617 251.949 142.308 252.538C142.998 253.127 143.468 253.933 143.64 254.824L146.668 270.5C146.668 270.56 146.692 270.62 146.7 270.68C147.07 273.161 148.187 275.47 149.902 277.3C151.617 279.13 153.849 280.394 156.3 280.924L174.46 284.812C175.357 285.004 176.161 285.499 176.737 286.213C177.313 286.927 177.626 287.818 177.623 288.736C177.62 289.653 177.302 290.542 176.722 291.253C176.142 291.964 175.334 292.454 174.436 292.64L157.112 296.24C154.728 296.732 152.544 297.923 150.84 299.661C149.136 301.4 147.988 303.606 147.544 306L142.6 322.992C142.357 323.822 141.851 324.551 141.159 325.07C140.467 325.588 139.625 325.868 138.76 325.868ZM125.524 288.476C128.575 289.5 131.339 291.235 133.586 293.539C135.833 295.843 137.5 298.648 138.448 301.724L139.316 305.692L139.768 304.132C140.501 300.449 142.256 297.047 144.833 294.315C147.409 291.583 150.702 289.632 154.336 288.684C150.674 287.83 147.318 285.981 144.641 283.34C141.963 280.7 140.068 277.37 139.164 273.72L138.88 274.816C137.937 278.009 136.227 280.923 133.9 283.303C131.573 285.684 128.695 287.46 125.524 288.476Z" fill="#2F3A5A"/>
</svg>
