<svg xmlns="http://www.w3.org/2000/svg" xmlns:xlink="http://www.w3.org/1999/xlink" width="400" zoomAndPan="magnify" viewBox="0 0 300 299.999988" height="400" preserveAspectRatio="xMidYMid meet" version="1.0"><defs><clipPath id="fd824b2939"><path d="M 139 104.773438 L 150 104.773438 L 150 108 L 139 108 Z M 139 104.773438 " clip-rule="nonzero"/></clipPath><clipPath id="4fec60d8e0"><path d="M 122.632812 106 L 166 106 L 166 143.773438 L 122.632812 143.773438 Z M 122.632812 106 " clip-rule="nonzero"/></clipPath><clipPath id="e4f89efc59"><path d="M 19 48.25 L 281 48.25 L 281 251.5 L 19 251.5 Z M 19 48.25 " clip-rule="nonzero"/></clipPath><clipPath id="20151d8388"><path d="M 106 48.25 L 194 48.25 L 194 81 L 106 81 Z M 106 48.25 " clip-rule="nonzero"/></clipPath><clipPath id="ff8b6ddd4a"><path d="M 15.007812 103 L 59 103 L 59 151 L 15.007812 151 Z M 15.007812 103 " clip-rule="nonzero"/></clipPath></defs><g clip-path="url(#fd824b2939)"><path fill="#ddbaba" d="M 139.746094 105.945312 C 139.640625 105.679688 139.585938 105.359375 139.800781 105.203125 C 139.855469 105.148438 139.960938 105.148438 140.015625 105.148438 C 141.03125 105.042969 142.105469 104.933594 143.121094 104.882812 C 143.65625 104.828125 144.195312 104.828125 144.730469 104.828125 C 145.960938 104.773438 147.140625 104.828125 148.320312 104.988281 C 148.640625 105.042969 148.960938 105.09375 149.285156 105.203125 C 149.390625 105.253906 149.445312 105.253906 149.496094 105.359375 C 149.550781 105.46875 149.605469 105.574219 149.605469 105.679688 C 149.660156 105.945312 149.660156 106.265625 149.496094 106.480469 C 149.335938 106.640625 149.175781 106.800781 149.070312 107.011719 C 148.695312 107.492188 147.945312 107.386719 147.410156 107.4375 C 146.710938 107.492188 145.960938 107.546875 145.265625 107.597656 C 143.820312 107.652344 142.371094 107.652344 140.925781 107.546875 C 140.335938 107.4375 139.960938 106.425781 139.746094 105.945312 Z M 139.746094 105.945312 " fill-opacity="1" fill-rule="nonzero"/></g><g clip-path="url(#4fec60d8e0)"><path fill="#ffe3e3" d="M 165.519531 140.953125 C 165.410156 141.109375 165.25 141.269531 165.089844 141.429688 C 164.929688 141.589844 164.769531 141.695312 164.605469 141.804688 C 163.964844 142.28125 163.160156 142.65625 162.515625 142.921875 C 161.765625 143.242188 160.964844 143.507812 160.160156 143.613281 C 159.945312 143.613281 157.695312 143.773438 157.695312 143.667969 C 158.015625 142.125 158.285156 140.523438 157.964844 138.980469 C 157.910156 138.714844 157.855469 138.445312 157.75 138.179688 C 157.695312 138.019531 157.640625 137.859375 157.589844 137.703125 C 157.480469 137.382812 157.320312 137.0625 157.214844 136.6875 C 157.105469 136.421875 157.050781 136.15625 156.945312 135.835938 C 156.785156 135.195312 156.625 134.503906 156.515625 133.863281 C 156.785156 135.355469 156.675781 137.382812 156.570312 138.875 C 156.570312 139.085938 156.515625 139.300781 156.355469 139.40625 C 156.195312 139.511719 155.980469 139.511719 155.765625 139.511719 C 150.035156 139.03125 144.300781 138.339844 138.621094 139.351562 C 137.175781 139.621094 135.726562 139.992188 134.226562 140.046875 C 133.640625 140.046875 132.996094 140.046875 132.566406 139.621094 C 131.871094 138.925781 132.351562 137.859375 132.351562 137.007812 C 132.300781 136.15625 131.925781 135.355469 132.085938 134.503906 C 131.976562 135.039062 131.871094 135.570312 131.710938 136.101562 C 131.65625 136.316406 131.601562 136.476562 131.550781 136.636719 C 131.335938 137.167969 131.121094 137.703125 130.960938 138.289062 C 130.90625 138.5 130.851562 138.714844 130.800781 138.925781 C 130.800781 138.980469 130.800781 139.03125 130.800781 139.085938 C 130.53125 140.578125 130.800781 142.125 131.066406 143.613281 C 131.066406 143.722656 128.816406 143.5625 128.601562 143.5625 C 127.796875 143.457031 126.996094 143.1875 126.246094 142.871094 C 125.601562 142.601562 124.960938 142.28125 124.316406 141.855469 C 124.15625 141.75 124.046875 141.644531 123.886719 141.539062 C 123.621094 141.324219 123.40625 141.109375 123.246094 140.898438 C 122.816406 140.3125 122.816406 139.9375 123.191406 139.351562 C 123.671875 138.445312 124.15625 137.59375 124.53125 136.636719 C 124.691406 136.210938 124.796875 135.835938 124.960938 135.410156 C 125.011719 135.25 125.066406 135.089844 125.121094 134.878906 C 125.441406 133.8125 125.710938 132.691406 125.921875 131.574219 C 126.941406 126.992188 128.066406 122.410156 129.246094 117.882812 C 129.460938 117.027344 129.675781 116.175781 129.941406 115.378906 C 130.316406 114.417969 130.691406 113.621094 131.28125 112.875 C 131.335938 112.765625 131.441406 112.605469 131.550781 112.5 C 131.871094 112.128906 132.246094 111.753906 132.621094 111.433594 C 133.15625 110.847656 133.90625 110.421875 134.496094 109.996094 C 135.621094 109.144531 136.800781 108.34375 138.03125 107.652344 C 138.191406 107.546875 138.355469 107.4375 138.515625 107.332031 C 139.90625 106.480469 141.890625 106.746094 143.445312 106.691406 C 145.320312 106.640625 147.195312 106.53125 149.015625 106.480469 C 149.496094 106.480469 150.140625 107.171875 150.570312 107.4375 C 151.160156 107.863281 151.75 108.34375 152.390625 108.71875 C 153.625 109.410156 154.75 110.210938 155.765625 111.167969 C 155.820312 111.222656 155.875 111.273438 155.925781 111.328125 C 156.464844 111.753906 156.890625 112.179688 157.265625 112.660156 C 157.375 112.820312 157.480469 112.925781 157.589844 113.085938 C 158.070312 113.726562 158.445312 114.472656 158.714844 115.378906 C 159.035156 116.230469 159.25 117.027344 159.410156 117.882812 C 160.535156 122.464844 161.660156 126.992188 162.730469 131.574219 C 162.945312 132.585938 163.214844 133.652344 163.480469 134.664062 C 163.535156 134.878906 163.589844 135.089844 163.640625 135.25 C 163.804688 135.730469 163.910156 136.15625 164.125 136.636719 C 164.5 137.59375 164.980469 138.5 165.464844 139.351562 C 165.894531 139.992188 165.945312 140.363281 165.519531 140.953125 Z M 165.519531 140.953125 " fill-opacity="1" fill-rule="nonzero"/></g><path fill="#ddbaba" d="M 150.355469 106.640625 C 150.195312 106.265625 150.035156 105.894531 149.765625 105.574219 C 149.710938 105.46875 149.605469 105.359375 149.496094 105.253906 C 149.390625 105.203125 149.230469 105.09375 149.121094 105.148438 C 149.121094 105.46875 148.960938 105.734375 148.910156 106.054688 C 148.910156 106.214844 148.855469 106.375 148.855469 106.53125 C 148.855469 106.691406 148.800781 106.800781 148.800781 106.90625 C 148.371094 108.929688 147.035156 110.957031 144.890625 111.382812 C 144.78125 111.382812 144.675781 111.382812 144.621094 111.382812 C 144.460938 111.382812 144.355469 111.382812 144.195312 111.382812 C 144.140625 111.382812 144.085938 111.382812 143.980469 111.382812 C 144.03125 111.382812 143.980469 111.382812 143.980469 111.382812 C 143.980469 111.382812 143.980469 111.382812 143.925781 111.382812 C 143.871094 111.328125 143.871094 111.328125 143.820312 111.273438 C 143.605469 111.113281 143.28125 111.007812 143.070312 110.847656 C 142.800781 110.6875 142.53125 110.476562 142.320312 110.261719 C 141.835938 109.835938 141.460938 109.304688 141.140625 108.769531 C 140.871094 108.292969 140.65625 107.8125 140.496094 107.332031 C 140.335938 106.851562 140.335938 106.480469 140.28125 106 C 140.230469 105.679688 140.066406 105.414062 140.066406 105.09375 C 139.90625 105.09375 139.800781 105.148438 139.691406 105.203125 C 139.585938 105.308594 139.480469 105.414062 139.425781 105.519531 C 139.15625 105.839844 138.996094 106.214844 138.835938 106.585938 C 138.730469 106.800781 138.621094 107.066406 138.621094 107.332031 C 138.515625 107.972656 138.515625 108.664062 138.835938 109.25 C 139.265625 110.15625 140.066406 110.742188 140.925781 111.167969 C 140.980469 111.167969 140.980469 111.222656 141.03125 111.222656 C 141.085938 111.222656 141.140625 111.222656 141.191406 111.222656 C 141.515625 111.167969 141.835938 110.957031 142.105469 111.0625 C 142.425781 111.222656 142.800781 111.433594 143.121094 111.648438 C 143.175781 111.703125 143.230469 111.703125 143.28125 111.753906 C 143.335938 111.808594 143.28125 111.914062 143.28125 112.019531 C 142.90625 113.085938 142.425781 114.207031 142.105469 115.324219 C 142.105469 115.378906 142.050781 115.484375 142.050781 115.539062 C 142.050781 115.589844 142.105469 115.695312 142.105469 115.75 C 142.371094 116.441406 142.585938 117.136719 142.960938 117.773438 C 142.960938 117.828125 143.015625 117.828125 143.015625 117.882812 C 142.640625 118.46875 142.265625 119.054688 142.050781 119.691406 C 142.050781 119.746094 142.15625 119.800781 142.15625 119.746094 C 142.371094 119.265625 142.640625 118.839844 142.90625 118.414062 C 142.960938 118.308594 143.070312 118.253906 143.121094 118.148438 C 143.390625 118.679688 143.65625 119.160156 143.820312 119.746094 C 143.871094 119.960938 144.246094 120.066406 144.355469 119.800781 C 144.621094 119.105469 144.945312 118.414062 145.320312 117.722656 C 145.371094 117.988281 145.480469 118.308594 145.585938 118.574219 C 145.800781 119.054688 146.070312 119.480469 146.605469 119.53125 C 146.820312 119.53125 146.871094 119.214844 146.660156 119.160156 C 146.121094 119 145.90625 118.203125 145.800781 117.773438 C 145.746094 117.507812 145.695312 117.296875 145.640625 117.027344 C 145.800781 116.761719 145.90625 116.441406 146.070312 116.175781 C 146.121094 116.125 146.121094 116.015625 146.175781 115.964844 C 146.175781 115.855469 146.175781 115.75 146.175781 115.644531 C 146.070312 115.21875 145.960938 114.738281 145.855469 114.3125 C 145.90625 114.3125 146.015625 114.363281 146.070312 114.363281 C 146.550781 114.417969 147.246094 113.992188 147.246094 113.460938 C 147.246094 112.925781 146.605469 112.554688 146.175781 112.394531 C 145.90625 112.289062 145.640625 112.179688 145.371094 112.128906 C 145.371094 112.074219 145.425781 111.96875 145.480469 111.914062 C 145.746094 111.648438 146.335938 111.488281 146.660156 111.328125 C 146.765625 111.273438 146.980469 111.113281 147.140625 111.0625 C 147.246094 111.0625 147.410156 111.167969 147.515625 111.222656 C 147.730469 111.273438 147.945312 111.382812 148.160156 111.328125 C 148.371094 111.273438 148.535156 111.113281 148.695312 111.007812 C 148.910156 110.847656 149.175781 110.6875 149.390625 110.476562 C 149.820312 110.101562 150.195312 109.675781 150.410156 109.195312 C 150.675781 108.609375 150.730469 108.023438 150.625 107.4375 C 150.570312 107.171875 150.515625 106.90625 150.355469 106.640625 Z M 143.65625 113.992188 C 143.710938 113.566406 143.820312 113.140625 143.925781 112.660156 C 143.925781 112.714844 143.980469 112.765625 143.980469 112.820312 C 144.085938 113.085938 144.246094 113.300781 144.300781 113.621094 C 144.355469 113.9375 144.355469 114.257812 144.300781 114.578125 C 144.246094 114.84375 144.195312 115.109375 144.03125 115.324219 C 143.765625 115.644531 143.65625 115.164062 143.605469 114.953125 C 143.550781 114.632812 143.605469 114.3125 143.65625 113.992188 Z M 143.335938 117.347656 C 143.175781 117.082031 143.015625 116.816406 142.90625 116.550781 C 142.800781 116.390625 142.746094 116.230469 142.695312 116.015625 C 142.695312 115.855469 142.695312 115.695312 142.746094 115.539062 C 142.855469 115.003906 143.015625 114.523438 143.230469 113.992188 C 143.175781 114.472656 143.121094 115.058594 143.390625 115.484375 C 143.496094 115.695312 143.765625 115.855469 143.980469 115.804688 C 144.085938 115.804688 144.195312 115.695312 144.300781 115.644531 C 144.300781 115.695312 144.246094 115.804688 144.246094 115.855469 C 144.03125 116.335938 143.820312 116.816406 143.496094 117.242188 C 143.390625 117.296875 143.335938 117.347656 143.335938 117.347656 Z M 145.105469 116.921875 C 144.835938 117.613281 144.515625 118.308594 144.140625 119 C 144.195312 118.894531 143.925781 118.46875 143.871094 118.359375 C 143.765625 118.148438 143.65625 117.933594 143.550781 117.722656 C 143.550781 117.722656 143.550781 117.667969 143.496094 117.667969 C 143.605469 117.507812 143.765625 117.347656 143.871094 117.1875 C 144.140625 116.816406 144.355469 116.335938 144.570312 115.855469 C 144.730469 115.539062 144.78125 115.164062 144.835938 114.84375 C 144.945312 115.484375 144.996094 116.125 145.105469 116.710938 C 145.105469 116.816406 145.105469 116.871094 145.105469 116.921875 Z M 146.660156 113.351562 C 146.765625 113.511719 146.765625 113.621094 146.660156 113.726562 C 146.550781 113.886719 146.335938 113.992188 146.175781 113.992188 C 146.015625 113.992188 145.90625 113.886719 145.746094 113.832031 C 145.695312 113.566406 145.640625 113.246094 145.53125 112.980469 C 145.53125 112.925781 145.53125 112.875 145.480469 112.875 C 145.90625 112.925781 146.390625 113.03125 146.660156 113.351562 Z M 132.996094 124.167969 C 133.101562 125.980469 133.210938 127.84375 133.101562 129.710938 C 133.101562 130.296875 133.050781 130.828125 132.996094 131.414062 C 132.890625 132.53125 132.78125 133.652344 132.566406 134.769531 C 132.460938 135.355469 132.300781 135.996094 132.191406 136.582031 C 132.191406 135.941406 132.136719 135.304688 132.136719 134.664062 C 132.03125 135.195312 131.925781 135.730469 131.761719 136.261719 C 131.816406 135.515625 131.976562 134.769531 132.136719 133.972656 C 132.300781 133.226562 132.40625 132.480469 132.511719 131.734375 C 132.726562 129.441406 132.726562 127.097656 132.566406 124.808594 C 132.460938 123.15625 132.300781 121.558594 132.136719 119.90625 C 132.085938 119.214844 131.976562 118.46875 131.925781 117.773438 C 131.761719 116.175781 131.65625 114.523438 131.28125 112.925781 C 131.335938 112.820312 131.441406 112.660156 131.550781 112.554688 C 131.871094 113.511719 132.085938 114.472656 132.191406 115.484375 C 132.191406 115.484375 132.191406 115.539062 132.191406 115.539062 C 132.246094 116.015625 132.300781 116.550781 132.351562 117.082031 C 132.621094 119.375 132.835938 121.769531 132.996094 124.167969 Z M 156.945312 135.941406 C 156.785156 135.304688 156.625 134.609375 156.515625 133.972656 C 156.675781 134.769531 156.675781 135.625 156.570312 136.476562 C 156.570312 136.421875 156.570312 136.371094 156.570312 136.316406 C 156.464844 135.570312 156.355469 134.824219 156.300781 134.078125 C 156.25 133.277344 156.25 132.425781 156.25 131.628906 L 156.25 131.09375 C 156.25 130.082031 156.300781 129.125 156.300781 128.164062 C 156.355469 126.9375 156.410156 125.660156 156.464844 124.433594 C 156.625 120.492188 156.410156 116.496094 157.320312 112.660156 C 157.425781 112.820312 157.535156 112.925781 157.640625 113.085938 C 157.050781 116.871094 156.890625 120.757812 156.785156 124.542969 C 156.730469 126.726562 156.675781 128.910156 156.625 131.09375 C 156.625 132.160156 156.625 133.171875 156.675781 134.238281 C 156.675781 134.664062 156.785156 135.039062 156.785156 135.464844 C 156.890625 135.625 156.945312 135.78125 156.945312 135.941406 Z M 130.746094 138.339844 C 130.851562 138.394531 130.90625 138.445312 131.011719 138.445312 C 130.960938 138.660156 130.90625 138.875 130.851562 139.085938 C 130.851562 139.140625 130.851562 139.191406 130.851562 139.246094 C 130.425781 139.140625 129.941406 138.820312 129.621094 138.605469 C 129.03125 138.289062 128.496094 137.96875 127.960938 137.59375 C 127.421875 137.273438 126.941406 136.902344 126.460938 136.527344 C 126.351562 137.007812 126.136719 137.488281 125.921875 137.96875 C 125.710938 138.554688 125.496094 139.085938 125.28125 139.671875 C 125.011719 140.417969 124.746094 141.21875 124.421875 141.964844 C 124.261719 141.855469 124.15625 141.75 123.996094 141.644531 C 124.261719 140.898438 124.53125 140.207031 124.796875 139.460938 C 125.011719 138.925781 125.226562 138.394531 125.386719 137.859375 C 125.601562 137.328125 125.761719 136.742188 126.085938 136.261719 C 125.710938 135.996094 125.386719 135.730469 125.066406 135.410156 C 125.121094 135.25 125.171875 135.089844 125.226562 134.878906 C 126.246094 135.570312 127.261719 136.210938 128.335938 136.847656 C 128.871094 137.167969 129.460938 137.488281 130.050781 137.808594 C 130.210938 138.019531 130.476562 138.179688 130.746094 138.339844 Z M 165.089844 141.429688 C 164.929688 141.589844 164.769531 141.695312 164.605469 141.804688 C 164.5 141.589844 164.394531 141.378906 164.285156 141.164062 C 164.019531 140.632812 163.75 140.097656 163.429688 139.566406 C 163.105469 139.03125 162.785156 138.5 162.464844 137.914062 C 162.304688 137.648438 162.140625 137.328125 161.980469 137.0625 C 161.875 136.847656 161.765625 136.636719 161.660156 136.421875 C 160.375 137.113281 159.089844 137.753906 157.75 138.179688 C 157.695312 138.019531 157.640625 137.859375 157.589844 137.703125 C 158.980469 137.007812 160.429688 136.421875 161.820312 135.675781 C 162.464844 135.355469 163.054688 134.984375 163.640625 134.609375 C 163.695312 134.824219 163.75 135.039062 163.804688 135.195312 C 163.265625 135.515625 162.730469 135.835938 162.195312 136.15625 C 162.355469 136.371094 162.464844 136.582031 162.625 136.796875 C 162.785156 137.0625 163 137.382812 163.160156 137.648438 C 163.480469 138.179688 163.804688 138.714844 164.125 139.300781 C 164.445312 139.832031 164.769531 140.363281 164.980469 140.953125 C 164.980469 141.164062 165.035156 141.324219 165.089844 141.429688 Z M 165.089844 141.429688 " fill-opacity="1" fill-rule="nonzero"/><path fill="#ffffff" d="M 144.996094 110.050781 C 144.890625 110.15625 144.621094 110.210938 144.460938 110.210938 C 144.300781 110.210938 144.085938 110.210938 143.925781 110.15625 C 143.550781 110.101562 143.230469 109.941406 142.90625 109.730469 C 142.585938 109.515625 142.371094 109.195312 142.15625 108.878906 C 141.890625 108.503906 141.621094 108.132812 141.355469 107.757812 C 141.300781 107.652344 141.40625 107.546875 141.515625 107.652344 C 141.78125 107.972656 142.050781 108.292969 142.320312 108.609375 C 142.53125 108.878906 142.746094 109.144531 143.015625 109.410156 C 143.28125 109.625 143.605469 109.78125 143.925781 109.835938 C 144.085938 109.890625 144.246094 109.835938 144.460938 109.835938 C 144.621094 109.835938 144.78125 109.78125 144.945312 109.78125 C 145.050781 109.835938 145.050781 109.996094 144.996094 110.050781 Z M 146.015625 109.355469 C 145.960938 109.355469 145.960938 109.355469 145.960938 109.410156 C 145.960938 109.410156 145.960938 109.410156 145.90625 109.410156 C 145.90625 109.410156 145.855469 109.410156 145.855469 109.464844 C 145.855469 109.464844 145.800781 109.515625 145.800781 109.515625 C 145.800781 109.515625 145.746094 109.515625 145.746094 109.515625 C 145.746094 109.515625 145.746094 109.515625 145.695312 109.515625 C 145.640625 109.515625 145.585938 109.515625 145.585938 109.570312 C 145.53125 109.625 145.53125 109.675781 145.53125 109.675781 C 145.53125 109.730469 145.53125 109.730469 145.585938 109.78125 C 145.640625 109.835938 145.695312 109.835938 145.746094 109.835938 C 145.855469 109.835938 145.910156 109.78125 145.960938 109.730469 C 145.960938 109.730469 146.015625 109.675781 146.015625 109.675781 C 146.015625 109.675781 146.015625 109.675781 146.070312 109.625 C 146.070312 109.625 146.070312 109.570312 146.070312 109.570312 C 146.070312 109.570312 146.070312 109.515625 146.070312 109.515625 C 146.121094 109.464844 146.070312 109.410156 146.015625 109.355469 Z M 139.746094 108.769531 C 139.691406 108.71875 139.691406 108.609375 139.640625 108.558594 C 139.585938 108.398438 139.53125 108.238281 139.480469 108.078125 C 139.425781 107.757812 139.371094 107.386719 139.425781 107.011719 C 139.425781 106.851562 139.210938 106.851562 139.15625 106.960938 C 139.105469 107.332031 139.105469 107.757812 139.15625 108.132812 C 139.210938 108.34375 139.265625 108.503906 139.316406 108.664062 C 139.371094 108.769531 139.371094 108.824219 139.425781 108.929688 C 139.480469 109.039062 139.53125 109.089844 139.585938 109.144531 C 139.691406 109.25 139.800781 109.089844 139.746094 108.984375 C 139.855469 108.984375 139.800781 108.878906 139.746094 108.769531 Z M 136.640625 110.261719 C 136.53125 110.261719 136.476562 110.371094 136.371094 110.421875 C 136.265625 110.476562 136.210938 110.582031 136.15625 110.636719 C 135.996094 110.796875 135.835938 110.902344 135.675781 111.0625 C 135.515625 111.167969 135.351562 111.328125 135.191406 111.433594 C 135.085938 111.488281 135.03125 111.542969 134.976562 111.648438 C 134.925781 111.703125 134.816406 111.808594 134.765625 111.859375 C 134.710938 111.914062 134.816406 112.019531 134.871094 112.019531 C 134.976562 112.019531 135.03125 111.914062 135.140625 111.859375 C 135.246094 111.808594 135.351562 111.753906 135.40625 111.703125 C 135.566406 111.59375 135.726562 111.433594 135.890625 111.273438 C 136.050781 111.113281 136.210938 111.007812 136.371094 110.847656 C 136.476562 110.796875 136.53125 110.6875 136.585938 110.636719 C 136.640625 110.527344 136.746094 110.476562 136.746094 110.371094 C 136.746094 110.261719 136.691406 110.210938 136.640625 110.261719 Z M 133.960938 112.714844 C 133.90625 112.820312 133.800781 112.925781 133.746094 112.980469 L 133.640625 113.140625 C 133.585938 113.191406 133.585938 113.246094 133.53125 113.300781 C 133.53125 113.351562 133.53125 113.40625 133.53125 113.40625 C 133.585938 113.460938 133.640625 113.40625 133.691406 113.40625 C 133.746094 113.351562 133.800781 113.351562 133.800781 113.300781 C 133.851562 113.246094 133.851562 113.191406 133.90625 113.191406 C 133.960938 113.085938 134.066406 113.03125 134.121094 112.925781 C 134.175781 112.875 134.175781 112.765625 134.121094 112.714844 C 134.066406 112.660156 134.015625 112.660156 133.960938 112.714844 Z M 130.425781 118.894531 C 129.886719 120.597656 129.40625 122.355469 128.976562 124.113281 C 128.761719 124.96875 128.550781 125.875 128.335938 126.726562 C 128.226562 127.152344 128.121094 127.578125 128.066406 128.003906 C 127.960938 128.429688 127.851562 128.855469 127.796875 129.335938 C 127.796875 129.441406 127.960938 129.441406 127.960938 129.335938 C 128.121094 128.910156 128.175781 128.484375 128.28125 128.058594 C 128.386719 127.632812 128.496094 127.152344 128.601562 126.726562 C 128.816406 125.875 129.03125 124.96875 129.246094 124.113281 C 129.675781 122.355469 130.101562 120.652344 130.585938 118.894531 C 130.585938 118.839844 130.425781 118.789062 130.425781 118.894531 Z M 127.371094 130.5625 C 127.316406 130.773438 127.261719 130.988281 127.210938 131.203125 C 127.15625 131.308594 127.15625 131.359375 127.101562 131.46875 C 127.046875 131.574219 126.996094 131.679688 126.941406 131.789062 C 126.886719 131.894531 127.046875 131.894531 127.101562 131.894531 C 127.210938 131.839844 127.261719 131.734375 127.316406 131.628906 C 127.371094 131.519531 127.421875 131.414062 127.476562 131.308594 C 127.585938 131.09375 127.585938 130.882812 127.636719 130.667969 C 127.636719 130.457031 127.371094 130.402344 127.371094 130.5625 Z M 135.191406 122.089844 C 135.191406 121.929688 134.976562 121.929688 134.976562 122.089844 C 134.976562 123.902344 135.085938 125.714844 135.085938 127.523438 C 135.085938 128.429688 135.140625 129.28125 135.140625 130.1875 C 135.140625 130.667969 135.140625 131.09375 135.140625 131.574219 C 135.140625 132 135.140625 132.425781 135.191406 132.851562 C 135.191406 132.960938 135.40625 132.960938 135.40625 132.851562 C 135.460938 132.425781 135.460938 132.054688 135.460938 131.628906 C 135.460938 131.148438 135.460938 130.722656 135.460938 130.242188 C 135.460938 129.335938 135.460938 128.429688 135.40625 127.523438 C 135.460938 125.660156 135.351562 123.847656 135.191406 122.089844 Z M 135.246094 134.664062 C 135.140625 134.664062 135.085938 134.71875 135.085938 134.824219 C 135.085938 135.039062 135.03125 135.195312 135.03125 135.410156 C 135.03125 135.515625 135.03125 135.570312 135.03125 135.675781 C 135.03125 135.730469 135.03125 135.78125 135.03125 135.835938 C 135.03125 135.890625 135.03125 135.941406 135.085938 135.996094 C 135.140625 136.050781 135.246094 136.101562 135.300781 135.996094 C 135.300781 135.941406 135.351562 135.941406 135.351562 135.890625 C 135.351562 135.890625 135.351562 135.835938 135.351562 135.835938 C 135.351562 135.78125 135.351562 135.730469 135.351562 135.675781 C 135.351562 135.570312 135.40625 135.464844 135.40625 135.355469 C 135.40625 135.144531 135.460938 134.984375 135.460938 134.769531 C 135.40625 134.769531 135.351562 134.664062 135.246094 134.664062 Z M 158.660156 132.851562 C 158.445312 131.945312 158.445312 130.988281 158.550781 130.027344 C 158.605469 129.015625 158.660156 128.058594 158.714844 127.046875 C 158.765625 125.019531 158.714844 123.050781 158.660156 121.023438 C 158.660156 120.863281 158.445312 120.863281 158.445312 121.023438 C 158.390625 123.101562 158.445312 125.128906 158.339844 127.207031 C 158.285156 128.21875 158.230469 129.175781 158.175781 130.1875 C 158.125 131.148438 158.070312 132.054688 158.445312 132.960938 C 158.5 133.011719 158.714844 132.960938 158.660156 132.851562 Z M 159.195312 134.878906 C 159.25 134.878906 159.25 134.824219 159.25 134.769531 C 159.25 134.71875 159.25 134.71875 159.25 134.664062 C 159.25 134.664062 159.25 134.609375 159.195312 134.609375 C 159.195312 134.558594 159.140625 134.503906 159.140625 134.503906 C 159.089844 134.398438 159.089844 134.34375 159.035156 134.238281 C 158.980469 134.078125 158.925781 133.863281 158.875 133.652344 C 158.875 133.597656 158.765625 133.546875 158.714844 133.546875 C 158.605469 133.546875 158.605469 133.652344 158.605469 133.707031 C 158.660156 133.917969 158.660156 134.078125 158.765625 134.292969 C 158.820312 134.398438 158.820312 134.503906 158.875 134.609375 C 158.925781 134.71875 158.980469 134.824219 159.035156 134.878906 C 159.089844 134.878906 159.140625 134.878906 159.195312 134.878906 Z M 159.515625 140.3125 C 159.515625 139.886719 159.464844 139.460938 159.355469 138.980469 C 159.300781 138.820312 159.035156 138.875 159.089844 139.03125 C 159.140625 139.460938 159.140625 139.886719 159.140625 140.3125 C 159.140625 140.523438 159.140625 140.738281 159.140625 140.953125 C 159.140625 141.164062 159.140625 141.378906 159.195312 141.589844 C 159.195312 141.695312 159.355469 141.695312 159.410156 141.589844 C 159.464844 141.484375 159.464844 141.378906 159.464844 141.269531 C 159.464844 141.164062 159.515625 141.058594 159.515625 140.953125 C 159.515625 140.738281 159.515625 140.523438 159.515625 140.3125 Z M 159.515625 140.3125 " fill-opacity="1" fill-rule="nonzero"/><g clip-path="url(#e4f89efc59)"><path fill="#ffd640" d="M 280.195312 111.164062 C 280.148438 111.351562 280.101562 111.539062 280.054688 111.773438 C 280.007812 112.011719 279.914062 112.199219 279.867188 112.386719 C 276.46875 123.273438 264.71875 134.679688 254.148438 141.886719 C 249.667969 144.953125 245.371094 147.261719 242.023438 148.4375 C 241.832031 148.484375 241.644531 148.578125 241.503906 148.628906 L 227.160156 139.957031 L 226.734375 139.71875 C 231.878906 178.410156 229.519531 237.128906 229.519531 237.128906 C 203.234375 248.0625 174.972656 251.5 150.105469 251.5 C 125.191406 251.5 96.925781 248.109375 70.640625 237.128906 C 70.640625 237.128906 69.792969 215.734375 70.21875 190.238281 C 70.5 173.507812 71.351562 155.035156 73.425781 139.71875 L 73 139.957031 L 58.65625 148.628906 C 58.46875 148.578125 58.28125 148.484375 58.136719 148.4375 C 54.789062 147.261719 50.492188 144.953125 46.011719 141.886719 C 35.394531 134.679688 23.644531 123.226562 20.246094 112.386719 C 20.199219 112.199219 20.105469 111.964844 20.058594 111.773438 C 20.011719 111.585938 19.964844 111.398438 19.917969 111.164062 C 19.257812 108.617188 19.113281 106.167969 19.492188 103.765625 C 19.492188 103.621094 19.539062 103.480469 19.539062 103.386719 C 19.539062 103.386719 25.203125 96.882812 34.496094 88.402344 C 37.09375 85.996094 40.019531 83.453125 43.132812 80.8125 C 43.746094 80.296875 44.40625 79.777344 45.066406 79.210938 C 45.726562 78.695312 46.390625 78.175781 47.050781 77.609375 C 47.378906 77.328125 47.710938 77.089844 48.039062 76.808594 C 51.769531 73.886719 55.777344 70.917969 60.027344 68.089844 C 63.328125 65.875 66.773438 63.707031 70.3125 61.730469 C 72.105469 60.738281 73.898438 59.75 75.691406 58.808594 C 76.164062 58.570312 76.585938 58.335938 77.058594 58.101562 C 77.957031 57.628906 78.898438 57.203125 79.84375 56.78125 C 80.316406 56.542969 80.789062 56.355469 81.210938 56.167969 C 81.683594 55.980469 82.15625 55.742188 82.628906 55.554688 C 83.097656 55.367188 83.570312 55.132812 84.042969 54.941406 C 84.46875 54.753906 84.941406 54.566406 85.410156 54.378906 C 86.96875 53.765625 88.527344 53.152344 90.128906 52.632812 L 91.167969 52.257812 C 91.640625 52.113281 92.113281 51.925781 92.582031 51.785156 C 93.527344 51.503906 94.472656 51.21875 95.414062 50.9375 C 96.40625 50.652344 97.398438 50.417969 98.386719 50.183594 C 98.859375 50.089844 99.378906 49.949219 99.851562 49.851562 C 100.226562 49.757812 100.652344 49.664062 101.03125 49.617188 C 101.972656 49.429688 102.917969 49.242188 103.863281 49.097656 C 104.523438 49.003906 105.136719 48.910156 105.796875 48.816406 C 105.9375 48.816406 106.03125 48.769531 106.171875 48.769531 C 106.222656 48.769531 106.222656 48.769531 106.269531 48.769531 C 106.269531 48.769531 106.316406 48.769531 106.316406 48.769531 C 106.691406 48.722656 107.070312 48.675781 107.449219 48.628906 C 107.542969 48.628906 107.589844 48.628906 107.683594 48.582031 C 108.15625 48.535156 108.628906 48.488281 109.050781 48.4375 C 109.097656 48.4375 109.097656 48.4375 109.144531 48.4375 C 109.476562 48.4375 109.757812 48.390625 110.089844 48.390625 C 110.421875 48.390625 110.75 48.34375 111.082031 48.34375 C 111.410156 48.34375 111.695312 48.296875 112.023438 48.296875 C 113.394531 48.25 114.808594 48.25 116.175781 48.296875 L 116.222656 48.296875 C 116.222656 48.296875 118.535156 54.753906 125 60.550781 C 125.566406 61.070312 126.226562 61.585938 126.839844 62.105469 C 127.925781 62.953125 129.058594 63.753906 130.332031 64.507812 C 130.378906 64.507812 130.378906 64.554688 130.425781 64.554688 C 130.664062 64.699219 130.945312 64.886719 131.230469 65.027344 C 131.464844 65.167969 131.75 65.308594 131.984375 65.453125 C 132.410156 65.6875 132.832031 65.875 133.257812 66.0625 C 133.730469 66.300781 134.203125 66.488281 134.675781 66.722656 C 134.910156 66.816406 135.144531 66.914062 135.429688 67.007812 C 135.664062 67.101562 135.949219 67.195312 136.183594 67.289062 C 136.9375 67.570312 137.742188 67.808594 138.589844 68.042969 C 139.441406 68.277344 140.289062 68.515625 141.136719 68.703125 C 141.703125 68.84375 142.269531 68.9375 142.882812 69.03125 C 142.929688 69.03125 142.929688 69.03125 142.980469 69.03125 C 143.261719 69.082031 143.496094 69.128906 143.78125 69.175781 C 143.828125 69.175781 143.828125 69.175781 143.875 69.175781 C 143.921875 69.175781 143.921875 69.175781 143.96875 69.175781 C 144.253906 69.222656 144.535156 69.269531 144.820312 69.269531 C 144.867188 69.269531 144.960938 69.269531 145.054688 69.316406 C 145.242188 69.363281 145.480469 69.363281 145.714844 69.363281 C 145.808594 69.363281 145.902344 69.363281 146.046875 69.410156 C 146.566406 69.457031 147.082031 69.503906 147.601562 69.503906 C 147.648438 69.503906 147.699219 69.503906 147.792969 69.503906 C 148.074219 69.503906 148.3125 69.550781 148.59375 69.550781 C 148.6875 69.550781 148.828125 69.550781 148.925781 69.550781 C 149.253906 69.550781 149.632812 69.550781 149.960938 69.550781 C 150.386719 69.550781 150.765625 69.550781 151.1875 69.550781 C 151.332031 69.550781 151.425781 69.550781 151.519531 69.550781 C 151.800781 69.550781 152.085938 69.550781 152.320312 69.503906 C 152.367188 69.503906 152.414062 69.503906 152.511719 69.503906 C 153.03125 69.457031 153.546875 69.457031 154.066406 69.410156 C 154.160156 69.410156 154.257812 69.410156 154.398438 69.363281 C 154.632812 69.363281 154.824219 69.316406 155.058594 69.316406 C 155.152344 69.316406 155.199219 69.316406 155.292969 69.269531 C 155.578125 69.222656 155.859375 69.222656 156.144531 69.175781 C 156.191406 69.175781 156.285156 69.175781 156.332031 69.128906 C 156.617188 69.082031 156.851562 69.03125 157.132812 68.984375 C 157.183594 68.984375 157.183594 68.984375 157.230469 68.984375 C 157.84375 68.890625 158.410156 68.796875 158.976562 68.65625 C 160.722656 68.277344 162.371094 67.808594 163.929688 67.242188 C 164.164062 67.148438 164.449219 67.054688 164.683594 66.960938 C 164.921875 66.863281 165.203125 66.769531 165.4375 66.675781 C 166.195312 66.394531 166.902344 66.0625 167.5625 65.6875 C 168.035156 65.453125 168.460938 65.214844 168.882812 64.980469 C 169.167969 64.839844 169.402344 64.699219 169.6875 64.507812 C 169.96875 64.367188 170.207031 64.179688 170.488281 64.039062 C 171.242188 63.566406 171.949219 63.09375 172.613281 62.578125 C 172.847656 62.386719 173.082031 62.246094 173.320312 62.058594 C 173.507812 61.917969 173.742188 61.730469 173.933594 61.585938 C 174.121094 61.445312 174.359375 61.257812 174.546875 61.070312 C 174.734375 60.878906 174.972656 60.738281 175.160156 60.550781 C 175.539062 60.21875 175.914062 59.84375 176.292969 59.515625 C 181.859375 54.046875 183.9375 48.34375 183.9375 48.34375 C 185.304688 48.296875 186.71875 48.296875 188.089844 48.34375 C 188.417969 48.34375 188.75 48.390625 189.03125 48.390625 C 189.363281 48.390625 189.691406 48.4375 190.023438 48.4375 C 190.355469 48.4375 190.636719 48.488281 190.96875 48.488281 C 191.535156 48.535156 192.097656 48.582031 192.664062 48.628906 C 193.042969 48.675781 193.421875 48.722656 193.796875 48.769531 C 193.894531 48.769531 193.988281 48.769531 194.082031 48.816406 C 194.175781 48.816406 194.222656 48.816406 194.316406 48.863281 C 194.976562 48.957031 195.636719 49.050781 196.300781 49.144531 C 197.054688 49.242188 197.761719 49.382812 198.515625 49.523438 C 198.753906 49.570312 198.988281 49.617188 199.226562 49.664062 C 199.601562 49.757812 199.980469 49.804688 200.355469 49.898438 C 200.828125 49.996094 201.347656 50.136719 201.820312 50.230469 C 202.8125 50.464844 203.800781 50.703125 204.792969 50.984375 C 205.640625 51.21875 206.445312 51.457031 207.292969 51.691406 C 207.386719 51.738281 207.53125 51.738281 207.625 51.785156 C 208.046875 51.925781 208.519531 52.066406 208.945312 52.210938 C 209.839844 52.492188 210.738281 52.820312 211.585938 53.152344 C 212.671875 53.527344 213.710938 53.953125 214.75 54.378906 C 215.222656 54.566406 215.644531 54.753906 216.117188 54.941406 C 216.589844 55.132812 217.0625 55.320312 217.53125 55.554688 C 218.003906 55.742188 218.476562 55.980469 218.949219 56.167969 C 219.421875 56.355469 219.890625 56.59375 220.363281 56.828125 C 221.308594 57.25 222.203125 57.675781 223.148438 58.148438 C 223.621094 58.382812 224.042969 58.617188 224.515625 58.855469 C 226.355469 59.796875 228.148438 60.738281 229.894531 61.777344 C 233.433594 63.800781 236.878906 65.921875 240.183594 68.136719 C 243.25 70.210938 246.222656 72.332031 249.054688 74.453125 C 249.382812 74.734375 249.761719 74.972656 250.089844 75.253906 C 250.800781 75.773438 251.460938 76.335938 252.167969 76.855469 C 253.207031 77.65625 254.195312 78.457031 255.1875 79.257812 C 255.847656 79.777344 256.460938 80.296875 257.121094 80.863281 C 260.234375 83.453125 263.160156 85.996094 265.757812 88.402344 C 266.511719 89.0625 267.171875 89.722656 267.878906 90.378906 C 267.878906 90.378906 267.925781 90.378906 267.925781 90.425781 C 269.203125 91.652344 270.429688 92.785156 271.515625 93.867188 C 271.609375 93.960938 271.703125 94.054688 271.796875 94.152344 C 277.460938 99.710938 280.714844 103.433594 280.714844 103.433594 C 280.761719 103.574219 280.761719 103.71875 280.761719 103.8125 C 281.046875 106.167969 280.855469 108.664062 280.195312 111.164062 Z M 280.195312 111.164062 " fill-opacity="1" fill-rule="nonzero"/></g><g clip-path="url(#20151d8388)"><path fill="#ff9545" d="M 193.890625 48.769531 C 193.136719 50.84375 191.816406 54.1875 189.597656 57.910156 C 186.34375 63.425781 181.199219 69.835938 173.414062 74.359375 C 170.394531 76.101562 159.542969 81.003906 145.195312 80.058594 C 118.015625 78.269531 108.390625 55.082031 106.171875 48.816406 C 107.496094 48.675781 108.769531 48.535156 110.089844 48.4375 C 110.421875 48.4375 110.75 48.390625 111.082031 48.390625 C 111.410156 48.390625 111.742188 48.34375 112.023438 48.34375 C 113.394531 48.296875 114.808594 48.296875 116.175781 48.34375 L 116.269531 48.34375 C 116.269531 48.34375 123.679688 68.9375 148.828125 69.597656 C 149.253906 69.597656 149.632812 69.597656 150.058594 69.597656 C 150.527344 69.597656 151 69.597656 151.472656 69.597656 C 151.800781 69.597656 152.132812 69.550781 152.464844 69.550781 C 152.980469 69.503906 153.5 69.503906 154.019531 69.457031 C 154.726562 69.410156 155.4375 69.316406 156.144531 69.222656 C 161.144531 68.515625 165.34375 67.007812 168.835938 65.074219 C 177.378906 60.363281 180.964844 53.199219 182.519531 49.996094 C 183.039062 48.957031 183.226562 48.34375 183.226562 48.34375 C 184.597656 48.296875 186.625 48.296875 187.996094 48.34375 C 188.417969 48.34375 188.890625 48.390625 189.316406 48.390625 C 189.363281 48.390625 189.457031 48.390625 189.503906 48.390625 C 189.929688 48.4375 190.402344 48.4375 190.824219 48.488281 C 190.871094 48.488281 190.871094 48.488281 190.917969 48.488281 C 191.390625 48.535156 191.863281 48.582031 192.289062 48.628906 C 192.902344 48.675781 193.375 48.722656 193.890625 48.769531 Z M 193.890625 48.769531 " fill-opacity="1" fill-rule="nonzero"/></g><path fill="#ff9545" d="M 247.636719 150.652344 C 245.042969 150.890625 243.484375 150.324219 241.976562 149.050781 C 241.785156 148.910156 241.644531 148.769531 241.457031 148.628906 C 241.644531 148.578125 271.042969 125.347656 280.527344 103.386719 C 281.140625 104.140625 285.007812 106.875 283.875 110.3125 C 279.394531 124.359375 249.054688 150.511719 247.636719 150.652344 Z M 247.636719 150.652344 " fill-opacity="1" fill-rule="nonzero"/><g clip-path="url(#ff8b6ddd4a)"><path fill="#ff9545" d="M 52.429688 150.652344 C 55.023438 150.890625 56.582031 150.324219 58.089844 149.050781 C 58.28125 148.910156 58.46875 148.769531 58.609375 148.628906 C 58.421875 148.578125 28.976562 125.347656 19.492188 103.386719 C 18.878906 104.140625 15.011719 106.875 16.140625 110.3125 C 20.671875 124.359375 51.011719 150.511719 52.429688 150.652344 Z M 52.429688 150.652344 " fill-opacity="1" fill-rule="nonzero"/></g><path fill="#ffffff" d="M 178.179688 145.707031 C 174.972656 148.910156 160.71875 159.984375 157.277344 156.542969 C 153.832031 153.105469 162.417969 136.375 165.628906 133.171875 C 168.835938 129.964844 174.261719 130.152344 177.707031 133.640625 C 181.199219 137.082031 181.386719 142.5 178.179688 145.707031 Z M 178.179688 145.707031 " fill-opacity="1" fill-rule="nonzero"/><path fill="#ffffff" d="M 182.097656 169.410156 C 177.566406 169.410156 159.636719 167.195312 159.636719 162.292969 C 159.636719 157.390625 177.566406 151.691406 182.097656 151.691406 C 186.625 151.691406 190.304688 155.648438 190.304688 160.550781 C 190.304688 165.402344 186.625 169.410156 182.097656 169.410156 Z M 182.097656 169.410156 " fill-opacity="1" fill-rule="nonzero"/><path fill="#ffffff" d="M 186.296875 191.839844 C 182 193.394531 164.402344 197.355469 162.75 192.734375 C 161.097656 188.117188 176.007812 176.667969 180.304688 175.160156 C 184.597656 173.652344 189.363281 176.101562 191.0625 180.71875 C 192.664062 185.289062 190.589844 190.285156 186.296875 191.839844 Z M 186.296875 191.839844 " fill-opacity="1" fill-rule="nonzero"/><path fill="#ffffff" d="M 142.507812 194.242188 C 142.507812 189.71875 144.722656 171.8125 149.632812 171.8125 C 154.539062 171.8125 160.25 189.71875 160.25 194.242188 C 160.25 198.769531 156.285156 202.445312 151.378906 202.445312 C 146.46875 202.445312 142.507812 198.769531 142.507812 194.242188 Z M 142.507812 194.242188 " fill-opacity="1" fill-rule="nonzero"/><path fill="#ffffff" d="M 123.113281 179.636719 C 126.320312 176.429688 140.570312 165.355469 144.015625 168.796875 C 147.460938 172.238281 138.875 188.964844 135.664062 192.171875 C 132.457031 195.375 127.03125 195.1875 123.585938 191.699219 C 120.140625 188.210938 119.90625 182.839844 123.113281 179.636719 Z M 123.113281 179.636719 " fill-opacity="1" fill-rule="nonzero"/><path fill="#ffffff" d="M 116.789062 156.261719 C 121.320312 156.261719 139.25 158.476562 139.25 163.378906 C 139.25 168.277344 121.320312 173.980469 116.789062 173.980469 C 112.261719 173.980469 108.578125 170.023438 108.578125 165.121094 C 108.578125 160.21875 112.261719 156.261719 116.789062 156.261719 Z M 116.789062 156.261719 " fill-opacity="1" fill-rule="nonzero"/><path fill="#ffffff" d="M 132.171875 134.441406 C 135.382812 137.648438 146.46875 151.878906 143.027344 155.320312 C 139.582031 158.757812 122.832031 150.183594 119.621094 146.976562 C 116.414062 143.773438 116.601562 138.355469 120.09375 134.914062 C 123.585938 131.472656 128.964844 131.238281 132.171875 134.441406 Z M 132.171875 134.441406 " fill-opacity="1" fill-rule="nonzero"/><path fill="#ffffff" d="M 157.984375 130.390625 C 157.984375 134.914062 155.765625 152.820312 150.859375 152.820312 C 145.953125 152.820312 140.242188 134.914062 140.242188 130.390625 C 140.242188 125.867188 144.207031 122.191406 149.113281 122.191406 C 154.019531 122.144531 157.984375 125.820312 157.984375 130.390625 Z M 157.984375 130.390625 " fill-opacity="1" fill-rule="nonzero"/><path fill="#fff064" d="M 174.027344 164.085938 C 174.027344 164.859375 173.988281 165.632812 173.914062 166.402344 C 173.835938 167.175781 173.722656 167.9375 173.570312 168.699219 C 173.421875 169.460938 173.230469 170.210938 173.007812 170.953125 C 172.78125 171.691406 172.519531 172.421875 172.222656 173.136719 C 171.925781 173.851562 171.597656 174.550781 171.230469 175.234375 C 170.863281 175.917969 170.464844 176.582031 170.035156 177.226562 C 169.605469 177.871094 169.140625 178.492188 168.648438 179.089844 C 168.160156 179.691406 167.636719 180.265625 167.089844 180.8125 C 166.539062 181.359375 165.964844 181.878906 165.367188 182.371094 C 164.765625 182.863281 164.144531 183.324219 163.5 183.753906 C 162.855469 184.183594 162.191406 184.582031 161.507812 184.949219 C 160.820312 185.3125 160.121094 185.644531 159.40625 185.941406 C 158.6875 186.238281 157.957031 186.496094 157.214844 186.722656 C 156.472656 186.945312 155.722656 187.136719 154.960938 187.285156 C 154.199219 187.4375 153.433594 187.550781 152.660156 187.625 C 151.890625 187.703125 151.117188 187.742188 150.339844 187.742188 C 149.5625 187.742188 148.789062 187.703125 148.019531 187.625 C 147.246094 187.550781 146.480469 187.4375 145.71875 187.285156 C 144.957031 187.136719 144.207031 186.945312 143.464844 186.722656 C 142.722656 186.496094 141.992188 186.238281 141.273438 185.941406 C 140.558594 185.644531 139.859375 185.3125 139.171875 184.949219 C 138.488281 184.582031 137.824219 184.183594 137.179688 183.753906 C 136.535156 183.324219 135.914062 182.863281 135.3125 182.371094 C 134.710938 181.878906 134.140625 181.359375 133.589844 180.8125 C 133.042969 180.265625 132.519531 179.691406 132.027344 179.089844 C 131.535156 178.492188 131.074219 177.871094 130.644531 177.226562 C 130.214844 176.582031 129.816406 175.917969 129.449219 175.234375 C 129.082031 174.550781 128.753906 173.851562 128.457031 173.136719 C 128.160156 172.421875 127.898438 171.691406 127.671875 170.953125 C 127.445312 170.210938 127.257812 169.460938 127.109375 168.699219 C 126.957031 167.9375 126.84375 167.175781 126.765625 166.402344 C 126.691406 165.632812 126.652344 164.859375 126.652344 164.085938 C 126.652344 163.308594 126.691406 162.535156 126.765625 161.765625 C 126.84375 160.996094 126.957031 160.230469 127.109375 159.46875 C 127.257812 158.707031 127.445312 157.957031 127.671875 157.21875 C 127.898438 156.476562 128.160156 155.746094 128.457031 155.03125 C 128.753906 154.316406 129.082031 153.617188 129.449219 152.933594 C 129.816406 152.25 130.214844 151.585938 130.644531 150.941406 C 131.074219 150.296875 131.535156 149.675781 132.027344 149.078125 C 132.519531 148.476562 133.042969 147.902344 133.589844 147.355469 C 134.140625 146.808594 134.710938 146.289062 135.3125 145.796875 C 135.914062 145.304688 136.535156 144.84375 137.179688 144.414062 C 137.824219 143.984375 138.488281 143.585938 139.171875 143.21875 C 139.859375 142.855469 140.558594 142.523438 141.273438 142.226562 C 141.992188 141.929688 142.722656 141.671875 143.464844 141.445312 C 144.207031 141.222656 144.957031 141.03125 145.71875 140.882812 C 146.480469 140.730469 147.246094 140.617188 148.019531 140.542969 C 148.789062 140.464844 149.5625 140.425781 150.339844 140.425781 C 151.117188 140.425781 151.890625 140.464844 152.660156 140.542969 C 153.433594 140.617188 154.199219 140.730469 154.960938 140.882812 C 155.722656 141.03125 156.472656 141.222656 157.214844 141.445312 C 157.957031 141.671875 158.6875 141.929688 159.40625 142.226562 C 160.121094 142.523438 160.820312 142.855469 161.507812 143.21875 C 162.191406 143.585938 162.855469 143.984375 163.5 144.414062 C 164.144531 144.84375 164.765625 145.304688 165.367188 145.796875 C 165.964844 146.289062 166.539062 146.808594 167.089844 147.355469 C 167.636719 147.902344 168.160156 148.476562 168.648438 149.078125 C 169.140625 149.675781 169.605469 150.296875 170.035156 150.941406 C 170.464844 151.585938 170.863281 152.25 171.230469 152.933594 C 171.597656 153.617188 171.925781 154.316406 172.222656 155.03125 C 172.519531 155.746094 172.78125 156.476562 173.007812 157.21875 C 173.230469 157.957031 173.421875 158.707031 173.570312 159.46875 C 173.722656 160.230469 173.835938 160.996094 173.914062 161.765625 C 173.988281 162.535156 174.027344 163.308594 174.027344 164.085938 Z M 174.027344 164.085938 " fill-opacity="1" fill-rule="nonzero"/></svg>