<svg width="70" height="70" viewBox="0 0 512 209" fill="none" xmlns="http://www.w3.org/2000/svg">
<path d="M30.4922 59.1265C30.0152 59.1265 29.5293 59.0915 29.0343 59.0055C11.9403 56.1156 0 42.6484 0 26.2654C0 21.4757 3.88777 17.5879 8.67749 17.5879C9.81711 17.5876 10.9456 17.8119 11.9985 18.2479C13.0515 18.6839 14.0082 19.323 14.814 20.1289C15.6198 20.9347 16.259 21.8914 16.695 22.9443C17.131 23.9973 17.3552 25.1258 17.355 26.2654C17.355 35.9838 25.2085 40.7565 31.9331 41.8935C36.6539 42.6914 39.8387 47.1692 39.0397 51.8989C38.6965 53.9183 37.6503 55.7513 36.0861 57.0739C34.522 58.3966 32.5406 59.1236 30.4922 59.1265Z" fill="#9B2118"/>
<path d="M30.5772 38.3441C30.5772 38.3441 11.8773 138.247 8.68347 147.828C8.68347 147.828 458.922 182.043 501.355 131.41C501.355 131.41 519.144 88.9771 391.871 93.0899L205.748 5.5C205.749 5.5 143.54 104.136 30.5772 38.3441Z" fill="#C03A2B"/>
<path d="M95.4543 118.319C90.6726 118.319 86.7939 114.44 86.7769 109.658V109.632C86.4129 106.846 76.5545 100.955 69.4219 100.955C64.6322 100.955 60.7444 97.0668 60.7444 92.2771C60.7441 91.1375 60.9684 90.009 61.4044 88.9561C61.8404 87.9031 62.4795 86.9464 63.2854 86.1406C64.0912 85.3348 65.0479 84.6956 66.1008 84.2596C67.1537 83.8236 68.2823 83.5993 69.4219 83.5996C77.5524 83.5996 88.1218 87.1924 95.4543 93.327C102.787 87.1924 113.356 83.5996 121.487 83.5996C122.626 83.5993 123.755 83.8236 124.808 84.2596C125.861 84.6956 126.817 85.3348 127.623 86.1406C128.429 86.9464 129.068 87.9031 129.504 88.9561C129.94 90.009 130.165 91.1375 130.164 92.2771C130.164 97.0668 126.277 100.955 121.487 100.955C114.362 100.955 104.514 106.838 104.132 109.641C104.132 109.78 104.132 109.91 104.123 110.049C103.915 114.657 100.114 118.319 95.4543 118.319Z" fill="#DEDEE1"/>
<path d="M501.355 120.459H501.19C503.324 126.638 501.355 131.41 501.355 131.41C458.922 182.043 8.68347 147.828 8.68347 147.828V199.589C8.68347 199.589 217.984 204.171 353.551 208.267C436.047 210.758 478.897 191.858 499.836 176.785C511.325 168.515 514.692 153.39 509.867 140.34L501.355 120.459Z" fill="#ACAAAF"/>
<path d="M381.811 156.982C442.084 153.684 489.012 146.144 501.343 131.41C501.343 131.41 519.14 88.985 391.868 93.0898L381.811 156.201V156.982ZM216.93 60.7497C215.358 60.7504 213.816 60.3212 212.471 59.5087C211.494 58.9223 210.642 58.1491 209.964 57.2332C209.286 56.3173 208.795 55.2768 208.519 54.1712C208.244 53.0655 208.189 51.9164 208.357 50.7894C208.526 49.6625 208.915 48.5798 209.503 47.6034L235.535 4.21597C237.991 0.103208 243.328 -1.23372 247.441 1.24814C248.418 1.83456 249.269 2.6078 249.947 3.52365C250.625 4.43951 251.116 5.48002 251.392 6.58569C251.668 7.69136 251.723 8.8405 251.554 9.96745C251.385 11.0944 250.996 12.177 250.408 13.1534L224.376 56.5409C223.605 57.8268 222.514 58.8907 221.209 59.6284C219.904 60.3661 218.429 60.7525 216.93 60.7497ZM251.64 78.1046C250.068 78.1053 248.526 77.6762 247.181 76.8637C246.204 76.2773 245.352 75.504 244.674 74.5882C243.996 73.6723 243.505 72.6318 243.229 71.5262C242.954 70.4205 242.899 69.2713 243.067 68.1444C243.236 67.0175 243.625 65.9348 244.213 64.9584L270.245 21.571C270.83 20.5927 271.603 19.7397 272.519 19.0608C273.435 18.3819 274.475 17.8905 275.582 17.6147C276.688 17.339 277.837 17.2844 278.965 17.454C280.092 17.6236 281.175 18.0141 282.151 18.6031C283.128 19.1895 283.979 19.9628 284.657 20.8786C285.335 21.7945 285.826 22.835 286.102 23.9407C286.378 25.0463 286.433 26.1955 286.264 27.3224C286.095 28.4494 285.706 29.532 285.118 30.5084L259.086 73.8959C258.315 75.1817 257.224 76.2455 255.919 76.9832C254.614 77.721 253.139 78.1073 251.64 78.1046ZM286.35 95.4596C284.778 95.4603 283.236 95.0312 281.891 94.2187C280.914 93.6323 280.062 92.859 279.384 91.9432C278.706 91.0273 278.215 89.9868 277.939 88.8811C277.664 87.7755 277.609 86.6263 277.777 85.4994C277.946 84.3724 278.335 83.2898 278.923 82.3134L304.955 38.9259C307.411 34.8212 312.748 33.4853 316.86 35.9581C317.838 36.5445 318.689 37.3178 319.367 38.2336C320.045 39.1495 320.536 40.19 320.812 41.2957C321.087 42.4013 321.142 43.5505 320.974 44.6774C320.805 45.8044 320.416 46.887 319.828 47.8634L293.796 91.2509C293.025 92.5367 291.934 93.6005 290.629 94.3382C289.324 95.0759 287.849 95.4623 286.35 95.4596ZM321.06 112.815C319.488 112.815 317.946 112.386 316.6 111.574C315.623 110.987 314.772 110.214 314.094 109.298C313.416 108.382 312.925 107.342 312.649 106.236C312.373 105.13 312.318 103.981 312.487 102.854C312.656 101.727 313.045 100.645 313.633 99.6684L339.665 56.2809C342.13 52.1681 347.449 50.8402 351.57 53.3131C352.547 53.8995 353.399 54.6728 354.077 55.5886C354.755 56.5045 355.246 57.545 355.522 58.6506C355.797 59.7563 355.852 60.9055 355.684 62.0324C355.515 63.1593 355.126 64.242 354.538 65.2184L328.506 108.606C327.735 109.892 326.644 110.955 325.339 111.693C324.034 112.431 322.559 112.817 321.06 112.815Z" fill="#DEDEE1"/>
</svg>
