<svg xmlns="http://www.w3.org/2000/svg" xmlns:xlink="http://www.w3.org/1999/xlink" width="400" zoomAndPan="magnify" viewBox="0 0 300 299.999988" height="400" preserveAspectRatio="xMidYMid meet" version="1.0"><defs><clipPath id="e41bd81d58"><path d="M 146 145.214844 L 155 145.214844 L 155 148 L 146 148 Z M 146 145.214844 " clip-rule="nonzero"/></clipPath><clipPath id="a8d815fb35"><path d="M 134.097656 146 L 166.347656 146 L 166.347656 173.714844 L 134.097656 173.714844 Z M 134.097656 146 " clip-rule="nonzero"/></clipPath><clipPath id="e2ed5d2de7"><path d="M 135 145.214844 L 166 145.214844 L 166 173 L 135 173 Z M 135 145.214844 " clip-rule="nonzero"/></clipPath><clipPath id="1d5f70b381"><path d="M 50.527344 32 L 248 32 L 248 263.25 L 50.527344 263.25 Z M 50.527344 32 " clip-rule="nonzero"/></clipPath></defs><g clip-path="url(#e41bd81d58)"><path fill="#ddbaba" d="M 146.785156 146.074219 C 146.703125 145.878906 146.664062 145.644531 146.824219 145.527344 C 146.863281 145.488281 146.941406 145.488281 146.984375 145.488281 C 147.738281 145.410156 148.53125 145.332031 149.289062 145.292969 C 149.683594 145.253906 150.082031 145.253906 150.480469 145.253906 C 151.394531 145.214844 152.265625 145.253906 153.140625 145.371094 C 153.378906 145.410156 153.617188 145.449219 153.855469 145.527344 C 153.9375 145.566406 153.976562 145.566406 154.015625 145.644531 C 154.054688 145.722656 154.09375 145.800781 154.09375 145.878906 C 154.132812 146.074219 154.132812 146.304688 154.015625 146.460938 C 153.894531 146.578125 153.777344 146.695312 153.699219 146.851562 C 153.417969 147.203125 152.863281 147.125 152.464844 147.164062 C 151.949219 147.203125 151.394531 147.242188 150.875 147.28125 C 149.804688 147.320312 148.730469 147.320312 147.65625 147.242188 C 147.222656 147.164062 146.941406 146.421875 146.785156 146.074219 Z M 146.785156 146.074219 " fill-opacity="1" fill-rule="nonzero"/></g><g clip-path="url(#a8d815fb35)"><path fill="#ffe3e3" d="M 165.894531 171.652344 C 165.816406 171.769531 165.695312 171.886719 165.578125 172.003906 C 165.457031 172.121094 165.339844 172.199219 165.21875 172.277344 C 164.742188 172.625 164.148438 172.898438 163.671875 173.09375 C 163.113281 173.328125 162.519531 173.523438 161.921875 173.597656 C 161.761719 173.597656 160.09375 173.714844 160.09375 173.636719 C 160.332031 172.507812 160.53125 171.339844 160.292969 170.210938 C 160.253906 170.019531 160.214844 169.824219 160.132812 169.628906 C 160.09375 169.511719 160.054688 169.394531 160.015625 169.277344 C 159.933594 169.042969 159.816406 168.8125 159.738281 168.539062 C 159.65625 168.34375 159.617188 168.148438 159.539062 167.914062 C 159.417969 167.449219 159.300781 166.941406 159.21875 166.472656 C 159.417969 167.566406 159.339844 169.042969 159.261719 170.132812 C 159.261719 170.289062 159.21875 170.445312 159.101562 170.523438 C 158.980469 170.601562 158.824219 170.601562 158.664062 170.601562 C 154.414062 170.25 150.160156 169.746094 145.949219 170.484375 C 144.875 170.679688 143.804688 170.953125 142.691406 170.992188 C 142.253906 170.992188 141.777344 170.992188 141.460938 170.679688 C 140.941406 170.171875 141.300781 169.394531 141.300781 168.773438 C 141.261719 168.148438 140.984375 167.566406 141.101562 166.941406 C 141.023438 167.332031 140.941406 167.71875 140.824219 168.109375 C 140.785156 168.265625 140.746094 168.382812 140.703125 168.5 C 140.546875 168.886719 140.386719 169.277344 140.269531 169.707031 C 140.226562 169.863281 140.1875 170.019531 140.148438 170.171875 C 140.148438 170.210938 140.148438 170.25 140.148438 170.289062 C 139.949219 171.378906 140.148438 172.507812 140.347656 173.597656 C 140.347656 173.675781 138.679688 173.5625 138.519531 173.5625 C 137.921875 173.484375 137.328125 173.289062 136.769531 173.054688 C 136.292969 172.859375 135.816406 172.625 135.339844 172.316406 C 135.222656 172.238281 135.140625 172.160156 135.023438 172.082031 C 134.824219 171.925781 134.664062 171.769531 134.546875 171.613281 C 134.230469 171.1875 134.230469 170.914062 134.507812 170.484375 C 134.863281 169.824219 135.222656 169.199219 135.5 168.5 C 135.621094 168.1875 135.699219 167.914062 135.816406 167.605469 C 135.859375 167.488281 135.898438 167.371094 135.9375 167.214844 C 136.175781 166.4375 136.375 165.617188 136.53125 164.800781 C 137.289062 161.453125 138.121094 158.105469 138.996094 154.792969 C 139.15625 154.171875 139.3125 153.546875 139.511719 152.964844 C 139.792969 152.261719 140.070312 151.679688 140.507812 151.132812 C 140.546875 151.054688 140.625 150.941406 140.703125 150.863281 C 140.941406 150.589844 141.222656 150.316406 141.5 150.082031 C 141.898438 149.65625 142.453125 149.34375 142.890625 149.03125 C 143.722656 148.410156 144.597656 147.824219 145.511719 147.320312 C 145.632812 147.242188 145.75 147.164062 145.871094 147.085938 C 146.902344 146.460938 148.375 146.65625 149.527344 146.617188 C 150.917969 146.578125 152.308594 146.5 153.65625 146.460938 C 154.015625 146.460938 154.492188 146.96875 154.808594 147.164062 C 155.246094 147.472656 155.683594 147.824219 156.160156 148.097656 C 157.074219 148.605469 157.910156 149.1875 158.664062 149.886719 C 158.703125 149.925781 158.742188 149.964844 158.78125 150.003906 C 159.179688 150.316406 159.5 150.628906 159.777344 150.980469 C 159.855469 151.09375 159.933594 151.171875 160.015625 151.289062 C 160.371094 151.757812 160.652344 152.300781 160.847656 152.964844 C 161.085938 153.585938 161.246094 154.171875 161.367188 154.792969 C 162.199219 158.144531 163.035156 161.453125 163.828125 164.800781 C 163.988281 165.539062 164.1875 166.320312 164.386719 167.058594 C 164.425781 167.214844 164.464844 167.371094 164.503906 167.488281 C 164.625 167.835938 164.703125 168.148438 164.863281 168.5 C 165.140625 169.199219 165.496094 169.863281 165.855469 170.484375 C 166.171875 170.953125 166.214844 171.222656 165.894531 171.652344 Z M 165.894531 171.652344 " fill-opacity="1" fill-rule="nonzero"/></g><g clip-path="url(#e2ed5d2de7)"><path fill="#ddbaba" d="M 154.652344 146.578125 C 154.53125 146.304688 154.414062 146.035156 154.214844 145.800781 C 154.175781 145.722656 154.09375 145.644531 154.015625 145.566406 C 153.9375 145.527344 153.816406 145.449219 153.738281 145.488281 C 153.738281 145.722656 153.617188 145.917969 153.578125 146.152344 C 153.578125 146.269531 153.539062 146.382812 153.539062 146.5 C 153.539062 146.617188 153.5 146.695312 153.5 146.773438 C 153.179688 148.253906 152.1875 149.734375 150.597656 150.042969 C 150.519531 150.042969 150.4375 150.042969 150.398438 150.042969 C 150.28125 150.042969 150.199219 150.042969 150.082031 150.042969 C 150.042969 150.042969 150.003906 150.042969 149.921875 150.042969 C 149.960938 150.042969 149.921875 150.042969 149.921875 150.042969 C 149.921875 150.042969 149.921875 150.042969 149.882812 150.042969 C 149.84375 150.003906 149.84375 150.003906 149.804688 149.964844 C 149.644531 149.847656 149.40625 149.773438 149.246094 149.65625 C 149.046875 149.539062 148.851562 149.382812 148.691406 149.226562 C 148.332031 148.914062 148.054688 148.527344 147.816406 148.136719 C 147.617188 147.785156 147.460938 147.4375 147.339844 147.085938 C 147.222656 146.734375 147.222656 146.460938 147.179688 146.113281 C 147.140625 145.878906 147.023438 145.683594 147.023438 145.449219 C 146.902344 145.449219 146.824219 145.488281 146.746094 145.527344 C 146.664062 145.605469 146.585938 145.683594 146.546875 145.761719 C 146.347656 145.996094 146.226562 146.269531 146.109375 146.539062 C 146.027344 146.695312 145.949219 146.890625 145.949219 147.085938 C 145.871094 147.550781 145.871094 148.058594 146.109375 148.488281 C 146.425781 149.148438 147.023438 149.578125 147.65625 149.886719 C 147.699219 149.886719 147.699219 149.925781 147.738281 149.925781 C 147.777344 149.925781 147.816406 149.925781 147.855469 149.925781 C 148.09375 149.886719 148.332031 149.734375 148.53125 149.8125 C 148.769531 149.925781 149.046875 150.082031 149.289062 150.238281 C 149.328125 150.277344 149.367188 150.277344 149.40625 150.316406 C 149.445312 150.355469 149.40625 150.433594 149.40625 150.511719 C 149.128906 151.289062 148.769531 152.109375 148.53125 152.925781 C 148.53125 152.964844 148.492188 153.042969 148.492188 153.082031 C 148.492188 153.121094 148.53125 153.199219 148.53125 153.238281 C 148.730469 153.742188 148.890625 154.25 149.167969 154.714844 C 149.167969 154.753906 149.207031 154.753906 149.207031 154.792969 C 148.929688 155.222656 148.652344 155.652344 148.492188 156.117188 C 148.492188 156.15625 148.570312 156.195312 148.570312 156.15625 C 148.730469 155.804688 148.929688 155.496094 149.128906 155.183594 C 149.167969 155.105469 149.246094 155.066406 149.289062 154.988281 C 149.484375 155.378906 149.683594 155.730469 149.804688 156.15625 C 149.84375 156.3125 150.121094 156.390625 150.199219 156.195312 C 150.398438 155.691406 150.636719 155.183594 150.917969 154.675781 C 150.957031 154.871094 151.035156 155.105469 151.113281 155.300781 C 151.273438 155.652344 151.472656 155.960938 151.871094 156 C 152.027344 156 152.070312 155.769531 151.910156 155.730469 C 151.511719 155.613281 151.351562 155.027344 151.273438 154.714844 C 151.234375 154.523438 151.195312 154.367188 151.15625 154.171875 C 151.273438 153.976562 151.351562 153.742188 151.472656 153.546875 C 151.511719 153.507812 151.511719 153.429688 151.550781 153.394531 C 151.550781 153.316406 151.550781 153.238281 151.550781 153.160156 C 151.472656 152.847656 151.394531 152.496094 151.3125 152.1875 C 151.351562 152.1875 151.433594 152.222656 151.472656 152.222656 C 151.828125 152.261719 152.347656 151.953125 152.347656 151.5625 C 152.347656 151.171875 151.871094 150.902344 151.550781 150.785156 C 151.351562 150.707031 151.15625 150.628906 150.957031 150.589844 C 150.957031 150.550781 150.996094 150.472656 151.035156 150.433594 C 151.234375 150.238281 151.671875 150.121094 151.910156 150.003906 C 151.988281 149.964844 152.148438 149.847656 152.265625 149.8125 C 152.347656 149.8125 152.464844 149.886719 152.546875 149.925781 C 152.703125 149.964844 152.863281 150.042969 153.023438 150.003906 C 153.179688 149.964844 153.300781 149.847656 153.417969 149.773438 C 153.578125 149.65625 153.777344 149.539062 153.9375 149.382812 C 154.253906 149.109375 154.53125 148.796875 154.691406 148.449219 C 154.890625 148.019531 154.929688 147.589844 154.851562 147.164062 C 154.808594 146.96875 154.769531 146.773438 154.652344 146.578125 Z M 149.683594 151.953125 C 149.722656 151.640625 149.804688 151.328125 149.882812 150.980469 C 149.882812 151.019531 149.921875 151.054688 149.921875 151.09375 C 150.003906 151.289062 150.121094 151.445312 150.160156 151.679688 C 150.199219 151.914062 150.199219 152.148438 150.160156 152.378906 C 150.121094 152.574219 150.082031 152.769531 149.960938 152.925781 C 149.765625 153.160156 149.683594 152.808594 149.644531 152.652344 C 149.605469 152.417969 149.644531 152.1875 149.683594 151.953125 Z M 149.445312 154.40625 C 149.328125 154.210938 149.207031 154.015625 149.128906 153.820312 C 149.046875 153.703125 149.007812 153.585938 148.96875 153.429688 C 148.96875 153.316406 148.96875 153.199219 149.007812 153.082031 C 149.089844 152.691406 149.207031 152.339844 149.367188 151.953125 C 149.328125 152.300781 149.289062 152.730469 149.484375 153.042969 C 149.566406 153.199219 149.765625 153.316406 149.921875 153.277344 C 150.003906 153.277344 150.082031 153.199219 150.160156 153.160156 C 150.160156 153.199219 150.121094 153.277344 150.121094 153.316406 C 149.960938 153.664062 149.804688 154.015625 149.566406 154.328125 C 149.484375 154.367188 149.445312 154.40625 149.445312 154.40625 Z M 150.757812 154.09375 C 150.558594 154.597656 150.320312 155.105469 150.042969 155.613281 C 150.082031 155.535156 149.882812 155.222656 149.84375 155.144531 C 149.765625 154.988281 149.683594 154.832031 149.605469 154.675781 C 149.605469 154.675781 149.605469 154.636719 149.566406 154.636719 C 149.644531 154.523438 149.765625 154.40625 149.84375 154.289062 C 150.042969 154.015625 150.199219 153.664062 150.359375 153.316406 C 150.480469 153.082031 150.519531 152.808594 150.558594 152.574219 C 150.636719 153.042969 150.679688 153.507812 150.757812 153.9375 C 150.757812 154.015625 150.757812 154.054688 150.757812 154.09375 Z M 151.910156 151.484375 C 151.988281 151.601562 151.988281 151.679688 151.910156 151.757812 C 151.828125 151.875 151.671875 151.953125 151.550781 151.953125 C 151.433594 151.953125 151.351562 151.875 151.234375 151.835938 C 151.195312 151.640625 151.15625 151.40625 151.074219 151.210938 C 151.074219 151.171875 151.074219 151.132812 151.035156 151.132812 C 151.351562 151.171875 151.710938 151.25 151.910156 151.484375 Z M 141.777344 159.386719 C 141.855469 160.710938 141.9375 162.074219 141.855469 163.4375 C 141.855469 163.867188 141.816406 164.253906 141.777344 164.683594 C 141.699219 165.5 141.617188 166.320312 141.460938 167.136719 C 141.378906 167.566406 141.261719 168.03125 141.183594 168.460938 C 141.183594 167.992188 141.140625 167.527344 141.140625 167.058594 C 141.0625 167.449219 140.984375 167.835938 140.863281 168.226562 C 140.902344 167.679688 141.023438 167.136719 141.140625 166.550781 C 141.261719 166.007812 141.339844 165.460938 141.421875 164.917969 C 141.578125 163.242188 141.578125 161.53125 141.460938 159.855469 C 141.378906 158.648438 141.261719 157.480469 141.140625 156.273438 C 141.101562 155.769531 141.023438 155.222656 140.984375 154.714844 C 140.863281 153.546875 140.785156 152.339844 140.507812 151.171875 C 140.546875 151.09375 140.625 150.980469 140.703125 150.902344 C 140.941406 151.601562 141.101562 152.300781 141.183594 153.042969 C 141.183594 153.042969 141.183594 153.082031 141.183594 153.082031 C 141.222656 153.429688 141.261719 153.820312 141.300781 154.210938 C 141.5 155.882812 141.660156 157.636719 141.777344 159.386719 Z M 159.539062 167.992188 C 159.417969 167.527344 159.300781 167.019531 159.21875 166.550781 C 159.339844 167.136719 159.339844 167.757812 159.261719 168.382812 C 159.261719 168.34375 159.261719 168.304688 159.261719 168.265625 C 159.179688 167.71875 159.101562 167.175781 159.0625 166.628906 C 159.023438 166.046875 159.023438 165.421875 159.023438 164.839844 L 159.023438 164.449219 C 159.023438 163.710938 159.0625 163.007812 159.0625 162.308594 C 159.101562 161.414062 159.140625 160.480469 159.179688 159.582031 C 159.300781 156.703125 159.140625 153.78125 159.816406 150.980469 C 159.894531 151.09375 159.976562 151.171875 160.054688 151.289062 C 159.617188 154.054688 159.5 156.898438 159.417969 159.660156 C 159.378906 161.257812 159.339844 162.855469 159.300781 164.449219 C 159.300781 165.230469 159.300781 165.96875 159.339844 166.746094 C 159.339844 167.058594 159.417969 167.332031 159.417969 167.644531 C 159.5 167.757812 159.539062 167.875 159.539062 167.992188 Z M 140.109375 169.746094 C 140.1875 169.785156 140.226562 169.824219 140.308594 169.824219 C 140.269531 169.980469 140.226562 170.132812 140.1875 170.289062 C 140.1875 170.328125 140.1875 170.367188 140.1875 170.40625 C 139.871094 170.328125 139.511719 170.09375 139.273438 169.941406 C 138.835938 169.707031 138.441406 169.472656 138.042969 169.199219 C 137.644531 168.964844 137.289062 168.695312 136.929688 168.421875 C 136.851562 168.773438 136.691406 169.121094 136.53125 169.472656 C 136.375 169.902344 136.214844 170.289062 136.054688 170.71875 C 135.859375 171.261719 135.660156 171.847656 135.421875 172.394531 C 135.300781 172.316406 135.222656 172.238281 135.101562 172.160156 C 135.300781 171.613281 135.5 171.109375 135.699219 170.5625 C 135.859375 170.171875 136.015625 169.785156 136.136719 169.394531 C 136.292969 169.003906 136.414062 168.578125 136.652344 168.226562 C 136.375 168.03125 136.136719 167.835938 135.898438 167.605469 C 135.9375 167.488281 135.976562 167.371094 136.015625 167.214844 C 136.769531 167.71875 137.527344 168.1875 138.320312 168.65625 C 138.71875 168.886719 139.15625 169.121094 139.59375 169.355469 C 139.710938 169.511719 139.910156 169.628906 140.109375 169.746094 Z M 165.578125 172.003906 C 165.457031 172.121094 165.339844 172.199219 165.21875 172.277344 C 165.140625 172.121094 165.0625 171.964844 164.980469 171.808594 C 164.78125 171.417969 164.585938 171.03125 164.34375 170.640625 C 164.105469 170.25 163.867188 169.863281 163.628906 169.433594 C 163.511719 169.238281 163.390625 169.003906 163.273438 168.8125 C 163.195312 168.65625 163.113281 168.5 163.035156 168.34375 C 162.082031 168.847656 161.128906 169.316406 160.132812 169.628906 C 160.09375 169.511719 160.054688 169.394531 160.015625 169.277344 C 161.046875 168.773438 162.121094 168.34375 163.152344 167.796875 C 163.628906 167.566406 164.066406 167.292969 164.503906 167.019531 C 164.542969 167.175781 164.585938 167.332031 164.625 167.449219 C 164.226562 167.679688 163.828125 167.914062 163.433594 168.148438 C 163.550781 168.304688 163.628906 168.460938 163.75 168.617188 C 163.867188 168.8125 164.027344 169.042969 164.148438 169.238281 C 164.386719 169.628906 164.625 170.019531 164.863281 170.445312 C 165.101562 170.835938 165.339844 171.222656 165.496094 171.652344 C 165.496094 171.808594 165.539062 171.925781 165.578125 172.003906 Z M 165.578125 172.003906 " fill-opacity="1" fill-rule="nonzero"/></g><path fill="#ffffff" d="M 150.679688 149.070312 C 150.597656 149.148438 150.398438 149.1875 150.28125 149.1875 C 150.160156 149.1875 150.003906 149.1875 149.882812 149.148438 C 149.605469 149.109375 149.367188 148.992188 149.128906 148.835938 C 148.890625 148.679688 148.730469 148.449219 148.570312 148.214844 C 148.375 147.941406 148.175781 147.667969 147.976562 147.398438 C 147.9375 147.320312 148.015625 147.242188 148.09375 147.320312 C 148.292969 147.550781 148.492188 147.785156 148.691406 148.019531 C 148.851562 148.214844 149.007812 148.410156 149.207031 148.605469 C 149.40625 148.757812 149.644531 148.875 149.882812 148.914062 C 150.003906 148.953125 150.121094 148.914062 150.28125 148.914062 C 150.398438 148.914062 150.519531 148.875 150.636719 148.875 C 150.71875 148.914062 150.71875 149.03125 150.679688 149.070312 Z M 151.433594 148.566406 C 151.394531 148.566406 151.394531 148.566406 151.394531 148.605469 C 151.394531 148.605469 151.394531 148.605469 151.351562 148.605469 C 151.351562 148.605469 151.3125 148.605469 151.3125 148.644531 C 151.3125 148.644531 151.273438 148.679688 151.273438 148.679688 C 151.273438 148.679688 151.234375 148.679688 151.234375 148.679688 C 151.234375 148.679688 151.234375 148.679688 151.195312 148.679688 C 151.15625 148.679688 151.113281 148.679688 151.113281 148.71875 C 151.074219 148.757812 151.074219 148.796875 151.074219 148.796875 C 151.074219 148.835938 151.074219 148.835938 151.113281 148.875 C 151.15625 148.914062 151.195312 148.914062 151.234375 148.914062 C 151.3125 148.914062 151.351562 148.875 151.394531 148.835938 C 151.394531 148.835938 151.433594 148.796875 151.433594 148.796875 C 151.433594 148.796875 151.433594 148.796875 151.472656 148.757812 C 151.472656 148.757812 151.472656 148.71875 151.472656 148.71875 C 151.472656 148.71875 151.472656 148.679688 151.472656 148.679688 C 151.511719 148.644531 151.472656 148.605469 151.433594 148.566406 Z M 146.785156 148.136719 C 146.746094 148.097656 146.746094 148.019531 146.703125 147.980469 C 146.664062 147.863281 146.625 147.746094 146.585938 147.628906 C 146.546875 147.398438 146.503906 147.125 146.546875 146.851562 C 146.546875 146.734375 146.386719 146.734375 146.347656 146.8125 C 146.308594 147.085938 146.308594 147.398438 146.347656 147.667969 C 146.386719 147.824219 146.425781 147.941406 146.464844 148.058594 C 146.503906 148.136719 146.503906 148.175781 146.546875 148.253906 C 146.585938 148.332031 146.625 148.371094 146.664062 148.410156 C 146.746094 148.488281 146.824219 148.371094 146.785156 148.292969 C 146.863281 148.292969 146.824219 148.214844 146.785156 148.136719 Z M 144.480469 149.226562 C 144.398438 149.226562 144.359375 149.304688 144.28125 149.34375 C 144.203125 149.382812 144.160156 149.460938 144.121094 149.5 C 144.003906 149.617188 143.882812 149.695312 143.765625 149.8125 C 143.644531 149.886719 143.527344 150.003906 143.40625 150.082031 C 143.328125 150.121094 143.289062 150.160156 143.246094 150.238281 C 143.207031 150.277344 143.128906 150.355469 143.089844 150.394531 C 143.050781 150.433594 143.128906 150.511719 143.167969 150.511719 C 143.246094 150.511719 143.289062 150.433594 143.367188 150.394531 C 143.445312 150.355469 143.527344 150.316406 143.566406 150.277344 C 143.683594 150.199219 143.804688 150.082031 143.921875 149.964844 C 144.042969 149.847656 144.160156 149.773438 144.28125 149.65625 C 144.359375 149.617188 144.398438 149.539062 144.441406 149.5 C 144.480469 149.421875 144.558594 149.382812 144.558594 149.304688 C 144.558594 149.226562 144.519531 149.1875 144.480469 149.226562 Z M 142.492188 151.019531 C 142.453125 151.09375 142.375 151.171875 142.332031 151.210938 L 142.253906 151.328125 C 142.214844 151.367188 142.214844 151.40625 142.175781 151.445312 C 142.175781 151.484375 142.175781 151.523438 142.175781 151.523438 C 142.214844 151.5625 142.253906 151.523438 142.292969 151.523438 C 142.332031 151.484375 142.375 151.484375 142.375 151.445312 C 142.414062 151.40625 142.414062 151.367188 142.453125 151.367188 C 142.492188 151.289062 142.574219 151.25 142.613281 151.171875 C 142.652344 151.132812 142.652344 151.054688 142.613281 151.019531 C 142.574219 150.980469 142.53125 150.980469 142.492188 151.019531 Z M 139.871094 155.535156 C 139.472656 156.78125 139.117188 158.066406 138.796875 159.347656 C 138.640625 159.972656 138.480469 160.632812 138.320312 161.257812 C 138.242188 161.570312 138.160156 161.878906 138.121094 162.191406 C 138.042969 162.503906 137.964844 162.816406 137.921875 163.164062 C 137.921875 163.242188 138.042969 163.242188 138.042969 163.164062 C 138.160156 162.855469 138.203125 162.542969 138.28125 162.230469 C 138.359375 161.917969 138.441406 161.570312 138.519531 161.257812 C 138.679688 160.632812 138.835938 159.972656 138.996094 159.347656 C 139.3125 158.066406 139.632812 156.820312 139.988281 155.535156 C 139.988281 155.496094 139.871094 155.457031 139.871094 155.535156 Z M 137.605469 164.0625 C 137.566406 164.214844 137.527344 164.371094 137.488281 164.527344 C 137.445312 164.605469 137.445312 164.644531 137.40625 164.722656 C 137.367188 164.800781 137.328125 164.878906 137.289062 164.957031 C 137.25 165.035156 137.367188 165.035156 137.40625 165.035156 C 137.488281 164.996094 137.527344 164.917969 137.566406 164.839844 C 137.605469 164.761719 137.644531 164.683594 137.683594 164.605469 C 137.765625 164.449219 137.765625 164.292969 137.804688 164.136719 C 137.804688 163.984375 137.605469 163.945312 137.605469 164.0625 Z M 143.40625 157.871094 C 143.40625 157.753906 143.246094 157.753906 143.246094 157.871094 C 143.246094 159.195312 143.328125 160.519531 143.328125 161.839844 C 143.328125 162.503906 143.367188 163.125 143.367188 163.789062 C 143.367188 164.136719 143.367188 164.449219 143.367188 164.800781 C 143.367188 165.113281 143.367188 165.421875 143.40625 165.734375 C 143.40625 165.8125 143.566406 165.8125 143.566406 165.734375 C 143.605469 165.421875 143.605469 165.152344 143.605469 164.839844 C 143.605469 164.488281 143.605469 164.175781 143.605469 163.828125 C 143.605469 163.164062 143.605469 162.503906 143.566406 161.839844 C 143.605469 160.480469 143.527344 159.15625 143.40625 157.871094 Z M 143.445312 167.058594 C 143.367188 167.058594 143.328125 167.097656 143.328125 167.175781 C 143.328125 167.332031 143.289062 167.449219 143.289062 167.605469 C 143.289062 167.679688 143.289062 167.71875 143.289062 167.796875 C 143.289062 167.835938 143.289062 167.875 143.289062 167.914062 C 143.289062 167.953125 143.289062 167.992188 143.328125 168.03125 C 143.367188 168.070312 143.445312 168.109375 143.484375 168.03125 C 143.484375 167.992188 143.527344 167.992188 143.527344 167.953125 C 143.527344 167.953125 143.527344 167.914062 143.527344 167.914062 C 143.527344 167.875 143.527344 167.835938 143.527344 167.796875 C 143.527344 167.71875 143.566406 167.644531 143.566406 167.566406 C 143.566406 167.410156 143.605469 167.292969 143.605469 167.136719 C 143.566406 167.136719 143.527344 167.058594 143.445312 167.058594 Z M 160.808594 165.734375 C 160.652344 165.074219 160.652344 164.371094 160.730469 163.671875 C 160.769531 162.929688 160.808594 162.230469 160.847656 161.492188 C 160.890625 160.011719 160.847656 158.570312 160.808594 157.089844 C 160.808594 156.972656 160.652344 156.972656 160.652344 157.089844 C 160.609375 158.609375 160.652344 160.089844 160.570312 161.609375 C 160.53125 162.347656 160.492188 163.046875 160.453125 163.789062 C 160.414062 164.488281 160.371094 165.152344 160.652344 165.8125 C 160.691406 165.851562 160.847656 165.8125 160.808594 165.734375 Z M 161.207031 167.214844 C 161.246094 167.214844 161.246094 167.175781 161.246094 167.136719 C 161.246094 167.097656 161.246094 167.097656 161.246094 167.058594 C 161.246094 167.058594 161.246094 167.019531 161.207031 167.019531 C 161.207031 166.980469 161.167969 166.941406 161.167969 166.941406 C 161.128906 166.863281 161.128906 166.824219 161.085938 166.746094 C 161.046875 166.628906 161.007812 166.472656 160.96875 166.320312 C 160.96875 166.28125 160.890625 166.242188 160.847656 166.242188 C 160.769531 166.242188 160.769531 166.320312 160.769531 166.359375 C 160.808594 166.511719 160.808594 166.628906 160.890625 166.785156 C 160.929688 166.863281 160.929688 166.941406 160.96875 167.019531 C 161.007812 167.097656 161.046875 167.175781 161.085938 167.214844 C 161.128906 167.214844 161.167969 167.214844 161.207031 167.214844 Z M 161.445312 171.1875 C 161.445312 170.875 161.40625 170.5625 161.324219 170.210938 C 161.285156 170.09375 161.085938 170.132812 161.128906 170.25 C 161.167969 170.5625 161.167969 170.875 161.167969 171.1875 C 161.167969 171.339844 161.167969 171.496094 161.167969 171.652344 C 161.167969 171.808594 161.167969 171.964844 161.207031 172.121094 C 161.207031 172.199219 161.324219 172.199219 161.367188 172.121094 C 161.40625 172.042969 161.40625 171.964844 161.40625 171.886719 C 161.40625 171.808594 161.445312 171.730469 161.445312 171.652344 C 161.445312 171.496094 161.445312 171.339844 161.445312 171.1875 Z M 161.445312 171.1875 " fill-opacity="1" fill-rule="nonzero"/><path fill="#e4e8eb" d="M 192.242188 97.167969 C 190.292969 96.832031 188.375 96.105469 186.609375 94.96875 C 179.535156 90.414062 177.484375 80.984375 182.035156 73.90625 C 185.585938 68.378906 192.121094 65.914062 198.179688 67.273438 L 198.320312 66.902344 C 194.8125 57.515625 199.285156 46.945312 208.589844 42.980469 C 218.164062 38.90625 229.222656 43.367188 233.296875 52.941406 C 235.335938 57.726562 235.238281 62.886719 233.4375 67.359375 L 233.242188 67.851562 C 236.34375 69.414062 238.925781 72.039062 240.390625 75.488281 C 243.292969 82.304688 240.84375 90.058594 234.933594 94.0625 L 232.097656 91.570312 C 236.285156 101.414062 231.703125 112.785156 221.867188 116.976562 C 212.027344 121.164062 200.664062 116.578125 196.476562 106.738281 C 195.304688 103.984375 194.820312 101.117188 194.945312 98.316406 Z M 192.242188 97.167969 " fill-opacity="1" fill-rule="nonzero"/><path fill="#cad0d7" d="M 195.46875 103.691406 C 195.714844 104.71875 196.050781 105.742188 196.476562 106.742188 C 200.664062 116.589844 212.027344 121.167969 221.867188 116.980469 C 231.707031 112.789062 236.285156 101.421875 232.097656 91.574219 L 234.933594 94.066406 C 240.84375 90.058594 243.292969 82.308594 240.390625 75.492188 C 239.546875 73.503906 238.320312 71.796875 236.84375 70.402344 L 222.441406 77.949219 C 220.03125 79.210938 218.519531 81.707031 218.519531 84.429688 L 218.519531 91.738281 C 218.519531 95.027344 216.328125 97.910156 213.15625 98.789062 Z M 195.46875 103.691406 " fill-opacity="1" fill-rule="nonzero"/><path fill="#e4e8eb" d="M 197.480469 211.988281 L 214.089844 208.242188 L 120.167969 35.257812 L 110.199219 51.242188 " fill-opacity="1" fill-rule="nonzero"/><path fill="#cad0d7" d="M 199.332031 181.0625 L 192.453125 181.121094 C 187.367188 181.167969 184.132812 186.578125 186.496094 191.078125 L 197.472656 211.984375 L 214.085938 208.242188 Z M 199.332031 181.0625 " fill-opacity="1" fill-rule="nonzero"/><path fill="#51a6c0" d="M 193.058594 218.78125 L 197.480469 211.988281 L 110.199219 51.242188 L 105.550781 58.179688 C 67.320312 115.203125 63.898438 188.746094 96.652344 249.082031 L 102.152344 259.207031 L 195.558594 259.207031 L 191.714844 252.113281 C 186.015625 241.597656 186.535156 228.804688 193.058594 218.78125 Z M 150.09375 231.054688 L 117.597656 231.378906 L 108.195312 214.066406 C 93.175781 186.402344 90.769531 153.625 101.582031 124.0625 L 103.378906 119.160156 L 154.679688 213.640625 Z M 150.09375 231.054688 " fill-opacity="1" fill-rule="nonzero"/><path fill="#3a8fa3" d="M 102.152344 259.207031 L 195.558594 259.207031 L 191.714844 252.113281 C 186.015625 241.597656 186.535156 228.804688 193.058594 218.777344 L 197.480469 211.984375 L 180.964844 181.574219 L 171.636719 190.910156 C 169.066406 193.480469 168.75 197.535156 170.882812 200.476562 L 175.792969 207.242188 C 177.195312 209.164062 177.574219 211.644531 176.828125 213.898438 L 168.496094 239.128906 C 167.5 242.15625 164.671875 244.203125 161.488281 244.203125 L 102.621094 244.203125 C 99.050781 244.203125 96.710938 247.933594 98.261719 251.152344 Z M 102.152344 259.207031 " fill-opacity="1" fill-rule="nonzero"/><path fill="#ffffff" d="M 117.597656 231.378906 L 150.09375 231.054688 L 154.679688 213.640625 L 103.378906 119.160156 L 101.582031 124.0625 C 90.769531 153.625 93.179688 186.410156 108.195312 214.066406 L 117.597656 231.378906 " fill-opacity="1" fill-rule="nonzero"/><path fill="#ee7067" d="M 74.695312 173.339844 L 60.847656 174.746094 L 56.515625 152.648438 L 75.210938 142.488281 " fill-opacity="1" fill-rule="nonzero"/><path fill="#cd5252" d="M 60.847656 174.746094 L 74.695312 173.339844 L 75.210938 142.488281 L 67.175781 146.457031 L 67.175781 161.914062 C 67.175781 164.195312 65.332031 166.042969 63.050781 166.042969 L 59.140625 166.042969 Z M 60.847656 174.746094 " fill-opacity="1" fill-rule="nonzero"/><path fill="#ffffff" d="M 86.664062 132.296875 C 87.734375 133.488281 87.4375 135.183594 86.039062 135.949219 L 85.597656 135.878906 C 84.527344 134.703125 84.816406 132.96875 86.222656 132.21875 C 86.222656 132.21875 86.664062 132.296875 86.664062 132.296875 Z M 86.664062 132.296875 " fill-opacity="1" fill-rule="nonzero"/><path fill="#ffffff" d="M 102.25 84.613281 C 99.730469 91.300781 96.125 100.785156 93.957031 107.484375 C 91.382812 115.164062 89.183594 122.988281 86.945312 130.78125 C 86.945312 130.78125 86.5 130.695312 86.5 130.695312 C 87.605469 119.523438 90.71875 108.496094 94.96875 98.121094 C 96.941406 93.398438 99.175781 88.785156 101.839844 84.414062 Z M 102.25 84.613281 " fill-opacity="1" fill-rule="nonzero"/><path fill="#ee7067" d="M 144.652344 195.179688 L 130.636719 202.796875 L 108.609375 162.226562 L 122.628906 154.609375 " fill-opacity="1" fill-rule="nonzero"/><path fill="#cd5252" d="M 123.015625 188.761719 L 130.636719 202.796875 L 144.652344 195.179688 L 136.898438 180.894531 Z M 123.015625 188.761719 " fill-opacity="1" fill-rule="nonzero"/><path fill="#ffffff" d="M 209.839844 52.59375 C 216.253906 48.085938 226.339844 52.160156 227.835938 59.855469 C 227.835938 59.855469 227.421875 60.03125 227.421875 60.03125 C 223.441406 54.214844 216.914062 51.589844 210.019531 53.015625 C 210.023438 53.015625 209.839844 52.59375 209.839844 52.59375 Z M 209.839844 52.59375 " fill-opacity="1" fill-rule="nonzero"/><g clip-path="url(#1d5f70b381)"><path fill="#000000" d="M 245.757812 73.210938 C 244.0625 69.039062 240.703125 65.742188 236.761719 63.914062 C 237.53125 62.054688 237.992188 60.023438 238.105469 57.925781 C 238.660156 40.375 219.015625 30.042969 204.257812 38.882812 C 196.140625 43.5625 191.855469 53.90625 194.554688 62.527344 C 182.566406 61.527344 172.351562 72.441406 173.9375 84.671875 C 174.511719 90.074219 177.519531 95.019531 181.785156 98.261719 C 176.730469 101.765625 171.746094 105.390625 166.960938 109.253906 C 152.902344 83.714844 138.144531 58.5625 122.53125 33.980469 C 121.566406 32.050781 118.929688 31.953125 117.894531 33.839844 C 117.894531 33.839844 115.695312 38.015625 115.695312 38.015625 C 114.40625 40.519531 113.023438 43.148438 111.6875 45.753906 C 109.402344 45.132812 106.878906 46.003906 105.5 48.082031 C 105.5 48.082031 101.683594 53.832031 101.683594 53.832031 C 100.707031 55.257812 98.78125 58.390625 97.875 59.773438 C 82.433594 84.558594 73.15625 113.054688 70.707031 142.109375 C 70.183594 142.214844 69.664062 142.328125 69.144531 142.445312 C 63.871094 143.675781 58.753906 145.546875 53.867188 147.757812 C 51.570312 148.824219 50.550781 151.199219 51.066406 153.714844 C 51.523438 157.453125 52.1875 161.144531 53.023438 164.808594 C 53.867188 168.464844 54.90625 172.085938 56.1875 175.660156 L 56.671875 177.011719 C 57.351562 178.890625 59.355469 179.984375 61.332031 179.476562 C 64.601562 178.609375 67.871094 177.605469 71.011719 176.28125 C 71.449219 180.5 72.035156 184.710938 72.777344 188.894531 C 76.402344 209.558594 83.597656 229.691406 94.113281 247.859375 C 96.136719 251.414062 99.035156 256.183594 101.171875 259.746094 C 101.289062 259.925781 101.425781 260.050781 101.570312 260.140625 C 101.726562 260.246094 101.921875 260.324219 102.160156 260.34375 C 106.03125 260.5 115.917969 260.941406 119.675781 261.066406 C 135.640625 261.730469 156.070312 262.144531 172.21875 262.691406 L 195.566406 263.230469 C 196.207031 263.246094 196.871094 263.105469 197.472656 262.792969 C 199.484375 261.765625 200.210938 259.246094 199.101562 257.289062 C 198.273438 255.691406 196.328125 251.878906 195.4375 250.179688 C 191.203125 241.984375 191.222656 231.738281 195.746094 223.671875 C 197.074219 221.21875 200.070312 217.089844 201.621094 214.683594 C 202.050781 214.042969 202.304688 213.304688 202.394531 212.539062 C 206.253906 212.066406 210.863281 211.421875 214.6875 210.859375 C 214.910156 210.828125 215.148438 210.761719 215.363281 210.664062 C 216.625 210.089844 217.191406 208.601562 216.617188 207.339844 L 216.449219 206.96875 C 211.375 195.730469 206.054688 184.625 200.609375 173.574219 C 190.4375 153.15625 179.898438 132.890625 168.933594 112.855469 C 169.914062 112.488281 170.890625 112.109375 171.863281 111.722656 C 178.410156 109.128906 184.957031 106.1875 191.347656 103.121094 C 191.515625 105.722656 192.167969 108.316406 193.203125 110.691406 C 198.675781 122.917969 213.703125 127.871094 225.515625 121.640625 C 231.984375 118.359375 236.738281 111.890625 237.816406 104.703125 C 238.359375 101.765625 238.171875 98.664062 237.375 95.714844 C 237.605469 95.625 237.835938 95.53125 238.0625 95.433594 C 246.210938 91.730469 249.320312 81.238281 245.757812 73.210938 Z M 116.859375 44.300781 C 117.5625 43.351562 118.609375 41.929688 119.652344 40.5 C 140.53125 85.421875 163.648438 129.371094 188.855469 172.039062 L 184.351562 176.546875 C 179.179688 166.816406 173.902344 156.914062 169.703125 149.015625 C 156.183594 123.746094 139.925781 93.730469 126.1875 68.574219 L 115.179688 48.53125 C 114.984375 48.15625 114.738281 47.816406 114.457031 47.496094 C 115.265625 46.429688 116.066406 45.367188 116.859375 44.300781 Z M 201.683594 209.390625 C 201.492188 209.027344 201.101562 208.28125 200.617188 207.355469 L 207.957031 207.355469 C 205.863281 208.019531 203.761719 208.707031 201.683594 209.390625 Z M 199.394531 205.023438 C 198.492188 203.296875 197.542969 201.496094 196.992188 200.441406 L 206.054688 200.441406 C 207.007812 201.972656 207.964844 203.5 208.921875 205.023438 Z M 195.765625 198.105469 C 194.992188 196.636719 194.1875 195.101562 193.351562 193.519531 L 201.792969 193.519531 C 202.730469 195.050781 203.664062 196.578125 204.609375 198.105469 Z M 192.117188 191.191406 C 191.324219 189.691406 190.515625 188.164062 189.691406 186.609375 L 197.566406 186.609375 C 198.496094 188.140625 199.429688 189.664062 200.359375 191.191406 Z M 188.457031 184.273438 C 187.652344 182.761719 186.84375 181.230469 186.019531 179.691406 L 193.398438 179.691406 C 194.316406 181.21875 195.242188 182.746094 196.160156 184.273438 Z M 192 177.355469 L 186.835938 177.355469 L 190.082031 174.109375 C 190.722656 175.191406 191.355469 176.273438 192 177.355469 Z M 65.289062 170.410156 C 64.863281 165.226562 64.027344 160.109375 62.835938 155.050781 C 64.542969 153.84375 66.222656 152.578125 67.851562 151.234375 C 68.660156 150.558594 69.457031 149.871094 70.242188 149.171875 C 69.90625 156.515625 70.003906 163.878906 70.554688 171.210938 C 68.8125 170.871094 67.054688 170.609375 65.289062 170.410156 Z M 102.835938 258.042969 C 102.066406 256.472656 100.113281 252.464844 100.113281 252.464844 C 95.015625 242.332031 90.445312 231.765625 87.113281 220.914062 C 70.269531 168.390625 78.378906 108.679688 109.164062 62.933594 C 109.296875 62.738281 109.464844 62.480469 109.644531 62.207031 C 122.195312 85.570312 136.507812 111.917969 148.785156 134.359375 C 157.464844 150.191406 167.03125 167.53125 176.441406 184.453125 L 170.808594 190.089844 C 167.816406 193.085938 167.453125 197.742188 169.9375 201.164062 L 174.847656 207.929688 C 176.023438 209.546875 176.347656 211.644531 175.71875 213.539062 L 167.390625 238.769531 C 166.546875 241.324219 164.171875 243.039062 161.488281 243.039062 L 101.4375 243.039062 C 100.792969 243.039062 100.273438 243.5625 100.273438 244.207031 C 100.273438 244.851562 100.792969 245.371094 101.4375 245.371094 L 161.484375 245.371094 C 165.179688 245.371094 168.441406 243.011719 169.601562 239.503906 L 177.933594 214.269531 C 178.796875 211.664062 178.34375 208.78125 176.730469 206.558594 L 171.820312 199.792969 C 170.011719 197.300781 170.277344 193.914062 172.457031 191.738281 L 177.617188 186.570312 C 182.425781 195.210938 187.171875 203.714844 191.734375 211.835938 C 190.3125 214.085938 188.640625 216.730469 187.695312 218.417969 C 186.113281 221.382812 184.9375 224.558594 184.183594 227.824219 C 182.0625 237.296875 183.734375 247.042969 188.726562 255.339844 C 181.832031 255.496094 172.203125 255.71875 172.203125 255.71875 C 149.941406 256.3125 125.039062 257.074219 102.835938 258.042969 Z M 226.414062 82.628906 C 225.324219 82.167969 224.308594 83.546875 225.078125 84.457031 C 227.320312 87.390625 228.734375 90.496094 229.203125 93.652344 C 229.464844 94.941406 229.484375 96.359375 229.449219 97.667969 C 229.128906 102.777344 226.4375 107.617188 222.113281 110.363281 C 215.632812 114.484375 206.960938 112.992188 202.085938 107.042969 C 197.839844 102.046875 197.136719 95.042969 199.214844 88.871094 C 199.574219 87.78125 198.191406 86.871094 197.335938 87.65625 C 195.851562 88.976562 194.59375 90.605469 193.617188 92.433594 C 193.359375 92.351562 193.089844 92.261719 193.089844 92.261719 C 187.351562 90.519531 183.957031 84.160156 186.042969 78.507812 C 187.488281 74.34375 191.492188 71.449219 195.957031 71.121094 C 200.246094 70.78125 204.46875 72.683594 207.5625 76.042969 C 208.320312 76.933594 209.824219 76.246094 209.609375 75.0625 C 208.671875 69.945312 204.652344 65.660156 199.71875 63.703125 C 199.769531 63.078125 199.839844 62.457031 199.921875 61.851562 C 200.855469 56.140625 204.445312 51.019531 209.613281 48.695312 C 220.296875 44.078125 230.675781 51.578125 232.242188 62.523438 C 228.5 61.933594 224.597656 62.671875 221.269531 65.164062 C 220.691406 65.75 219.875 66.191406 219.671875 67.019531 C 219.558594 67.691406 220.011719 68.328125 220.683594 68.4375 C 221.652344 68.589844 222.832031 68.722656 223.769531 68.917969 C 228.753906 69.945312 233.175781 73.246094 235.039062 77.769531 C 236.726562 81.78125 236.425781 85.941406 234.761719 89.746094 C 232.738281 86.570312 229.890625 83.988281 226.414062 82.628906 Z M 226.414062 82.628906 " fill-opacity="1" fill-rule="nonzero"/></g><path fill="#000000" d="M 116.609375 231.921875 C 116.738281 232.113281 116.890625 232.238281 117.054688 232.316406 C 117.203125 232.421875 117.386719 232.496094 117.605469 232.519531 C 123.023438 232.949219 128.445312 233.296875 133.867188 233.597656 C 139.285156 233.902344 144.703125 234.160156 150.128906 234.390625 C 151.480469 234.445312 152.765625 233.601562 153.207031 232.246094 C 155.085938 226.410156 156.910156 220.5625 158.707031 214.707031 C 159.03125 213.730469 158.867188 212.59375 158.339844 211.652344 C 150.707031 196.058594 142.027344 179.167969 133.945312 163.730469 C 127.738281 151.9375 121.304688 139.902344 114.890625 128.195312 C 112.714844 124.230469 110.5625 120.246094 108.347656 116.296875 C 106.007812 112.058594 99.597656 112.585938 97.988281 117.183594 C 96.78125 120.460938 95.410156 124.613281 94.339844 127.9375 C 94 129.265625 93.203125 132.234375 92.867188 133.5625 C 92.554688 134.726562 91.960938 138.066406 91.683594 139.242188 C 91.273438 141.339844 90.988281 143.820312 90.660156 145.933594 C 90.242188 150.101562 89.929688 154.273438 89.902344 158.453125 C 89.980469 160.683594 89.9375 163.953125 90.175781 166.152344 L 90.464844 169.984375 C 90.464844 169.984375 90.96875 173.796875 90.96875 173.796875 C 92.691406 186.445312 96.75 198.734375 102.765625 209.894531 C 107.070312 217.476562 111.847656 224.648438 116.609375 231.921875 Z M 137.402344 192.441406 C 137.96875 193.425781 138.542969 194.40625 139.113281 195.390625 C 137.125 195.949219 135.074219 196.589844 133.128906 197.261719 C 132.128906 194.820312 131.0625 192.414062 129.953125 190.035156 C 125.542969 180.679688 120.464844 171.660156 114.589844 163.152344 C 116.039062 162.015625 117.46875 160.855469 118.859375 159.648438 C 124.984375 170.671875 131.183594 181.652344 137.402344 192.441406 Z M 100.847656 179.867188 C 100.714844 178.640625 100.34375 175.785156 100.253906 174.59375 C 100.183594 173.457031 99.996094 170.484375 99.925781 169.308594 C 99.914062 167.289062 99.78125 164.246094 99.894531 162.265625 C 99.992188 157.335938 100.511719 152.261719 101.238281 147.402344 C 101.628906 145.503906 101.964844 143.265625 102.394531 141.382812 C 102.859375 139.441406 103.523438 136.46875 104.128906 134.601562 L 104.492188 133.371094 C 108.386719 140.585938 112.332031 147.828125 116.324219 155.054688 C 115.597656 155.265625 114.875 155.484375 114.152344 155.707031 C 111.652344 156.503906 108.9375 157.441406 106.507812 158.382812 C 104.570312 159.125 103.601562 161.296875 104.339844 163.234375 C 104.339844 163.234375 104.757812 164.332031 104.757812 164.332031 C 108.925781 175.140625 114.21875 185.441406 120.3125 195.28125 C 122.554688 198.878906 124.941406 202.425781 127.472656 205.859375 C 128.703125 207.539062 131.0625 207.902344 132.742188 206.671875 C 133.824219 205.878906 134.902344 205.074219 135.96875 204.25 C 137.871094 202.765625 139.765625 201.234375 141.585938 199.621094 C 144.457031 204.546875 147.347656 209.464844 150.273438 214.363281 C 149.285156 218.871094 148.3125 223.378906 147.371094 227.894531 C 137.675781 228.519531 127.988281 229.234375 118.316406 230.179688 C 114.355469 220.878906 109.660156 211.835938 106.226562 202.335938 C 105.371094 199.683594 104.300781 196.496094 103.640625 193.789062 C 102.957031 191.476562 102.367188 188.363281 101.828125 185.996094 C 101.515625 184.046875 101.089844 181.8125 100.847656 179.867188 Z M 100.847656 179.867188 " fill-opacity="1" fill-rule="nonzero"/></svg>