<svg width="70" height="70" viewBox="0 0 512 453" fill="none" xmlns="http://www.w3.org/2000/svg">
<path d="M408.276 78.5321H451.052C454.982 78.5301 458.869 77.7208 462.474 76.1542C466.078 74.5876 469.322 72.2972 472.004 69.425C474.687 66.5529 476.75 63.1602 478.067 59.4575C479.384 55.7548 479.926 51.821 479.66 47.9001C478.996 40.5356 475.576 33.6932 470.084 28.742C464.592 23.7907 457.434 21.0957 450.04 21.1961H408.276" fill="#81DAFC"/>
<path d="M451.056 82.5304H408.276C407.215 82.5304 406.198 82.109 405.447 81.3588C404.697 80.6087 404.276 79.5913 404.276 78.5304C404.276 77.4695 404.697 76.4521 405.447 75.702C406.198 74.9518 407.215 74.5304 408.276 74.5304H451.052C454.434 74.5219 457.779 73.8217 460.881 72.4728C463.982 71.1238 466.775 69.1547 469.088 66.6864C471.407 64.2238 473.189 61.3065 474.322 58.1192C475.454 54.9319 475.913 51.5441 475.668 48.1704C475.092 41.8111 472.128 35.906 467.374 31.6433C462.62 27.3805 456.428 25.0763 450.044 25.1944H408.276C407.215 25.1944 406.198 24.773 405.447 24.0228C404.697 23.2727 404.276 22.2553 404.276 21.1944C404.276 20.1335 404.697 19.1161 405.447 18.366C406.198 17.6158 407.215 17.1944 408.276 17.1944H450.04C458.45 17.0819 466.591 20.1585 472.825 25.8052C479.059 31.452 482.923 39.25 483.64 47.6304C483.963 52.0979 483.355 56.5837 481.854 60.8038C480.353 65.024 477.992 68.8864 474.92 72.1464C471.861 75.4139 468.166 78.0207 464.062 79.8065C459.958 81.5924 455.532 82.5193 451.056 82.5304Z" fill="#2F3A5A"/>
<path d="M409.244 60.655H296.444C295.27 60.6487 294.107 60.8773 293.023 61.3272C291.939 61.7772 290.956 62.4394 290.132 63.275C288.876 64.5222 288.019 66.1147 287.671 67.8501C287.323 69.5854 287.498 71.3852 288.175 73.0206C288.852 74.656 290 76.0531 291.473 77.0343C292.946 78.0155 294.678 78.5365 296.448 78.531H409.544C413.474 78.529 417.362 77.7197 420.966 76.1531C424.57 74.5865 427.814 72.2961 430.496 69.424C433.179 66.5518 435.242 63.1591 436.559 59.4564C437.876 55.7537 438.418 51.8199 438.152 47.899C437.488 40.5345 434.068 33.6921 428.577 28.7409C423.085 23.7896 415.926 21.0946 408.532 21.195H308.356C303.787 21.0489 299.326 22.6049 295.839 25.5612C292.352 28.5175 290.087 32.6635 289.484 37.195C288.384 51.575 296.776 60.683 307.732 60.683" fill="#81DAFC"/>
<path d="M409.544 82.5321H296.444C293.886 82.5334 291.385 81.7757 289.258 80.3549C287.132 78.9342 285.474 76.9142 284.496 74.5509C283.517 72.1875 283.263 69.587 283.763 67.0786C284.264 64.5703 285.497 62.2669 287.308 60.4601C288.529 59.2143 289.996 58.2362 291.616 57.5881C289.248 54.7292 287.484 51.4196 286.431 47.8596C285.379 44.2996 285.059 40.5631 285.492 36.8761C286.153 31.3315 288.867 26.2357 293.1 22.5929C297.332 18.9502 302.775 17.0248 308.356 17.1961H408.532C416.942 17.0835 425.083 20.1601 431.317 25.8069C437.551 31.4537 441.415 39.2516 442.132 47.6321C442.455 52.0995 441.847 56.5854 440.346 60.8055C438.845 65.0256 436.484 68.888 433.412 72.1481C430.353 75.416 426.657 78.0232 422.552 79.809C418.447 81.5948 414.02 82.5215 409.544 82.5321ZM296.444 64.6561C295.803 64.6502 295.167 64.7729 294.574 65.0168C293.981 65.2607 293.443 65.6208 292.992 66.0761C292.293 66.7611 291.815 67.6386 291.617 68.5969C291.419 69.5551 291.511 70.5505 291.882 71.4561C292.252 72.3617 292.884 73.1365 293.696 73.6814C294.509 74.2264 295.465 74.517 296.444 74.5161H409.54C412.922 74.5076 416.267 73.8074 419.369 72.4584C422.47 71.1095 425.263 69.1403 427.576 66.6721C429.895 64.2095 431.677 61.2922 432.81 58.1049C433.942 54.9176 434.401 51.5298 434.156 48.1561C433.58 41.7968 430.616 35.8917 425.862 31.6289C421.108 27.3662 414.916 25.062 408.532 25.1801H308.356C304.798 25.0446 301.315 26.2223 298.57 28.489C295.824 30.7557 294.008 33.9531 293.468 37.4721C293.116 40.1228 293.314 42.8177 294.049 45.3887C294.784 47.9597 296.04 50.3519 297.74 52.4161C299.012 53.7897 300.561 54.8779 302.285 55.6087C304.009 56.3396 305.868 56.6966 307.74 56.6561H409.252C410.313 56.6561 411.33 57.0775 412.08 57.8276C412.83 58.5778 413.252 59.5952 413.252 60.6561C413.252 61.7169 412.83 62.7344 412.08 63.4845C411.33 64.2346 410.313 64.6561 409.252 64.6561H296.444Z" fill="#2F3A5A"/>
<path d="M409.244 64.655C408.183 64.655 407.166 64.2335 406.415 63.4834C405.665 62.7333 405.244 61.7158 405.244 60.655C405.244 59.5941 405.665 58.5767 406.415 57.8265C407.166 57.0764 408.183 56.655 409.244 56.655C410.834 56.6838 412.386 56.1726 413.647 55.2048C414.909 54.237 415.804 52.8699 416.188 51.327C416.41 50.3318 416.406 49.2994 416.176 48.3061C415.945 47.3127 415.494 46.384 414.857 45.5885C414.219 44.793 413.41 44.1512 412.49 43.7106C411.571 43.27 410.564 43.0418 409.544 43.043H307.732C306.671 43.043 305.654 42.6215 304.904 41.8714C304.153 41.1213 303.732 40.1038 303.732 39.043C303.732 37.9821 304.153 36.9647 304.904 36.2145C305.654 35.4644 306.671 35.043 307.732 35.043H409.544C411.749 35.0419 413.927 35.5337 415.918 36.4823C417.908 37.4309 419.662 38.8124 421.05 40.5258C422.439 42.2392 423.426 44.2412 423.942 46.3854C424.457 48.5296 424.486 50.7619 424.028 52.919C423.291 56.2778 421.417 59.2795 418.724 61.4175C416.031 63.5555 412.682 64.699 409.244 64.655Z" fill="#2F3A5A"/>
<path d="M408.276 135.856H451.052C454.982 135.854 458.869 135.045 462.474 133.478C466.078 131.912 469.322 129.621 472.004 126.749C474.687 123.877 476.75 120.484 478.067 116.781C479.384 113.079 479.926 109.145 479.66 105.224C478.993 97.8617 475.572 91.0223 470.081 86.0735C464.589 81.1247 457.432 78.4314 450.04 78.532H408.276" fill="#FFC943"/>
<path d="M451.056 139.855H408.276C407.215 139.855 406.198 139.433 405.447 138.683C404.697 137.933 404.276 136.915 404.276 135.855C404.276 134.794 404.697 133.776 405.447 133.026C406.198 132.276 407.215 131.855 408.276 131.855H451.052C454.434 131.846 457.779 131.146 460.881 129.797C463.982 128.448 466.775 126.479 469.088 124.011C471.407 121.548 473.189 118.631 474.322 115.444C475.455 112.256 475.913 108.868 475.668 105.495C475.092 99.1353 472.128 93.2302 467.374 88.9675C462.62 84.7047 456.428 82.4005 450.044 82.5186H408.276C407.215 82.5186 406.198 82.0972 405.447 81.347C404.697 80.5969 404.276 79.5795 404.276 78.5186C404.276 77.4577 404.697 76.4403 405.447 75.6902C406.198 74.94 407.215 74.5186 408.276 74.5186H450.04C458.45 74.4061 466.591 77.4827 472.825 83.1294C479.059 88.7762 482.923 96.5742 483.64 104.955C483.962 109.422 483.354 113.908 481.853 118.128C480.352 122.348 477.991 126.21 474.92 129.471C471.861 132.738 468.166 135.345 464.062 137.131C459.958 138.917 455.532 139.844 451.056 139.855Z" fill="#2F3A5A"/>
<path d="M409.244 117.991H296.444C295.27 117.985 294.107 118.213 293.023 118.663C291.939 119.113 290.956 119.776 290.132 120.611C288.88 121.859 288.027 123.45 287.681 125.183C287.335 126.916 287.511 128.712 288.187 130.345C288.863 131.978 290.009 133.373 291.479 134.354C292.949 135.335 294.677 135.857 296.444 135.855H409.54C413.47 135.853 417.357 135.044 420.962 133.477C424.566 131.911 427.81 129.62 430.492 126.748C433.175 123.876 435.238 120.483 436.555 116.781C437.872 113.078 438.414 109.144 438.148 105.223C437.484 97.8587 434.064 91.0163 428.572 86.0651C423.08 81.1138 415.922 78.4188 408.528 78.5192H308.356C303.787 78.3731 299.326 79.9291 295.839 82.8854C292.352 85.8417 290.087 89.9877 289.484 94.5192C288.384 108.899 296.776 118.007 307.732 118.007" fill="#FFC943"/>
<path d="M409.544 139.854H296.444C293.886 139.856 291.385 139.098 289.258 137.677C287.132 136.256 285.474 134.236 284.496 131.873C283.517 129.51 283.263 126.909 283.763 124.401C284.264 121.893 285.497 119.589 287.308 117.782C288.529 116.537 289.996 115.559 291.616 114.91C289.248 112.051 287.484 108.742 286.431 105.182C285.379 101.622 285.059 97.8854 285.492 94.1983C286.153 88.6537 288.867 83.5579 293.1 79.9152C297.332 76.2725 302.775 74.347 308.356 74.5183H408.532C416.942 74.4058 425.083 77.4824 431.317 83.1292C437.551 88.7759 441.415 96.5739 442.132 104.954C442.454 109.422 441.846 113.907 440.345 118.128C438.844 122.348 436.483 126.21 433.412 129.47C430.353 132.738 426.657 135.345 422.552 137.131C418.447 138.917 414.02 139.844 409.544 139.854ZM296.444 121.99C295.803 121.985 295.167 122.107 294.574 122.351C293.981 122.595 293.443 122.955 292.992 123.41C292.294 124.096 291.816 124.974 291.618 125.932C291.421 126.89 291.513 127.886 291.883 128.791C292.254 129.697 292.885 130.472 293.697 131.017C294.509 131.563 295.466 131.854 296.444 131.854H409.54C412.922 131.846 416.267 131.146 419.369 129.797C422.47 128.448 425.263 126.479 427.576 124.01C429.895 121.548 431.678 118.631 432.81 115.443C433.943 112.256 434.401 108.868 434.156 105.494C433.58 99.1351 430.616 93.23 425.862 88.9672C421.108 84.7044 414.916 82.4003 408.532 82.5183H308.356C304.798 82.3828 301.315 83.5606 298.57 85.8273C295.824 88.094 294.008 91.2913 293.468 94.8103C293.116 97.4611 293.314 100.156 294.049 102.727C294.784 105.298 296.04 107.69 297.74 109.754C299.012 111.128 300.561 112.216 302.285 112.947C304.009 113.678 305.868 114.035 307.74 113.994H409.252C410.313 113.994 411.33 114.416 412.08 115.166C412.83 115.916 413.252 116.933 413.252 117.994C413.252 119.055 412.83 120.073 412.08 120.823C411.33 121.573 410.313 121.994 409.252 121.994L296.444 121.99Z" fill="#2F3A5A"/>
<path d="M409.244 121.991C408.183 121.991 407.166 121.569 406.415 120.819C405.665 120.069 405.244 119.052 405.244 117.991C405.244 116.93 405.665 115.913 406.415 115.162C407.166 114.412 408.183 113.991 409.244 113.991C410.834 114.02 412.386 113.509 413.647 112.541C414.909 111.573 415.804 110.206 416.188 108.663C416.41 107.668 416.406 106.635 416.176 105.642C415.945 104.649 415.494 103.72 414.857 102.924C414.219 102.129 413.41 101.487 412.49 101.047C411.571 100.606 410.564 100.378 409.544 100.379H307.732C306.671 100.379 305.654 99.9575 304.904 99.2073C304.153 98.4572 303.732 97.4398 303.732 96.3789C303.732 95.318 304.153 94.3006 304.904 93.5505C305.654 92.8003 306.671 92.3789 307.732 92.3789H409.544C411.749 92.3778 413.927 92.8696 415.918 93.8182C417.908 94.7668 419.662 96.1483 421.05 97.8617C422.439 99.5751 423.426 101.577 423.942 103.721C424.457 105.866 424.486 108.098 424.028 110.255C423.291 113.614 421.417 116.615 418.724 118.753C416.031 120.891 412.682 122.035 409.244 121.991Z" fill="#2F3A5A"/>
<path d="M366.344 146.752L124.52 426.284C123.775 427.083 123.199 428.024 122.826 429.051C122.453 430.078 122.291 431.169 122.349 432.26C122.407 433.351 122.684 434.419 123.164 435.4C123.644 436.382 124.316 437.256 125.142 437.972C125.967 438.688 126.928 439.23 127.968 439.566C129.007 439.902 130.104 440.025 131.192 439.928C132.28 439.831 133.337 439.515 134.301 439.001C135.264 438.486 136.114 437.782 136.8 436.932L387.848 146.752H366.344Z" fill="#C8CBD2"/>
<path d="M130.652 443.732C128.328 443.729 126.054 443.058 124.1 441.8C122.147 440.542 120.595 438.749 119.631 436.635C118.667 434.521 118.33 432.174 118.66 429.874C118.991 427.574 119.975 425.417 121.496 423.66L364.516 142.752H396.6L139.844 439.552C138.806 440.761 137.538 441.751 136.114 442.466C134.689 443.181 133.138 443.606 131.548 443.716C131.248 443.732 130.944 443.732 130.652 443.732ZM368.172 150.744L127.544 428.904C127.188 429.314 126.917 429.79 126.746 430.305C126.575 430.82 126.506 431.364 126.545 431.905C126.584 432.446 126.73 432.975 126.973 433.46C127.217 433.945 127.553 434.377 127.964 434.732C128.793 435.448 129.871 435.808 130.964 435.732C131.505 435.695 132.033 435.55 132.518 435.307C133.003 435.064 133.434 434.727 133.788 434.316L379.096 150.752L368.172 150.744Z" fill="#2F3A5A"/>
<path d="M138.768 400.691L118.192 425.583C116.996 427.029 116.098 428.696 115.546 430.49C114.995 432.283 114.803 434.167 114.98 436.035C115.157 437.902 115.701 439.717 116.579 441.374C117.458 443.032 118.654 444.5 120.1 445.695C121.546 446.891 123.213 447.79 125.006 448.341C126.799 448.892 128.684 449.084 130.551 448.907C132.419 448.73 134.233 448.187 135.891 447.308C137.548 446.43 139.017 445.233 140.212 443.787L160.788 418.895L138.768 400.691Z" fill="#9297AB"/>
<path d="M129.2 452.964C125.732 452.963 122.337 451.976 119.409 450.118C116.481 448.259 114.143 445.607 112.666 442.469C111.19 439.331 110.637 435.838 111.071 432.398C111.506 428.958 112.91 425.712 115.12 423.04L135.7 398.148C136.376 397.331 137.348 396.816 138.403 396.715C139.458 396.615 140.51 396.937 141.328 397.612L163.352 415.816C163.757 416.15 164.092 416.562 164.338 417.026C164.585 417.49 164.737 417.998 164.787 418.521C164.836 419.044 164.783 419.572 164.629 420.074C164.474 420.576 164.223 421.043 163.888 421.448L143.308 446.34C141.591 448.417 139.436 450.088 136.997 451.233C134.557 452.379 131.895 452.97 129.2 452.964ZM139.316 406.324L121.268 428.132C119.547 430.237 118.73 432.938 118.994 435.644C119.259 438.35 120.584 440.841 122.68 442.573C124.775 444.305 127.471 445.137 130.179 444.887C132.886 444.638 135.385 443.326 137.128 441.24L155.156 419.432L139.316 406.324Z" fill="#2F3A5A"/>
<path d="M145.656 146.752H124.152L375.2 436.932C375.896 437.75 376.746 438.422 377.703 438.909C378.66 439.396 379.703 439.689 380.774 439.771C381.844 439.853 382.92 439.722 383.94 439.386C384.959 439.05 385.902 438.515 386.714 437.813C387.526 437.111 388.191 436.254 388.67 435.294C389.15 434.333 389.434 433.287 389.507 432.216C389.58 431.145 389.441 430.07 389.096 429.053C388.752 428.037 388.209 427.098 387.5 426.292L145.656 146.752Z" fill="#C8CBD2"/>
<path d="M381.348 443.73C381.052 443.73 380.756 443.73 380.456 443.698C378.866 443.588 377.314 443.163 375.889 442.448C374.464 441.733 373.195 440.743 372.156 439.534L115.404 142.734H147.488L390.508 423.65C392.029 425.407 393.013 427.564 393.344 429.864C393.674 432.164 393.337 434.511 392.373 436.625C391.409 438.74 389.857 440.532 387.904 441.79C385.95 443.049 383.676 443.719 381.352 443.722L381.348 443.73ZM132.904 150.75L378.208 434.306C378.563 434.717 378.995 435.054 379.48 435.297C379.966 435.54 380.495 435.685 381.036 435.722C382.129 435.797 383.207 435.438 384.036 434.722C384.446 434.368 384.782 433.936 385.025 433.451C385.268 432.966 385.414 432.438 385.453 431.897C385.492 431.357 385.424 430.813 385.253 430.299C385.082 429.784 384.811 429.308 384.456 428.898L143.828 150.75H132.904Z" fill="#2F3A5A"/>
<path d="M373.232 400.691L393.808 425.583C395.003 427.029 395.902 428.696 396.453 430.49C397.004 432.283 397.197 434.167 397.02 436.035C396.843 437.902 396.299 439.717 395.421 441.374C394.542 443.032 393.346 444.5 391.9 445.695C390.454 446.891 388.787 447.79 386.994 448.341C385.201 448.892 383.316 449.084 381.449 448.907C379.581 448.73 377.767 448.187 376.109 447.308C374.451 446.43 372.983 445.233 371.788 443.787L351.2 418.895L373.232 400.691Z" fill="#9297AB"/>
<path d="M382.8 452.964C380.105 452.97 377.443 452.379 375.003 451.233C372.564 450.088 370.409 448.417 368.692 446.34L348.112 421.448C347.777 421.043 347.526 420.576 347.371 420.074C347.217 419.572 347.164 419.044 347.213 418.521C347.263 417.998 347.415 417.49 347.662 417.026C347.908 416.562 348.243 416.15 348.648 415.816L370.672 397.612C371.49 396.937 372.542 396.615 373.597 396.715C374.652 396.816 375.624 397.331 376.3 398.148L396.88 423.04C399.091 425.712 400.496 428.958 400.932 432.399C401.367 435.84 400.814 439.334 399.337 442.472C397.861 445.61 395.522 448.264 392.593 450.122C389.665 451.981 386.268 452.964 382.8 452.964ZM356.828 419.436L374.856 441.244C376.599 443.33 379.098 444.642 381.805 444.891C384.512 445.141 387.209 444.309 389.304 442.577C391.4 440.845 392.725 438.354 392.989 435.648C393.254 432.942 392.437 430.241 390.716 428.136L372.684 406.328L356.828 419.436Z" fill="#2F3A5A"/>
<path d="M4.01611 135.855H507.992V163.795H4.01611V135.855Z" fill="#E1B378"/>
<path d="M508 135.855V163.783H4V151.507H492.768V135.855H508Z" fill="#BD8D5A"/>
<path d="M508 167.795H4C2.93913 167.795 1.92172 167.374 1.17157 166.624C0.421427 165.874 0 164.856 0 163.795V135.855C0 134.795 0.421427 133.777 1.17157 133.027C1.92172 132.277 2.93913 131.855 4 131.855H508C509.061 131.855 510.078 132.277 510.828 133.027C511.579 133.777 512 134.795 512 135.855V163.795C512 164.856 511.579 165.874 510.828 166.624C510.078 167.374 509.061 167.795 508 167.795ZM8 159.795H504V139.855H8V159.795Z" fill="#2F3A5A"/>
<path d="M39.856 117.352H95.74V135.856H39.856V117.352Z" fill="#9297AB"/>
<path d="M95.7441 139.856H39.8601C38.7992 139.856 37.7818 139.435 37.0317 138.684C36.2815 137.934 35.8601 136.917 35.8601 135.856V117.332C35.8601 116.271 36.2815 115.254 37.0317 114.504C37.7818 113.753 38.7992 113.332 39.8601 113.332H95.7441C96.805 113.332 97.8224 113.753 98.5725 114.504C99.3227 115.254 99.7441 116.271 99.7441 117.332V135.836C99.7467 136.363 99.6452 136.885 99.4454 137.373C99.2455 137.861 98.9513 138.304 98.5796 138.677C98.2079 139.051 97.7661 139.347 97.2795 139.55C96.7929 139.752 96.2711 139.856 95.7441 139.856ZM43.8601 131.856H91.7441V121.332H43.8601V131.856Z" fill="#2F3A5A"/>
<path d="M100.7 120.532C105.632 99.9158 105.199 78.3794 99.4396 57.9786C93.6806 37.5779 82.7888 18.9936 67.8039 4C52.8175 18.9928 41.9242 37.5767 36.1639 57.9775C30.4035 78.3783 29.9683 99.9151 34.8999 120.532H100.7Z" fill="#D9E2E9"/>
<path d="M100.7 124.531H34.9039C34.0032 124.531 33.1288 124.227 32.4225 123.668C31.7161 123.109 31.2191 122.328 31.0119 121.451C25.8654 100.174 26.2865 77.9295 32.2347 56.8622C38.1828 35.7949 49.4575 16.615 64.9719 1.17115C65.722 0.421262 66.7393 0 67.7999 0C68.8606 0 69.8778 0.421262 70.6279 1.17115C86.1424 16.615 97.417 35.7949 103.365 56.8622C109.313 77.9295 109.734 100.174 104.588 121.451C104.381 122.327 103.884 123.108 103.179 123.667C102.473 124.225 101.6 124.53 100.7 124.531ZM38.1079 116.531H97.4959C101.544 97.6581 100.957 78.0852 95.7856 59.4886C90.6144 40.8919 81.0132 23.8256 67.8039 9.75114C54.5924 23.8243 44.9891 40.8902 39.8165 59.4871C34.644 78.0839 34.0563 97.6575 38.1039 116.531H38.1079Z" fill="#2F3A5A"/>
</svg>
