<svg width="80" height="80" viewBox="0 0 1110 373" fill="none" xmlns="http://www.w3.org/2000/svg">
<path fill-rule="evenodd" clip-rule="evenodd" d="M202.556 263.259C200.609 280.152 190.87 293.682 175.785 300.456C167.385 304.23 156.105 306.268 147.177 305.628C133.249 305.068 120.164 301.508 108.103 295C103.794 292.673 97.3707 288.029 92.4384 283.678C91.1892 282.579 91.0408 281.874 91.8674 280.642C92.3138 279.934 93.1366 278.658 94.9557 275.857C97.5938 271.794 97.923 271.285 98.2197 270.808C99.0638 269.446 100.435 269.328 101.788 270.447C101.93 270.563 101.93 270.563 102.037 270.651C102.259 270.832 102.259 270.832 102.783 271.26C103.313 271.694 103.627 271.95 103.754 272.05C116.762 282.758 131.911 288.934 147.206 289.551C168.484 289.247 183.786 279.19 186.528 263.749C189.542 246.754 176.85 232.074 152.018 223.891C144.252 221.332 124.621 213.073 121.002 210.842C104.005 200.359 96.0578 186.629 97.1874 169.67C98.9179 146.162 119.68 128.629 145.915 128.511C157.647 128.486 169.354 131.049 180.602 136.03C184.584 137.795 191.694 141.861 194.149 143.788C195.563 144.879 195.842 146.151 195.032 147.524C194.579 148.319 193.831 149.581 192.254 152.211L192.236 152.24C190.161 155.704 190.096 155.812 189.619 156.622C188.797 157.939 187.829 158.062 186.345 157.072C174.31 148.574 160.969 144.299 146.295 143.99C128.028 144.37 114.335 155.797 113.435 171.364C113.196 185.424 123.229 195.689 144.9 203.515C188.89 218.374 205.724 235.794 202.556 263.259ZM148.229 20.5391C176.869 20.5391 200.213 49.1064 201.306 84.8667H95.1539C96.2461 49.1064 119.591 20.5391 148.229 20.5391ZM296.448 91.5899C296.448 87.8766 293.603 84.8667 290.095 84.8667H221.29C219.602 37.6499 187.537 0 148.229 0C108.922 0 76.8575 37.6499 75.1693 84.8667L6.2663 84.868C2.81149 84.934 0.0299289 87.9188 0.0299289 91.5899C0.0299289 91.7654 0.0361802 91.9396 0.0486239 92.1111H0L9.8221 319.69C9.82335 320.324 9.84576 320.962 9.89068 321.605C9.90067 321.75 9.91188 321.894 9.9231 322.038L9.94431 322.518L9.96797 322.543C11.4604 338.379 22.3946 351.134 37.2624 351.723L37.296 351.757H255.862C255.965 351.759 256.069 351.76 256.172 351.76C256.276 351.76 256.379 351.759 256.483 351.757H256.948L256.958 351.748C272.085 351.314 284.338 338.381 285.632 322.349L285.64 322.341L285.65 322.126C285.662 321.957 285.674 321.79 285.684 321.621C285.708 321.217 285.724 320.815 285.73 320.415L296.447 91.937H296.44C296.446 91.8222 296.448 91.706 296.448 91.5899ZM1025.09 239.913C1029.3 225.475 1042.03 215.85 1056.89 215.85C1071.07 215.85 1084.58 225.974 1089.24 239.886L1089.56 240.842H1024.82L1025.09 239.913ZM1103.97 260.83C1104.06 260.834 1104.06 260.834 1104.19 260.836C1104.32 260.834 1104.32 260.834 1104.45 260.83C1107.55 260.681 1110 257.903 1110 254.523C1110 254.359 1109.99 254.218 1109.98 253.991C1109.98 253.95 1109.98 253.867 1109.98 253.601C1109.98 221.715 1086.2 195.875 1056.87 195.875C1027.54 195.875 1003.76 221.715 1003.76 253.601C1003.76 255.978 1003.89 258.349 1004.16 260.705L1004.17 260.831L1004.26 261.453C1005.72 272.926 1010.37 283.456 1017.73 291.976C1017.73 291.972 1017.73 291.98 1017.77 292.025C1025.93 301.459 1037 307.888 1049.28 310.293L1049.44 310.325V310.308L1050.24 310.448C1050.65 310.521 1051.08 310.593 1051.66 310.688C1067.83 312.731 1082.16 310.282 1094.31 303.855C1097.29 302.272 1099.98 300.524 1102.31 298.679C1103.06 298.085 1103.74 297.51 1104.32 296.971C1104.62 296.694 1104.86 296.46 1104.99 296.326C1107.73 293.359 1107.9 292.307 1106.24 289.599C1104.42 286.555 1102.82 283.962 1101.44 281.815C1100.96 281.064 1100.54 280.423 1100.19 279.892C1100 279.599 1100 279.599 1099.87 279.415C1099.83 279.343 1099.83 279.343 1099.79 279.297L1099.77 279.273C1098.28 277.316 1097.25 277.136 1095.59 278.678C1095.41 278.843 1094.82 279.323 1094.71 279.442C1083.03 290.344 1067.08 293.852 1051.16 290.348C1048.19 289.511 1045.42 288.448 1042.86 287.164C1032.88 281.905 1025.81 272.534 1023.77 261.687L1023.61 260.83L1103.97 260.83ZM898.702 239.913C902.914 225.475 915.647 215.85 930.505 215.85C944.688 215.85 958.191 225.974 962.857 239.886L963.176 240.842H898.431L898.702 239.913ZM977.586 260.83C977.674 260.834 977.674 260.834 977.802 260.836C977.93 260.834 977.93 260.834 978.061 260.83C981.16 260.681 983.614 257.903 983.614 254.523C983.614 254.359 983.609 254.218 983.596 253.991C983.599 253.95 983.599 253.867 983.599 253.601C983.599 221.715 959.817 195.875 930.486 195.875C901.158 195.875 877.374 221.715 877.374 253.601C877.374 255.978 877.507 258.349 877.771 260.705L877.789 260.831L877.871 261.453C879.332 272.926 883.989 283.456 891.344 291.976C891.341 291.972 891.348 291.98 891.385 292.025C899.541 301.459 910.614 307.888 922.895 310.293L923.055 310.325V310.308L923.853 310.448C924.263 310.521 924.696 310.593 925.276 310.688C941.441 312.731 955.779 310.282 967.919 303.855C970.909 302.272 973.597 300.524 975.926 298.679C976.675 298.085 977.35 297.51 977.933 296.971C978.233 296.694 978.473 296.46 978.6 296.326C981.339 293.359 981.51 292.307 979.857 289.599C978.038 286.555 976.432 283.962 975.056 281.815C974.576 281.064 974.157 280.423 973.805 279.892C973.609 279.599 973.609 279.599 973.486 279.415C973.439 279.343 973.44 279.343 973.405 279.297L973.393 279.273C971.895 277.316 970.871 277.136 969.21 278.678C969.033 278.843 968.441 279.323 968.333 279.442C956.655 290.344 940.703 293.852 924.776 290.348C921.81 289.511 919.036 288.448 916.481 287.164C906.502 281.905 899.433 272.534 897.393 261.687L897.231 260.83L977.586 260.83ZM802.246 292.624C782.492 292.624 766.336 276.162 765.84 255.532V253.59C766.331 232.993 782.492 216.529 802.246 216.529C822.357 216.529 838.661 233.563 838.661 254.576C838.661 275.589 822.357 292.624 802.246 292.624ZM802.258 196.344C789.302 196.344 776.922 200.983 766.972 209.49L765.842 210.456V199.809C765.842 196.97 765.261 196.344 762.527 196.344H749.811C747.042 196.344 746.495 196.923 746.495 199.809V369.535C746.495 372.323 747.114 373 749.811 373H762.527C765.235 373 765.842 372.338 765.842 369.535V298.754L766.972 299.721C776.923 308.229 789.303 312.867 802.258 312.867C833.054 312.867 858.019 286.782 858.019 254.605C858.019 222.429 833.054 196.344 802.258 196.344ZM671.304 291.323C651.152 291.323 634.816 274.439 634.816 253.604C634.816 232.77 651.153 215.884 671.304 215.884C691.453 215.884 707.79 232.77 707.79 253.604C707.79 274.437 691.454 291.323 671.304 291.323ZM671.316 195.875C640.459 195.875 615.448 221.735 615.448 253.633C615.448 285.53 640.459 311.391 671.316 311.391C702.172 311.391 727.18 285.53 727.18 253.633C727.18 221.735 702.173 195.875 671.316 195.875ZM546.776 197.158C535.512 197.158 524.612 200.964 515.569 207.999L514.469 208.855V130.03C514.469 127.418 513.654 126.565 511.169 126.565H497.859C495.171 126.565 494.557 127.241 494.557 130.03V309.848C494.557 312.571 495.22 313.316 497.859 313.316H511.169C513.638 313.316 514.469 312.421 514.469 309.848V251.114C514.608 232.625 529.034 217.701 546.776 217.701C564.563 217.701 579.006 232.698 579.081 251.248V309.848C579.081 312.823 579.552 313.315 582.383 313.315H595.661C598.475 313.315 598.963 312.809 598.963 309.848V251.076C598.857 221.429 575.337 197.158 546.776 197.158ZM361.313 280.699L361.282 280.749C359.384 283.771 358.589 285.042 358.145 285.772C356.649 288.113 356.835 289.156 359.119 291.186C364.451 295.704 371.306 300.449 375.93 302.826C388.796 309.439 402.693 312.933 417.419 313.25C426.932 313.754 438.88 311.376 447.777 307.206C463.884 299.654 474.143 284.934 475.941 266.804C478.853 237.427 460.668 219.062 413.827 204.262L413.815 204.258C391.99 196.86 381.739 187.025 381.735 173.293C382.377 158.117 395.765 146.779 413.827 146.071C428.376 146.109 441.24 150.171 453.879 158.72C456.544 160.419 457.773 160.106 459.565 157.662C459.771 157.301 460.344 156.427 462.74 152.811L462.747 152.799C464.984 149.421 465.721 148.294 465.904 147.96C467.414 144.974 467.198 143.823 464.473 141.792C461.789 139.771 454.228 135.636 449.905 133.822C437.88 128.779 425.448 126.33 413.075 126.583C384.917 127.226 362.957 146.475 361.509 171.726C360.591 189.966 369.398 204.632 387.799 215.475C392.958 218.338 411.819 225.832 420.623 228.542C445.655 236.247 458.706 250.421 456.009 267.144C453.56 282.338 438.414 292.443 417.16 293.134C401.747 292.797 386.218 286.86 372.735 276.21C372.667 276.158 372.325 275.891 371.695 275.397C370.809 274.703 370.809 274.703 370.677 274.599C367.928 272.604 366.311 272.77 364.633 275.398C364.43 275.724 362.342 279.06 361.313 280.699Z" fill="#EE4D2D"/>
</svg>
