<svg width="50" height="50" viewBox="0 0 496 369" fill="none" xmlns="http://www.w3.org/2000/svg">
<path d="M328 368.053H16C11.7565 368.053 7.68687 366.367 4.68629 363.366C1.68571 360.366 0 356.296 0 352.053V144.053C0 139.809 1.68571 135.74 4.68629 132.739C7.68687 129.738 11.7565 128.053 16 128.053H328V368.053Z" fill="#FEBD55"/>
<path d="M235.12 46.4529L73.92 0.612927C70.2594 -0.473088 66.321 -0.10633 62.9239 1.63694C59.5268 3.3802 56.9323 6.36582 55.68 9.97293L18 128.053H332.632L348.224 78.6689L235.12 46.4529Z" fill="#FC9E20"/>
<path d="M496 120.692L348.32 78.692L348.224 78.668L332.632 128.052H496V120.692Z" fill="#E03E3E"/>
<path d="M208 312.053C212.418 312.053 216 308.471 216 304.053C216 299.634 212.418 296.053 208 296.053C203.582 296.053 200 299.634 200 304.053C200 308.471 203.582 312.053 208 312.053Z" fill="#FF6161"/>
<path d="M176 264.053C180.418 264.053 184 260.471 184 256.053C184 251.634 180.418 248.053 176 248.053C171.582 248.053 168 251.634 168 256.053C168 260.471 171.582 264.053 176 264.053Z" fill="#FF6161"/>
<path d="M496 128.053H328V368.053H496V344.053L480 320.053L496 296.053L480 272.053L496 248.053L480 224.053L496 200.053L480 176.053L496 152.053V128.053Z" fill="#FF6161"/>
<path d="M16 128.053C11.7565 128.053 7.68687 129.738 4.68629 132.739C1.68571 135.74 0 139.809 0 144.053V352.053C0 356.296 1.68571 360.366 4.68629 363.366C7.68687 366.367 11.7565 368.053 16 368.053H328V309.477C146.328 283.461 16 212.133 16 128.053Z" fill="#FFAD39"/>
<path d="M328 309.477V368.053H496V344.053L480 320.053C429.147 320.125 378.353 316.591 328 309.477Z" fill="#E03E3E"/>
<path d="M496 128.053H480V152.053L464 176.053L480 200.053L464 224.053L480 248.053L464 272.053L480 296.053L464 320.053L480 344.053V368.053H496V344.053L480 320.053L496 296.053L480 272.053L496 248.053L480 224.053L496 200.053L480 176.053L496 152.053V128.053Z" fill="#E03E3E"/>
<path d="M324 128.053H332V144.053H324V128.053ZM324 160.053H332V176.053H324V160.053ZM324 192.053H332V208.053H324V192.053ZM324 224.053H332V240.053H324V224.053ZM324 256.053H332V272.053H324V256.053ZM324 288.053H332V304.053H324V288.053ZM324 320.053H332V336.053H324V320.053ZM324 352.053H332V368.053H324V352.053Z" fill="#2B2B37"/>
<path d="M420 240.053H396C390.706 240.019 385.638 237.901 381.895 234.158C378.151 230.414 376.034 225.347 376 220.053C376 214.748 378.107 209.661 381.858 205.911C385.609 202.16 390.696 200.053 396 200.053H432C434.122 200.053 436.157 199.21 437.657 197.71C439.157 196.209 440 194.174 440 192.053C440 189.931 439.157 187.896 437.657 186.396C436.157 184.896 434.122 184.053 432 184.053H416V176.053C416 173.931 415.157 171.896 413.657 170.396C412.157 168.896 410.122 168.053 408 168.053C405.878 168.053 403.843 168.896 402.343 170.396C400.843 171.896 400 173.931 400 176.053V184.053H396C386.455 184.063 377.305 187.86 370.556 194.609C363.807 201.358 360.011 210.508 360 220.053C360.036 229.59 363.84 238.725 370.584 245.469C377.327 252.213 386.463 256.017 396 256.053H420C425.304 256.053 430.391 258.16 434.142 261.911C437.893 265.661 440 270.748 440 276.053C439.966 281.347 437.849 286.414 434.105 290.158C430.362 293.901 425.294 296.019 420 296.053H384C381.878 296.053 379.843 296.896 378.343 298.396C376.843 299.896 376 301.931 376 304.053C376 306.174 376.843 308.209 378.343 309.71C379.843 311.21 381.878 312.053 384 312.053H400V320.053C400 322.174 400.843 324.209 402.343 325.71C403.843 327.21 405.878 328.053 408 328.053C410.122 328.053 412.157 327.21 413.657 325.71C415.157 324.209 416 322.174 416 320.053V312.053H420C429.538 312.021 438.676 308.218 445.421 301.474C452.165 294.729 455.968 285.591 456 276.053C455.989 266.508 452.193 257.358 445.444 250.609C438.695 243.86 429.545 240.063 420 240.053Z" fill="#FBFBFB"/>
<path d="M224 148.053H200C199.095 148.053 198.218 148.36 197.51 148.924C196.802 149.488 196.307 150.275 196.104 151.157L191.304 172.053H64.0001C63.4069 172.053 62.8211 172.184 62.2851 172.439C61.7491 172.693 61.2764 173.063 60.9011 173.523C60.5259 173.982 60.2576 174.519 60.1156 175.095C59.9736 175.671 59.9614 176.272 60.0801 176.853L76.0801 256.853C76.2645 257.756 76.7554 258.568 77.4698 259.151C78.1841 259.734 79.078 260.053 80.0001 260.053H184C187.183 260.053 190.235 261.317 192.485 263.567C194.736 265.818 196 268.87 196 272.053C196 275.235 194.736 278.288 192.485 280.538C190.235 282.788 187.183 284.053 184 284.053H72.0001C70.9392 284.053 69.9218 284.474 69.1717 285.224C68.4215 285.974 68.0001 286.992 68.0001 288.053V292.789C65.3312 293.732 63.0819 295.589 61.6496 298.031C60.2172 300.472 59.6942 303.342 60.1729 306.132C60.6516 308.922 62.1012 311.453 64.2654 313.277C66.4297 315.102 69.1693 316.102 72.0001 316.102C74.8308 316.102 77.5704 315.102 79.7347 313.277C81.899 311.453 83.3486 308.922 83.8273 306.132C84.3059 303.342 83.7829 300.472 82.3506 298.031C80.9183 295.589 78.6689 293.732 76.0001 292.789V292.053H172V292.789C169.331 293.732 167.082 295.589 165.65 298.031C164.217 300.472 163.694 303.342 164.173 306.132C164.652 308.922 166.101 311.453 168.265 313.277C170.43 315.102 173.169 316.102 176 316.102C178.831 316.102 181.57 315.102 183.735 313.277C185.899 311.453 187.349 308.922 187.827 306.132C188.306 303.342 187.783 300.472 186.351 298.031C184.918 295.589 182.669 293.732 180 292.789V292.053H184C189.304 292.053 194.391 289.946 198.142 286.195C201.893 282.444 204 277.357 204 272.053C204 266.748 201.893 261.661 198.142 257.911C194.391 254.16 189.304 252.053 184 252.053H181.032L203.184 156.053H224C225.061 156.053 226.078 155.631 226.829 154.881C227.579 154.131 228 153.114 228 152.053C228 150.992 227.579 149.974 226.829 149.224C226.078 148.474 225.061 148.053 224 148.053ZM72.0001 308.053C71.209 308.053 70.4356 307.818 69.7778 307.379C69.12 306.939 68.6073 306.314 68.3046 305.583C68.0018 304.853 67.9226 304.048 68.0769 303.272C68.2313 302.496 68.6122 301.784 69.1717 301.224C69.7311 300.665 70.4438 300.284 71.2197 300.13C71.9956 299.975 72.7999 300.054 73.5308 300.357C74.2617 300.66 74.8864 301.173 75.326 301.83C75.7655 302.488 76.0001 303.262 76.0001 304.053C76.0001 305.114 75.5787 306.131 74.8285 306.881C74.0784 307.631 73.0609 308.053 72.0001 308.053ZM176 308.053C175.209 308.053 174.436 307.818 173.778 307.379C173.12 306.939 172.607 306.314 172.305 305.583C172.002 304.853 171.923 304.048 172.077 303.272C172.231 302.496 172.612 301.784 173.172 301.224C173.731 300.665 174.444 300.284 175.22 300.13C175.996 299.975 176.8 300.054 177.531 300.357C178.262 300.66 178.886 301.173 179.326 301.83C179.765 302.488 180 303.262 180 304.053C180 305.114 179.579 306.131 178.829 306.881C178.078 307.631 177.061 308.053 176 308.053ZM68.8801 180.053H189.432L185.744 196.053H88.0001C86.9392 196.053 85.9218 196.474 85.1717 197.224C84.4215 197.974 84.0001 198.992 84.0001 200.053C84.0001 201.114 84.4215 202.131 85.1717 202.881C85.9218 203.631 86.9392 204.053 88.0001 204.053H183.896L178.352 228.053H88.0001C86.9392 228.053 85.9218 228.474 85.1717 229.224C84.4215 229.974 84.0001 230.992 84.0001 232.053C84.0001 233.114 84.4215 234.131 85.1717 234.881C85.9218 235.631 86.9392 236.053 88.0001 236.053H176.512L172.816 252.053H83.2801L68.8801 180.053Z" fill="#2B2B37"/>
<path d="M192 216.053C204.658 216.053 217.032 219.806 227.556 226.839C238.081 233.871 246.284 243.867 251.128 255.561C255.972 267.256 257.24 280.124 254.77 292.539C252.301 304.953 246.205 316.357 237.255 325.308C228.304 334.258 216.901 340.354 204.486 342.823C192.071 345.293 179.203 344.025 167.508 339.181C155.814 334.337 145.818 326.134 138.786 315.609C131.754 305.085 128 292.711 128 280.053C128.008 273.598 128.978 267.181 130.88 261.013C134.602 249.075 141.735 238.487 151.402 230.555C161.069 222.622 172.845 217.693 185.28 216.373C187.513 216.147 189.756 216.04 192 216.053Z" fill="#2B2B37"/>
<path d="M192 336.053C222.928 336.053 248 310.981 248 280.053C248 249.125 222.928 224.053 192 224.053C161.072 224.053 136 249.125 136 280.053C136 310.981 161.072 336.053 192 336.053Z" fill="#FF6161"/>
<path d="M208 312.053C212.418 312.053 216 308.471 216 304.053C216 299.634 212.418 296.053 208 296.053C203.582 296.053 200 299.634 200 304.053C200 308.471 203.582 312.053 208 312.053Z" fill="#FBFBFB"/>
<path d="M176 264.053C180.418 264.053 184 260.471 184 256.053C184 251.634 180.418 248.053 176 248.053C171.582 248.053 168 251.634 168 256.053C168 260.471 171.582 264.053 176 264.053Z" fill="#FBFBFB"/>
<path d="M160 316.053C159.208 316.054 158.433 315.821 157.774 315.381C157.115 314.942 156.601 314.316 156.298 313.585C155.994 312.853 155.915 312.047 156.07 311.271C156.225 310.494 156.607 309.78 157.168 309.221L221.168 245.221C221.919 244.47 222.938 244.048 224 244.048C225.062 244.048 226.081 244.47 226.832 245.221C227.583 245.972 228.005 246.991 228.005 248.053C228.005 249.115 227.583 250.134 226.832 250.885L162.832 314.885C162.46 315.256 162.018 315.55 161.532 315.751C161.046 315.951 160.526 316.054 160 316.053Z" fill="#FBFBFB"/>
<path d="M23.104 112.053L18 128.053H332.632L337.688 112.053H23.104Z" fill="#E68C15"/>
<path d="M337.688 112.053L332.632 128.053H496V120.693L465.624 112.053H337.688Z" fill="#CC2F2F"/>
<path d="M331.96 117.318L336.2 104.03L343.824 106.462L339.584 119.75L331.96 117.318ZM340.28 90.9336L344.528 77.6536L352.144 80.1016L347.896 93.3816L340.28 90.9336ZM251.576 68.7656L230.456 62.7656C229.615 62.5252 228.718 62.5672 227.903 62.8851C227.089 63.203 226.4 63.7792 225.944 64.5256L216.28 80.4216L104.536 48.6856C103.972 48.5298 103.382 48.4978 102.805 48.5917C102.227 48.6856 101.677 48.9032 101.192 49.2296C100.709 49.559 100.303 49.9906 100.005 50.4937C99.7062 50.9968 99.5217 51.5593 99.4641 52.1416L92.0161 127.662V128.054H100.016L106.952 57.6536L212 87.5176L205.04 98.9656L119.336 74.6056C118.316 74.3149 117.221 74.4415 116.294 74.9576C115.367 75.4737 114.683 76.337 114.392 77.3576C114.101 78.3781 114.228 79.4723 114.744 80.3995C115.26 81.3267 116.124 82.0109 117.144 82.3016L200.696 106.054L191.2 121.694L110.752 101.142C110.235 100.985 109.692 100.935 109.155 100.994C108.618 101.053 108.098 101.22 107.628 101.485C107.157 101.751 106.745 102.109 106.417 102.537C106.088 102.966 105.85 103.457 105.716 103.981C105.583 104.504 105.557 105.049 105.64 105.583C105.722 106.117 105.912 106.628 106.198 107.087C106.484 107.545 106.86 107.941 107.303 108.25C107.746 108.559 108.247 108.775 108.776 108.886L183.776 128.054H196.68L231.2 71.2936L249.392 76.4616C250.413 76.7522 251.507 76.6256 252.434 76.1095C253.361 75.5934 254.045 74.7301 254.336 73.7096C254.627 72.689 254.5 71.5948 253.984 70.6676C253.468 69.7404 252.605 69.0562 251.584 68.7656H251.576Z" fill="#222430"/>
</svg>
